<svg xmlns="http://www.w3.org/2000/svg" width="1000" height="268.895" version="1.2"><g fill="#242a36" stroke-linecap="square" stroke-linejoin="bevel"><path d="M190.575 127.063c1.963-.236 3.845-.242 5.571 0 1-2.296 1.173-6.249.275-10.551-1.34-6.4-3.146-10.272-6.884-9.67-3.738.603-3.878 5.238-2.538 11.638.752 3.598 2.092 6.68 3.581 8.583h-.005m-32.101 5.067c2.678 1.172 4.319 1.951 4.964 1.274.414-.425.29-1.232-.35-2.275-1.317-2.157-4.038-4.34-6.915-5.572-5.895-2.538-12.924-1.694-18.344 2.205-1.791 1.313-3.485 3.13-3.243 4.233.08.355.344.624.973.715 1.474.167 6.631-2.436 12.574-2.802 4.194-.258 7.668 1.054 10.341 2.227v-.006m-5.383 3.071c-3.485.549-5.405 1.7-6.642 2.77-1.054.92-1.704 1.936-1.7 2.65l.27.635.575.22c.785 0 2.55-.704 2.55-.704 4.85-1.737 8.05-1.527 11.218-1.167 1.753.2 2.581.307 2.963-.295.113-.172.253-.544-.097-1.114-.817-1.323-4.335-3.56-9.132-2.99l-.005-.005m26.647 11.272c2.367 1.162 4.97.705 5.82-1.022.849-1.726-.383-4.065-2.749-5.227s-4.969-.705-5.819 1.022c-.85 1.726.382 4.065 2.748 5.227m15.209-13.289c-1.92-.032-3.517 2.076-3.56 4.717-.043 2.635 1.479 4.797 3.399 4.829 1.92.032 3.517-2.076 3.56-4.711.043-2.635-1.479-4.797-3.399-4.835M65.84 180.713c-.478-.597-1.264-.414-2.022-.242-.532.124-1.135.263-1.79.253-1.415-.027-2.614-.63-3.287-1.662-.876-1.344-.822-3.35.14-5.647l.452-1.027c1.543-3.458 4.12-9.25 1.226-14.762-2.178-4.152-5.738-6.739-10.013-7.282-4.104-.522-8.33 1-11.025 3.974-4.254 4.69-4.916 11.073-4.093 13.332.301.828.775 1.054 1.114 1.103.726.096 1.79-.43 2.463-2.232l.193-.586c.301-.952.855-2.727 1.764-4.152a7.545 7.545 0 014.819-3.33 7.724 7.724 0 015.883 1.098c2.98 1.952 4.125 5.598 2.856 9.083-.656 1.802-1.727 5.244-1.49 8.072.479 5.728 4.001 8.03 7.163 8.272 3.077.118 5.228-1.614 5.77-2.878.324-.747.05-1.199-.123-1.398v.011"/><path d="M243.45 170.237c-.118-.414-.882-3.205-1.93-6.567l-2.135-5.727c4.205-6.297 4.28-11.928 3.721-15.117-.597-3.953-2.243-7.325-5.56-10.804-3.319-3.485-10.1-7.05-19.635-9.724l-5.002-1.387c-.027-.204-.263-11.794-.478-16.768-.156-3.598-.468-9.207-2.21-14.741-2.077-7.486-5.69-14.031-10.208-18.22 12.46-12.913 20.237-27.143 20.215-39.345-.037-23.469-28.857-30.573-64.378-15.865l-7.524 3.195c-.032-.033-13.606-13.348-13.81-13.526C94.02-29.68-32.602 111.06 7.883 145.241l8.846 7.496c-2.296 5.943-3.194 12.757-2.457 20.081.946 9.406 5.797 18.425 13.665 25.395 7.464 6.614 17.284 10.804 26.809 10.793 15.751 36.306 51.746 58.576 93.951 59.829 45.271 1.344 83.277-19.898 99.2-58.06 1.044-2.678 5.465-14.746 5.465-25.4 0-10.707-6.05-15.144-9.906-15.144l-.006.006M58.225 198.81c-1.377.236-2.78.328-4.195.295-13.676-.365-28.443-12.675-29.911-27.276-1.625-16.134 6.62-28.557 21.22-31.499a24.966 24.966 0 016.132-.435c8.18.446 20.231 6.728 22.985 24.545 2.436 15.778-1.436 31.847-16.23 34.37m-15.269-68.133c-9.088 1.77-17.096 6.916-21.995 14.031-2.926-2.442-8.384-7.169-9.347-9.008-7.82-14.848 8.535-43.717 19.957-60.017 28.234-40.291 72.451-70.784 92.925-65.255 3.329.94 14.348 13.719 14.348 13.719s-20.463 11.352-39.436 27.18c-25.566 19.688-44.884 48.298-56.452 79.35m143.525 62.099a.81.81 0 00.468-.802.755.755 0 00-.828-.672s-21.42 3.173-41.657-4.238c2.205-7.163 8.067-4.576 16.924-3.861 15.967.952 30.278-1.382 40.85-4.415 9.164-2.63 21.2-7.814 30.552-15.193 3.152 6.927 4.265 14.547 4.265 14.547s2.441-.435 4.48.818c1.925 1.188 3.34 3.651 2.377 10.03-1.969 11.912-7.03 21.576-15.537 30.47-5.179 5.577-11.466 10.423-18.661 13.945a78.839 78.839 0 01-12.187 5.147c-32.073 10.476-64.91-1.043-75.494-25.776a40.086 40.086 0 01-2.125-5.84c-4.512-16.3-.683-35.855 11.289-48.165v-.005c.736-.785 1.49-1.705 1.49-2.867 0-.973-.62-1.995-1.152-2.72-4.189-6.072-18.693-16.425-15.778-36.457 2.092-14.392 14.676-24.524 26.41-23.921l2.974.172c5.083.301 9.52.952 13.709 1.13 7.007.3 13.305-.716 20.764-6.933 2.517-2.097 4.533-3.915 7.948-4.496.36-.059 1.253-.382 3.033-.296 1.823.097 3.555.597 5.115 1.635 5.98 3.98 6.83 13.622 7.142 20.673.177 4.028.661 13.767.828 16.558.382 6.395 2.06 7.293 5.458 8.417 1.915.629 3.69 1.097 6.303 1.834 7.916 2.22 12.611 4.48 15.575 7.373 1.763 1.812 2.586 3.732 2.839 5.571.936 6.814-5.286 15.225-21.759 22.872-18.005 8.358-39.845 10.471-54.935 8.793l-5.286-.597c-12.074-1.624-18.957 13.977-11.713 24.663 4.668 6.89 17.386 11.369 30.11 11.374 29.175.006 51.601-12.455 59.942-23.216l.667-.952c.409-.618.07-.957-.44-.608-6.815 4.663-37.087 23.18-69.467 17.608 0 0-3.937-.646-7.524-2.044-2.855-1.108-8.825-3.856-9.55-9.987 26.13 8.083 42.581.441 42.581.441v-.01m-41.393-4.889l.005.005.005.011-.01-.021v.005M95.1 75.511c10.035-11.6 22.394-21.684 33.461-27.347.382-.193.791.22.581.597-.876 1.592-2.57 5.002-3.108 7.583a.451.451 0 00.694.473c6.883-4.695 18.865-9.723 29.374-10.368.451-.027.666.548.312.828-1.598 1.226-3.346 2.92-4.62 4.636a.45.45 0 00.35.715c7.378.054 17.779 2.635 24.555 6.437.457.258.134 1.146-.382 1.027-10.256-2.35-27.045-4.135-44.486.119-15.569 3.797-27.454 9.658-36.123 15.967-.436.317-.963-.258-.608-.673v.006m872.82 27.271c-15.003 0-21.876 11.25-24.866 17.656-1.974 4.232-1.877 5.474-3.319 5.474-2.086 0-.354-3.398.581-7.4 1.85-7.873.441-13.885.441-13.885h-21.382V207.23h29.186V174.7c3.452 5.856 9.852 12.116 19.715 12.116 21.103 0 31.724-17.86 31.724-41.985 0-27.347-12.713-42.06-32.084-42.06l.005.01m-8.013 64.992c-6.696 0-11.616-8.487-11.616-20.318 0-11.487 5.06-20.312 11.385-20.312 8.12 0 11.584 7.448 11.584 20.312 0 13.38-3.19 20.318-11.353 20.318m-572.115-64.991c-12.837 0-19.189 10.105-22.104 16.618-1.629 3.64-2.08 6.518-3.404 6.518-1.86 0-.527-2.501-2.049-8.046-2.006-7.297-8.04-15.09-20.871-15.09-13.488 0-19.264 11.396-22.001 17.656-1.872 4.28-1.877 5.474-3.318 5.474-2.087 0-.355-3.398.58-7.4 1.85-7.873.441-13.885.441-13.885h-21.382v80.399h29.186v-40c0-7.89 3.302-17.904 8.96-17.904 6.533 0 7.846 5.023 7.846 14.316v43.61h29.304v-40.023c0-7.023 2.866-17.903 9.002-17.903 6.626 0 7.804 7.05 7.804 14.316v43.588h28.777v-47.282c0-20.985-7.395-34.973-26.766-34.973l-.005.011m495.378 0c-12.837 0-19.188 10.105-22.103 16.618-1.63 3.64-2.081 6.518-3.404 6.518-1.861 0-.619-3.179-2.05-8.046-2.14-7.26-7.459-15.09-20.871-15.09-13.488 0-19.264 11.396-22 17.656-1.872 4.28-1.878 5.474-3.319 5.474-2.087 0-.355-3.398.58-7.4 1.85-7.873.442-13.885.442-13.885h-21.383v80.399h29.186v-40c0-7.89 3.302-17.904 8.96-17.904 6.534 0 7.846 5.023 7.846 14.316v43.61h29.304v-40.023c0-7.023 2.866-17.903 9.003-17.903 6.625 0 7.803 7.05 7.803 14.316v43.588h28.777v-47.282c0-20.985-7.395-34.973-26.766-34.973l-.005.011m-418.781.016c-22.356 0-38.398 8.218-38.398 8.218v24.162s17.714-10.185 32.084-10.185c11.471 0 12.88 6.184 12.358 11.32 0 0-3.307-.876-13.401-.876-23.787 0-35.795 10.81-35.795 28.147 0 16.446 13.493 23.319 24.867 23.319 16.59 0 23.883-11.148 26.126-16.44 1.554-3.668 1.839-6.142 3.237-6.142 1.592 0 1.054 1.775.979 5.426-.134 6.395.167 11.235 1.183 15.306h21.996v-39.57c0-24.707-8.74-42.685-35.23-42.685h-.006m-7.104 63.443c-6.98 1.613-10.595-.538-10.595-5.163 0-6.335 6.556-8.873 15.908-8.873 4.125 0 8.002.355 8.002.355 0 2.716-5.889 11.97-13.315 13.681m90.413-85.95h29.185v104.762H547.7V80.292m61.307 64.556c0-7.228 6.717-13.805 19.043-13.805 13.434 0 24.239 6.47 26.664 7.938v-27.965s-8.535-8.218-29.52-8.218c-22.118 0-40.538 12.945-40.538 40.802 0 27.858 16.715 43.303 40.48 43.303 18.559 0 29.626-10.197 29.626-10.197v-26.56c-3.5 1.957-13.256 8.727-26.577 8.727-14.106 0-19.183-6.49-19.183-14.02l.005-.005m104.831-42.05c-16.897 0-23.323 16.01-24.62 18.79-1.296 2.78-1.94 4.378-3 4.346-1.845-.06-.56-3.415.161-5.582 1.36-4.104 4.238-14.86 4.238-28.09 0-8.97-1.216-11.97-1.216-11.97h-25.195v104.76h29.186v-40c0-6.518 2.597-17.903 9.954-17.903 6.088 0 7.997 4.512 7.997 13.6v44.31h29.186v-42.556c0-20.64-3.42-39.694-26.69-39.694v-.01m36.176 1.94v80.309H779.2V104.74s-4.904 2.871-14.563 2.871-14.623-2.871-14.623-2.871m32.376-13.601c0 6.44-7.998 11.66-17.866 11.66-9.868 0-17.865-5.22-17.865-11.66s7.997-11.66 17.865-11.66c9.868 0 17.865 5.22 17.865 11.66M509.064 104.74v80.308h29.186V104.74s-4.905 2.871-14.564 2.871l-14.622-2.871m32.375-13.601c0 6.44-7.999 11.66-17.866 11.66-9.866 0-17.865-5.22-17.865-11.66s7.999-11.66 17.865-11.66c9.867 0 17.866 5.22 17.866 11.66"/></g></svg>