<svg xmlns="http://www.w3.org/2000/svg" viewBox="0 0 449.1 82"><path d="M0 7.5C0 3.4 3.4 0 7.5 0h86.1c4.2 0 7.5 3.4 7.5 7.5v67c0 4.2-3.4 7.5-7.5 7.5H7.5C3.4 82 0 78.6 0 74.5v-67zm6.4 2.7v61.3c0 2.3 1.5 3.8 3.8 3.8H91c2.1 0 3.8-1.7 3.8-3.8V10.2c0-2.1-1.7-3.8-3.8-3.8H10.2c-2.1 0-3.8 1.7-3.8 3.8zm3 28.2c0-2.1 1.7-3.8 3.8-3.8h17.7c2.3 0 3.8 1.9 3.8 3.8v34.2H9.4V38.4zM38 26.3c0-2.3 1.5-3.8 3.8-3.8h17.7c1.9 0 3.8 1.5 3.8 3.8V73H37.6V26l.4.3zm28.2-12.8c0-1.9 1.9-3.8 3.8-3.8h17.7c2.3 0 3.8 1.9 3.8 3.8V73H66.2V13.2v.3zm84.6 38.8c0 3.8-1.5 7.5-4.5 9.8-3 2.3-7.5 3.8-12.8 3.8-4.6 0-9.1-1-13.2-3v-9l7.9 3c2 .5 4 .8 6 .8 2.3 0 3.8-.4 4.9-1.1s1.9-2.3 1.9-3.8c0-.8 0-1.5-.8-2.3-.6-.9-1.4-1.7-2.3-2.3l-6.4-3c-3-1.5-5.3-2.6-6.4-3.8-1.6-1.2-2.8-2.8-3.8-4.5-.8-1.5-1.1-3.4-1.1-5.6 0-3.8 1.5-7.1 4.1-9.4 3.4-2.5 7.5-3.8 11.7-3.8 4.8.4 9.5 1.6 13.9 3.4l-3 7.5-6.4-1.9c-1.6-.4-3.2-.7-4.9-.8-1.9 0-3 .4-4.1 1.5-1.1.8-1.5 1.9-1.5 3.4 0 .8 0 1.5.8 2.3 2.6 2 5.4 3.7 8.3 5.3 4.1 1.9 7.5 3.8 8.7 6 1.9 1.9 2.6 4.5 2.6 7.5h.4zm35.4 12.8h-27.1V18.4h27.1v7.9h-16.9v10.2h15.8v8.7h-15.8v11.3h16.9v8.6zm25.6-25.2h5.3c3.8 0 6-.4 7.5-1.9 1.9-1.1 2.6-3.4 2.6-5.6 0-2.6-.8-4.5-2.6-5.6-1.5-1.1-4.1-1.9-7.5-1.9h-5.3v15zm0 6.4v18.4h-7.5V18.4h13.2c6 0 10.5 1.1 13.2 3.8 3 1.9 4.5 5.3 4.5 9.8 0 5.6-3 9.8-9 12.4l13.2 20.3h-8.7l-11.3-18.8h-7.5v.4zm55.3 18.4l-1.5-4.9h-.4c-1.9 2.3-3.8 3.8-5.3 4.5-1.5.8-3.8 1.1-6.8 1.1-2.9.1-5.8-1-7.9-3-1.9-1.9-3-4.5-3-7.5 0-3.8 1.5-6.4 3.8-8.3 3-1.9 7.1-3 12.8-3h6v-2.3c0-2.3-.4-3.8-1.5-4.9s-2.6-1.5-4.9-1.5c-1.9 0-3.8 0-5.3.8l-4.9 1.9L246 32c1.9-.9 3.9-1.5 6-1.9 2.2-.5 4.5-.8 6.8-.8 4.5 0 7.5 1.1 10.2 3 2.3 1.9 3.4 4.9 3.4 9V65h-5.3v-.3zm-11.3-5.3c2.6 0 4.9-.8 6.4-2.3 1.9-1.5 2.6-3.8 2.6-6v-3h-4.5c-3.8 0-6.4.8-7.5 1.9-1.9 1.1-2.6 2.6-2.6 4.5s.4 3 1.1 3.8c1.1.8 2.6 1.1 4.5 1.1zm57.5 5.3h-7.5V43.3c0-2.6-.4-4.9-1.5-6-1.1-1.5-3-1.9-5.3-1.9-3.4 0-5.6.8-7.1 2.6-1.5 1.9-2.3 4.9-2.3 9.4v17.3h-7.5v-35h6l1.1 4.5c1.2-1.7 2.9-3 4.9-3.8 2-1 4.2-1.5 6.4-1.5 8.7 0 12.8 4.5 12.8 12.8v23zm17.3-18.8l4.1-4.5 10.9-11.3h8.7l-14.3 15L355 65h-8.7L335 50l-4.1 3v12h-7.5V16.2h7.5v23.7l-.8 6.8h.4v-.8zm37.3 18.8h-7.5v-35h7.5v35zM360 20.3c0-1.1 0-2.3 1.1-3 .8-.8 1.9-1.1 3-1.1 1.5 0 2.3.4 3 1.1.8.8 1.1 1.9 1.1 3 0 1.5 0 2.3-1.1 3-.8.8-1.5 1.1-3 1.1-1.1 0-2.3 0-3-1.1-.8-.8-1.2-1.9-1.1-3zm49.2 44.4h-7.5V43.3c0-2.6-.4-4.9-1.5-6-1.1-1.5-3-1.9-5.3-1.9-3.4 0-5.6.8-7.1 2.6-1.5 1.9-2.3 4.9-2.3 9.4v17.3H378v-35h6l1.1 4.5c1.2-1.7 2.9-3 4.9-3.8 1.9-.8 3.8-1.5 6.4-1.5 8.7 0 12.8 4.5 12.8 12.8v23zm39.9-35v3.8l-6 1.5c1.2 1.8 1.9 3.9 1.9 6 0 3.8-1.1 6.4-3.8 8.7-2.6 1.9-6 3-10.5 3h-3c-1.5.8-2.3 1.9-2.3 3s0 1.5 1.1 1.9l3.8.8h6.4c3.8 0 7.1.8 9 2.3 1.9 1.9 3 4.1 3 7.5 0 3.8-1.5 6.8-4.9 9-4.4 2.3-9.3 3.4-14.3 3-4.9 0-8.7-.8-11.3-2.6-3.7-2.2-5-7.1-2.7-10.8.3-.6.8-1.1 1.2-1.6 1.6-1.5 3.5-2.6 5.6-3-1.1-.5-2-1.2-2.6-2.3-.5-.8-.7-1.7-.8-2.6 0-1.5 0-2.6 1.1-3.8l3.4-2.3c-1.9-.8-3.4-2.1-4.5-3.8-1.3-1.9-1.9-4.1-1.9-6.4-.1-3.3 1.3-6.5 3.8-8.7 2.3-2.3 6-3.4 10.2-3.4 1.9 0 3.8.3 5.6.8h12.5zM421.3 70c0 1.9.8 3 2.3 3.8 1.5.8 3.8 1.5 6 1.5 3.2.2 6.5-.5 9.4-1.9 1.9-1.1 3-2.6 3-4.5 0-1.4-.7-2.7-1.9-3.4-1.1-.8-3-.8-6-.8h-5.6c-2.3 0-3.8 0-5.3 1.5-1.2.8-1.9 2.3-1.9 3.8zm3.4-29c0 2.3.4 3.8 1.5 5.3 1.1 1.1 3 1.5 4.9 1.5 4.5 0 6.8-2.3 6.8-6.8 0-2.3-.8-3.8-1.9-5.3-.8-1.1-2.6-1.9-4.9-1.9-1.9 0-3.8.8-4.9 1.9s-1.5 3-1.5 5.3z" fill-rule="evenodd" clip-rule="evenodd" fill="#242a36" fill-opacity=".9"/></svg>