<svg width="365" height="533" fill="none" xmlns="http://www.w3.org/2000/svg"><path d="M10 .5h345a9.5 9.5 0 019.5 9.5v512.1a9.5 9.5 0 01-9.5 9.5H10a9.5 9.5 0 01-9.5-9.5V10A9.499 9.499 0 019.51.513L10 .5z" fill="#fff"/><path d="M10 .5h345a9.5 9.5 0 019.5 9.5v512.1a9.5 9.5 0 01-9.5 9.5H10a9.5 9.5 0 01-9.5-9.5V10A9.499 9.499 0 019.51.513L10 .5z" stroke="#E4E4E4"/><path d="M34.67 53.122v-17.6h4.45v17.6h-4.45zm-6.575-6.575v-4.45h17.6v4.45h-17.6zM49.135 57v-3.878l9.06-8.39a34.248 34.248 0 001.94-2.013c.53-.596.931-1.18 1.205-1.752.273-.58.41-1.206.41-1.877 0-.746-.17-1.388-.51-1.927a3.345 3.345 0 00-1.392-1.255c-.588-.298-1.255-.447-2-.447-.78 0-1.46.157-2.04.472a3.255 3.255 0 00-1.341 1.355c-.315.588-.473 1.288-.473 2.1h-5.108c0-1.665.377-3.111 1.131-4.338.754-1.226 1.81-2.175 3.17-2.846 1.358-.671 2.924-1.007 4.698-1.007 1.822 0 3.41.324 4.76.97 1.359.638 2.415 1.524 3.17 2.66.753 1.135 1.13 2.436 1.13 3.902 0 .962-.19 1.91-.571 2.847-.373.936-1.04 1.976-2.002 3.12-.96 1.135-2.316 2.498-4.064 4.088l-3.716 3.642v.174H67.28V57H49.134zm20.113-4.474v-4.239l10.627-16.741h3.654v5.866h-2.162l-6.7 10.602v.199H89.77v4.313H69.25zM81.466 57v-5.767l.1-1.877v-17.81h5.046V57h-5.146zm20.869.56c-2.138-.009-3.978-.535-5.519-1.58-1.533-1.043-2.713-2.555-3.542-4.536-.82-1.98-1.226-4.362-1.218-7.146 0-2.776.41-5.142 1.23-7.097.829-1.956 2.01-3.443 3.543-4.462 1.54-1.028 3.376-1.542 5.506-1.542 2.129 0 3.96.514 5.493 1.542 1.542 1.027 2.726 2.519 3.555 4.474.829 1.947 1.239 4.309 1.23 7.085 0 2.792-.414 5.178-1.242 7.159-.821 1.98-1.997 3.492-3.53 4.536-1.533 1.044-3.369 1.566-5.506 1.566zm0-4.463c1.458 0 2.622-.733 3.492-2.2.87-1.466 1.301-3.666 1.293-6.6 0-1.93-.199-3.537-.597-4.822-.389-1.284-.944-2.25-1.665-2.896a3.634 3.634 0 00-2.523-.97c-1.45 0-2.61.726-3.48 2.176-.87 1.45-1.31 3.62-1.318 6.513 0 1.955.195 3.587.584 4.897.398 1.3.957 2.278 1.678 2.933a3.68 3.68 0 002.536.97zm27.049-.87v-1.342c0-1.02.215-1.956.646-2.809a5.12 5.12 0 011.902-2.063c.837-.522 1.856-.783 3.057-.783 1.218 0 2.242.257 3.07.77a4.921 4.921 0 011.889 2.064c.431.853.647 1.794.647 2.82v1.343a6.22 6.22 0 01-.647 2.822 5.022 5.022 0 01-1.901 2.05c-.837.523-1.856.784-3.058.784-1.218 0-2.241-.262-3.07-.784a5.06 5.06 0 01-1.889-2.05 6.218 6.218 0 01-.646-2.822zm3.617-1.342v1.342c0 .589.14 1.144.422 1.666.29.522.812.783 1.566.783s1.268-.257 1.541-.77a3.43 3.43 0 00.423-1.679v-1.342c0-.605-.133-1.168-.398-1.69s-.787-.783-1.566-.783c-.745 0-1.263.26-1.553.783a3.425 3.425 0 00-.435 1.69zm-16.68-13.224v-1.343c0-1.027.22-1.968.659-2.821a5.125 5.125 0 011.901-2.063c.837-.514 1.848-.771 3.033-.771 1.226 0 2.254.257 3.082.77a5.036 5.036 0 011.89 2.064c.43.853.646 1.794.646 2.821v1.343c0 1.027-.22 1.967-.659 2.82a5.036 5.036 0 01-1.901 2.052c-.829.505-1.848.758-3.058.758-1.21 0-2.233-.257-3.07-.77a5.16 5.16 0 01-1.889-2.052c-.423-.853-.634-1.79-.634-2.809zm3.642-1.343v1.343c0 .604.14 1.164.422 1.677.29.514.8.771 1.529.771.762 0 1.28-.257 1.554-.77a3.44 3.44 0 00.422-1.678v-1.343a3.67 3.67 0 00-.398-1.69c-.265-.522-.791-.783-1.578-.783-.737 0-1.247.265-1.529.795a3.523 3.523 0 00-.422 1.678zM117.962 57l17.5-25.454h3.256L121.218 57h-3.256z" fill="#242A36"/><path d="M256 37a4 4 0 014-4h76a4 4 0 014 4v15a4 4 0 01-4 4h-76a4 4 0 01-4-4V37z" fill="#D4F4DD"/><path d="M265.2 49v-9.455h3.194c.739 0 1.345.127 1.819.379.474.25.825.593 1.053 1.03.227.437.341.934.341 1.49 0 .558-.114 1.052-.341 1.482-.228.431-.577.77-1.048 1.016-.471.243-1.073.365-1.805.365h-2.585v-1.034h2.548c.505 0 .911-.074 1.219-.222.31-.148.535-.357.674-.628.141-.274.212-.6.212-.978a2.2 2.2 0 00-.212-.993 1.45 1.45 0 00-.679-.655c-.311-.157-.722-.236-1.233-.236h-2.012V49H265.2zm4.45-4.247L271.977 49h-1.33l-2.29-4.247h1.293zm11.582-.48c0 .997-.18 1.859-.54 2.585-.36.726-.854 1.286-1.482 1.68-.627.394-1.345.591-2.151.591-.806 0-1.523-.197-2.151-.59-.628-.395-1.122-.955-1.482-1.681-.36-.726-.54-1.588-.54-2.585 0-.997.18-1.86.54-2.586.36-.726.854-1.286 1.482-1.68.628-.394 1.345-.59 2.151-.59.806 0 1.524.196 2.151.59.628.394 1.122.954 1.482 1.68.36.727.54 1.589.54 2.586zm-1.108 0c0-.819-.137-1.51-.41-2.073-.271-.563-.639-.99-1.104-1.279a2.858 2.858 0 00-1.551-.434 2.89 2.89 0 00-1.556.434c-.461.29-.829.716-1.103 1.279-.271.563-.406 1.254-.406 2.073 0 .818.135 1.51.406 2.072.274.564.642.99 1.103 1.28.465.289.984.433 1.556.433.573 0 1.09-.144 1.551-.434.465-.289.833-.715 1.104-1.279.273-.563.41-1.254.41-2.072zm3.918-4.728V49h-1.145v-9.455h1.145zm11.895 2.955a3.323 3.323 0 00-.401-.836 2.595 2.595 0 00-.587-.637 2.454 2.454 0 00-.766-.401 3.053 3.053 0 00-.942-.139 2.81 2.81 0 00-1.528.434c-.458.29-.823.716-1.094 1.279-.271.563-.406 1.254-.406 2.073 0 .818.137 1.51.411 2.072.274.564.644.99 1.112 1.28.468.289.994.433 1.579.433.542 0 1.019-.115 1.431-.346.416-.234.739-.563.97-.988.234-.428.35-.93.35-1.51l.351.074h-2.843v-1.015h3.6v1.015c0 .779-.166 1.456-.498 2.032a3.442 3.442 0 01-1.367 1.338c-.578.314-1.243.471-1.994.471-.837 0-1.573-.197-2.207-.59-.631-.395-1.123-.955-1.477-1.681-.351-.726-.526-1.588-.526-2.585 0-.748.1-1.42.3-2.018.203-.6.489-1.11.859-1.532a3.749 3.749 0 011.311-.97 4.048 4.048 0 011.666-.337c.499 0 .963.076 1.394.226a3.74 3.74 0 011.159.633 3.695 3.695 0 011.325 2.225h-1.182zm2.791 6.5v-7.09h1.052v1.07h.074a1.7 1.7 0 01.702-.854c.338-.218.72-.328 1.145-.328.08 0 .18.002.3.005s.21.008.272.014v1.108a3.268 3.268 0 00-.254-.042 2.489 2.489 0 00-.411-.032 1.93 1.93 0 00-.923.217c-.268.141-.48.338-.637.59-.154.25-.231.535-.231.855V49h-1.089zm7.241.148c-.64 0-1.202-.153-1.685-.457a3.106 3.106 0 01-1.126-1.28c-.268-.547-.402-1.187-.402-1.92 0-.738.134-1.383.402-1.934a3.1 3.1 0 011.126-1.283c.483-.305 1.045-.457 1.685-.457.64 0 1.201.152 1.681.457.483.304.858.732 1.126 1.283.271.551.406 1.196.406 1.934 0 .733-.135 1.373-.406 1.92a3.064 3.064 0 01-1.126 1.28c-.48.304-1.041.457-1.681.457zm0-.979c.487 0 .887-.125 1.201-.374a2.21 2.21 0 00.697-.983c.15-.406.226-.847.226-1.32a3.82 3.82 0 00-.226-1.325 2.234 2.234 0 00-.697-.993c-.314-.252-.714-.379-1.201-.379-.486 0-.886.127-1.2.379a2.234 2.234 0 00-.697.992c-.151.41-.226.852-.226 1.326 0 .473.075.914.226 1.32.151.406.383.734.697.983.314.25.714.374 1.2.374zm5.982.831l-2.161-7.09h1.145l1.533 5.428h.074l1.514-5.429h1.163l1.496 5.41h.074l1.533-5.41h1.144L317.306 49h-1.071l-1.551-5.447h-.111L313.022 49h-1.071zm11.78-7.09v.922h-3.675v-.923h3.675zm-2.604-1.7h1.089v6.759c0 .307.045.538.134.692.093.151.21.253.351.305.145.05.297.074.457.074.12 0 .219-.006.296-.019l.184-.037.222.98a2.23 2.23 0 01-.309.082 2.34 2.34 0 01-.504.046 2.19 2.19 0 01-.904-.198 1.796 1.796 0 01-.73-.605c-.191-.27-.286-.612-.286-1.025V40.21zm5.224 4.524V49h-1.089v-9.455h1.089v3.472h.093a2.01 2.01 0 01.747-.873c.336-.218.782-.327 1.339-.327.483 0 .907.097 1.27.29.363.191.645.485.845.882.203.394.304.896.304 1.505V49h-1.089v-4.432c0-.563-.146-.998-.439-1.306-.289-.311-.691-.467-1.205-.467a2.01 2.01 0 00-.96.227c-.28.15-.502.37-.665.66-.16.29-.24.64-.24 1.052z" fill="#0A9428"/><path d="M26.145 86v-9.454h3.195c.741 0 1.348.133 1.818.401.474.265.825.623 1.053 1.076.228.452.342.957.342 1.514s-.114 1.063-.342 1.519a2.539 2.539 0 01-1.043 1.09c-.471.267-1.075.4-1.81.4h-2.29v-1.015h2.253c.508 0 .916-.087 1.223-.263a1.57 1.57 0 00.67-.71c.141-.302.212-.643.212-1.021 0-.379-.07-.717-.212-1.016a1.516 1.516 0 00-.674-.701c-.311-.173-.723-.259-1.237-.259H27.29V86h-1.145zm8.104 0v-7.09h1.053v1.07h.074c.129-.35.363-.635.701-.854a2.07 2.07 0 011.145-.328c.08 0 .18.002.3.005s.211.008.273.014v1.108a3.235 3.235 0 00-.254-.042 2.494 2.494 0 00-.411-.032 1.93 1.93 0 00-.924.217c-.267.141-.48.338-.637.59-.154.25-.23.535-.23.855V86h-1.09zm4.837 0v-7.09h1.09V86h-1.09zm.554-8.273a.774.774 0 01-.55-.217.697.697 0 01-.226-.521c0-.204.076-.377.227-.522a.774.774 0 01.549-.217c.212 0 .394.072.545.217a.69.69 0 01.23.522.69.69 0 01-.23.521.758.758 0 01-.545.217zm5.504 8.42c-.683 0-1.273-.15-1.768-.452a3.037 3.037 0 01-1.14-1.274c-.265-.548-.397-1.185-.397-1.911s.132-1.367.397-1.92c.267-.558.64-.992 1.117-1.302.48-.314 1.04-.471 1.68-.471.37 0 .734.061 1.094.184.36.123.688.324.984.6.295.275.53.638.706 1.09.175.453.263 1.01.263 1.671v.462h-5.466v-.942h4.358c0-.4-.08-.757-.24-1.07a1.81 1.81 0 00-.674-.744 1.888 1.888 0 00-1.025-.272c-.434 0-.81.107-1.126.323a2.122 2.122 0 00-.725.83 2.44 2.44 0 00-.254 1.1v.627c0 .536.092.99.277 1.362.188.37.448.65.78.845.333.19.719.286 1.159.286.286 0 .545-.04.776-.12a1.66 1.66 0 00.604-.37c.17-.166.3-.372.393-.618l1.052.296c-.11.357-.297.67-.558.941a2.724 2.724 0 01-.97.628 3.596 3.596 0 01-1.297.222zM49.737 86v-7.09h1.053v1.107h.092c.148-.379.387-.672.716-.882.33-.212.725-.318 1.186-.318.468 0 .857.106 1.168.318.314.21.559.503.734.882h.074c.182-.366.454-.657.817-.873.363-.218.799-.327 1.307-.327.634 0 1.152.198 1.556.595.403.394.604 1.008.604 1.842V86h-1.09v-4.746c0-.523-.142-.897-.429-1.122a1.589 1.589 0 00-1.01-.337c-.5 0-.885.151-1.16.453-.273.298-.41.677-.41 1.135V86h-1.108v-4.856c0-.404-.131-.728-.393-.975-.261-.249-.598-.373-1.01-.373-.284 0-.548.075-.795.226-.243.15-.44.36-.59.627a1.853 1.853 0 00-.222.92V86h-1.09zm14.272.148c-.683 0-1.272-.151-1.768-.453a3.036 3.036 0 01-1.14-1.274c-.265-.548-.397-1.185-.397-1.911s.132-1.367.397-1.92c.268-.558.64-.992 1.117-1.302.48-.314 1.04-.471 1.68-.471.37 0 .734.061 1.095.184.36.123.687.324.983.6.295.275.53.638.706 1.09.176.453.263 1.01.263 1.671v.462H61.48v-.942h4.358c0-.4-.08-.757-.24-1.07a1.81 1.81 0 00-.674-.744 1.888 1.888 0 00-1.025-.272c-.434 0-.809.107-1.126.323a2.13 2.13 0 00-.725.83 2.448 2.448 0 00-.254 1.1v.627c0 .536.093.99.277 1.362.188.37.448.65.78.845.333.19.72.286 1.16.286.285 0 .544-.04.775-.12a1.66 1.66 0 00.605-.37c.169-.166.3-.372.392-.618l1.053.296c-.111.357-.297.67-.56.941a2.723 2.723 0 01-.969.628 3.596 3.596 0 01-1.297.222zM68.603 86v-7.09h1.052v1.07h.074c.13-.35.363-.635.702-.854.338-.218.72-.328 1.145-.328.08 0 .18.002.3.005s.21.008.272.014v1.108a3.226 3.226 0 00-.254-.042 2.493 2.493 0 00-.41-.032 1.93 1.93 0 00-.924.217c-.268.141-.48.338-.637.59-.154.25-.23.535-.23.855V86h-1.09zm5.926-4.266V86h-1.09v-7.09h1.053v1.107h.092c.167-.36.419-.65.757-.868.34-.221.776-.332 1.312-.332.48 0 .9.098 1.26.295.36.194.64.49.84.887.2.394.3.892.3 1.495V86h-1.09v-4.432c0-.557-.144-.99-.433-1.302-.29-.314-.687-.47-1.191-.47a1.9 1.9 0 00-.933.226c-.27.15-.485.37-.642.66-.156.29-.235.64-.235 1.052zm6.963 6.925c-.185 0-.35-.015-.494-.046a1.303 1.303 0 01-.3-.083l.277-.96a2.1 2.1 0 00.702.074.841.841 0 00.54-.273c.16-.16.306-.42.438-.78l.203-.554-2.622-7.128h1.182l1.957 5.65h.074l1.958-5.65h1.181l-3.01 8.125a3.07 3.07 0 01-.503.91c-.2.243-.432.423-.697.54a2.15 2.15 0 01-.886.175zm1.422-10.71l1.126-2.142h1.274l-1.44 2.142h-.96zm9.858 3.785V86h-1.09v-7.09h1.053v1.107h.093c.166-.36.418-.65.757-.868.338-.221.775-.332 1.31-.332.48 0 .901.098 1.261.295.36.194.64.49.84.887.2.394.3.892.3 1.495V86h-1.09v-4.432c0-.557-.144-.99-.433-1.302-.29-.314-.686-.47-1.191-.47a1.9 1.9 0 00-.933.226c-.27.15-.484.37-.641.66-.157.29-.236.64-.236 1.052zm8.602 4.432c-.449 0-.857-.084-1.224-.254a2.1 2.1 0 01-.872-.743c-.216-.326-.323-.72-.323-1.182 0-.406.08-.735.24-.988.16-.255.374-.455.642-.6.267-.145.563-.252.886-.323.326-.074.654-.132.983-.175.431-.056.78-.097 1.048-.125.271-.03.468-.082.591-.152.126-.071.189-.194.189-.37v-.037c0-.455-.124-.81-.374-1.061-.246-.253-.62-.379-1.121-.379-.52 0-.928.114-1.224.342-.295.227-.503.47-.623.729l-1.034-.37c.185-.43.43-.766.739-1.006.31-.243.649-.412 1.015-.507.37-.099.733-.148 1.09-.148.227 0 .489.028.784.083.299.052.587.161.864.328.28.166.512.417.697.752.185.336.277.785.277 1.348V86h-1.09v-.96h-.055a1.928 1.928 0 01-.369.494 2.143 2.143 0 01-.688.448c-.286.123-.636.184-1.048.184zm.166-.978c.431 0 .794-.085 1.09-.254.298-.17.523-.388.674-.656.153-.268.23-.55.23-.845v-.997c-.046.055-.147.106-.304.152a5.171 5.171 0 01-.536.116 24.437 24.437 0 01-1.043.138 4.165 4.165 0 00-.794.18c-.243.08-.44.202-.591.365-.148.16-.222.379-.222.656 0 .378.14.664.42.858.284.191.642.287 1.076.287zm.037-7.24l1.126-2.141h1.275l-1.441 2.142h-.96zM106.612 86v-7.09h1.053v1.07h.074a1.7 1.7 0 01.702-.854c.338-.218.72-.328 1.144-.328.08 0 .18.002.3.005.121.003.211.008.273.014v1.108a3.268 3.268 0 00-.254-.042 2.489 2.489 0 00-.411-.032c-.345 0-.652.072-.923.217a1.591 1.591 0 00-.868 1.445V86h-1.09zm6.924.166a2.88 2.88 0 01-1.223-.254 2.1 2.1 0 01-.873-.743c-.215-.326-.323-.72-.323-1.182 0-.406.08-.735.24-.988.16-.255.374-.455.642-.6a3.36 3.36 0 01.886-.323c.326-.074.654-.132.983-.175.431-.056.781-.097 1.048-.125.271-.03.468-.082.591-.152.126-.071.189-.194.189-.37v-.037c0-.455-.124-.81-.373-1.061-.247-.253-.621-.379-1.122-.379-.52 0-.928.114-1.224.342-.295.227-.503.47-.623.729l-1.034-.37c.185-.43.431-.766.739-1.006a2.77 2.77 0 011.015-.507c.37-.099.733-.148 1.09-.148.228 0 .489.028.785.083.298.052.586.161.863.328.28.166.512.417.697.752.185.336.277.785.277 1.348V86h-1.09v-.96h-.055a1.928 1.928 0 01-.369.494 2.143 2.143 0 01-.688.448c-.286.123-.636.184-1.048.184zm.166-.978c.431 0 .794-.085 1.09-.254.298-.17.523-.388.674-.656.154-.268.23-.55.23-.845v-.997c-.046.055-.147.106-.304.152a5.171 5.171 0 01-.536.116 24.437 24.437 0 01-1.043.138 4.165 4.165 0 00-.794.18c-.243.08-.44.202-.591.365-.148.16-.222.379-.222.656 0 .378.14.664.421.858.283.191.641.287 1.075.287zm10.095-4.69l-.978.276a1.832 1.832 0 00-.273-.475 1.322 1.322 0 00-.48-.388c-.203-.102-.463-.153-.78-.153-.434 0-.796.1-1.085.3-.286.198-.429.448-.429.753 0 .27.098.485.295.642.197.157.505.287.923.392l1.053.259c.634.154 1.106.389 1.417.706.311.314.467.719.467 1.214a1.8 1.8 0 01-.351 1.09c-.231.32-.554.572-.97.757-.415.184-.898.277-1.449.277-.724 0-1.322-.157-1.796-.471-.474-.314-.774-.773-.9-1.376l1.034-.258c.098.381.284.667.558.858.277.191.639.287 1.085.287.508 0 .911-.108 1.21-.324.301-.218.452-.48.452-.784a.825.825 0 00-.258-.619c-.173-.17-.437-.296-.794-.379l-1.182-.277c-.65-.154-1.127-.392-1.431-.715-.302-.326-.453-.734-.453-1.224 0-.4.113-.754.337-1.061a2.29 2.29 0 01.928-.725c.394-.175.84-.263 1.339-.263.702 0 1.252.154 1.653.461.403.308.689.714.858 1.22zm4.853-1.589v.923h-3.674v-.923h3.674zm-2.603-1.699h1.089v6.759c0 .308.045.538.134.692a.69.69 0 00.351.305c.144.05.297.074.457.074.12 0 .218-.006.295-.019l.185-.037.222.98a2.21 2.21 0 01-.31.082c-.132.031-.3.046-.503.046a2.2 2.2 0 01-.905-.198 1.8 1.8 0 01-.729-.605c-.191-.27-.286-.612-.286-1.025V77.21zm7.695 8.79v-.83l4.026-5.171v-.074h-3.896v-1.016h5.299v.868l-3.915 5.133v.074h4.045V86h-5.559zm9.323.166a2.88 2.88 0 01-1.223-.254 2.106 2.106 0 01-.873-.743c-.215-.326-.323-.72-.323-1.182 0-.406.08-.735.24-.988.16-.255.374-.455.642-.6a3.37 3.37 0 01.886-.323 10.8 10.8 0 01.984-.175c.431-.056.78-.097 1.048-.125.27-.03.467-.082.591-.152.126-.071.189-.194.189-.37v-.037c0-.455-.125-.81-.374-1.061-.246-.253-.62-.379-1.122-.379-.52 0-.928.114-1.223.342-.296.227-.504.47-.624.729l-1.034-.37c.185-.43.431-.766.739-1.006a2.766 2.766 0 011.016-.507 4.21 4.21 0 011.089-.148c.228 0 .489.028.785.083.298.052.586.161.863.328.28.166.513.417.697.752.185.336.277.785.277 1.348V86h-1.089v-.96h-.056a1.905 1.905 0 01-.369.494 2.132 2.132 0 01-.688.448c-.286.123-.635.184-1.048.184zm.166-.978c.431 0 .794-.085 1.09-.254a1.734 1.734 0 00.905-1.5v-.998c-.046.055-.148.106-.305.152a5.148 5.148 0 01-.535.116 24.507 24.507 0 01-1.044.138 4.165 4.165 0 00-.794.18c-.243.08-.44.202-.591.365-.147.16-.221.379-.221.656 0 .378.14.664.42.858.283.191.642.287 1.075.287zm11.905.941c-.609 0-1.152-.104-1.629-.314a2.79 2.79 0 01-1.131-.872 2.348 2.348 0 01-.453-1.307h1.163c.025.305.13.568.314.79.185.218.427.388.725.508.299.12.63.18.993.18.406 0 .766-.071 1.08-.213.314-.141.56-.338.739-.59.178-.253.267-.545.267-.878 0-.348-.086-.654-.258-.918a1.711 1.711 0 00-.757-.628c-.333-.151-.739-.227-1.219-.227h-.757v-1.015h.757c.375 0 .705-.068.988-.203a1.536 1.536 0 00.914-1.44c0-.32-.071-.6-.212-.836a1.454 1.454 0 00-.601-.554 1.94 1.94 0 00-.904-.199c-.327 0-.634.06-.924.18-.286.117-.52.288-.701.513-.182.221-.28.49-.296.803h-1.108c.019-.495.168-.93.448-1.302.28-.375.646-.668 1.099-.877.455-.21.955-.314 1.5-.314.585 0 1.087.119 1.505.356a2.5 2.5 0 01.965.928c.225.384.337.8.337 1.246 0 .532-.14.986-.42 1.362a2.13 2.13 0 01-1.131.78v.074c.597.098 1.063.352 1.399.762.335.406.503.91.503 1.51 0 .513-.14.975-.42 1.384a2.856 2.856 0 01-1.136.96c-.48.234-1.026.351-1.639.351zm8.758-.129v-7.09h1.052v1.107h.093a1.78 1.78 0 01.715-.882c.329-.212.725-.318 1.187-.318.467 0 .857.106 1.168.318.313.21.558.503.734.882h.073a2.07 2.07 0 01.818-.873c.363-.218.798-.327 1.306-.327.634 0 1.153.198 1.556.595.403.394.604 1.008.604 1.842V86h-1.089v-4.746c0-.523-.143-.897-.429-1.122a1.592 1.592 0 00-1.011-.337c-.499 0-.885.151-1.159.453-.274.298-.411.677-.411 1.135V86h-1.108v-4.856c0-.404-.131-.728-.392-.975-.262-.249-.599-.373-1.011-.373-.283 0-.548.075-.794.226-.243.15-.44.36-.591.627a1.85 1.85 0 00-.222.92V86h-1.089zm14.272.148c-.684 0-1.273-.151-1.769-.453a3.04 3.04 0 01-1.14-1.274c-.265-.548-.397-1.185-.397-1.911s.132-1.367.397-1.92c.268-.558.64-.992 1.117-1.302.48-.314 1.041-.471 1.681-.471.369 0 .734.061 1.094.184.36.123.688.324.983.6.296.275.531.638.706 1.09.176.453.264 1.01.264 1.671v.462h-5.466v-.942h4.358c0-.4-.08-.757-.24-1.07a1.812 1.812 0 00-.674-.744 1.89 1.89 0 00-1.025-.272c-.434 0-.81.107-1.127.323a2.13 2.13 0 00-.725.83 2.444 2.444 0 00-.253 1.1v.627c0 .536.092.99.277 1.362.187.37.447.65.78.845.332.19.718.286 1.159.286.286 0 .544-.04.775-.12.234-.083.436-.206.605-.37.169-.166.3-.372.392-.618l1.053.296a2.33 2.33 0 01-.559.941 2.723 2.723 0 01-.969.628 3.596 3.596 0 01-1.297.222zm9.616-5.65l-.979.276a1.827 1.827 0 00-.272-.475 1.317 1.317 0 00-.481-.388c-.203-.102-.463-.153-.78-.153-.434 0-.795.1-1.085.3-.286.198-.429.448-.429.753 0 .27.099.485.296.642.196.157.504.287.923.392l1.052.259c.634.154 1.107.389 1.418.706.31.314.466.719.466 1.214a1.8 1.8 0 01-.351 1.09c-.231.32-.554.572-.969.757-.416.184-.899.277-1.45.277-.723 0-1.322-.157-1.796-.471-.474-.314-.774-.773-.9-1.376l1.034-.258c.099.381.285.667.559.858.277.191.638.287 1.085.287.507 0 .911-.108 1.209-.324.302-.218.452-.48.452-.784a.825.825 0 00-.258-.619c-.172-.17-.437-.296-.794-.379l-1.182-.277c-.649-.154-1.126-.392-1.431-.715-.302-.326-.452-.734-.452-1.224 0-.4.112-.754.337-1.061.227-.308.537-.55.927-.725a3.262 3.262 0 011.339-.263c.702 0 1.253.154 1.653.461.403.308.689.714.859 1.22zM189.551 86v-7.09h1.089V86h-1.089zm.554-8.273a.773.773 0 01-.549-.217.697.697 0 01-.227-.521c0-.204.076-.377.227-.522a.773.773 0 01.549-.217.76.76 0 01.545.217c.153.145.23.319.23.522a.693.693 0 01-.23.521.76.76 0 01-.545.217zm4.617 8.44a2.88 2.88 0 01-1.223-.255 2.097 2.097 0 01-.872-.743c-.216-.326-.324-.72-.324-1.182 0-.406.08-.735.241-.988a1.69 1.69 0 01.641-.6c.268-.145.563-.252.887-.323.326-.074.654-.132.983-.175.431-.056.78-.097 1.048-.125.271-.03.468-.082.591-.152.126-.071.189-.194.189-.37v-.037c0-.455-.125-.81-.374-1.061-.246-.253-.62-.379-1.122-.379-.52 0-.928.114-1.223.342-.296.227-.503.47-.623.729l-1.034-.37c.184-.43.43-.766.738-1.006.311-.243.65-.412 1.016-.507a4.21 4.21 0 011.089-.148c.228 0 .49.028.785.083.299.052.586.161.863.328.28.166.513.417.698.752.184.336.276.785.276 1.348V86h-1.089v-.96h-.055a1.912 1.912 0 01-.37.494 2.121 2.121 0 01-.688.448c-.286.123-.635.184-1.048.184zm.167-.98c.431 0 .794-.084 1.089-.253a1.727 1.727 0 00.905-1.5v-.998c-.046.055-.148.106-.305.152a5.148 5.148 0 01-.535.116 25.175 25.175 0 01-1.044.138 4.183 4.183 0 00-.794.18c-.243.08-.44.202-.59.365-.148.16-.222.379-.222.656 0 .378.14.664.42.858.283.191.642.287 1.076.287zm7.953.96c-.665 0-1.237-.156-1.718-.47a3.074 3.074 0 01-1.108-1.297c-.258-.551-.387-1.18-.387-1.888 0-.72.132-1.356.397-1.907.267-.554.64-.986 1.117-1.297.48-.314 1.04-.471 1.68-.471.499 0 .948.092 1.348.277.4.184.728.443.984.775.255.333.414.72.475 1.164h-1.089a1.697 1.697 0 00-.554-.859c-.284-.252-.665-.379-1.145-.379a1.91 1.91 0 00-1.117.333 2.17 2.17 0 00-.744.928c-.175.397-.263.863-.263 1.399 0 .547.086 1.024.259 1.43.175.407.421.722.738.947.32.225.696.337 1.127.337.283 0 .54-.05.771-.148a1.587 1.587 0 00.928-1.09h1.089a2.52 2.52 0 01-1.413 1.926c-.393.194-.852.29-1.375.29zm7.354 0c-.683 0-1.273-.15-1.768-.452a3.036 3.036 0 01-1.141-1.274c-.264-.548-.397-1.185-.397-1.911s.133-1.367.397-1.92a3.135 3.135 0 011.118-1.302c.48-.314 1.04-.471 1.68-.471.369 0 .734.061 1.094.184.36.123.688.324.983.6.296.275.531.638.707 1.09.175.453.263 1.01.263 1.671v.462h-5.466v-.942h4.358c0-.4-.08-.757-.24-1.07a1.812 1.812 0 00-.674-.744 1.888 1.888 0 00-1.025-.272c-.434 0-.809.107-1.126.323a2.122 2.122 0 00-.725.83 2.445 2.445 0 00-.254 1.1v.627c0 .536.092.99.277 1.362.188.37.448.65.78.845.332.19.719.286 1.159.286.286 0 .545-.04.775-.12.234-.083.436-.206.605-.37.169-.166.3-.372.393-.618l1.052.296a2.33 2.33 0 01-.559.941 2.714 2.714 0 01-.969.628 3.596 3.596 0 01-1.297.222zM33 147a3 3 0 013-3h31.571a3 3 0 013 3v21H33v-21z" fill="#717580"/><path d="M76.571 138a3 3 0 013-3h31.572a3 3 0 013 3v30H76.571v-30z" fill="#242A36"/><path d="M120.143 129a3 3 0 013-3h31.571a3 3 0 013 3v39h-37.571v-39zm43.571-9a3 3 0 013-3h31.572a3 3 0 013 3v48h-37.572v-48zm43.572-6a3 3 0 013-3h31.571a3 3 0 013 3v54h-37.571v-54zm43.571 12a3 3 0 013-3h31.572a3 3 0 013 3v42h-37.572v-42zm43.572-15a3 3 0 013-3H329a3 3 0 013 3v57h-37.571v-57z" fill="#D4F4DD"/><path d="M25 194c0-5.523 4.477-10 10-10h295c5.523 0 10 4.477 10 10v50c0 5.523-4.477 10-10 10H35c-5.523 0-10-4.477-10-10v-50z" fill="#F8F8F8"/><path d="M35 184v.4h295v-.8H35v.4zm305 10h-.4v50h.8v-50h-.4zm-10 60v-.4H35v.8h295v-.4zM25 244h.4v-50h-.8v50h.4zm10 10v-.4a9.6 9.6 0 01-9.6-9.6h-.8c0 5.744 4.656 10.4 10.4 10.4v-.4zm305-10h-.4a9.6 9.6 0 01-9.6 9.6v.8c5.744 0 10.4-4.656 10.4-10.4h-.4zm-10-60v.4a9.6 9.6 0 019.6 9.6h.8c0-5.744-4.656-10.4-10.4-10.4v.4zm-295 0v-.4c-5.744 0-10.4 4.656-10.4 10.4h.8a9.6 9.6 0 019.6-9.6v-.4z" fill="#E4E4E4"/><path d="M48 213v-1c0-1.414 0-2.121.44-2.56.438-.44 1.145-.44 2.56-.44h4c1.414 0 2.121 0 2.56.44.44.438.44 1.145.44 2.56v1c0 1.414 0 2.121-.44 2.56-.438.44-1.145.44-2.56.44h-1l-3 2v-2c-1.414 0-2.121 0-2.56-.44-.44-.438-.44-1.145-.44-2.56z" stroke="#0A9428" stroke-width="1.5" stroke-linejoin="round"/><path d="M44.59 225.74c-.629.422-2.277 1.282-1.273 2.358.49.526 1.037.902 1.723.902h3.92c.686 0 1.233-.376 1.723-.902 1.004-1.076-.644-1.936-1.273-2.357a4.289 4.289 0 00-4.82-.001zm12 0c-.629.422-2.277 1.282-1.273 2.358.49.526 1.037.902 1.723.902h3.92c.686 0 1.233-.376 1.723-.902 1.004-1.076-.644-1.936-1.273-2.357a4.289 4.289 0 00-4.82-.001zM49 220.5a2 2 0 11-4 0 2 2 0 014 0zm12 0a2 2 0 11-4 0 2 2 0 014 0z" stroke="#0A9428" stroke-width="1.5"/><path d="M78.438 217v-13.091h1.975v6.252h.16l5.49-6.252h2.487l-5.28 5.894 5.3 7.197h-2.378l-4.232-5.849-1.547 1.777V217h-1.975zm14.215.198c-.92 0-1.724-.211-2.41-.633a4.269 4.269 0 01-1.598-1.77c-.38-.759-.569-1.645-.569-2.659 0-1.019.19-1.909.57-2.672a4.248 4.248 0 011.597-1.777c.686-.422 1.49-.633 2.41-.633.92 0 1.724.211 2.41.633.686.422 1.218 1.014 1.598 1.777.379.763.569 1.653.569 2.672 0 1.014-.19 1.9-.57 2.659a4.27 4.27 0 01-1.597 1.77c-.686.422-1.49.633-2.41.633zm.006-1.604c.597 0 1.091-.158 1.483-.473a2.78 2.78 0 00.87-1.259 5.014 5.014 0 00.287-1.733 4.99 4.99 0 00-.288-1.726c-.187-.528-.477-.952-.869-1.272-.392-.319-.886-.479-1.483-.479-.6 0-1.1.16-1.496.479-.391.32-.683.744-.875 1.272a5.097 5.097 0 00-.281 1.726c0 .631.093 1.208.28 1.733.193.524.484.943.876 1.259.397.315.895.473 1.496.473zm7.615-4.424V217h-1.911v-9.818h1.834v1.598h.122c.226-.52.579-.938 1.061-1.253.486-.315 1.097-.473 1.834-.473.67 0 1.255.141 1.758.422.503.277.893.69 1.17 1.24.277.55.416 1.229.416 2.039V217h-1.912v-6.015c0-.712-.185-1.268-.556-1.668-.371-.405-.88-.607-1.527-.607a2.39 2.39 0 00-1.183.287 2.067 2.067 0 00-.812.844c-.196.366-.294.81-.294 1.329zm7.642 5.83v-1.31l5.318-6.757v-.089h-5.145v-1.662h7.53v1.393l-5.114 6.674v.089h5.293V217h-7.882zm15.356-4.072v-5.746h1.917V217h-1.879v-1.7h-.102a3.06 3.06 0 01-1.087 1.31c-.494.345-1.11.518-1.847.518-.631 0-1.189-.139-1.675-.416-.481-.281-.861-.696-1.138-1.246-.272-.55-.409-1.229-.409-2.039v-6.245h1.912v6.015c0 .669.185 1.201.556 1.598.37.396.852.594 1.444.594.358 0 .714-.089 1.068-.268.358-.179.654-.45.888-.812.239-.362.356-.822.352-1.381zm5.397-9.019V217h-1.912v-13.091h1.912zm6.154 3.273v1.534h-5.363v-1.534h5.363zm-3.925-2.352h1.911v9.287c0 .371.056.65.167.838.11.183.253.309.428.377.179.064.373.096.582.096.153 0 .287-.011.402-.032l.269-.052.345 1.579a3.114 3.114 0 01-.473.128c-.205.047-.46.073-.767.077a3.362 3.362 0 01-1.406-.269 2.405 2.405 0 01-1.055-.869c-.269-.392-.403-.884-.403-1.476v-9.684zm7.896 12.387a4.01 4.01 0 01-1.687-.345 2.839 2.839 0 01-1.195-1.016c-.29-.443-.435-.987-.435-1.63 0-.554.106-1.01.32-1.368.213-.358.5-.641.862-.85a4.49 4.49 0 011.215-.473 11.85 11.85 0 011.368-.243l1.432-.166c.366-.047.632-.122.799-.224.166-.102.249-.268.249-.499v-.044c0-.559-.158-.991-.473-1.298-.311-.307-.776-.46-1.394-.46-.643 0-1.15.143-1.521.428-.366.281-.62.595-.76.94l-1.797-.409c.213-.597.524-1.078.934-1.445a3.773 3.773 0 011.425-.805 5.55 5.55 0 011.694-.256c.392 0 .807.047 1.246.141.444.089.857.255 1.24.498.388.243.706.59.953 1.042.247.448.371 1.029.371 1.745V217h-1.867v-1.342h-.077a2.7 2.7 0 01-.556.728 2.949 2.949 0 01-.952.595c-.388.158-.852.236-1.394.236zm.416-1.534c.528 0 .98-.104 1.355-.313.379-.209.667-.481.863-.818.2-.341.3-.705.3-1.093v-1.266c-.068.068-.2.132-.396.192a6.376 6.376 0 01-.658.147c-.248.038-.488.075-.723.109a64.2 64.2 0 00-.588.076c-.37.047-.709.126-1.016.237-.303.111-.546.27-.729.479-.179.205-.268.478-.268.818 0 .473.175.831.524 1.074.349.239.795.358 1.336.358zm-.07-9.812l1.495-2.946h2.014l-1.982 2.946h-1.527zm10.181 11.327c-.95 0-1.769-.215-2.455-.645a4.272 4.272 0 01-1.572-1.797c-.367-.762-.55-1.636-.55-2.62 0-.997.188-1.877.563-2.64.375-.767.903-1.366 1.585-1.796.682-.431 1.485-.646 2.41-.646.745 0 1.41.139 1.994.415a3.583 3.583 0 011.413 1.151c.362.494.577 1.072.645 1.732h-1.86a2.227 2.227 0 00-.703-1.189c-.362-.332-.848-.498-1.457-.498-.533 0-1 .14-1.4.422-.397.277-.705.673-.927 1.189-.222.511-.332 1.116-.332 1.815 0 .716.108 1.334.326 1.854.217.52.524.922.92 1.208.401.285.871.428 1.413.428.362 0 .69-.066.984-.198.298-.137.548-.33.748-.582.204-.251.347-.554.428-.908h1.86a3.618 3.618 0 01-.62 1.701c-.345.498-.807.89-1.387 1.176-.575.285-1.251.428-2.026.428zm5.077-.198v-9.818h1.911V217h-1.911zm.965-11.333c-.332 0-.618-.111-.856-.332a1.08 1.08 0 01-.352-.806c0-.315.117-.584.352-.805a1.2 1.2 0 01.856-.339c.333 0 .616.113.85.339.239.221.358.49.358.805 0 .311-.119.58-.358.806a1.193 1.193 0 01-.85.332zm5.375 11.55a4.014 4.014 0 01-1.688-.345 2.839 2.839 0 01-1.195-1.016c-.29-.443-.435-.987-.435-1.63 0-.554.107-1.01.32-1.368a2.36 2.36 0 01.863-.85 4.483 4.483 0 011.214-.473c.448-.107.904-.188 1.368-.243l1.432-.166c.366-.047.633-.122.799-.224.166-.102.249-.268.249-.499v-.044c0-.559-.157-.991-.473-1.298-.311-.307-.775-.46-1.393-.46-.644 0-1.151.143-1.521.428-.367.281-.62.595-.761.94l-1.796-.409c.213-.597.524-1.078.933-1.445a3.773 3.773 0 011.425-.805 5.55 5.55 0 011.694-.256c.392 0 .808.047 1.247.141a3.64 3.64 0 011.24.498c.388.243.705.59.952 1.042.247.448.371 1.029.371 1.745V217h-1.867v-1.342h-.076c-.124.247-.309.49-.556.728a2.965 2.965 0 01-.953.595c-.388.158-.852.236-1.393.236zm.415-1.534c.529 0 .98-.104 1.355-.313.38-.209.667-.481.863-.818.201-.341.301-.705.301-1.093v-1.266c-.068.068-.201.132-.397.192a6.318 6.318 0 01-.658.147c-.247.038-.488.075-.722.109a56.2 56.2 0 00-.588.076c-.371.047-.71.126-1.017.237-.302.111-.545.27-.728.479-.179.205-.269.478-.269.818 0 .473.175.831.524 1.074.35.239.795.358 1.336.358z" fill="#242A36"/><path d="M81.063 242h-2.918v-9.455h3.047c.917 0 1.702.19 2.354.568a3.721 3.721 0 011.5 1.621c.348.701.522 1.542.522 2.52 0 .985-.175 1.833-.526 2.544a3.744 3.744 0 01-1.533 1.634c-.67.379-1.486.568-2.447.568zm-1.773-1.016h1.699c.781 0 1.43-.15 1.943-.452a2.79 2.79 0 001.15-1.288c.252-.557.378-1.22.378-1.99 0-.763-.124-1.42-.374-1.971a2.756 2.756 0 00-1.117-1.274c-.495-.299-1.112-.448-1.851-.448H79.29v7.423zm10.764 1.164c-.683 0-1.273-.151-1.768-.453a3.031 3.031 0 01-1.14-1.274c-.265-.548-.397-1.185-.397-1.911s.132-1.367.397-1.92c.267-.558.64-.991 1.117-1.302.48-.314 1.04-.471 1.68-.471.37 0 .734.061 1.094.184.36.124.688.324.983.601.296.274.531.637.707 1.089.175.452.263 1.01.263 1.671v.462h-5.466v-.942h4.358c0-.4-.08-.757-.24-1.071a1.804 1.804 0 00-.674-.743 1.884 1.884 0 00-1.025-.273c-.434 0-.81.108-1.126.324a2.121 2.121 0 00-.725.831c-.17.341-.254.707-.254 1.098v.628c0 .536.092.99.277 1.362a2 2 0 00.78.845c.333.191.719.286 1.159.286.286 0 .545-.04.775-.12.234-.083.436-.206.605-.369.17-.166.3-.373.393-.619l1.052.296c-.11.357-.297.67-.558.941a2.722 2.722 0 01-.97.628 3.59 3.59 0 01-1.297.222zm7.491-7.239v.923h-3.823v-.923h3.823zM94.867 242v-8.07c0-.406.096-.744.287-1.015a1.77 1.77 0 01.743-.61c.305-.135.626-.203.965-.203a2.524 2.524 0 011.034.185l-.314.942a4.884 4.884 0 00-.23-.07 1.431 1.431 0 00-.38-.041c-.36 0-.62.091-.78.272-.157.182-.235.448-.235.799V242h-1.09zm3.945 0v-7.091h1.09V242h-1.09zm.554-8.273a.773.773 0 01-.55-.217.695.695 0 01-.226-.521c0-.203.076-.377.227-.522a.773.773 0 01.549-.217c.212 0 .394.072.545.217.153.145.23.319.23.522a.69.69 0 01-.23.521.757.757 0 01-.545.217zm3.36 4.007V242h-1.089v-7.091h1.052v1.108h.093c.166-.36.418-.649.757-.868.338-.221.775-.332 1.311-.332.48 0 .9.098 1.26.295.36.194.64.49.84.887.2.394.3.892.3 1.495V242h-1.089v-4.432c0-.557-.145-.991-.434-1.302-.289-.314-.686-.471-1.191-.471a1.9 1.9 0 00-.933.227c-.27.15-.484.371-.641.66-.157.289-.236.64-.236 1.052zm6.255 4.266v-7.091h1.09V242h-1.09zm.056-8.051l1.126-2.142h1.274l-1.44 2.142h-.96zm5.65 8.199c-.665 0-1.237-.157-1.717-.471a3.065 3.065 0 01-1.108-1.297c-.259-.551-.388-1.181-.388-1.888 0-.721.132-1.356.397-1.907a3.14 3.14 0 011.117-1.297c.48-.314 1.04-.471 1.681-.471.498 0 .947.092 1.348.277.4.184.727.443.983.775.255.333.414.721.475 1.164h-1.089a1.69 1.69 0 00-.554-.859c-.283-.252-.665-.379-1.145-.379a1.91 1.91 0 00-1.117.333 2.159 2.159 0 00-.743.928c-.176.397-.264.863-.264 1.399 0 .547.087 1.024.259 1.431.175.406.422.721.739.946.32.225.695.337 1.126.337.283 0 .54-.049.771-.148.231-.098.426-.24.586-.424.16-.185.274-.407.342-.665h1.089a2.524 2.524 0 01-.457 1.131c-.24.332-.558.597-.955.794-.394.194-.853.291-1.376.291zm4.121-.148v-7.091h1.09V242h-1.09zm.554-8.273a.773.773 0 01-.549-.217.695.695 0 01-.227-.521c0-.203.076-.377.227-.522a.773.773 0 01.549-.217c.212 0 .394.072.545.217a.692.692 0 01.231.522.688.688 0 01-.231.521.759.759 0 01-.545.217zm4.358 8.439c-.45 0-.857-.084-1.224-.254a2.095 2.095 0 01-.872-.743c-.216-.326-.323-.72-.323-1.182 0-.406.08-.735.24-.988.16-.255.374-.455.641-.6.268-.144.564-.252.887-.323.326-.074.654-.132.983-.175.431-.056.78-.097 1.048-.125.271-.031.468-.082.591-.152.126-.071.189-.194.189-.37v-.037c0-.455-.125-.809-.374-1.061-.246-.253-.62-.379-1.122-.379-.52 0-.928.114-1.223.342-.295.227-.503.471-.623.729l-1.034-.369c.184-.431.431-.767.738-1.007.311-.243.65-.412 1.016-.507a4.19 4.19 0 011.089-.148c.228 0 .49.027.785.083.299.052.587.161.864.328.28.166.512.417.697.752.184.336.277.785.277 1.348V242h-1.09v-.96h-.055a1.918 1.918 0 01-.37.494 2.147 2.147 0 01-.687.448c-.287.123-.636.184-1.048.184zm.166-.978c.431 0 .794-.085 1.089-.254a1.724 1.724 0 00.905-1.501v-.997c-.046.056-.148.106-.305.152a4.888 4.888 0 01-.535.116 25.724 25.724 0 01-1.043.138 4.156 4.156 0 00-.794.18 1.36 1.36 0 00-.591.365c-.148.16-.222.379-.222.656 0 .378.14.664.42.858.283.191.642.287 1.076.287zm11.089.96c-.665 0-1.237-.157-1.717-.471a3.065 3.065 0 01-1.108-1.297c-.259-.551-.388-1.181-.388-1.888 0-.721.132-1.356.397-1.907a3.14 3.14 0 011.117-1.297c.48-.314 1.04-.471 1.681-.471.498 0 .948.092 1.348.277.4.184.728.443.983.775.255.333.414.721.475 1.164h-1.089a1.69 1.69 0 00-.554-.859c-.283-.252-.665-.379-1.145-.379a1.91 1.91 0 00-1.117.333 2.159 2.159 0 00-.743.928c-.176.397-.263.863-.263 1.399 0 .547.086 1.024.258 1.431.175.406.422.721.739.946.32.225.695.337 1.126.337.283 0 .54-.049.771-.148.231-.098.426-.24.586-.424.16-.185.274-.407.342-.665h1.089a2.513 2.513 0 01-1.412 1.925c-.394.194-.853.291-1.376.291zm4.121-.148v-7.091h1.09V242h-1.09zm.554-8.273a.773.773 0 01-.549-.217.694.694 0 01-.226-.521c0-.203.075-.377.226-.522a.773.773 0 01.549-.217c.212 0 .394.072.545.217a.692.692 0 01.231.522.688.688 0 01-.231.521.759.759 0 01-.545.217zm5.244 8.421c-.683 0-1.272-.151-1.768-.453a3.028 3.028 0 01-1.14-1.274c-.265-.548-.397-1.185-.397-1.911s.132-1.367.397-1.92c.267-.558.64-.991 1.117-1.302.48-.314 1.04-.471 1.68-.471.37 0 .734.061 1.094.184.361.124.688.324.984.601.295.274.531.637.706 1.089.175.452.263 1.01.263 1.671v.462h-5.466v-.942h4.358c0-.4-.08-.757-.24-1.071a1.8 1.8 0 00-.674-.743 1.884 1.884 0 00-1.025-.273c-.434 0-.809.108-1.126.324a2.118 2.118 0 00-.725.831 2.44 2.44 0 00-.254 1.098v.628c0 .536.093.99.277 1.362.188.369.448.651.78.845.333.191.719.286 1.159.286.286 0 .545-.04.776-.12.234-.083.435-.206.604-.369.17-.166.301-.373.393-.619l1.052.296c-.11.357-.297.67-.558.941a2.726 2.726 0 01-.97.628 3.586 3.586 0 01-1.297.222zm5.423-9.603V242h-1.089v-9.455h1.089zm.905 1.949v-2.392h1.117l-.323 2.392h-.794zm4.587 7.654c-.64 0-1.202-.153-1.685-.457a3.107 3.107 0 01-1.126-1.279c-.268-.548-.402-1.188-.402-1.92 0-.739.134-1.384.402-1.935a3.1 3.1 0 011.126-1.283c.483-.305 1.045-.457 1.685-.457.64 0 1.2.152 1.681.457.483.305.858.732 1.126 1.283.271.551.406 1.196.406 1.935 0 .732-.135 1.372-.406 1.92a3.066 3.066 0 01-1.126 1.279c-.481.304-1.041.457-1.681.457zm0-.979c.486 0 .887-.125 1.2-.374.314-.249.547-.577.698-.983.15-.406.226-.847.226-1.32a3.82 3.82 0 00-.226-1.325 2.231 2.231 0 00-.698-.993c-.313-.252-.714-.379-1.2-.379s-.886.127-1.2.379a2.23 2.23 0 00-.697.993 3.797 3.797 0 00-.226 1.325c0 .473.075.914.226 1.32.151.406.383.734.697.983.314.249.714.374 1.2.374zm10.161-6.26L163.348 242h-1.108l-2.623-7.091h1.182l1.958 5.651h.073l1.958-5.651h1.182z" fill="#717580"/><mask id="a" fill="#fff"><path d="M252 211c0-8.284 6.716-15 15-15h42c8.284 0 15 6.716 15 15 0 8.284-6.716 15-15 15h-42c-8.284 0-15-6.716-15-15z"/></mask><path d="M252 211c0-8.284 6.716-15 15-15h42c8.284 0 15 6.716 15 15 0 8.284-6.716 15-15 15h-42c-8.284 0-15-6.716-15-15z" fill="#fff"/><path d="M267 196v.8h42v-1.6h-42v.8zm42 30v-.8h-42v1.6h42v-.8zm-42 0v-.8c-7.842 0-14.2-6.358-14.2-14.2h-1.6c0 8.726 7.074 15.8 15.8 15.8v-.8zm57-15h-.8c0 7.842-6.357 14.2-14.2 14.2v1.6c8.726 0 15.8-7.074 15.8-15.8h-.8zm-15-15v.8c7.843 0 14.2 6.358 14.2 14.2h1.6c0-8.726-7.074-15.8-15.8-15.8v.8zm-42 0v-.8c-8.726 0-15.8 7.074-15.8 15.8h1.6c0-7.842 6.358-14.2 14.2-14.2v-.8z" fill="#E4E4E4" mask="url(#a)"/><path d="M265.353 210.836l.9-.919 2.336 2.304 4.944-4.926.914.919-5.858 5.835-3.236-3.213zM282.991 215h-3.061v-9.455h3.158c.926 0 1.722.19 2.387.568a3.744 3.744 0 011.528 1.621c.357.701.535 1.543.535 2.525 0 .985-.18 1.831-.54 2.539a3.786 3.786 0 01-1.551 1.634c-.677.379-1.496.568-2.456.568zm-1.634-1.246h1.556c.72 0 1.318-.136 1.795-.407a2.56 2.56 0 001.071-1.186c.237-.52.356-1.154.356-1.902 0-.742-.119-1.371-.356-1.888a2.505 2.505 0 00-1.047-1.177c-.465-.268-1.042-.402-1.732-.402h-1.643v6.962zm10.831 1.389c-.664 0-1.245-.152-1.74-.457a3.08 3.08 0 01-1.154-1.279c-.274-.547-.411-1.188-.411-1.92 0-.736.137-1.379.411-1.93a3.073 3.073 0 011.154-1.283c.495-.305 1.076-.457 1.74-.457.665 0 1.245.152 1.741.457.495.305.88.732 1.154 1.283.274.551.411 1.194.411 1.93 0 .732-.137 1.373-.411 1.92a3.087 3.087 0 01-1.154 1.279c-.496.305-1.076.457-1.741.457zm.005-1.159c.431 0 .788-.113 1.071-.341.283-.228.492-.531.628-.91.138-.378.207-.795.207-1.251 0-.452-.069-.868-.207-1.246a2.037 2.037 0 00-.628-.919c-.283-.231-.64-.346-1.071-.346-.434 0-.794.115-1.08.346a2.061 2.061 0 00-.633.919 3.684 3.684 0 00-.203 1.246c0 .456.068.873.203 1.251.139.379.349.682.633.91.286.228.646.341 1.08.341zm6.222-3.194V215h-1.381v-7.091h1.325v1.154h.088c.163-.375.419-.677.766-.905.351-.227.793-.341 1.325-.341.484 0 .907.101 1.27.304.363.201.645.499.845.896.2.397.3.888.3 1.473V215h-1.381v-4.344c0-.514-.133-.916-.401-1.205-.268-.292-.636-.439-1.104-.439-.32 0-.604.07-.854.208a1.5 1.5 0 00-.586.61c-.141.264-.212.584-.212.96zm9.445 4.353c-.699 0-1.3-.149-1.805-.448a3.028 3.028 0 01-1.163-1.269c-.271-.548-.407-1.19-.407-1.925 0-.727.136-1.367.407-1.921a3.151 3.151 0 011.145-1.297c.492-.311 1.067-.466 1.726-.466.4 0 .788.066 1.163.198.376.133.713.34 1.011.624.299.283.534.65.707 1.103.172.449.258.995.258 1.639v.489h-5.636v-1.034h4.284c0-.363-.074-.685-.222-.965a1.674 1.674 0 00-.623-.669 1.745 1.745 0 00-.933-.245 1.8 1.8 0 00-1.015.286 1.924 1.924 0 00-.665.739 2.13 2.13 0 00-.231.983v.808c0 .474.083.877.249 1.21.17.332.405.586.707.761.301.173.654.259 1.057.259.262 0 .5-.037.715-.111a1.478 1.478 0 00.919-.9l1.307.235a2.366 2.366 0 01-.564 1.011c-.267.287-.604.51-1.011.67a3.78 3.78 0 01-1.38.235z" fill="#0A9428"/><path d="M25 276c0-5.523 4.477-10 10-10h295c5.523 0 10 4.477 10 10v50c0 5.523-4.477 10-10 10H35c-5.523 0-10-4.477-10-10v-50z" fill="#F8F8F8"/><path d="M35 266v.4h295v-.8H35v.4zm305 10h-.4v50h.8v-50h-.4zm-10 60v-.4H35v.8h295v-.4zM25 326h.4v-50h-.8v50h.4zm10 10v-.4a9.6 9.6 0 01-9.6-9.6h-.8c0 5.744 4.656 10.4 10.4 10.4v-.4zm305-10h-.4a9.6 9.6 0 01-9.6 9.6v.8c5.744 0 10.4-4.656 10.4-10.4h-.4zm-10-60v.4a9.6 9.6 0 019.6 9.6h.8c0-5.744-4.656-10.4-10.4-10.4v.4zm-295 0v-.4c-5.744 0-10.4 4.656-10.4 10.4h.8a9.6 9.6 0 019.6-9.6v-.4z" fill="#E4E4E4"/><path d="M57.308 293.384c-.59 0-.886 0-1.155-.1l-.111-.046c-.261-.12-.47-.328-.888-.746-.962-.962-1.443-1.443-2.034-1.488a1.922 1.922 0 00-.24 0c-.591.045-1.072.526-2.034 1.488-.418.418-.627.627-.888.746l-.11.046c-.27.1-.565.1-1.156.1h-.11c-1.507 0-2.261 0-2.73.468-.469.468-.468 1.223-.468 2.73v.11c0 .59 0 .886-.1 1.155l-.046.111c-.12.261-.328.47-.746.888-.962.962-1.443 1.443-1.488 2.034-.005.08-.005.16 0 .24.045.591.526 1.072 1.488 2.034.418.418.627.627.746.888.017.036.032.073.046.11.1.27.1.565.1 1.156v.11c0 1.507 0 2.261.468 2.73.468.469 1.223.468 2.73.468h.11c.59 0 .886 0 1.155.1.038.014.075.029.111.046.261.12.47.328.888.746.962.962 1.443 1.443 2.034 1.488.08.006.16.006.24 0 .591-.045 1.072-.526 2.034-1.488.418-.418.627-.626.888-.746a1.45 1.45 0 01.11-.046c.27-.1.565-.1 1.156-.1h.11c1.507 0 2.261 0 2.73-.468.469-.468.468-1.223.468-2.73v-.11c0-.59 0-.886.1-1.155.014-.038.03-.075.046-.111.12-.261.328-.47.746-.888.962-.962 1.443-1.443 1.488-2.034.006-.08.006-.16 0-.24-.045-.591-.526-1.072-1.488-2.034-.418-.418-.626-.627-.746-.888l-.046-.11c-.1-.27-.1-.565-.1-1.156v-.11c0-1.507 0-2.261-.468-2.73-.468-.469-1.223-.468-2.73-.468h-.11z" stroke="#0A9428" stroke-width="1.5"/><path d="M49.5 305.5a4.046 4.046 0 013.5-2.02c1.496 0 2.801.812 3.5 2.02M55 299a2 2 0 11-4 0 2 2 0 014 0z" stroke="#0A9428" stroke-width="1.5" stroke-linecap="round"/><path d="M89.004 285.909V299H87.19l-6.654-9.601h-.122V299h-1.975v-13.091h1.828l6.66 9.614h.122v-9.614h1.956zm4.585 13.308a4.011 4.011 0 01-1.687-.345 2.84 2.84 0 01-1.195-1.016c-.29-.443-.435-.987-.435-1.63 0-.554.106-1.01.32-1.368.213-.358.5-.641.862-.85a4.482 4.482 0 011.215-.473 11.85 11.85 0 011.368-.243l1.432-.166c.366-.047.632-.122.799-.224.166-.102.249-.268.249-.499v-.044c0-.559-.158-.991-.473-1.298-.311-.307-.776-.46-1.394-.46-.643 0-1.15.143-1.52.428-.367.281-.62.595-.762.94l-1.796-.409c.213-.597.524-1.078.933-1.445a3.779 3.779 0 011.426-.805 5.549 5.549 0 011.694-.256c.392 0 .807.047 1.246.141.444.089.857.255 1.24.498.388.243.706.59.953 1.042.247.448.37 1.029.37 1.745V299h-1.866v-1.342h-.077a2.71 2.71 0 01-.556.728 2.955 2.955 0 01-.952.595c-.388.158-.853.236-1.394.236zm.416-1.534c.528 0 .98-.104 1.355-.313.38-.209.667-.481.863-.818.2-.341.3-.705.3-1.093v-1.266c-.068.068-.2.132-.396.192a6.368 6.368 0 01-.658.147 87.59 87.59 0 01-.723.109 64.2 64.2 0 00-.588.076c-.37.047-.71.126-1.016.237-.303.111-.546.27-.729.479-.179.205-.268.478-.268.818 0 .473.174.831.524 1.074.35.239.795.358 1.336.358zm13.332-6.104l-1.732.307a2.029 2.029 0 00-.345-.633 1.709 1.709 0 00-.626-.492c-.265-.128-.595-.192-.991-.192-.541 0-.993.121-1.355.364-.363.239-.544.548-.544.927 0 .328.122.592.365.793.243.2.635.364 1.176.492l1.559.358c.904.209 1.577.53 2.02.965.444.435.665.999.665 1.694 0 .588-.17 1.112-.511 1.572-.337.456-.808.814-1.413 1.074-.601.26-1.297.39-2.09.39-1.1 0-1.997-.234-2.691-.703-.695-.473-1.12-1.144-1.278-2.013l1.847-.282c.115.482.351.846.709 1.093.358.243.825.365 1.4.365.627 0 1.127-.13 1.502-.39.375-.264.563-.586.563-.965 0-.307-.115-.565-.345-.774-.226-.209-.574-.366-1.042-.473l-1.662-.364c-.916-.209-1.594-.541-2.033-.997-.435-.456-.652-1.034-.652-1.733 0-.579.162-1.086.486-1.521.324-.435.771-.773 1.342-1.016.571-.247 1.225-.371 1.963-.371 1.061 0 1.896.23 2.505.69.61.456 1.012 1.068 1.208 1.835zm5.877-2.397v1.534h-5.363v-1.534h5.363zm-3.925-2.352h1.911v9.287c0 .371.056.65.166.838a.868.868 0 00.429.377c.179.064.372.096.581.096.154 0 .288-.011.403-.032l.268-.052.346 1.579a3.114 3.114 0 01-.473.128 3.723 3.723 0 01-.767.077 3.37 3.37 0 01-1.407-.269 2.408 2.408 0 01-1.054-.869c-.269-.392-.403-.884-.403-1.476v-9.684zm7.896 12.387a4.006 4.006 0 01-1.687-.345 2.841 2.841 0 01-1.196-1.016c-.29-.443-.434-.987-.434-1.63 0-.554.106-1.01.319-1.368a2.36 2.36 0 01.863-.85 4.477 4.477 0 011.215-.473c.447-.107.903-.188 1.367-.243l1.432-.166c.367-.047.633-.122.799-.224.166-.102.25-.268.25-.499v-.044c0-.559-.158-.991-.473-1.298-.312-.307-.776-.46-1.394-.46-.643 0-1.15.143-1.521.428-.367.281-.62.595-.761.94l-1.796-.409c.213-.597.524-1.078.933-1.445a3.785 3.785 0 011.426-.805 5.546 5.546 0 011.694-.256c.392 0 .807.047 1.246.141.443.089.857.255 1.24.498.388.243.705.59.952 1.042.248.448.371 1.029.371 1.745V299h-1.866v-1.342h-.077c-.124.247-.309.49-.556.728a2.954 2.954 0 01-.953.595c-.387.158-.852.236-1.393.236zm.416-1.534c.528 0 .98-.104 1.355-.313.379-.209.667-.481.863-.818.2-.341.3-.705.3-1.093v-1.266c-.068.068-.2.132-.396.192a6.4 6.4 0 01-.659.147c-.247.038-.488.075-.722.109a64.2 64.2 0 00-.588.076c-.371.047-.71.126-1.016.237-.303.111-.546.27-.729.479-.179.205-.269.478-.269.818 0 .473.175.831.525 1.074.349.239.794.358 1.336.358zm14.022-8.501l-3.56 9.818h-2.045l-3.567-9.818h2.052l2.486 7.555h.102l2.481-7.555h2.051zm4.694 10.016c-.967 0-1.8-.206-2.499-.62a4.194 4.194 0 01-1.611-1.758c-.375-.758-.562-1.647-.562-2.665 0-1.006.187-1.892.562-2.659.379-.767.908-1.366 1.585-1.796.682-.431 1.479-.646 2.391-.646.554 0 1.091.092 1.611.275.52.183.986.471 1.4.863.413.392.739.901.978 1.527.238.623.357 1.379.357 2.27v.677h-7.804v-1.432h5.932a2.83 2.83 0 00-.307-1.336 2.314 2.314 0 00-.863-.926c-.367-.226-.797-.339-1.291-.339-.537 0-1.006.132-1.407.396-.396.26-.703.601-.92 1.023a2.95 2.95 0 00-.32 1.361v1.119c0 .656.115 1.214.346 1.675.234.46.56.811.978 1.054.417.239.905.358 1.463.358.363 0 .693-.051.991-.153.298-.107.556-.264.774-.473a2.06 2.06 0 00.498-.774l1.809.326c-.145.533-.405 1-.78 1.4a3.763 3.763 0 01-1.4.927c-.558.218-1.195.326-1.911.326zm7.244-6.028V299h-1.911v-9.818h1.835v1.598h.121c.226-.52.58-.938 1.061-1.253.486-.315 1.097-.473 1.835-.473.669 0 1.255.141 1.757.422.503.277.893.69 1.17 1.24.277.55.416 1.229.416 2.039V299h-1.912v-6.015c0-.712-.185-1.268-.556-1.668-.37-.405-.88-.607-1.527-.607a2.39 2.39 0 00-1.183.287 2.074 2.074 0 00-.812.844c-.196.366-.294.81-.294 1.329zm7.847 5.83v-9.818h1.911V299h-1.911zm.965-11.333c-.332 0-.618-.111-.856-.332a1.08 1.08 0 01-.352-.806c0-.315.117-.584.352-.805a1.2 1.2 0 01.856-.339c.332 0 .616.113.85.339.239.221.358.49.358.805 0 .311-.119.58-.358.806a1.195 1.195 0 01-.85.332zm6.749 11.531c-.968 0-1.801-.206-2.499-.62a4.194 4.194 0 01-1.611-1.758c-.375-.758-.563-1.647-.563-2.665 0-1.006.188-1.892.563-2.659.379-.767.907-1.366 1.585-1.796.682-.431 1.479-.646 2.391-.646.554 0 1.09.092 1.61.275.52.183.987.471 1.4.863.414.392.74.901.978 1.527.239.623.358 1.379.358 2.27v.677h-7.805v-1.432h5.932c0-.502-.102-.948-.307-1.336a2.311 2.311 0 00-.862-.926c-.367-.226-.797-.339-1.292-.339-.537 0-1.005.132-1.406.396-.396.26-.703.601-.92 1.023a2.95 2.95 0 00-.32 1.361v1.119c0 .656.115 1.214.345 1.675.235.46.561.811.978 1.054.418.239.906.358 1.464.358.362 0 .692-.051.991-.153a2.05 2.05 0 001.272-1.247l1.809.326c-.145.533-.405 1-.78 1.4a3.763 3.763 0 01-1.4.927c-.558.218-1.195.326-1.911.326z" fill="#242A36"/><path d="M78.145 324v-9.455h1.145v4.691h.11l4.248-4.691h1.496l-3.97 4.266 3.97 5.189h-1.386l-3.286-4.395-1.182 1.33V324h-1.145zm10.16.166a2.87 2.87 0 01-1.224-.254 2.097 2.097 0 01-.873-.743c-.215-.326-.323-.72-.323-1.182 0-.406.08-.735.24-.988a1.7 1.7 0 01.642-.6c.268-.144.563-.252.886-.323.327-.074.654-.132.984-.175.43-.056.78-.097 1.048-.125.27-.031.467-.082.59-.152.127-.071.19-.194.19-.37v-.037c0-.455-.125-.809-.374-1.061-.246-.253-.62-.379-1.122-.379-.52 0-.928.114-1.223.342-.296.227-.503.471-.623.729l-1.035-.369c.185-.431.431-.767.739-1.007a2.76 2.76 0 011.016-.507 4.191 4.191 0 011.09-.148c.227 0 .488.027.784.083.299.052.586.161.863.328.28.166.513.417.697.752.185.336.277.785.277 1.348V324h-1.09v-.96h-.055a1.928 1.928 0 01-.369.494 2.154 2.154 0 01-.688.448c-.286.123-.635.184-1.048.184zm.165-.978c.431 0 .794-.085 1.09-.254a1.733 1.733 0 00.905-1.501v-.997c-.046.056-.148.106-.305.152a4.94 4.94 0 01-.535.116 25.201 25.201 0 01-1.044.138 4.174 4.174 0 00-.794.18 1.37 1.37 0 00-.59.365c-.148.16-.222.379-.222.656 0 .378.14.664.42.858.283.191.642.287 1.076.287zm4.813.812v-7.091h1.052v1.108h.093c.147-.378.386-.672.715-.882.33-.212.725-.318 1.187-.318.468 0 .857.106 1.168.318.314.21.558.504.734.882h.074a2.06 2.06 0 01.817-.872c.363-.219.798-.328 1.306-.328.634 0 1.153.198 1.556.595.403.394.605 1.008.605 1.842V324h-1.09v-4.746c0-.523-.143-.897-.429-1.122a1.592 1.592 0 00-1.011-.337c-.499 0-.885.151-1.159.453-.274.298-.41.677-.41 1.136V324h-1.109v-4.857c0-.403-.13-.727-.392-.974-.262-.249-.599-.374-1.011-.374-.283 0-.548.076-.794.227a1.7 1.7 0 00-.591.628c-.148.264-.222.57-.222.918V324h-1.09zm11.039 2.659v-9.75h1.052v1.127h.129c.08-.124.191-.281.333-.471.145-.194.351-.367.618-.517.271-.154.638-.231 1.099-.231.597 0 1.124.149 1.579.448.456.298.811.721 1.066 1.269.256.548.384 1.194.384 1.939 0 .751-.128 1.402-.384 1.953-.255.548-.609.972-1.061 1.274a2.782 2.782 0 01-1.565.448c-.456 0-.821-.076-1.094-.226a2.033 2.033 0 01-.633-.522 6.989 6.989 0 01-.342-.489h-.092v3.748h-1.089zm1.071-6.204c0 .535.078 1.008.235 1.417.157.406.386.725.688.955.302.228.671.342 1.108.342.455 0 .836-.12 1.14-.36.308-.243.539-.569.693-.979.157-.412.235-.871.235-1.375 0-.499-.077-.948-.231-1.348a2.08 2.08 0 00-.688-.956c-.304-.237-.687-.356-1.149-.356-.443 0-.816.113-1.117.337-.302.222-.53.533-.683.933-.154.397-.231.86-.231 1.39zm8.677 3.711a2.87 2.87 0 01-1.223-.254 2.104 2.104 0 01-.873-.743c-.215-.326-.323-.72-.323-1.182 0-.406.08-.735.24-.988.16-.255.374-.455.642-.6.268-.144.563-.252.886-.323.326-.074.654-.132.984-.175.43-.056.78-.097 1.048-.125.27-.031.467-.082.59-.152.127-.071.19-.194.19-.37v-.037c0-.455-.125-.809-.374-1.061-.246-.253-.62-.379-1.122-.379-.52 0-.928.114-1.223.342-.296.227-.504.471-.624.729l-1.034-.369c.185-.431.431-.767.739-1.007a2.76 2.76 0 011.016-.507 4.19 4.19 0 011.089-.148c.228 0 .489.027.785.083.298.052.586.161.863.328.28.166.513.417.697.752.185.336.277.785.277 1.348V324h-1.089v-.96h-.056a1.935 1.935 0 01-.369.494 2.153 2.153 0 01-.688.448c-.286.123-.635.184-1.048.184zm.166-.978c.431 0 .794-.085 1.09-.254.298-.17.523-.388.674-.656a1.67 1.67 0 00.231-.845v-.997c-.046.056-.148.106-.305.152a4.91 4.91 0 01-.536.116 24.954 24.954 0 01-1.043.138 4.173 4.173 0 00-.794.18c-.243.08-.44.202-.591.365-.148.16-.221.379-.221.656 0 .378.14.664.42.858.283.191.641.287 1.075.287zm5.902-3.454V324h-1.089v-7.091h1.052v1.108h.093c.166-.36.418-.649.757-.868.338-.221.775-.332 1.311-.332.48 0 .9.098 1.26.295.36.194.64.49.84.887.2.394.3.892.3 1.495V324h-1.089v-4.432c0-.557-.145-.991-.434-1.302-.289-.314-.686-.471-1.191-.471a1.9 1.9 0 00-.933.227c-.27.15-.484.371-.641.66-.157.289-.236.64-.236 1.052zm9.228 4.414c-.683 0-1.272-.151-1.768-.453a3.034 3.034 0 01-1.14-1.274c-.265-.548-.397-1.185-.397-1.911s.132-1.367.397-1.92a3.13 3.13 0 011.117-1.302c.48-.314 1.04-.471 1.68-.471.37 0 .734.061 1.095.184.36.124.687.324.983.601.295.274.531.637.706 1.089.176.452.263 1.01.263 1.671v.462h-5.466v-.942h4.358c0-.4-.08-.757-.24-1.071a1.8 1.8 0 00-.674-.743 1.884 1.884 0 00-1.025-.273c-.434 0-.809.108-1.126.324a2.118 2.118 0 00-.725.831 2.44 2.44 0 00-.254 1.098v.628c0 .536.093.99.277 1.362.188.369.448.651.78.845.333.191.719.286 1.159.286.286 0 .545-.04.776-.12.234-.083.435-.206.605-.369.169-.166.3-.373.392-.619l1.053.296a2.33 2.33 0 01-.559.941 2.726 2.726 0 01-.97.628 3.586 3.586 0 01-1.297.222zm10.407-.019c-.621 0-1.157-.114-1.606-.341a2.525 2.525 0 01-1.039-.937 2.556 2.556 0 01-.365-1.362c0-.394.084-.744.25-1.048.169-.308.401-.593.697-.854.298-.265.642-.53 1.029-.794l1.367-1.016c.268-.175.481-.363.642-.563.163-.2.244-.462.244-.785 0-.24-.106-.472-.318-.697-.21-.225-.485-.337-.827-.337-.24 0-.452.061-.637.185-.181.12-.324.273-.429.461a1.17 1.17 0 00-.152.573c0 .221.06.446.18.674.123.224.278.455.466.692l.591.72 4.339 5.3h-1.311l-3.582-4.321-.905-1.089a5.192 5.192 0 01-.646-.965c-.16-.317-.24-.66-.24-1.03 0-.425.093-.797.281-1.117.191-.323.457-.574.799-.752.345-.182.748-.273 1.209-.273.474 0 .882.092 1.224.277.341.182.604.423.789.725.185.298.277.623.277.974 0 .452-.112.845-.337 1.177a3.839 3.839 0 01-.919.928l-1.883 1.404c-.425.313-.713.618-.863.914-.151.295-.227.507-.227.637 0 .295.077.571.231.826.154.255.371.462.651.619.28.157.608.235.984.235.357 0 .704-.075 1.043-.226.338-.154.645-.376.919-.665a3.18 3.18 0 00.655-1.043c.163-.406.245-.864.245-1.371h1.052c0 .628-.072 1.14-.217 1.537-.144.397-.307.708-.489.932a6.828 6.828 0 01-.439.504c-.037.046-.07.092-.101.138a2.049 2.049 0 01-.102.139 2.795 2.795 0 01-1.154.766 4.071 4.071 0 01-1.376.249zm9.31-.129h-1.2l3.471-9.455h1.182l3.472 9.455h-1.2l-2.826-7.959h-.074L149.083 324zm.443-3.693h4.838v1.015h-4.838v-1.015zm8.636-.573V324h-1.089v-7.091h1.052v1.108h.093c.166-.36.418-.649.757-.868.338-.221.775-.332 1.311-.332.48 0 .9.098 1.26.295.36.194.64.49.84.887.2.394.3.892.3 1.495V324h-1.089v-4.432c0-.557-.145-.991-.434-1.302-.289-.314-.686-.471-1.191-.471a1.9 1.9 0 00-.933.227c-.27.15-.484.371-.641.66-.157.289-.236.64-.236 1.052zm8.342 4.432c-.449 0-.857-.084-1.224-.254a2.095 2.095 0 01-.872-.743c-.215-.326-.323-.72-.323-1.182 0-.406.08-.735.24-.988.16-.255.374-.455.642-.6.267-.144.563-.252.886-.323.326-.074.654-.132.983-.175.431-.056.78-.097 1.048-.125.271-.031.468-.082.591-.152.126-.071.189-.194.189-.37v-.037c0-.455-.124-.809-.374-1.061-.246-.253-.62-.379-1.121-.379-.52 0-.928.114-1.224.342-.295.227-.503.471-.623.729l-1.034-.369c.185-.431.431-.767.739-1.007.31-.243.649-.412 1.015-.507.37-.099.733-.148 1.09-.148.227 0 .489.027.784.083.299.052.587.161.864.328.28.166.512.417.697.752.185.336.277.785.277 1.348V324h-1.09v-.96h-.055a1.935 1.935 0 01-.369.494 2.164 2.164 0 01-.688.448c-.286.123-.636.184-1.048.184zm.166-.978c.431 0 .794-.085 1.09-.254.298-.17.523-.388.674-.656.153-.268.23-.549.23-.845v-.997c-.046.056-.147.106-.304.152a4.962 4.962 0 01-.536.116 24.954 24.954 0 01-1.043.138 4.173 4.173 0 00-.794.18c-.243.08-.44.202-.591.365-.148.16-.222.379-.222.656 0 .378.14.664.42.858.284.191.642.287 1.076.287zm5.902-8.643V324h-1.09v-9.455h1.09zm2.437 12.114c-.185 0-.349-.015-.494-.046a1.292 1.292 0 01-.3-.083l.277-.96c.265.067.499.092.702.073a.839.839 0 00.54-.272c.16-.16.306-.42.438-.78l.204-.554-2.623-7.128h1.182l1.958 5.651h.073l1.958-5.651h1.182l-3.01 8.125c-.136.366-.303.67-.503.91a1.895 1.895 0 01-.698.54 2.146 2.146 0 01-.886.175zm9.359-9.75v.923h-3.675v-.923h3.675zm-2.604-1.699h1.089v6.759c0 .308.045.538.134.692a.693.693 0 00.351.305c.145.049.297.074.457.074.12 0 .219-.006.296-.019l.184-.037.222.979a2.213 2.213 0 01-.31.083c-.132.031-.3.046-.503.046a2.2 2.2 0 01-.905-.198 1.796 1.796 0 01-.729-.605c-.191-.271-.286-.612-.286-1.025v-7.054zm3.982 8.79v-7.091h1.09V324h-1.09zm.554-8.273a.773.773 0 01-.549-.217.694.694 0 01-.226-.521c0-.203.075-.377.226-.522a.773.773 0 01.549-.217c.213 0 .394.072.545.217a.692.692 0 01.231.522.688.688 0 01-.231.521.757.757 0 01-.545.217zm5.152 8.421c-.665 0-1.237-.157-1.717-.471a3.065 3.065 0 01-1.108-1.297c-.259-.551-.388-1.181-.388-1.888 0-.721.132-1.356.397-1.907a3.14 3.14 0 011.117-1.297c.48-.314 1.04-.471 1.681-.471.498 0 .947.092 1.348.277.4.184.727.443.983.775.255.333.414.721.475 1.164h-1.089a1.69 1.69 0 00-.554-.859c-.283-.252-.665-.379-1.145-.379a1.91 1.91 0 00-1.117.333 2.159 2.159 0 00-.743.928c-.176.397-.264.863-.264 1.399 0 .547.087 1.024.259 1.431.175.406.422.721.739.946.32.225.695.337 1.126.337.283 0 .54-.049.771-.148.231-.098.426-.24.586-.424.16-.185.274-.407.342-.665h1.089a2.524 2.524 0 01-.457 1.131c-.24.332-.558.597-.955.794-.394.194-.853.291-1.376.291zm9.144-5.651l-.979.277a1.803 1.803 0 00-.272-.475 1.317 1.317 0 00-.48-.388c-.204-.102-.464-.152-.781-.152-.434 0-.795.1-1.084.3-.287.197-.43.447-.43.752 0 .271.099.485.296.642.197.157.504.288.923.392l1.052.259c.634.154 1.107.389 1.418.706.311.314.466.719.466 1.214 0 .406-.117.77-.351 1.09-.231.32-.554.572-.969.757-.416.184-.899.277-1.45.277-.723 0-1.322-.157-1.796-.471-.474-.314-.774-.773-.9-1.376l1.034-.258c.099.381.285.667.559.858.277.191.638.287 1.085.287.507 0 .911-.108 1.209-.324.302-.218.453-.48.453-.784a.826.826 0 00-.259-.619c-.172-.169-.437-.295-.794-.379l-1.182-.277c-.649-.153-1.126-.392-1.431-.715-.301-.326-.452-.734-.452-1.223 0-.401.112-.755.337-1.062.227-.308.537-.55.928-.725.394-.175.84-.263 1.338-.263.702 0 1.253.154 1.653.461.403.308.689.714.859 1.219z" fill="#717580"/><mask id="b" fill="#fff"><path d="M252 293c0-8.284 6.716-15 15-15h42c8.284 0 15 6.716 15 15 0 8.284-6.716 15-15 15h-42c-8.284 0-15-6.716-15-15z"/></mask><path d="M252 293c0-8.284 6.716-15 15-15h42c8.284 0 15 6.716 15 15 0 8.284-6.716 15-15 15h-42c-8.284 0-15-6.716-15-15z" fill="#fff"/><path d="M267 278v.8h42v-1.6h-42v.8zm42 30v-.8h-42v1.6h42v-.8zm-42 0v-.8c-7.842 0-14.2-6.358-14.2-14.2h-1.6c0 8.726 7.074 15.8 15.8 15.8v-.8zm57-15h-.8c0 7.842-6.357 14.2-14.2 14.2v1.6c8.726 0 15.8-7.074 15.8-15.8h-.8zm-15-15v.8c7.843 0 14.2 6.358 14.2 14.2h1.6c0-8.726-7.074-15.8-15.8-15.8v.8zm-42 0v-.8c-8.726 0-15.8 7.074-15.8 15.8h1.6c0-7.842 6.358-14.2 14.2-14.2v-.8z" fill="#E4E4E4" mask="url(#b)"/><path d="M265.353 292.836l.9-.919 2.336 2.304 4.944-4.926.914.919-5.858 5.835-3.236-3.213zM282.991 297h-3.061v-9.455h3.158c.926 0 1.722.19 2.387.568a3.744 3.744 0 011.528 1.621c.357.701.535 1.543.535 2.525 0 .985-.18 1.831-.54 2.539a3.786 3.786 0 01-1.551 1.634c-.677.379-1.496.568-2.456.568zm-1.634-1.246h1.556c.72 0 1.318-.136 1.795-.407a2.56 2.56 0 001.071-1.186c.237-.52.356-1.154.356-1.902 0-.742-.119-1.371-.356-1.888a2.505 2.505 0 00-1.047-1.177c-.465-.268-1.042-.402-1.732-.402h-1.643v6.962zm10.831 1.389c-.664 0-1.245-.152-1.74-.457a3.08 3.08 0 01-1.154-1.279c-.274-.547-.411-1.188-.411-1.92 0-.736.137-1.379.411-1.93a3.073 3.073 0 011.154-1.283c.495-.305 1.076-.457 1.74-.457.665 0 1.245.152 1.741.457.495.305.88.732 1.154 1.283.274.551.411 1.194.411 1.93 0 .732-.137 1.373-.411 1.92a3.087 3.087 0 01-1.154 1.279c-.496.305-1.076.457-1.741.457zm.005-1.159c.431 0 .788-.113 1.071-.341.283-.228.492-.531.628-.91.138-.378.207-.795.207-1.251 0-.452-.069-.868-.207-1.246a2.037 2.037 0 00-.628-.919c-.283-.231-.64-.346-1.071-.346-.434 0-.794.115-1.08.346a2.061 2.061 0 00-.633.919 3.684 3.684 0 00-.203 1.246c0 .456.068.873.203 1.251.139.379.349.682.633.91.286.228.646.341 1.08.341zm6.222-3.194V297h-1.381v-7.091h1.325v1.154h.088c.163-.375.419-.677.766-.905.351-.227.793-.341 1.325-.341.484 0 .907.101 1.27.304.363.201.645.499.845.896.2.397.3.888.3 1.473V297h-1.381v-4.344c0-.514-.133-.916-.401-1.205-.268-.292-.636-.439-1.104-.439-.32 0-.604.07-.854.208a1.5 1.5 0 00-.586.61c-.141.264-.212.584-.212.96zm9.445 4.353c-.699 0-1.3-.149-1.805-.448a3.028 3.028 0 01-1.163-1.269c-.271-.548-.407-1.19-.407-1.925 0-.727.136-1.367.407-1.921a3.151 3.151 0 011.145-1.297c.492-.311 1.067-.466 1.726-.466.4 0 .788.066 1.163.198.376.133.713.34 1.011.624.299.283.534.65.707 1.103.172.449.258.995.258 1.639v.489h-5.636v-1.034h4.284c0-.363-.074-.685-.222-.965a1.674 1.674 0 00-.623-.669 1.745 1.745 0 00-.933-.245 1.8 1.8 0 00-1.015.286 1.924 1.924 0 00-.665.739 2.13 2.13 0 00-.231.983v.808c0 .474.083.877.249 1.21.17.332.405.586.707.761.301.173.654.259 1.057.259.262 0 .5-.037.715-.111a1.478 1.478 0 00.919-.9l1.307.235a2.366 2.366 0 01-.564 1.011c-.267.287-.604.51-1.011.67a3.78 3.78 0 01-1.38.235z" fill="#0A9428"/><path d="M25 358c0-5.523 4.477-10 10-10h295c5.523 0 10 4.477 10 10v50c0 5.523-4.477 10-10 10H35c-5.523 0-10-4.477-10-10v-50z" fill="#F8F8F8"/><path d="M35 348v.4h295v-.8H35v.4zm305 10h-.4v50h.8v-50h-.4zm-10 60v-.4H35v.8h295v-.4zM25 408h.4v-50h-.8v50h.4zm10 10v-.4a9.6 9.6 0 01-9.6-9.6h-.8c0 5.744 4.656 10.4 10.4 10.4v-.4zm305-10h-.4a9.6 9.6 0 01-9.6 9.6v.8c5.744 0 10.4-4.656 10.4-10.4h-.4zm-10-60v.4a9.6 9.6 0 019.6 9.6h.8c0-5.744-4.656-10.4-10.4-10.4v.4zm-295 0v-.4c-5.744 0-10.4 4.656-10.4 10.4h.8a9.6 9.6 0 019.6-9.6v-.4z" fill="#E4E4E4"/><path d="M45.318 390.682C44 389.364 44 387.242 44 383c0-4.242 0-6.364 1.318-7.682C46.636 374 48.758 374 53 374c4.242 0 6.364 0 7.682 1.318C62 376.636 62 378.758 62 383c0 4.242 0 6.364-1.318 7.682C59.364 392 57.242 392 53 392c-4.242 0-6.364 0-7.682-1.318z" stroke="#FFC721" stroke-width="1.5" stroke-linecap="round" stroke-linejoin="round"/><path d="M48 385l2.793-2.793a1.002 1.002 0 011.414 0l1.586 1.586a1.002 1.002 0 001.414 0L58 381" stroke="#FFC721" stroke-width="1.5" stroke-linecap="round" stroke-linejoin="round"/><path d="M89.81 374.455c0 1.397-.256 2.599-.767 3.605-.512 1.001-1.213 1.772-2.103 2.314-.887.537-1.894.805-3.024.805-1.133 0-2.145-.268-3.036-.805-.886-.542-1.585-1.315-2.097-2.321-.511-1.005-.767-2.205-.767-3.598 0-1.398.256-2.598.767-3.599.512-1.006 1.21-1.777 2.097-2.314.89-.541 1.903-.812 3.036-.812 1.13 0 2.137.271 3.024.812.89.537 1.591 1.308 2.103 2.314.511 1.001.767 2.201.767 3.599zm-1.956 0c0-1.066-.173-1.963-.518-2.692-.341-.732-.81-1.286-1.406-1.661-.593-.38-1.264-.569-2.014-.569-.754 0-1.427.189-2.02.569-.592.375-1.06.929-1.406 1.661-.34.729-.511 1.626-.511 2.692 0 1.065.17 1.964.511 2.697.345.729.814 1.283 1.406 1.662.593.375 1.266.562 2.02.562.75 0 1.421-.187 2.014-.562.596-.379 1.065-.933 1.406-1.662.345-.733.518-1.632.518-2.697zm3.265 10.227v-13.5h1.866v1.591h.16c.11-.204.27-.441.48-.709.208-.269.498-.503.869-.703.37-.205.86-.307 1.47-.307.793 0 1.5.2 2.122.601.622.4 1.11.978 1.464 1.732.358.754.537 1.662.537 2.723s-.177 1.971-.53 2.729c-.354.755-.84 1.336-1.458 1.746-.618.404-1.323.607-2.116.607-.597 0-1.084-.1-1.464-.301-.375-.2-.669-.434-.882-.703a5.273 5.273 0 01-.492-.716h-.115v5.21h-1.911zm1.873-8.591c0 .69.1 1.295.3 1.815.2.52.49.927.87 1.221.379.29.843.435 1.393.435.57 0 1.048-.151 1.432-.454.383-.307.673-.722.869-1.246.2-.525.3-1.115.3-1.771 0-.648-.098-1.229-.294-1.745-.191-.516-.481-.923-.869-1.221-.383-.298-.863-.447-1.438-.447-.554 0-1.023.142-1.406.428-.38.285-.667.684-.863 1.195-.196.512-.294 1.108-.294 1.79zm12.819-4.909v1.534h-5.363v-1.534h5.363zm-3.924-2.352h1.911v9.287c0 .371.055.65.166.838a.875.875 0 00.428.377c.179.064.373.096.582.096.153 0 .288-.011.403-.032l.268-.052.345 1.579a3.081 3.081 0 01-.473.128c-.204.047-.46.073-.767.077a3.365 3.365 0 01-1.406-.269 2.41 2.41 0 01-1.055-.869c-.268-.392-.402-.884-.402-1.477v-9.683zm5.038 12.17v-9.818h1.912V381h-1.912zm.966-11.333c-.333 0-.618-.111-.857-.332a1.083 1.083 0 01-.351-.806c0-.315.117-.584.351-.805.239-.226.524-.339.857-.339.332 0 .615.113.85.339.238.221.358.49.358.805 0 .311-.12.58-.358.806a1.196 1.196 0 01-.85.332zM110.408 381v-9.818h1.834v1.598h.122a2.539 2.539 0 011.003-1.266c.465-.307 1.021-.46 1.669-.46.656 0 1.206.153 1.649.46.447.307.778.729.991 1.266h.102a2.762 2.762 0 011.118-1.253c.512-.315 1.121-.473 1.829-.473.89 0 1.617.279 2.179.837.567.559.85 1.4.85 2.525V381h-1.911v-6.405c0-.665-.181-1.146-.543-1.444-.362-.299-.795-.448-1.298-.448-.622 0-1.106.192-1.451.575-.345.38-.517.868-.517 1.464V381h-1.905v-6.526c0-.533-.166-.961-.499-1.285-.332-.324-.765-.486-1.297-.486-.363 0-.697.096-1.004.288a2.096 2.096 0 00-.735.786 2.414 2.414 0 00-.275 1.17V381h-1.911zm17.765.217a4.01 4.01 0 01-1.687-.345 2.847 2.847 0 01-1.196-1.016c-.289-.443-.434-.987-.434-1.63 0-.554.106-1.01.319-1.368.214-.358.501-.641.863-.85a4.49 4.49 0 011.215-.473 11.85 11.85 0 011.368-.243l1.432-.166c.366-.047.632-.122.799-.224.166-.102.249-.268.249-.499v-.044c0-.559-.158-.991-.473-1.298-.311-.307-.776-.46-1.394-.46-.643 0-1.15.143-1.521.428-.366.281-.62.595-.761.94l-1.796-.409c.213-.597.524-1.078.933-1.445a3.785 3.785 0 011.426-.805 5.546 5.546 0 011.694-.256c.392 0 .807.047 1.246.141.443.089.857.255 1.24.498.388.243.706.59.953 1.042.247.448.37 1.029.37 1.745V381h-1.866v-1.342h-.077a2.7 2.7 0 01-.556.728 2.949 2.949 0 01-.952.595c-.388.157-.853.236-1.394.236zm.416-1.534c.528 0 .98-.104 1.355-.313a2.2 2.2 0 00.863-.818c.2-.341.3-.705.3-1.093v-1.266c-.068.068-.2.132-.396.192a6.376 6.376 0 01-.658.147c-.248.038-.488.075-.723.109a64.2 64.2 0 00-.588.076 4.729 4.729 0 00-1.016.237c-.303.111-.546.27-.729.479-.179.205-.268.478-.268.818 0 .473.174.831.524 1.074.349.239.795.358 1.336.358zm7.886-11.774V381h-1.911v-13.091h1.911zM138.047 381v-9.818h1.911V381h-1.911zm.965-11.333c-.333 0-.618-.111-.857-.332a1.083 1.083 0 01-.351-.806c0-.315.117-.584.351-.805.239-.226.524-.339.857-.339.332 0 .615.113.85.339.239.221.358.49.358.805 0 .311-.119.58-.358.806a1.196 1.196 0 01-.85.332zM141.324 381v-1.31l5.319-6.757v-.089h-5.146v-1.662h7.53v1.393l-5.114 6.674v.089h5.293V381h-7.882zm11.994.217a4.014 4.014 0 01-1.688-.345 2.839 2.839 0 01-1.195-1.016c-.29-.443-.435-.987-.435-1.63 0-.554.107-1.01.32-1.368a2.36 2.36 0 01.863-.85 4.483 4.483 0 011.214-.473c.448-.107.904-.188 1.368-.243l1.432-.166c.367-.047.633-.122.799-.224.166-.102.249-.268.249-.499v-.044c0-.559-.157-.991-.473-1.298-.311-.307-.775-.46-1.393-.46-.644 0-1.151.143-1.521.428-.367.281-.62.595-.761.94l-1.796-.409c.213-.597.524-1.078.933-1.445a3.78 3.78 0 011.425-.805 5.55 5.55 0 011.694-.256c.392 0 .808.047 1.247.141a3.64 3.64 0 011.24.498c.388.243.705.59.952 1.042.247.448.371 1.029.371 1.745V381h-1.866v-1.342h-.077c-.124.247-.309.49-.556.728a2.954 2.954 0 01-.953.595c-.387.157-.852.236-1.393.236zm.415-1.534c.529 0 .98-.104 1.355-.313.38-.209.667-.482.863-.818.201-.341.301-.705.301-1.093v-1.266c-.068.068-.2.132-.397.192a6.318 6.318 0 01-.658.147c-.247.038-.488.075-.722.109a56.2 56.2 0 00-.588.076c-.371.047-.71.126-1.017.237-.302.111-.545.27-.728.479-.179.205-.269.478-.269.818 0 .473.175.831.524 1.074.35.239.795.358 1.336.358zm-.07-9.812l1.496-2.946h2.013l-1.981 2.946h-1.528zm10.181 11.327c-.95 0-1.768-.215-2.454-.645a4.28 4.28 0 01-1.573-1.797c-.366-.762-.549-1.636-.549-2.62 0-.998.187-1.877.562-2.64.375-.767.903-1.366 1.585-1.796.682-.431 1.485-.646 2.41-.646.746 0 1.411.138 1.994.415a3.583 3.583 0 011.413 1.151c.362.494.577 1.072.646 1.732h-1.86a2.235 2.235 0 00-.704-1.189c-.362-.332-.848-.498-1.457-.498-.533 0-.999.14-1.4.422-.396.277-.705.673-.927 1.189-.221.511-.332 1.116-.332 1.815 0 .716.109 1.334.326 1.854.217.519.524.922.92 1.208.401.285.872.428 1.413.428.362 0 .69-.066.984-.198.299-.137.548-.33.748-.582a2.18 2.18 0 00.429-.908h1.86a3.629 3.629 0 01-.62 1.701c-.346.498-.808.89-1.387 1.176-.576.285-1.251.428-2.027.428zm5.078-.198v-9.818h1.911V381h-1.911zm.965-11.333c-.333 0-.618-.111-.857-.332a1.083 1.083 0 01-.351-.806c0-.315.117-.584.351-.805.239-.226.524-.339.857-.339.332 0 .615.113.85.339.239.221.358.49.358.805 0 .311-.119.58-.358.806a1.196 1.196 0 01-.85.332zm5.374 11.55a4.01 4.01 0 01-1.687-.345 2.841 2.841 0 01-1.196-1.016c-.289-.443-.434-.987-.434-1.63 0-.554.106-1.01.319-1.368a2.36 2.36 0 01.863-.85 4.477 4.477 0 011.215-.473 11.85 11.85 0 011.368-.243l1.431-.166c.367-.047.633-.122.799-.224.167-.102.25-.268.25-.499v-.044c0-.559-.158-.991-.473-1.298-.311-.307-.776-.46-1.394-.46-.643 0-1.15.143-1.521.428-.367.281-.62.595-.761.94l-1.796-.409c.213-.597.524-1.078.933-1.445a3.785 3.785 0 011.426-.805 5.546 5.546 0 011.694-.256c.392 0 .807.047 1.246.141.443.089.857.255 1.24.498.388.243.705.59.953 1.042.247.448.37 1.029.37 1.745V381h-1.866v-1.342h-.077a2.7 2.7 0 01-.556.728 2.96 2.96 0 01-.952.595c-.388.157-.853.236-1.394.236zm.416-1.534c.528 0 .98-.104 1.355-.313a2.2 2.2 0 00.863-.818c.2-.341.3-.705.3-1.093v-1.266c-.068.068-.2.132-.396.192a6.34 6.34 0 01-.659.147c-.247.038-.487.075-.722.109a64.2 64.2 0 00-.588.076 4.729 4.729 0 00-1.016.237c-.303.111-.546.27-.729.479-.179.205-.268.478-.268.818 0 .473.174.831.524 1.074.349.239.794.358 1.336.358z" fill="#242A36"/><path d="M85.642 396.545V406h-1.108l-5.152-7.423h-.092V406h-1.145v-9.455h1.108l5.17 7.442h.093v-7.442h1.126zm4.856 9.603c-.683 0-1.272-.151-1.768-.453a3.03 3.03 0 01-1.14-1.274c-.265-.548-.397-1.185-.397-1.911s.132-1.367.397-1.921c.268-.557.64-.991 1.117-1.301.48-.314 1.04-.471 1.68-.471.37 0 .734.061 1.095.184.36.124.687.324.983.601.295.273.53.637.706 1.089.176.452.263 1.01.263 1.671v.462h-5.466v-.942h4.358c0-.4-.08-.757-.24-1.071a1.804 1.804 0 00-.674-.743 1.884 1.884 0 00-1.025-.273c-.433 0-.809.108-1.126.324a2.12 2.12 0 00-.725.831 2.44 2.44 0 00-.254 1.098v.628c0 .536.093.99.277 1.362.188.369.448.651.78.845.333.191.72.286 1.16.286.285 0 .544-.04.775-.12a1.66 1.66 0 00.605-.369c.169-.167.3-.373.392-.619l1.052.296c-.11.357-.296.67-.558.941a2.722 2.722 0 01-.97.628 3.59 3.59 0 01-1.297.222zm8.802-3.047v-4.192h1.09V406H99.3v-1.2h-.073a2.33 2.33 0 01-.776.918c-.35.25-.794.374-1.33.374-.443 0-.837-.097-1.181-.291a2.029 2.029 0 01-.813-.886c-.197-.397-.295-.897-.295-1.5v-4.506h1.09v4.432c0 .517.144.929.433 1.237.292.308.665.462 1.117.462.271 0 .547-.069.827-.208.283-.138.52-.351.71-.637.195-.286.291-.651.291-1.094zm7.848-2.604l-.979.277a1.803 1.803 0 00-.272-.475 1.317 1.317 0 00-.48-.388c-.203-.102-.463-.152-.78-.152-.434 0-.796.1-1.085.3-.286.197-.429.447-.429.752 0 .271.098.485.295.642.197.157.505.288.923.392l1.053.259c.634.154 1.106.389 1.417.706.311.314.466.719.466 1.214 0 .406-.117.77-.35 1.09-.231.32-.554.572-.97.757-.415.184-.899.277-1.45.277-.723 0-1.321-.157-1.795-.471-.474-.314-.774-.773-.901-1.376l1.035-.258c.098.381.284.667.558.858.277.191.639.287 1.085.287.508 0 .911-.108 1.21-.324.301-.218.452-.48.452-.784a.822.822 0 00-.259-.619c-.172-.169-.437-.296-.794-.379l-1.181-.277c-.65-.153-1.127-.392-1.432-.715-.301-.326-.452-.734-.452-1.224 0-.4.112-.754.337-1.061a2.29 2.29 0 01.928-.725c.394-.176.84-.263 1.339-.263.701 0 1.252.154 1.652.461.404.308.69.714.859 1.219zm4.593-1.588v.923h-3.675v-.923h3.675zm-2.604-1.699h1.09v6.759c0 .308.045.538.134.692a.69.69 0 00.351.305c.144.049.297.074.457.074.12 0 .218-.006.295-.019l.185-.037.221.979a2.193 2.193 0 01-.309.083c-.132.031-.3.046-.503.046a2.2 2.2 0 01-.905-.198 1.804 1.804 0 01-.729-.605c-.191-.271-.287-.612-.287-1.025v-7.054zm6.07 8.956c-.45 0-.857-.084-1.224-.254a2.095 2.095 0 01-.872-.743c-.216-.326-.323-.72-.323-1.182 0-.406.08-.735.24-.988.16-.255.374-.455.641-.6.268-.145.564-.252.887-.323.326-.074.654-.132.983-.175.431-.056.78-.097 1.048-.125.271-.031.468-.082.591-.152.126-.071.189-.194.189-.37v-.037c0-.455-.124-.809-.374-1.061-.246-.253-.62-.379-1.122-.379-.52 0-.927.114-1.223.342-.295.227-.503.47-.623.729l-1.034-.369c.184-.431.431-.767.738-1.007.311-.243.65-.412 1.016-.508a4.233 4.233 0 011.09-.147c.227 0 .489.027.784.083.299.052.587.161.864.328.28.166.512.417.697.752.184.336.277.785.277 1.348V406h-1.09v-.96h-.055a1.918 1.918 0 01-.37.494 2.147 2.147 0 01-.687.448c-.287.123-.636.184-1.048.184zm.166-.978c.431 0 .794-.085 1.089-.254a1.724 1.724 0 00.905-1.501v-.997c-.046.055-.148.106-.305.152a4.888 4.888 0 01-.535.116 25.724 25.724 0 01-1.043.138 4.173 4.173 0 00-.794.18c-.244.08-.44.202-.591.365-.148.16-.222.379-.222.656 0 .378.14.664.42.858.283.191.642.287 1.076.287zm.037-7.239l1.126-2.142h1.274l-1.44 2.142h-.96zm5.865-1.404V406h-1.09v-9.455h1.09zm4.708 9.603c-.683 0-1.272-.151-1.768-.453a3.034 3.034 0 01-1.14-1.274c-.265-.548-.397-1.185-.397-1.911s.132-1.367.397-1.921c.268-.557.64-.991 1.117-1.301.48-.314 1.04-.471 1.68-.471.37 0 .734.061 1.094.184.361.124.688.324.984.601.295.273.531.637.706 1.089.176.452.263 1.01.263 1.671v.462h-5.466v-.942h4.358c0-.4-.08-.757-.24-1.071a1.8 1.8 0 00-.674-.743 1.884 1.884 0 00-1.025-.273c-.434 0-.809.108-1.126.324a2.118 2.118 0 00-.725.831 2.44 2.44 0 00-.254 1.098v.628c0 .536.093.99.277 1.362.188.369.448.651.78.845.333.191.719.286 1.159.286.286 0 .545-.04.776-.12.234-.083.435-.206.605-.369.169-.167.3-.373.392-.619l1.052.296c-.11.357-.297.67-.558.941a2.726 2.726 0 01-.97.628 3.586 3.586 0 01-1.297.222zm7.527-.148v-.831l4.025-5.17v-.074h-3.896v-1.016h5.3v.868l-3.915 5.134v.073h4.044V406h-5.558zm8.066-9.455V406h-1.09v-9.455h1.09zm4.708 9.603c-.683 0-1.273-.151-1.768-.453a3.021 3.021 0 01-1.14-1.274c-.265-.548-.397-1.185-.397-1.911s.132-1.367.397-1.921a3.12 3.12 0 011.117-1.301c.48-.314 1.04-.471 1.68-.471.37 0 .734.061 1.094.184.36.124.688.324.984.601.295.273.531.637.706 1.089.175.452.263 1.01.263 1.671v.462h-5.466v-.942h4.358c0-.4-.08-.757-.24-1.071a1.807 1.807 0 00-.674-.743 1.884 1.884 0 00-1.025-.273c-.434 0-.809.108-1.126.324a2.118 2.118 0 00-.725.831 2.44 2.44 0 00-.254 1.098v.628c0 .536.092.99.277 1.362.188.369.448.651.78.845.333.191.719.286 1.159.286.286 0 .545-.04.776-.12.233-.083.435-.206.604-.369.17-.167.3-.373.393-.619l1.052.296a2.34 2.34 0 01-.558.941 2.726 2.726 0 01-.97.628 3.586 3.586 0 01-1.297.222zm4.333 2.511v-9.75h1.053v1.127h.129c.08-.124.191-.281.333-.471.144-.194.35-.367.618-.517.271-.154.637-.231 1.099-.231.597 0 1.123.149 1.579.448.455.298.811.721 1.066 1.269.256.548.383 1.194.383 1.939 0 .751-.127 1.402-.383 1.953-.255.548-.609.972-1.062 1.274-.452.298-.974.448-1.565.448-.455 0-.82-.076-1.094-.226a2.029 2.029 0 01-.632-.522 6.989 6.989 0 01-.342-.489h-.092v3.748h-1.09zm1.071-6.204c0 .535.079 1.007.236 1.417.157.406.386.725.688.955.301.228.671.342 1.108.342.455 0 .835-.12 1.14-.36.308-.243.539-.569.692-.979.157-.412.236-.871.236-1.375 0-.499-.077-.948-.231-1.348a2.08 2.08 0 00-.688-.956c-.305-.237-.688-.356-1.149-.356-.444 0-.816.113-1.118.337-.301.222-.529.533-.683.933-.154.397-.231.86-.231 1.39zm11.614-1.958l-.979.277a1.803 1.803 0 00-.272-.475 1.317 1.317 0 00-.48-.388c-.203-.102-.463-.152-.78-.152-.434 0-.796.1-1.085.3-.286.197-.43.447-.43.752 0 .271.099.485.296.642.197.157.505.288.923.392l1.053.259c.634.154 1.106.389 1.417.706.311.314.466.719.466 1.214 0 .406-.117.77-.351 1.09-.23.32-.554.572-.969.757-.416.184-.899.277-1.45.277-.723 0-1.321-.157-1.795-.471-.474-.314-.774-.773-.901-1.376l1.034-.258c.099.381.285.667.559.858.277.191.639.287 1.085.287.508 0 .911-.108 1.209-.324.302-.218.453-.48.453-.784a.822.822 0 00-.259-.619c-.172-.169-.437-.296-.794-.379l-1.182-.277c-.649-.153-1.126-.392-1.431-.715-.301-.326-.452-.734-.452-1.224 0-.4.112-.754.337-1.061a2.29 2.29 0 01.928-.725c.394-.176.84-.263 1.339-.263.701 0 1.252.154 1.652.461.404.308.69.714.859 1.219zm-3.472-4.432l.961 1.293.96-1.293h1.034v.074l-1.496 1.921h-.997l-1.496-1.921v-.074h1.034zm7.862 10.083c-.64 0-1.202-.153-1.685-.457a3.1 3.1 0 01-1.126-1.279c-.268-.548-.402-1.188-.402-1.921 0-.738.134-1.383.402-1.934.27-.551.646-.979 1.126-1.283.483-.305 1.045-.457 1.685-.457.64 0 1.2.152 1.68.457.484.304.859.732 1.127 1.283.271.551.406 1.196.406 1.934 0 .733-.135 1.373-.406 1.921a3.061 3.061 0 01-1.127 1.279c-.48.304-1.04.457-1.68.457zm0-.979c.486 0 .886-.125 1.2-.374.314-.249.547-.577.697-.983.151-.406.227-.847.227-1.321 0-.473-.076-.915-.227-1.324a2.222 2.222 0 00-.697-.993c-.314-.252-.714-.379-1.2-.379s-.886.127-1.2.379a2.222 2.222 0 00-.697.993 3.796 3.796 0 00-.227 1.324c0 .474.076.915.227 1.321.15.406.383.734.697.983.314.249.714.374 1.2.374zm10.16-6.26L175.23 406h-1.108l-2.622-7.091h1.182l1.957 5.651h.074l1.958-5.651h1.181zm3.049 7.257a2.87 2.87 0 01-1.223-.254 2.104 2.104 0 01-.873-.743c-.215-.326-.323-.72-.323-1.182 0-.406.08-.735.24-.988.16-.255.374-.455.642-.6a3.37 3.37 0 01.886-.323c.327-.074.654-.132.984-.175.431-.056.78-.097 1.048-.125.271-.031.467-.082.591-.152.126-.071.189-.194.189-.37v-.037c0-.455-.125-.809-.374-1.061-.246-.253-.62-.379-1.122-.379-.52 0-.928.114-1.223.342-.296.227-.503.47-.623.729l-1.035-.369c.185-.431.431-.767.739-1.007a2.777 2.777 0 011.016-.508 4.23 4.23 0 011.089-.147c.228 0 .49.027.785.083.299.052.586.161.863.328.28.166.513.417.697.752.185.336.277.785.277 1.348V406h-1.089v-.96h-.056a1.912 1.912 0 01-.369.494 2.141 2.141 0 01-.688.448c-.286.123-.635.184-1.048.184zm.167-.978c.43 0 .794-.085 1.089-.254a1.731 1.731 0 00.905-1.501v-.997c-.046.055-.148.106-.305.152a4.94 4.94 0 01-.535.116 25.025 25.025 0 01-1.044.138 4.19 4.19 0 00-.794.18c-.243.08-.44.202-.591.365-.147.16-.221.379-.221.656 0 .378.14.664.42.858.283.191.642.287 1.076.287zm5.901-3.454V406h-1.089v-7.091h1.052v1.108h.093c.166-.36.418-.649.757-.868.338-.221.775-.332 1.311-.332.48 0 .9.098 1.26.295.36.194.64.49.84.887.201.394.301.892.301 1.495V406h-1.09v-4.432c0-.557-.145-.991-.434-1.302-.289-.314-.686-.471-1.191-.471-.348 0-.659.076-.932.227-.271.15-.485.371-.642.66-.157.289-.236.64-.236 1.052zm6.255 4.266v-7.091h1.09V406h-1.09zm.554-8.273a.773.773 0 01-.549-.217.694.694 0 01-.226-.521c0-.203.075-.377.226-.522a.773.773 0 01.549-.217c.213 0 .394.072.545.217a.692.692 0 01.231.522.688.688 0 01-.231.521.757.757 0 01-.545.217zm5.244 8.421c-.683 0-1.272-.151-1.768-.453a3.034 3.034 0 01-1.14-1.274c-.265-.548-.397-1.185-.397-1.911s.132-1.367.397-1.921c.268-.557.64-.991 1.117-1.301.48-.314 1.04-.471 1.681-.471.369 0 .734.061 1.094.184.36.124.688.324.983.601.295.273.531.637.706 1.089.176.452.263 1.01.263 1.671v.462h-5.465v-.942h4.357c0-.4-.08-.757-.24-1.071a1.8 1.8 0 00-.674-.743 1.88 1.88 0 00-1.024-.273c-.434 0-.81.108-1.127.324a2.126 2.126 0 00-.725.831 2.44 2.44 0 00-.254 1.098v.628c0 .536.093.99.277 1.362a2 2 0 00.781.845 2.28 2.28 0 001.158.286c.287 0 .545-.04.776-.12.234-.083.435-.206.605-.369.169-.167.3-.373.392-.619l1.053.296a2.33 2.33 0 01-.559.941 2.73 2.73 0 01-.969.628 3.595 3.595 0 01-1.298.222z" fill="#717580"/><mask id="c" fill="#fff"><path d="M244 375c0-8.284 6.716-15 15-15h50c8.284 0 15 6.716 15 15 0 8.284-6.716 15-15 15h-50c-8.284 0-15-6.716-15-15z"/></mask><path d="M244 375c0-8.284 6.716-15 15-15h50c8.284 0 15 6.716 15 15 0 8.284-6.716 15-15 15h-50c-8.284 0-15-6.716-15-15z" fill="#fff"/><path d="M259 360v.8h50v-1.6h-50v.8zm50 30v-.8h-50v1.6h50v-.8zm-50 0v-.8c-7.842 0-14.2-6.358-14.2-14.2h-1.6c0 8.726 7.074 15.8 15.8 15.8v-.8zm65-15h-.8c0 7.842-6.357 14.2-14.2 14.2v1.6c8.726 0 15.8-7.074 15.8-15.8h-.8zm-15-15v.8c7.843 0 14.2 6.358 14.2 14.2h1.6c0-8.726-7.074-15.8-15.8-15.8v.8zm-50 0v-.8c-8.726 0-15.8 7.074-15.8 15.8h1.6c0-7.842 6.358-14.2 14.2-14.2v-.8z" fill="#E4E4E4" mask="url(#c)"/><path d="M256 379.91h13v-13h-13v13zm18.278-.91h-1.514l3.402-9.455h1.648l3.402 9.455h-1.514l-2.673-7.737h-.074L274.278 379zm.254-3.702h4.912v1.2h-4.912v-1.2zm10.812 3.845c-.687 0-1.278-.155-1.773-.466a3.085 3.085 0 01-1.136-1.297c-.265-.551-.397-1.182-.397-1.893 0-.72.136-1.356.406-1.907a3.116 3.116 0 011.145-1.297c.493-.311 1.073-.466 1.741-.466.538 0 1.018.1 1.44.3.422.197.762.474 1.02.831.262.357.417.774.467 1.251h-1.344a1.607 1.607 0 00-.508-.859c-.261-.24-.612-.36-1.052-.36-.385 0-.722.102-1.011.305-.286.2-.51.486-.67.858-.16.37-.24.807-.24 1.312 0 .517.079.963.236 1.338.157.376.378.667.665.873.289.206.629.309 1.02.309.261 0 .498-.048.711-.143.215-.098.395-.238.54-.42.148-.182.251-.4.309-.656h1.344a2.62 2.62 0 01-.448 1.228 2.58 2.58 0 01-1.002.85c-.416.206-.903.309-1.463.309zm7.699-7.234v1.108h-3.874v-1.108h3.874zm-2.835-1.699h1.38v6.708c0 .268.04.469.121.605.08.132.183.223.309.272.129.046.269.069.42.069.111 0 .208-.007.291-.023.083-.015.147-.027.194-.037l.249 1.141c-.08.03-.194.061-.342.092a2.683 2.683 0 01-.554.055 2.421 2.421 0 01-1.015-.194 1.74 1.74 0 01-.762-.627c-.194-.284-.291-.639-.291-1.067v-6.994zm4.362 8.79v-7.091h1.38V379h-1.38zm.697-8.185a.878.878 0 01-.619-.24.782.782 0 01-.254-.582c0-.227.085-.421.254-.581a.865.865 0 01.619-.245.85.85 0 01.614.245c.172.16.258.354.258.581a.775.775 0 01-.258.582.863.863 0 01-.614.24zm8.606 1.094L301.302 379h-1.478l-2.576-7.091h1.482l1.796 5.457h.074l1.791-5.457h1.482zm4.112 7.234c-.699 0-1.3-.149-1.805-.448a3.028 3.028 0 01-1.163-1.269c-.271-.548-.407-1.19-.407-1.925 0-.727.136-1.367.407-1.921a3.151 3.151 0 011.145-1.297c.492-.311 1.068-.466 1.726-.466.4 0 .788.066 1.163.198.376.133.713.34 1.011.623.299.284.534.651.707 1.104.172.449.258.995.258 1.639v.489h-5.636v-1.034h4.284c0-.363-.074-.685-.222-.965a1.674 1.674 0 00-.623-.669 1.745 1.745 0 00-.933-.245 1.8 1.8 0 00-1.015.286 1.924 1.924 0 00-.665.739 2.128 2.128 0 00-.231.983v.808c0 .474.083.877.249 1.21.17.332.405.586.707.761.301.173.654.259 1.057.259.262 0 .5-.037.715-.111a1.478 1.478 0 00.919-.9l1.307.235a2.366 2.366 0 01-.564 1.011c-.267.287-.604.51-1.011.67a3.78 3.78 0 01-1.38.235z" fill="#FFC721"/><mask id="d" fill="#fff"><path d="M25 446c0-6.627 5.373-12 12-12h125.5c6.627 0 12 5.373 12 12v49.1c0 6.627-5.373 12-12 12H37c-6.627 0-12-5.373-12-12V446z"/></mask><path d="M25 446c0-6.627 5.373-12 12-12h125.5c6.627 0 12 5.373 12 12v49.1c0 6.627-5.373 12-12 12H37c-6.627 0-12-5.373-12-12V446z" fill="#fff"/><path d="M37 434v.8h125.5v-1.6H37v.8zm137.5 12h-.8v49.1h1.6V446h-.8zm-12 61.1v-.8H37v1.6h125.5v-.8zM25 495.1h.8V446h-1.6v49.1h.8zm12 12v-.8c-6.186 0-11.2-5.014-11.2-11.2h-1.6c0 7.069 5.73 12.8 12.8 12.8v-.8zm137.5-12h-.8c0 6.186-5.014 11.2-11.2 11.2v1.6c7.069 0 12.8-5.731 12.8-12.8h-.8zm-12-61.1v.8c6.186 0 11.2 5.014 11.2 11.2h1.6c0-7.069-5.731-12.8-12.8-12.8v.8zM37 434v-.8c-7.07 0-12.8 5.731-12.8 12.8h1.6c0-6.186 5.014-11.2 11.2-11.2v-.8z" fill="#E8E8E6" mask="url(#d)"/><path d="M38.945 460.4v-9.455h1.145v4.691h.11l4.248-4.691h1.495l-3.97 4.266 3.97 5.189H44.56l-3.287-4.395-1.182 1.33v3.065h-1.145zm10.16.166a2.87 2.87 0 01-1.224-.254 2.097 2.097 0 01-.873-.743c-.215-.326-.323-.72-.323-1.182 0-.406.08-.735.24-.988a1.7 1.7 0 01.642-.6c.268-.144.563-.252.886-.323.327-.074.654-.132.984-.175.43-.056.78-.097 1.048-.125.27-.031.467-.082.59-.152.127-.071.19-.194.19-.37v-.037c0-.455-.125-.809-.374-1.061-.246-.253-.62-.379-1.122-.379-.52 0-.928.114-1.223.342-.296.227-.504.471-.624.729l-1.034-.369c.185-.431.431-.767.739-1.007a2.76 2.76 0 011.016-.507 4.191 4.191 0 011.09-.148c.227 0 .489.027.784.083.298.052.586.161.863.328.28.166.513.417.697.752.185.336.277.785.277 1.348v4.672h-1.09v-.96h-.055a1.928 1.928 0 01-.369.494 2.154 2.154 0 01-.688.448c-.286.123-.635.184-1.048.184zm.166-.978c.43 0 .794-.085 1.089-.254a1.733 1.733 0 00.905-1.501v-.997c-.046.056-.148.106-.305.152a4.94 4.94 0 01-.535.116 25.201 25.201 0 01-1.044.138 4.174 4.174 0 00-.794.18 1.37 1.37 0 00-.59.365c-.148.16-.222.379-.222.656 0 .378.14.664.42.858.283.191.642.287 1.075.287zm4.812.812v-7.091h1.052v1.108h.093c.147-.378.386-.672.715-.882.33-.212.725-.318 1.187-.318.467 0 .857.106 1.168.318.314.21.558.504.734.882h.074c.181-.366.453-.657.817-.872.363-.219.798-.328 1.306-.328.634 0 1.153.198 1.556.595.403.394.605 1.008.605 1.842v4.746H62.3v-4.746c0-.523-.143-.897-.43-1.122a1.593 1.593 0 00-1.01-.337c-.499 0-.885.151-1.159.453-.274.298-.41.677-.41 1.136v4.616h-1.109v-4.857c0-.403-.13-.727-.392-.974-.262-.249-.599-.374-1.011-.374-.283 0-.548.076-.794.227a1.7 1.7 0 00-.591.628c-.148.264-.222.57-.222.918v4.432h-1.09zm11.039 2.659v-9.75h1.052v1.127h.13c.08-.124.19-.281.332-.471.145-.194.35-.367.618-.517.271-.154.637-.231 1.1-.231.596 0 1.123.149 1.578.448.456.298.811.721 1.066 1.269.256.548.384 1.194.384 1.939 0 .751-.128 1.402-.384 1.953-.255.548-.609.972-1.061 1.274a2.782 2.782 0 01-1.565.448c-.456 0-.82-.076-1.094-.226a2.028 2.028 0 01-.633-.522 7.065 7.065 0 01-.341-.489h-.093v3.748h-1.09zm1.07-6.204c0 .535.08 1.008.236 1.417.157.406.386.725.688.955.302.228.67.342 1.108.342.455 0 .835-.12 1.14-.36.308-.243.539-.569.693-.979a3.84 3.84 0 00.235-1.375c0-.499-.077-.948-.23-1.348a2.08 2.08 0 00-.689-.956c-.304-.237-.687-.356-1.15-.356-.442 0-.815.113-1.116.337-.302.222-.53.533-.683.933-.154.397-.231.86-.231 1.39zm8.678 3.711a2.87 2.87 0 01-1.223-.254 2.097 2.097 0 01-.873-.743c-.215-.326-.323-.72-.323-1.182 0-.406.08-.735.24-.988a1.7 1.7 0 01.642-.6c.268-.144.563-.252.886-.323.327-.074.654-.132.984-.175.43-.056.78-.097 1.047-.125.271-.031.468-.082.591-.152.127-.071.19-.194.19-.37v-.037c0-.455-.125-.809-.374-1.061-.246-.253-.62-.379-1.122-.379-.52 0-.928.114-1.223.342-.296.227-.504.471-.624.729l-1.034-.369c.185-.431.431-.767.739-1.007a2.76 2.76 0 011.016-.507 4.19 4.19 0 011.089-.148c.228 0 .49.027.785.083.298.052.586.161.863.328.28.166.513.417.697.752.185.336.277.785.277 1.348v4.672h-1.09v-.96h-.055a1.928 1.928 0 01-.369.494 2.154 2.154 0 01-.688.448c-.286.123-.635.184-1.048.184zm.166-.978c.431 0 .794-.085 1.09-.254a1.733 1.733 0 00.905-1.501v-.997c-.047.056-.148.106-.305.152a4.94 4.94 0 01-.535.116 25.201 25.201 0 01-1.044.138 4.174 4.174 0 00-.794.18 1.37 1.37 0 00-.59.365c-.148.16-.222.379-.222.656 0 .378.14.664.42.858.283.191.641.287 1.075.287zm5.902-3.454v4.266h-1.09v-7.091h1.053v1.108h.093c.166-.36.418-.649.757-.868.338-.221.775-.332 1.31-.332.48 0 .901.098 1.261.295.36.194.64.49.84.887.2.394.3.892.3 1.495v4.506h-1.09v-4.432c0-.557-.144-.991-.433-1.302-.29-.314-.686-.471-1.191-.471a1.9 1.9 0 00-.933.227c-.27.15-.484.371-.641.66-.157.289-.236.64-.236 1.052zm6.255 4.266v-7.091h1.09v7.091h-1.09zm.056-8.051l1.126-2.142h1.274l-1.44 2.142h-.96z" fill="#717580"/><path d="M44.026 475.609V488.7h-1.982v-11.109h-.076l-3.133 2.045v-1.892l3.267-2.135h1.924zm2.541 13.091v-1.432l4.43-4.589a24.69 24.69 0 001.17-1.311c.31-.379.543-.739.696-1.08.154-.341.23-.703.23-1.087 0-.434-.102-.809-.307-1.125a2.014 2.014 0 00-.837-.735 2.672 2.672 0 00-1.195-.262c-.469 0-.878.096-1.227.288a1.97 1.97 0 00-.806.812c-.187.349-.281.758-.281 1.227h-1.886c0-.797.183-1.494.55-2.09a3.73 3.73 0 011.508-1.387c.64-.333 1.366-.499 2.18-.499.823 0 1.547.164 2.173.492a3.695 3.695 0 011.477 1.33 3.46 3.46 0 01.53 1.892c0 .486-.091.961-.274 1.425-.18.465-.492.983-.94 1.554-.447.566-1.07 1.255-1.866 2.064l-2.602 2.723v.096h5.894v1.694h-8.617zm13.913-2.199v-8.642h1.72v8.642h-1.72zm-3.458-3.464v-1.713h8.642v1.713h-8.642z" fill="#242A36"/><mask id="e" fill="#fff"><path d="M190.5 446c0-6.627 5.373-12 12-12H328c6.627 0 12 5.373 12 12v49.1c0 6.627-5.373 12-12 12H202.5c-6.627 0-12-5.373-12-12V446z"/></mask><path d="M190.5 446c0-6.627 5.373-12 12-12H328c6.627 0 12 5.373 12 12v49.1c0 6.627-5.373 12-12 12H202.5c-6.627 0-12-5.373-12-12V446z" fill="#fff"/><path d="M202.5 434v.8H328v-1.6H202.5v.8zM340 446h-.8v49.1h1.6V446h-.8zm-12 61.1v-.8H202.5v1.6H328v-.8zm-137.5-12h.8V446h-1.6v49.1h.8zm12 12v-.8c-6.186 0-11.2-5.014-11.2-11.2h-1.6c0 7.069 5.731 12.8 12.8 12.8v-.8zm137.5-12h-.8c0 6.186-5.014 11.2-11.2 11.2v1.6c7.069 0 12.8-5.731 12.8-12.8h-.8zM328 434v.8c6.186 0 11.2 5.014 11.2 11.2h1.6c0-7.069-5.731-12.8-12.8-12.8v.8zm-125.5 0v-.8c-7.069 0-12.8 5.731-12.8 12.8h1.6c0-6.186 5.014-11.2 11.2-11.2v-.8z" fill="#E8E8E6" mask="url(#e)"/><path d="M203.928 451.961v-1.016h7.091v1.016h-2.973v8.439h-1.145v-8.439h-2.973zm7.714 8.439v-7.091h1.052v1.071h.074c.129-.351.363-.635.702-.854.338-.218.72-.328 1.145-.328.08 0 .18.002.3.005s.211.008.272.014v1.108a3.513 3.513 0 00-.254-.042 2.557 2.557 0 00-.411-.032c-.344 0-.652.072-.923.217a1.59 1.59 0 00-.868 1.445v4.487h-1.089zm6.663.166a2.87 2.87 0 01-1.223-.254 2.104 2.104 0 01-.873-.743c-.215-.326-.323-.72-.323-1.182 0-.406.08-.735.24-.988.16-.255.374-.455.642-.6.268-.144.563-.252.886-.323.327-.074.654-.132.984-.175.43-.056.78-.097 1.048-.125.27-.031.467-.082.59-.152.127-.071.19-.194.19-.37v-.037c0-.455-.125-.809-.374-1.061-.246-.253-.62-.379-1.122-.379-.52 0-.928.114-1.223.342-.296.227-.504.471-.624.729l-1.034-.369c.185-.431.431-.767.739-1.007a2.76 2.76 0 011.016-.507 4.19 4.19 0 011.089-.148c.228 0 .489.027.785.083.298.052.586.161.863.328.28.166.513.417.697.752.185.336.277.785.277 1.348v4.672h-1.089v-.96h-.056a1.935 1.935 0 01-.369.494 2.153 2.153 0 01-.688.448c-.286.123-.635.184-1.048.184zm.166-.978c.431 0 .794-.085 1.09-.254.298-.17.523-.388.674-.656a1.67 1.67 0 00.231-.845v-.997c-.046.056-.148.106-.305.152a4.94 4.94 0 01-.535.116c-.201.031-.396.058-.587.083l-.457.055a4.173 4.173 0 00-.794.18c-.243.08-.44.202-.591.365-.147.16-.221.379-.221.656 0 .378.14.664.42.858.283.191.641.287 1.075.287zm7.693.96c-.664 0-1.237-.157-1.717-.471a3.072 3.072 0 01-1.108-1.297c-.258-.551-.388-1.181-.388-1.888 0-.721.133-1.356.397-1.907a3.142 3.142 0 011.118-1.297c.48-.314 1.04-.471 1.68-.471.499 0 .948.092 1.348.277.4.184.728.443.983.775.256.333.414.721.476 1.164h-1.09a1.684 1.684 0 00-.554-.859c-.283-.252-.664-.379-1.145-.379-.424 0-.797.111-1.117.333-.317.218-.564.528-.743.928-.175.397-.263.863-.263 1.399 0 .547.086 1.024.258 1.431.176.406.422.721.739.946.32.225.696.337 1.126.337.284 0 .541-.049.771-.148.231-.098.427-.24.587-.424.16-.185.274-.407.341-.665h1.09a2.535 2.535 0 01-.457 1.131c-.24.332-.559.597-.956.794-.394.194-.852.291-1.376.291zm5.137-2.733l-.018-1.348h.221l3.103-3.158h1.348l-3.306 3.342h-.092l-1.256 1.164zm-1.015 2.585v-9.455h1.089v9.455h-1.089zm4.505 0l-2.77-3.508.776-.758 3.379 4.266h-1.385zm2.306 0v-7.091h1.089v7.091h-1.089zm.554-8.273a.774.774 0 01-.55-.217.698.698 0 01-.226-.521c0-.203.076-.377.226-.522a.774.774 0 01.55-.217c.212 0 .394.072.545.217.153.145.23.319.23.522a.69.69 0 01-.23.521.759.759 0 01-.545.217zm3.36 4.007v4.266h-1.089v-7.091h1.052v1.108h.093c.166-.36.418-.649.757-.868.338-.221.775-.332 1.311-.332.48 0 .9.098 1.26.295.36.194.64.49.84.887.2.394.3.892.3 1.495v4.506h-1.089v-4.432c0-.557-.145-.991-.434-1.302-.289-.314-.686-.471-1.191-.471a1.9 1.9 0 00-.933.227c-.27.15-.484.371-.641.66-.157.289-.236.64-.236 1.052zm9.117 7.073c-.526 0-.978-.068-1.357-.203a2.884 2.884 0 01-.946-.527 2.888 2.888 0 01-.596-.692l.868-.609c.099.129.223.277.374.443.151.169.357.315.619.438.264.127.611.19 1.038.19.573 0 1.045-.139 1.418-.416.372-.277.558-.711.558-1.302v-1.44h-.092c-.08.129-.194.289-.342.48a1.923 1.923 0 01-.627.503c-.271.145-.638.217-1.099.217a2.955 2.955 0 01-1.542-.406c-.453-.271-.811-.665-1.076-1.182-.261-.517-.392-1.145-.392-1.883 0-.727.128-1.359.383-1.898.255-.541.611-.96 1.066-1.255.456-.299.982-.448 1.579-.448.462 0 .828.077 1.099.231.274.15.483.323.628.517.148.19.261.347.341.471h.111v-1.127h1.053v7.294c0 .61-.139 1.105-.416 1.487a2.365 2.365 0 01-1.108.844 4.167 4.167 0 01-1.542.273zm-.036-3.896c.437 0 .806-.1 1.107-.301.302-.2.531-.487.688-.863.157-.375.236-.825.236-1.348 0-.511-.077-.962-.231-1.352a2.031 2.031 0 00-.683-.919c-.302-.222-.674-.333-1.117-.333-.462 0-.847.117-1.155.351a2.134 2.134 0 00-.687.942 3.637 3.637 0 00-.227 1.311c0 .493.077.928.231 1.307a2 2 0 00.693.886c.307.212.689.319 1.145.319z" fill="#717580"/><path d="M204.559 488.7v-1.432l4.43-4.589a24.75 24.75 0 001.17-1.311c.311-.379.543-.739.696-1.08a2.61 2.61 0 00.231-1.087c0-.434-.103-.809-.307-1.125a2.016 2.016 0 00-.838-.735 2.67 2.67 0 00-1.195-.262c-.469 0-.878.096-1.227.288a1.97 1.97 0 00-.806.812c-.187.349-.281.758-.281 1.227h-1.886c0-.797.184-1.494.55-2.09a3.736 3.736 0 011.509-1.387c.639-.333 1.365-.499 2.179-.499.823 0 1.547.164 2.174.492.63.324 1.123.767 1.476 1.33.354.558.531 1.189.531 1.892 0 .486-.092.961-.275 1.425-.179.465-.492.983-.94 1.554-.447.566-1.069 1.255-1.866 2.064l-2.602 2.723v.096h5.894v1.694h-8.617zm9.483-2.557v-1.598l5.657-8.936h1.259v2.352h-.799l-4.046 6.405v.102h7.754v1.675h-9.825zm6.207 2.557v-3.043l.013-.728v-9.32h1.873V488.7h-1.886zm9.857-13.705l-4.219 15.674h-1.707l4.219-15.674h1.707zm1.039 13.705l5.714-11.301v-.096h-6.609v-1.694h8.655v1.752l-5.696 11.339h-2.064z" fill="#242A36"/></svg>