<svg width="24" height="24" fill="none" xmlns="http://www.w3.org/2000/svg"><path d="M2.018 20.305c1.129 1.615 6.04 2.882 8.362-.14 2.51 1.2 6.649.828 10.02-1.052.468-.26.911-.59 1.183-1.054.613-1.045.627-2.495-.491-4.634-1.865-4.654-5.218-8.74-6.572-10.383-.278-.253-2.051-.613-3.133-.96-.478-.147-1.367-.245-2.43 1.157-.505.664-2.796 2.297.11 3.394.451.115.782.326 2.837-.049.267-.046.935 0 1.406.826l.984 1.407a.96.96 0 01.169.44c.172 1.5.166 3.375 1.002 4.326-1.29-.934-4.664-2.042-7.206 1.112M2.002 12.94a6.715 6.715 0 018.416-.418" stroke="#242A36" stroke-width="1.5" stroke-linecap="round" stroke-linejoin="round"/></svg>