<svg width="165" height="262" fill="none" xmlns="http://www.w3.org/2000/svg"><path d="M10 .5h145a9.5 9.5 0 019.5 9.5v241.999a9.5 9.5 0 01-9.5 9.5H10a9.5 9.5 0 01-9.5-9.5V10A9.5 9.5 0 0110 .5z" fill="#fff"/><path d="M10 .5h145a9.5 9.5 0 019.5 9.5v241.999a9.5 9.5 0 01-9.5 9.5H10a9.5 9.5 0 01-9.5-9.5V10A9.5 9.5 0 0110 .5z" stroke="#E4E4E4"/><path d="M47.269 38V26.364H51.2c.91 0 1.656.155 2.239.465.583.307 1.015.73 1.295 1.268.28.537.42 1.15.42 1.835s-.14 1.293-.42 1.824c-.28.53-.71.947-1.29 1.25-.579.299-1.32.449-2.221.449h-3.182v-1.273h3.137c.62 0 1.12-.091 1.5-.273.382-.182.659-.44.83-.773.173-.337.26-.738.26-1.204 0-.466-.087-.873-.26-1.222a1.782 1.782 0 00-.836-.807c-.383-.193-.888-.29-1.517-.29h-2.477V38h-1.41zm5.477-5.227L55.609 38h-1.636l-2.818-5.227h1.59zm8.14 5.409c-.84 0-1.566-.186-2.176-.557a3.738 3.738 0 01-1.403-1.568c-.326-.674-.489-1.459-.489-2.352 0-.894.163-1.682.489-2.364.33-.686.788-1.22 1.375-1.602.59-.387 1.28-.58 2.068-.58.455 0 .903.076 1.347.227.443.152.846.398 1.21.739.363.337.653.784.87 1.34.215.558.323 1.243.323 2.058v.568h-6.727v-1.16h5.363c0-.492-.098-.931-.295-1.317a2.227 2.227 0 00-.83-.915c-.356-.224-.776-.335-1.261-.335-.534 0-.996.132-1.386.397a2.615 2.615 0 00-.892 1.023c-.209.42-.313.871-.313 1.352v.773c0 .66.114 1.218.341 1.676.231.455.551.801.96 1.04.41.235.885.352 1.426.352.353 0 .67-.049.955-.147.288-.103.536-.254.744-.455.209-.205.37-.458.483-.761l1.296.363c-.137.44-.366.826-.688 1.16-.322.329-.72.587-1.193.772a4.426 4.426 0 01-1.597.273zm9.45-8.91v1.137h-4.523v-1.136h4.522zm-3.205-2.09h1.34V35.5c0 .379.055.663.165.852.114.186.258.31.432.375.178.06.366.091.563.091.147 0 .269-.007.363-.023l.228-.045.272 1.205a2.72 2.72 0 01-.38.102 2.8 2.8 0 01-.62.057c-.379 0-.75-.082-1.113-.245a2.212 2.212 0 01-.898-.744c-.235-.333-.352-.754-.352-1.261v-8.682zm10.721 7.25v-5.16h1.341V38h-1.34v-1.477h-.092c-.204.443-.522.82-.954 1.13-.432.307-.978.46-1.636.46-.546 0-1.03-.119-1.455-.357-.424-.243-.758-.606-1-1.091-.242-.489-.364-1.104-.364-1.847v-5.545h1.341v5.454c0 .637.178 1.144.534 1.523.36.379.819.568 1.375.568.334 0 .673-.085 1.017-.255.349-.171.64-.432.875-.785.239-.352.358-.8.358-1.346zM81.65 38v-8.727h1.296v1.318h.09c.16-.432.448-.782.864-1.051a2.541 2.541 0 011.41-.404c.098 0 .22.002.369.006.147.004.259.01.335.017v1.364a4.008 4.008 0 00-.313-.051 3.077 3.077 0 00-.505-.04c-.425 0-.803.089-1.137.267-.33.174-.59.416-.784.727a1.96 1.96 0 00-.284 1.051V38h-1.34zm7.294-5.25V38h-1.34v-8.727h1.295v1.363h.113c.205-.443.516-.799.932-1.068.417-.273.955-.409 1.614-.409.59 0 1.108.121 1.551.364.443.238.788.602 1.034 1.09.246.486.37 1.1.37 1.842V38H93.17v-5.455c0-.685-.179-1.22-.535-1.602-.356-.386-.844-.58-1.465-.58-.429 0-.811.093-1.148.279a1.993 1.993 0 00-.79.813c-.193.356-.29.787-.29 1.295zm16.064 5.432c-.788 0-1.479-.188-2.074-.563-.591-.375-1.053-.9-1.386-1.574-.33-.674-.494-1.462-.494-2.363 0-.91.164-1.703.494-2.38.333-.679.795-1.205 1.386-1.58.595-.375 1.286-.563 2.074-.563.788 0 1.477.188 2.068.563.595.375 1.057.901 1.387 1.58.333.677.5 1.47.5 2.38 0 .901-.167 1.69-.5 2.363-.33.675-.792 1.2-1.387 1.574-.591.375-1.28.563-2.068.563zm0-1.205c.599 0 1.091-.153 1.477-.46.387-.307.673-.71.858-1.21.186-.5.279-1.042.279-1.625 0-.584-.093-1.127-.279-1.63a2.74 2.74 0 00-.858-1.223c-.386-.31-.878-.465-1.477-.465-.598 0-1.091.155-1.477.465a2.74 2.74 0 00-.858 1.222 4.672 4.672 0 00-.279 1.63c0 .584.093 1.126.279 1.626.185.5.471.903.858 1.21.386.307.879.46 1.477.46zm7.342-4.227V38h-1.34v-8.727h1.295v1.363h.114c.204-.443.515-.799.931-1.068.417-.273.955-.409 1.614-.409.591 0 1.108.121 1.551.364a2.45 2.45 0 011.034 1.09c.247.486.37 1.1.37 1.842V38h-1.341v-5.455c0-.685-.178-1.22-.534-1.602-.356-.386-.845-.58-1.466-.58a2.34 2.34 0 00-1.148.279 1.994 1.994 0 00-.79.813c-.193.356-.29.787-.29 1.295zM43.443 51.364V63h-1.409V51.364h1.41zm3.985 6.386V63h-1.341v-8.727h1.295v1.363h.114c.204-.443.515-.799.932-1.068.416-.273.954-.409 1.613-.409.591 0 1.108.121 1.551.364.444.238.788.602 1.034 1.09.247.486.37 1.1.37 1.842V63h-1.341v-5.455c0-.685-.178-1.22-.534-1.602-.356-.386-.845-.58-1.466-.58-.428 0-.81.093-1.148.28a1.992 1.992 0 00-.79.812c-.193.356-.29.787-.29 1.295zm14.842-3.477L59.043 63h-1.364l-3.227-8.727h1.454l2.41 6.954h.09l2.41-6.954h1.454zm5.116 8.909c-.84 0-1.566-.186-2.176-.557a3.738 3.738 0 01-1.403-1.568c-.326-.674-.489-1.459-.489-2.352 0-.894.163-1.682.489-2.364.33-.686.788-1.22 1.375-1.602.59-.387 1.28-.58 2.068-.58.454 0 .903.076 1.347.227.443.152.846.398 1.21.739.364.337.653.784.87 1.34.215.558.323 1.243.323 2.058v.568h-6.727v-1.16h5.363c0-.492-.098-.931-.295-1.317a2.227 2.227 0 00-.83-.915c-.356-.224-.776-.335-1.261-.335-.534 0-.996.132-1.386.397a2.615 2.615 0 00-.892 1.023c-.209.42-.313.871-.313 1.352v.773c0 .66.114 1.218.341 1.676.231.455.551.801.96 1.04.41.235.885.352 1.426.352.353 0 .67-.049.955-.147.288-.103.536-.254.744-.455.209-.205.37-.458.483-.761l1.296.363c-.137.44-.366.826-.688 1.16-.322.329-.72.587-1.193.772a4.426 4.426 0 01-1.597.273zm11.836-6.955l-1.205.341a2.236 2.236 0 00-.335-.585 1.626 1.626 0 00-.591-.477c-.25-.125-.57-.188-.96-.188-.534 0-.98.123-1.335.37-.353.242-.529.55-.529.926 0 .333.121.596.364.79.242.193.62.354 1.136.482l1.296.319c.78.189 1.361.479 1.744.869.382.386.574.884.574 1.494 0 .5-.144.947-.432 1.341-.284.394-.682.705-1.193.932-.512.227-1.106.34-1.784.34-.89 0-1.627-.192-2.21-.579-.584-.386-.953-.95-1.109-1.693l1.273-.318c.121.47.35.822.688 1.057.34.235.786.352 1.335.352.625 0 1.121-.133 1.489-.398.37-.269.556-.59.556-.966 0-.303-.106-.556-.318-.761-.212-.208-.538-.364-.977-.466l-1.455-.34c-.799-.19-1.386-.484-1.761-.882-.371-.401-.557-.903-.557-1.505 0-.493.138-.928.415-1.307.28-.379.66-.676 1.142-.892.485-.216 1.034-.324 1.648-.324.863 0 1.541.19 2.034.568.496.38.848.88 1.057 1.5zm5.973-1.954v1.136h-4.523v-1.136h4.523zm-3.205-2.091h1.341V60.5c0 .379.055.663.165.852a.85.85 0 00.432.375c.178.06.365.091.562.091.148 0 .269-.007.364-.023l.227-.045.273 1.205a2.74 2.74 0 01-.381.102c-.163.038-.37.057-.62.057-.378 0-.75-.082-1.113-.245a2.213 2.213 0 01-.898-.744c-.234-.333-.352-.754-.352-1.261v-8.682zM87.212 63v-8.727h1.295v1.363h.114c.182-.466.475-.827.88-1.085.406-.261.892-.392 1.46-.392.576 0 1.056.13 1.438.392.386.258.688.62.904 1.085h.09c.224-.45.56-.808 1.006-1.074.447-.268.983-.403 1.608-.403.78 0 1.419.244 1.915.733.496.485.744 1.24.744 2.267V63h-1.34v-5.84c0-.645-.177-1.105-.53-1.382a1.956 1.956 0 00-1.243-.414c-.614 0-1.09.185-1.427.556-.337.368-.505.834-.505 1.398V63h-1.364v-5.977c0-.497-.16-.896-.483-1.2-.322-.306-.737-.46-1.244-.46-.349 0-.674.093-.977.28a2.09 2.09 0 00-.728.772 2.281 2.281 0 00-.272 1.13V63h-1.341zm17.565.182c-.841 0-1.566-.186-2.176-.557a3.742 3.742 0 01-1.404-1.568c-.325-.674-.488-1.459-.488-2.352 0-.894.163-1.682.488-2.364.33-.686.788-1.22 1.375-1.602.591-.387 1.281-.58 2.069-.58.454 0 .903.076 1.346.227.443.152.847.398 1.21.739.364.337.654.784.87 1.34.216.558.324 1.243.324 2.058v.568h-6.728v-1.16h5.364c0-.492-.098-.931-.295-1.317a2.232 2.232 0 00-.83-.915c-.356-.224-.777-.335-1.261-.335-.534 0-.997.132-1.387.397a2.623 2.623 0 00-.892 1.023c-.208.42-.312.871-.312 1.352v.773c0 .66.113 1.218.341 1.676.231.455.551.801.96 1.04.409.235.884.352 1.426.352.352 0 .67-.049.955-.147.287-.103.536-.254.744-.455.208-.205.369-.458.483-.761l1.295.363a2.87 2.87 0 01-.687 1.16c-.322.329-.72.587-1.193.772a4.43 4.43 0 01-1.597.273zm6.994-5.432V63h-1.341v-8.727h1.296v1.363h.113a2.5 2.5 0 01.932-1.068c.417-.273.955-.409 1.614-.409.591 0 1.108.121 1.551.364a2.45 2.45 0 011.034 1.09c.246.486.369 1.1.369 1.842V63h-1.34v-5.455c0-.685-.178-1.22-.535-1.602-.356-.386-.844-.58-1.465-.58a2.34 2.34 0 00-1.148.28 1.993 1.993 0 00-.79.812c-.193.356-.29.787-.29 1.295zm11.814-3.477v1.136h-4.522v-1.136h4.522zm-3.204-2.091h1.341V60.5c0 .379.055.663.164.852.114.186.258.31.432.375.178.06.366.091.563.091.147 0 .269-.007.363-.023l.228-.045.272 1.205a2.73 2.73 0 01-.38.102c-.163.038-.37.057-.62.057-.378 0-.75-.082-1.113-.245a2.215 2.215 0 01-.898-.744c-.235-.333-.352-.754-.352-1.261v-8.682z" fill="#242A36"/><path d="M63.289 139.869c-.944-.035-1.777-.228-2.5-.579-.718-.351-1.278-.823-1.68-1.415a3.505 3.505 0 01-.601-2.025l2.465.092c.008.363.117.685.325.964.209.274.492.493.85.655.356.162.76.252 1.21.268a3.11 3.11 0 001.288-.201c.378-.157.677-.382.898-.676.222-.293.337-.637.347-1.031a1.814 1.814 0 00-.274-1.087c-.203-.318-.504-.572-.904-.762-.396-.19-.877-.295-1.446-.317l-1.187-.044.07-1.875 1.187.044c.468.018.88-.048 1.235-.197.36-.148.646-.365.858-.651.212-.289.324-.629.334-1.018a1.788 1.788 0 00-.22-.999 1.725 1.725 0 00-.702-.69c-.305-.169-.667-.261-1.086-.277a2.886 2.886 0 00-1.15.181 2.074 2.074 0 00-.869.604c-.224.263-.35.583-.377.958l-2.34-.087c.045-.751.286-1.403.722-1.956.441-.557 1.017-.982 1.729-1.275.71-.298 1.502-.43 2.371-.398.896.034 1.668.231 2.316.592.652.357 1.148.824 1.49 1.402.342.577.5 1.207.475 1.889-.024.756-.27 1.381-.74 1.876-.465.495-1.063.807-1.794.938l-.004.105c.94.166 1.65.543 2.13 1.13.487.582.712 1.293.676 2.132a3.374 3.374 0 01-.717 1.996c-.446.574-1.05 1.015-1.81 1.324-.755.309-1.614.446-2.575.41zm11.16.488c-1.08-.04-1.995-.348-2.749-.923-.749-.58-1.311-1.395-1.688-2.447-.372-1.055-.53-2.315-.476-3.779.059-1.464.313-2.702.762-3.714.454-1.016 1.075-1.781 1.865-2.294.794-.514 1.728-.75 2.803-.71 1.076.04 1.99.346 2.743.916.754.571 1.317 1.38 1.69 2.427.376 1.047.537 2.3.483 3.76-.055 1.469-.31 2.716-.763 3.74-.45 1.021-1.072 1.79-1.865 2.308-.79.517-1.725.756-2.805.716zm.077-2.052c.84.031 1.517-.357 2.033-1.165.52-.813.81-2.025.87-3.638.04-1.067-.038-1.967-.234-2.701-.195-.734-.49-1.292-.882-1.674a2.068 2.068 0 00-1.422-.611c-.835-.031-1.51.359-2.027 1.172-.516.808-.806 2.012-.87 3.611-.044 1.071.03 1.975.221 2.714.196.738.49 1.3.883 1.687a2.09 2.09 0 001.428.605zm11.231 2.473c-1.08-.04-1.996-.348-2.75-.923-.748-.579-1.31-1.395-1.687-2.446-.372-1.056-.531-2.316-.477-3.78.06-1.464.313-2.702.763-3.714.453-1.016 1.075-1.781 1.864-2.294.794-.513 1.729-.75 2.804-.71 1.075.04 1.99.346 2.743.917.754.571 1.316 1.379 1.689 2.426.377 1.047.538 2.301.483 3.761-.054 1.468-.309 2.715-.763 3.74-.45 1.02-1.07 1.79-1.865 2.307-.79.518-1.724.757-2.804.716zm.077-2.052c.839.031 1.516-.357 2.032-1.165.52-.812.811-2.025.871-3.638.04-1.066-.038-1.966-.234-2.7-.196-.734-.49-1.292-.883-1.675a2.073 2.073 0 00-1.422-.611c-.834-.031-1.51.36-2.026 1.172-.516.808-.806 2.012-.87 3.612-.044 1.07.03 1.975.22 2.713.196.738.49 1.301.883 1.687.393.383.87.584 1.429.605zm13.55-.217l.026-.708c.02-.52.147-.995.382-1.424a2.65 2.65 0 011.01-1.019c.433-.251.952-.365 1.555-.343.621.023 1.136.176 1.546.458.41.278.713.64.911 1.085.203.445.294.93.274 1.454l-.026.709c-.019.52-.146.994-.381 1.423-.235.429-.57.769-1.003 1.02-.43.251-.951.365-1.563.342-.612-.023-1.125-.175-1.539-.458a2.602 2.602 0 01-.924-1.091 3.221 3.221 0 01-.268-1.448zm1.738-.644l-.027.708c-.013.345.059.665.214.96.155.294.443.449.863.465.423.016.719-.115.887-.394.173-.282.266-.598.279-.948l.026-.708a2.018 2.018 0 00-.194-.966c-.142-.298-.431-.456-.869-.472-.41-.015-.706.12-.888.407a1.85 1.85 0 00-.291.948zm-8.277-7.295l.027-.708c.02-.524.149-1.001.388-1.43a2.608 2.608 0 011.01-1.013c.433-.25.952-.365 1.555-.342.616.023 1.13.176 1.539.458.414.278.72.639.918 1.085.198.445.287.929.267 1.454l-.026.708a3.178 3.178 0 01-.382 1.43c-.23.425-.562.761-.996 1.007-.433.246-.954.358-1.561.336-.617-.023-1.132-.174-1.546-.452a2.572 2.572 0 01-.918-1.085 3.165 3.165 0 01-.275-1.448zm1.751-.643l-.026.708c-.013.349.056.671.207.966.155.29.443.443.862.459.42.015.714-.116.882-.394.172-.283.265-.599.278-.948l.026-.708a2.013 2.013 0 00-.194-.966c-.142-.299-.43-.456-.862-.472-.415-.016-.711.12-.888.407a1.904 1.904 0 00-.285.948zM93.213 140.8l9.731-13.083 1.639.061-9.731 13.083-1.64-.061z" fill="#4FBE79"/><path d="M122.857 133.5c2.595 0 4.724 2.109 4.454 4.69a45.05 45.05 0 01-55.771 39.011 45.054 45.054 0 01-9.597-83.793 45.054 45.054 0 0121.793-4.946c2.594.07 4.405 2.458 4.064 5.03-.34 2.573-2.707 4.35-5.301 4.35a35.664 35.664 0 00-31.436 18.829 35.661 35.661 0 0022.763 51.416 35.657 35.657 0 0044.024-29.903c.341-2.572 2.412-4.684 5.007-4.684z" fill="#E4E4E4"/><path d="M43.188 141.929c-2.619.561-5.225-1.107-5.502-3.771A45.052 45.052 0 0158.15 95.592a45.055 45.055 0 1132.734 82.176c-2.631.498-4.977-1.52-5.19-4.19-.212-2.67 1.793-4.973 4.408-5.549a35.355 35.355 0 0025.901-45.827A35.36 35.36 0 0083.72 98.165a35.36 35.36 0 00-33.863 21.752 35.359 35.359 0 00-2.616 16.198c.198 2.671-1.434 5.252-4.053 5.814z" fill="#1FAE5F"/><path d="M43.667 199.859v16.14h-2.6l-7.606-10.994h-.134v10.994h-2.924v-16.14h2.617l7.597 11.002h.142v-11.002h2.908zM49 216.244c-.767 0-1.458-.137-2.073-.41a3.389 3.389 0 01-1.45-1.23c-.352-.541-.528-1.208-.528-2.002 0-.683.126-1.247.378-1.694a2.925 2.925 0 011.033-1.072c.436-.268.927-.47 1.474-.607a12.1 12.1 0 011.71-.307 64.07 64.07 0 001.726-.197c.441-.063.761-.158.961-.284.205-.131.307-.333.307-.607v-.047c0-.594-.175-1.053-.527-1.379-.353-.326-.86-.489-1.522-.489-.698 0-1.253.153-1.662.457-.405.305-.678.665-.82 1.08l-2.664-.378c.21-.736.557-1.35 1.04-1.844a4.527 4.527 0 011.774-1.119c.698-.253 1.47-.379 2.317-.379.583 0 1.163.069 1.741.205a4.915 4.915 0 011.584.678c.479.31.862.733 1.151 1.269.294.536.441 1.206.441 2.01v8.101H52.65v-1.663h-.095a3.467 3.467 0 01-.733.946 3.51 3.51 0 01-1.174.701c-.468.174-1.017.261-1.647.261zm.74-2.097c.573 0 1.07-.113 1.49-.339a2.51 2.51 0 00.97-.914c.23-.378.346-.791.346-1.237v-1.427c-.089.074-.241.142-.457.205-.21.063-.446.118-.709.166-.263.047-.523.089-.78.126l-.67.094a5.011 5.011 0 00-1.143.284 1.89 1.89 0 00-.796.552c-.194.231-.291.53-.291.898 0 .526.191.922.575 1.19.383.268.872.402 1.466.402zm-.236-11.845l1.766-3.602h2.79l-2.42 3.602h-2.136zm17.925 1.592l-4.311 12.105h-3.152l-4.311-12.105h3.042l2.782 8.992h.126l2.79-8.992h3.034zm.764 12.105v-12.105h2.766v2.018h.126c.22-.699.599-1.238 1.135-1.616a3.12 3.12 0 011.852-.575c.157 0 .334.007.528.023.2.011.365.029.496.055v2.625a3.032 3.032 0 00-.575-.111 5.41 5.41 0 00-.749-.055c-.52 0-.987.113-1.403.339-.41.221-.732.528-.969.922a2.604 2.604 0 00-.355 1.364v7.116h-2.852zm10.855.245c-.767 0-1.458-.137-2.073-.41a3.389 3.389 0 01-1.45-1.23c-.352-.541-.528-1.208-.528-2.002 0-.683.126-1.247.378-1.694a2.925 2.925 0 011.033-1.072c.436-.268.927-.47 1.474-.607a12.102 12.102 0 011.71-.307 64.07 64.07 0 001.726-.197c.441-.063.761-.158.961-.284.205-.131.308-.333.308-.607v-.047c0-.594-.177-1.053-.529-1.379-.352-.326-.859-.489-1.52-.489-.7 0-1.254.153-1.663.457-.405.305-.678.665-.82 1.08l-2.664-.378c.21-.736.557-1.35 1.04-1.844a4.528 4.528 0 011.774-1.119c.698-.253 1.47-.379 2.317-.379.583 0 1.163.069 1.741.205a4.916 4.916 0 011.584.678c.479.31.862.733 1.151 1.269.294.536.441 1.206.441 2.01v8.101h-2.742v-1.663h-.095a3.469 3.469 0 01-.733.946 3.51 3.51 0 01-1.174.701c-.468.174-1.017.261-1.647.261zm.74-2.097c.573 0 1.07-.113 1.49-.339a2.51 2.51 0 00.97-.914c.23-.378.346-.791.346-1.237v-1.427c-.089.074-.241.142-.457.205-.21.063-.446.118-.709.166-.263.047-.523.089-.78.126l-.67.094a5.011 5.011 0 00-1.143.284 1.89 1.89 0 00-.796.552c-.194.231-.291.53-.291.898 0 .526.191.922.575 1.19.383.268.872.402 1.466.402zm13.354-10.253v2.207h-6.959v-2.207h6.96zm-5.24-2.9h2.852v11.364c0 .384.058.678.174.883.12.2.278.336.473.41.194.073.41.11.646.11.178 0 .341-.013.489-.039a4.59 4.59 0 00.346-.071l.481 2.23a6.25 6.25 0 01-.654.173 5.4 5.4 0 01-1.025.111c-.714.021-1.358-.087-1.93-.323a3.003 3.003 0 01-1.364-1.12c-.33-.504-.494-1.134-.489-1.891v-11.837zm9.269 7.912v7.093h-2.853v-12.105h2.727v2.057h.141a3.463 3.463 0 011.332-1.616c.615-.399 1.374-.599 2.278-.599.835 0 1.563.179 2.183.536a3.612 3.612 0 011.45 1.553c.347.678.518 1.5.512 2.467v7.707h-2.852v-7.266c0-.809-.211-1.442-.631-1.899-.415-.458-.99-.686-1.726-.686-.5 0-.943.11-1.332.331a2.29 2.29 0 00-.906.938c-.216.41-.323.906-.323 1.489zm14.74 7.33c-1.182 0-2.206-.26-3.073-.781a5.292 5.292 0 01-2.018-2.183c-.473-.935-.709-2.028-.709-3.278 0-1.251.236-2.346.709-3.287.478-.94 1.151-1.67 2.018-2.19.867-.521 1.891-.781 3.073-.781 1.183 0 2.207.26 3.074.781.867.52 1.537 1.25 2.01 2.19.478.941.717 2.036.717 3.287 0 1.25-.239 2.343-.717 3.278a5.241 5.241 0 01-2.01 2.183c-.867.521-1.891.781-3.074.781zm.016-2.286c.641 0 1.177-.176 1.608-.528.431-.357.751-.835.961-1.434.216-.599.324-1.266.324-2.002 0-.741-.108-1.411-.324-2.01-.21-.604-.53-1.085-.961-1.442-.431-.357-.967-.536-1.608-.536-.657 0-1.203.179-1.639.536-.431.357-.754.838-.969 1.442-.211.599-.316 1.269-.316 2.01 0 .736.105 1.403.316 2.002.215.599.538 1.077.969 1.434.436.352.982.528 1.639.528zm16.563-6.856l-2.6.283a2.099 2.099 0 00-.387-.74 1.905 1.905 0 00-.725-.56c-.304-.142-.677-.213-1.119-.213-.593 0-1.093.129-1.497.386-.399.258-.596.591-.591 1.001-.005.352.123.639.386.859.268.221.709.402 1.324.544l2.065.441c1.145.247 1.996.639 2.553 1.175.562.536.846 1.237.851 2.104a3.29 3.29 0 01-.669 2.017c-.437.578-1.043 1.03-1.821 1.356-.778.326-1.671.489-2.68.489-1.481 0-2.674-.31-3.578-.93-.903-.626-1.442-1.495-1.615-2.609l2.782-.268c.126.547.394.959.804 1.237.41.279.943.418 1.6.418.677 0 1.221-.139 1.631-.418.415-.278.623-.622.623-1.032 0-.347-.134-.633-.402-.859-.263-.226-.673-.399-1.23-.52l-2.065-.434c-1.161-.241-2.02-.648-2.577-1.221-.557-.578-.832-1.308-.827-2.191-.005-.746.197-1.392.607-1.939.415-.552.99-.977 1.726-1.277.74-.304 1.594-.457 2.561-.457 1.418 0 2.535.302 3.349.907.82.604 1.327 1.421 1.521 2.451zm7.447-3.2v2.207h-6.959v-2.207h6.959zm-5.241-2.9h2.853v11.364c0 .384.058.678.174.883.12.2.278.336.472.41.195.073.41.11.647.11.178 0 .341-.013.488-.039.153-.027.268-.05.347-.071l.481 2.23c-.153.053-.371.11-.654.173a5.4 5.4 0 01-1.025.111c-.714.021-1.358-.087-1.931-.323a3.005 3.005 0 01-1.363-1.12c-.331-.504-.494-1.134-.489-1.891v-11.837zm4.224 1.403v-4.13h2.318l-.568 4.13h-1.75zm-93.1 35.602v-12.105h2.853v12.105H41.82zm1.434-13.823c-.452 0-.84-.15-1.166-.449a1.449 1.449 0 01-.489-1.096c0-.431.163-.796.489-1.095a1.647 1.647 0 011.166-.457c.457 0 .846.152 1.166.457.326.299.49.664.49 1.095 0 .426-.164.791-.49 1.096-.32.299-.709.449-1.166.449zm5.995 6.73v7.093h-2.853v-12.105h2.727v2.057h.142a3.463 3.463 0 011.331-1.616c.615-.399 1.374-.599 2.278-.599.835 0 1.563.179 2.183.536a3.614 3.614 0 011.45 1.553c.347.678.518 1.5.512 2.467v7.707h-2.852v-7.266c0-.809-.21-1.442-.631-1.899-.415-.458-.99-.686-1.726-.686-.5 0-.943.11-1.332.331a2.29 2.29 0 00-.906.938c-.216.41-.323.906-.323 1.489zm19.84-5.012l-4.311 12.105h-3.153l-4.31-12.105h3.041l2.782 8.992h.126l2.79-8.992h3.034zm5.71 12.342c-1.213 0-2.261-.253-3.144-.757a5.125 5.125 0 01-2.026-2.159c-.472-.936-.709-2.036-.709-3.302 0-1.246.237-2.339.71-3.279.478-.946 1.145-1.681 2.001-2.207.857-.53 1.863-.796 3.019-.796.746 0 1.45.121 2.112.363a4.77 4.77 0 011.765 1.103c.515.499.92 1.135 1.214 1.907.294.768.441 1.682.441 2.743v.875H70.26v-1.923h7.188c-.006-.547-.124-1.033-.355-1.458a2.579 2.579 0 00-.97-1.017c-.41-.247-.888-.37-1.434-.37-.583 0-1.095.142-1.537.425a2.939 2.939 0 00-1.032 1.104 3.173 3.173 0 00-.37 1.489v1.679c0 .704.128 1.308.386 1.813.257.499.617.882 1.08 1.15.462.263 1.003.394 1.623.394.415 0 .79-.058 1.127-.173a2.51 2.51 0 00.875-.528 2.2 2.2 0 00.56-.859l2.663.299a4.15 4.15 0 01-.961 1.844c-.468.521-1.067.925-1.797 1.214-.73.284-1.566.426-2.507.426zm16.154-9.142l-2.6.283a2.091 2.091 0 00-.387-.74 1.911 1.911 0 00-.725-.56c-.305-.142-.678-.213-1.12-.213-.593 0-1.092.129-1.497.386-.399.258-.596.591-.59 1.001-.006.352.123.639.385.859.268.221.71.402 1.324.544l2.065.441c1.146.247 1.997.639 2.554 1.175.562.536.846 1.237.85 2.104a3.29 3.29 0 01-.669 2.017c-.436.578-1.043 1.03-1.82 1.356-.778.326-1.671.489-2.68.489-1.482 0-2.674-.31-3.578-.93-.904-.626-1.442-1.495-1.616-2.609l2.782-.268c.126.547.394.959.804 1.237.41.279.943.418 1.6.418.678 0 1.222-.139 1.631-.418.416-.278.623-.622.623-1.032 0-.347-.134-.633-.402-.859-.263-.226-.672-.399-1.23-.52l-2.064-.434c-1.161-.241-2.02-.648-2.577-1.221-.557-.578-.833-1.308-.828-2.191-.005-.746.197-1.392.607-1.939.415-.552.99-.977 1.726-1.277.74-.304 1.595-.457 2.561-.457 1.419 0 2.535.302 3.35.907.82.604 1.326 1.421 1.52 2.451zm7.447-3.2v2.207h-6.96v-2.207h6.96zm-5.241-2.9h2.853v11.364c0 .384.057.678.173.883.12.2.278.336.473.41.194.073.41.11.646.11.179 0 .342-.013.489-.039a4.59 4.59 0 00.346-.071l.481 2.23a6.26 6.26 0 01-.654.173c-.278.063-.62.1-1.024.111-.715.021-1.359-.087-1.931-.323a3.004 3.004 0 01-1.364-1.12c-.33-.504-.494-1.134-.488-1.891v-11.837zm6.416 15.005v-12.105h2.853v12.105h-2.853zm.339-13.697l1.765-3.602h2.79l-2.419 3.602h-2.136zm9.517 13.934c-1.208 0-2.246-.266-3.113-.796a5.318 5.318 0 01-1.993-2.199c-.463-.941-.694-2.023-.694-3.247 0-1.23.236-2.315.709-3.255.473-.946 1.14-1.681 2.002-2.207.867-.53 1.892-.796 3.074-.796.982 0 1.852.182 2.608.544a4.454 4.454 0 011.821 1.521c.452.652.709 1.414.772 2.286h-2.727a2.6 2.6 0 00-.788-1.458c-.41-.394-.959-.591-1.647-.591-.583 0-1.095.157-1.537.472-.441.31-.785.757-1.032 1.34-.242.583-.363 1.282-.363 2.097 0 .824.121 1.534.363 2.127.242.589.58 1.043 1.017 1.364.441.315.958.473 1.552.473.42 0 .796-.079 1.127-.237.336-.163.617-.396.843-.701.226-.305.381-.675.465-1.111h2.727c-.068.856-.32 1.615-.756 2.277a4.476 4.476 0 01-1.782 1.545c-.751.368-1.634.552-2.648.552zm6.318-.237v-12.105h2.853v12.105h-2.853zm1.435-13.823c-.452 0-.841-.15-1.167-.449a1.447 1.447 0 01-.488-1.096c0-.431.162-.796.488-1.095a1.649 1.649 0 011.167-.457c.457 0 .846.152 1.166.457.326.299.489.664.489 1.095 0 .426-.163.791-.489 1.096-.32.299-.709.449-1.166.449zm3.141 13.823v-12.105h2.853v12.105h-2.853zm.339-13.697l1.766-3.602h2.79l-2.42 3.602h-2.136z" fill="#4FBE79"/></svg>