<svg width="368" height="143" fill="none" xmlns="http://www.w3.org/2000/svg"><path d="M10 .5h348a9.5 9.5 0 019.5 9.5v123a9.5 9.5 0 01-9.5 9.5H10A9.5 9.5 0 01.5 133V10A9.5 9.5 0 0110 .5z" fill="#fff"/><path d="M10 .5h348a9.5 9.5 0 019.5 9.5v123a9.5 9.5 0 01-9.5 9.5H10A9.5 9.5 0 01.5 133V10A9.5 9.5 0 0110 .5z" stroke="#E4E4E4"/><path d="M29.046 26.364h1.409v7.704c0 .796-.188 1.506-.563 2.13a3.939 3.939 0 01-1.574 1.472c-.678.356-1.473.535-2.386.535s-1.708-.178-2.386-.535a3.98 3.98 0 01-1.58-1.471c-.371-.625-.557-1.335-.557-2.13v-7.705h1.41v7.59c0 .569.124 1.074.374 1.518.25.439.606.786 1.068 1.04.466.25 1.023.374 1.67.374.648 0 1.205-.125 1.671-.375a2.64 2.64 0 001.069-1.04c.25-.443.375-.948.375-1.516v-7.591zm10.223 4.863l-1.205.341a2.236 2.236 0 00-.335-.585 1.626 1.626 0 00-.591-.477c-.25-.125-.57-.188-.96-.188-.534 0-.98.123-1.336.37-.352.242-.528.55-.528.926 0 .333.121.596.364.79.242.193.62.354 1.136.482l1.295.319c.78.189 1.362.479 1.745.869.382.386.574.884.574 1.494 0 .5-.144.947-.432 1.341-.284.394-.682.705-1.193.932-.512.227-1.106.34-1.784.34-.89 0-1.627-.192-2.21-.579-.584-.386-.953-.95-1.109-1.693l1.273-.318c.121.47.35.822.688 1.057.34.235.785.352 1.335.352.625 0 1.121-.133 1.488-.398.372-.269.557-.59.557-.966 0-.303-.106-.556-.318-.761-.212-.208-.538-.364-.977-.466l-1.455-.34c-.799-.19-1.386-.484-1.761-.882-.371-.401-.557-.903-.557-1.505 0-.493.138-.928.415-1.307.28-.379.66-.676 1.142-.892.485-.216 1.034-.324 1.648-.324.863 0 1.541.19 2.034.568.496.38.848.88 1.056 1.5zm-4.273-5.454l1.182 1.59 1.181-1.59h1.273v.09l-1.84 2.364h-1.228l-1.841-2.363v-.091h1.273zm10.11 12.409c-.842 0-1.567-.186-2.177-.557a3.737 3.737 0 01-1.403-1.568c-.326-.674-.49-1.459-.49-2.352 0-.894.164-1.682.49-2.364.33-.686.787-1.22 1.375-1.602.59-.387 1.28-.58 2.068-.58.454 0 .903.076 1.346.227a3.33 3.33 0 011.21.739c.364.337.654.784.87 1.34.216.558.324 1.243.324 2.058v.568h-6.727v-1.16h5.363c0-.492-.098-.931-.295-1.317a2.227 2.227 0 00-.83-.915c-.356-.224-.776-.335-1.261-.335-.534 0-.997.132-1.387.397a2.616 2.616 0 00-.892 1.023c-.208.42-.312.871-.312 1.352v.773c0 .66.114 1.218.34 1.676.232.455.552.801.961 1.04.41.235.884.352 1.426.352.352 0 .67-.049.955-.147.287-.103.536-.254.744-.455.208-.205.37-.458.483-.761l1.295.363a2.87 2.87 0 01-.687 1.16c-.322.329-.72.587-1.193.772a4.426 4.426 0 01-1.597.273zm9.448-8.91v1.137h-4.523v-1.136h4.523zm-3.205-2.09h1.341V35.5c0 .379.055.663.165.852.114.186.258.31.432.375.178.06.366.091.562.091.148 0 .27-.007.364-.023l.227-.045.273 1.205a2.72 2.72 0 01-.38.102c-.163.038-.37.057-.62.057a2.7 2.7 0 01-1.114-.245 2.213 2.213 0 01-.897-.744c-.235-.333-.353-.754-.353-1.261v-8.682zM56.571 38v-8.727h1.296v1.318h.09c.16-.432.447-.782.864-1.051a2.542 2.542 0 011.41-.404c.098 0 .22.002.368.006s.26.01.336.017v1.364a4.016 4.016 0 00-.313-.051 3.077 3.077 0 00-.505-.04c-.425 0-.803.089-1.137.267-.33.174-.59.416-.784.727a1.96 1.96 0 00-.284 1.051V38H56.57zm9.347.182c-.841 0-1.567-.186-2.177-.557a3.737 3.737 0 01-1.403-1.568c-.326-.674-.489-1.459-.489-2.352 0-.894.163-1.682.49-2.364.329-.686.787-1.22 1.374-1.602.591-.387 1.28-.58 2.068-.58.455 0 .904.076 1.347.227.443.152.846.398 1.21.739.364.337.654.784.87 1.34.215.558.323 1.243.323 2.058v.568h-6.727v-1.16h5.364c0-.492-.099-.931-.296-1.317a2.227 2.227 0 00-.83-.915c-.355-.224-.776-.335-1.26-.335-.535 0-.997.132-1.387.397a2.616 2.616 0 00-.892 1.023c-.209.42-.313.871-.313 1.352v.773c0 .66.114 1.218.341 1.676.231.455.551.801.96 1.04.41.235.885.352 1.427.352.352 0 .67-.049.954-.147.288-.103.536-.254.745-.455.208-.205.369-.458.482-.761l1.296.363c-.136.44-.366.826-.688 1.16-.322.329-.72.587-1.193.772a4.426 4.426 0 01-1.596.273zm6.994-5.432V38H71.57v-8.727h1.296v1.363h.113c.205-.443.515-.799.932-1.068.417-.273.954-.409 1.614-.409.59 0 1.108.121 1.55.364.444.238.789.602 1.035 1.09.246.486.37 1.1.37 1.842V38h-1.342v-5.455c0-.685-.178-1.22-.534-1.602-.356-.386-.845-.58-1.466-.58-.428 0-.81.093-1.147.279a1.993 1.993 0 00-.79.813c-.194.356-.29.787-.29 1.295zm8.57 8.523c-.228 0-.43-.02-.608-.057a1.604 1.604 0 01-.37-.102l.341-1.182c.326.083.614.113.864.09.25-.022.471-.134.665-.334.197-.198.377-.518.54-.96l.25-.683-3.228-8.772h1.455l2.409 6.954h.09l2.41-6.954h1.454l-3.704 10a3.78 3.78 0 01-.62 1.119c-.246.3-.532.52-.858.665a2.645 2.645 0 01-1.09.216zm1.75-13.182l1.386-2.637h1.568l-1.773 2.637h-1.181zM94.023 38v-8.727h1.296v1.318h.09c.16-.432.448-.782.864-1.051a2.541 2.541 0 011.41-.404c.098 0 .22.002.369.006.147.004.259.01.335.017v1.364a4.008 4.008 0 00-.313-.051 3.077 3.077 0 00-.505-.04c-.425 0-.803.089-1.137.267-.33.174-.59.416-.784.727a1.96 1.96 0 00-.284 1.051V38h-1.34zm9.233.182c-.788 0-1.479-.188-2.074-.563-.591-.375-1.053-.9-1.386-1.574-.33-.674-.494-1.462-.494-2.363 0-.91.164-1.703.494-2.38.333-.679.795-1.205 1.386-1.58.595-.375 1.286-.563 2.074-.563.788 0 1.477.188 2.068.563.595.375 1.057.901 1.387 1.58.333.677.5 1.47.5 2.38 0 .901-.167 1.69-.5 2.363-.33.675-.792 1.2-1.387 1.574-.591.375-1.28.563-2.068.563zm0-1.205c.599 0 1.091-.153 1.477-.46.387-.307.673-.71.858-1.21.186-.5.279-1.042.279-1.625 0-.584-.093-1.127-.279-1.63a2.74 2.74 0 00-.858-1.223c-.386-.31-.878-.465-1.477-.465-.598 0-1.091.155-1.477.465a2.74 2.74 0 00-.858 1.222 4.672 4.672 0 00-.279 1.63c0 .584.093 1.126.279 1.626.185.5.471.903.858 1.21.386.307.879.46 1.477.46zM109.009 38v-1.023l4.954-6.363v-.091h-4.795v-1.25h6.522v1.068l-4.818 6.318v.091h4.977V38h-6.84zm8.906 3.273v-12h1.295v1.386h.159c.099-.151.235-.345.409-.58.178-.238.432-.45.762-.636.333-.19.784-.284 1.352-.284.735 0 1.383.184 1.943.551.561.368.998.889 1.313 1.563.314.674.471 1.47.471 2.386 0 .924-.157 1.726-.471 2.404-.315.674-.75 1.197-1.307 1.568-.557.367-1.199.55-1.926.55-.561 0-1.01-.092-1.347-.278-.337-.189-.596-.403-.778-.642a8.77 8.77 0 01-.421-.602h-.113v4.614h-1.341zm1.318-7.637c0 .66.097 1.24.29 1.745.193.5.475.892.846 1.176.372.28.826.42 1.364.42.561 0 1.028-.147 1.403-.443.379-.3.663-.7.853-1.204a4.73 4.73 0 00.289-1.694c0-.613-.094-1.166-.284-1.659-.185-.496-.467-.888-.846-1.176-.375-.291-.847-.437-1.415-.437-.545 0-1.004.138-1.375.414-.371.273-.652.656-.841 1.148-.189.489-.284 1.059-.284 1.71zm11.977 4.546c-.788 0-1.479-.188-2.074-.563-.591-.375-1.053-.9-1.386-1.574-.33-.674-.494-1.462-.494-2.363 0-.91.164-1.703.494-2.38.333-.679.795-1.205 1.386-1.58.595-.375 1.286-.563 2.074-.563.788 0 1.478.188 2.068.563.595.375 1.057.901 1.387 1.58.333.677.5 1.47.5 2.38 0 .901-.167 1.69-.5 2.363-.33.675-.792 1.2-1.387 1.574-.59.375-1.28.563-2.068.563zm0-1.205c.599 0 1.091-.153 1.478-.46a2.71 2.71 0 00.857-1.21c.186-.5.279-1.042.279-1.625 0-.584-.093-1.127-.279-1.63a2.746 2.746 0 00-.857-1.223c-.387-.31-.879-.465-1.478-.465-.598 0-1.091.155-1.477.465a2.757 2.757 0 00-.858 1.222 4.672 4.672 0 00-.278 1.63c0 .584.092 1.126.278 1.626.186.5.472.903.858 1.21.386.307.879.46 1.477.46zm9.547 1.205c-.818 0-1.523-.193-2.114-.58a3.781 3.781 0 01-1.363-1.596c-.318-.678-.477-1.453-.477-2.324 0-.887.162-1.669.488-2.347.33-.682.788-1.214 1.375-1.596.591-.387 1.281-.58 2.068-.58a3.91 3.91 0 011.659.341 3.18 3.18 0 011.211.954c.314.41.509.887.585 1.432h-1.341c-.102-.397-.33-.75-.682-1.056-.348-.311-.818-.466-1.409-.466-.523 0-.981.136-1.375.409-.39.269-.695.65-.915 1.142-.216.488-.324 1.062-.324 1.721 0 .675.107 1.262.319 1.762.216.5.519.888.909 1.164.394.277.856.415 1.386.415.349 0 .665-.06.949-.181a1.96 1.96 0 00.722-.523c.197-.228.337-.5.42-.819h1.341a3.101 3.101 0 01-1.739 2.37c-.485.239-1.049.358-1.693.358zm-1.227-12.41l1.182 1.592 1.181-1.591h1.273v.09l-1.841 2.364h-1.227l-1.841-2.363v-.091h1.273zm10.278 12.41c-.841 0-1.566-.186-2.176-.557a3.733 3.733 0 01-1.403-1.568c-.326-.674-.489-1.459-.489-2.352 0-.894.163-1.682.489-2.364.329-.686.788-1.22 1.375-1.602.591-.387 1.28-.58 2.068-.58.454 0 .903.076 1.346.227.444.152.847.398 1.211.739.363.337.653.784.869 1.34.216.558.324 1.243.324 2.058v.568h-6.727v-1.16h5.363c0-.492-.098-.931-.295-1.317a2.225 2.225 0 00-.83-.915c-.356-.224-.776-.335-1.261-.335-.534 0-.996.132-1.386.397a2.618 2.618 0 00-.893 1.023c-.208.42-.312.871-.312 1.352v.773c0 .66.114 1.218.341 1.676.231.455.551.801.96 1.04.409.235.885.352 1.426.352a2.9 2.9 0 00.955-.147c.288-.103.536-.254.744-.455.208-.205.369-.458.483-.761l1.296.363a2.88 2.88 0 01-.688 1.16c-.322.329-.72.587-1.193.772a4.43 4.43 0 01-1.597.273zm9.449-8.91v1.137h-4.523v-1.136h4.523zm-3.204-2.09h1.34V35.5c0 .379.055.663.165.852.114.186.258.31.432.375.178.06.366.091.563.091.147 0 .269-.007.363-.023l.227-.045.273 1.205a2.753 2.753 0 01-.38.102c-.163.038-.37.057-.62.057-.379 0-.75-.082-1.113-.245a2.208 2.208 0 01-.898-.744c-.235-.333-.352-.754-.352-1.261v-8.682zM33.137 59.545V85h-5.381V64.654h-.15l-5.829 3.654v-4.773l6.302-3.99h5.058zm14.347 25.803c-1.757 0-3.323-.323-4.698-.97-1.367-.646-2.453-1.537-3.256-2.672-.804-1.135-1.223-2.436-1.256-3.902h5.22c.058.986.473 1.785 1.243 2.398.77.614 1.686.92 2.747.92.845 0 1.591-.186 2.237-.56a4.002 4.002 0 001.53-1.578c.372-.68.558-1.458.558-2.336 0-.895-.19-1.682-.571-2.362a4.042 4.042 0 00-1.554-1.59c-.663-.382-1.421-.577-2.274-.585-.746 0-1.471.153-2.175.46-.697.307-1.24.725-1.629 1.255l-4.785-.857 1.206-13.423h15.56v4.4H44.465l-.659 6.375h.15c.447-.63 1.122-1.151 2.025-1.566.903-.414 1.914-.621 3.033-.621 1.533 0 2.9.36 4.101 1.081a7.787 7.787 0 012.847 2.97c.696 1.252 1.04 2.694 1.031 4.326.009 1.715-.39 3.24-1.193 4.574-.795 1.326-1.91 2.37-3.343 3.132-1.425.754-3.083 1.131-4.972 1.131zM71.69 70.172v4.201H60.081v-4.2h11.61zM74.434 85v-3.878l9.061-8.39a34.286 34.286 0 001.939-2.013c.53-.596.932-1.18 1.206-1.752.273-.58.41-1.206.41-1.877 0-.746-.17-1.388-.51-1.927a3.345 3.345 0 00-1.392-1.255c-.588-.298-1.255-.447-2.001-.447-.779 0-1.458.157-2.038.472a3.255 3.255 0 00-1.343 1.355c-.315.588-.472 1.288-.472 2.1h-5.108c0-1.665.377-3.111 1.13-4.338.755-1.226 1.811-2.175 3.17-2.846 1.36-.671 2.925-1.007 4.698-1.007 1.823 0 3.41.324 4.76.97 1.36.638 2.416 1.524 3.17 2.66.754 1.135 1.131 2.436 1.131 3.902 0 .962-.19 1.91-.572 2.847-.373.936-1.04 1.976-2 3.12-.962 1.135-2.317 2.498-4.065 4.088l-3.716 3.642v.174H92.58V85H74.434zm31.027.56c-2.138-.009-3.978-.535-5.519-1.58-1.533-1.043-2.713-2.555-3.542-4.536-.82-1.98-1.226-4.362-1.218-7.146 0-2.776.41-5.142 1.23-7.097.829-1.956 2.01-3.443 3.543-4.462 1.541-1.028 3.376-1.541 5.506-1.541 2.129 0 3.96.513 5.493 1.54 1.541 1.028 2.726 2.52 3.555 4.475.829 1.947 1.239 4.309 1.23 7.085 0 2.792-.414 5.178-1.242 7.159-.821 1.98-1.997 3.492-3.53 4.536-1.533 1.044-3.369 1.566-5.506 1.566zm0-4.463c1.458 0 2.622-.733 3.492-2.2.87-1.466 1.301-3.666 1.293-6.6 0-1.93-.199-3.537-.597-4.822-.389-1.284-.944-2.25-1.665-2.896a3.634 3.634 0 00-2.523-.97c-1.45 0-2.61.726-3.48 2.176-.87 1.45-1.31 3.62-1.318 6.513 0 1.955.195 3.587.584 4.897.398 1.3.957 2.278 1.678 2.933a3.68 3.68 0 002.536.97zm27.049-.87v-1.342c0-1.02.215-1.956.646-2.809a5.12 5.12 0 011.902-2.063c.837-.522 1.856-.783 3.057-.783 1.218 0 2.242.257 3.07.77a4.921 4.921 0 011.889 2.064c.431.853.647 1.794.647 2.821v1.342a6.22 6.22 0 01-.647 2.822 5.022 5.022 0 01-1.901 2.05c-.837.522-1.856.783-3.058.783-1.218 0-2.241-.26-3.07-.783a5.06 5.06 0 01-1.889-2.05 6.218 6.218 0 01-.646-2.822zm3.617-1.342v1.342c0 .589.14 1.144.422 1.666.29.522.812.783 1.566.783s1.268-.257 1.541-.77a3.43 3.43 0 00.423-1.679v-1.342c0-.605-.133-1.168-.398-1.69s-.787-.783-1.566-.783c-.745 0-1.263.26-1.553.783a3.425 3.425 0 00-.435 1.69zm-16.68-13.225v-1.342c0-1.027.22-1.968.659-2.821a5.125 5.125 0 011.901-2.063c.837-.514 1.848-.771 3.033-.771 1.226 0 2.254.257 3.082.77a5.036 5.036 0 011.89 2.064c.43.853.646 1.794.646 2.821v1.343c0 1.027-.22 1.967-.659 2.82a5.032 5.032 0 01-1.902 2.052c-.828.505-1.847.758-3.057.758s-2.233-.257-3.07-.77a5.161 5.161 0 01-1.889-2.052c-.423-.853-.634-1.79-.634-2.808zm3.642-1.342v1.343c0 .604.14 1.164.422 1.677.29.514.8.771 1.529.771.762 0 1.28-.257 1.554-.77a3.44 3.44 0 00.422-1.678v-1.343a3.67 3.67 0 00-.398-1.69c-.265-.522-.791-.783-1.578-.783-.737 0-1.247.265-1.529.795a3.523 3.523 0 00-.422 1.678zM121.088 85l17.5-25.455h3.256L124.344 85h-3.256z" fill="#242A36"/><path d="M36.573 106.895L32.263 119H29.11l-4.311-12.105h3.042l2.782 8.992h.126l2.79-8.992h3.034zm4.844 12.318c-.95 0-1.802-.245-2.553-.733-.752-.489-1.345-1.198-1.781-2.128-.437-.93-.655-2.06-.655-3.389 0-1.345.221-2.48.662-3.404.447-.93 1.049-1.632 1.805-2.105a4.639 4.639 0 012.53-.717c.71 0 1.293.121 1.75.363.457.236.82.522 1.087.859.268.331.476.643.623.938h.118v-6.037h2.86V119h-2.805v-1.907h-.173c-.147.294-.36.607-.639.938a3.52 3.52 0 01-1.103.835c-.457.231-1.032.347-1.726.347zm.796-2.341c.604 0 1.12-.163 1.545-.488.425-.331.748-.791.97-1.38.22-.588.33-1.274.33-2.057 0-.782-.11-1.463-.33-2.041-.216-.578-.537-1.027-.962-1.347-.42-.321-.938-.481-1.553-.481-.636 0-1.166.165-1.592.496-.425.331-.746.788-.961 1.372-.216.583-.323 1.25-.323 2.001 0 .757.107 1.432.323 2.026.22.588.543 1.053.969 1.395.43.336.959.504 1.584.504zm7.077-10.687v-4.129h2.317l-.567 4.129h-1.75zm5.794 13.059c-.767 0-1.458-.136-2.073-.409a3.388 3.388 0 01-1.45-1.23c-.352-.541-.528-1.208-.528-2.002 0-.683.126-1.248.378-1.694a2.926 2.926 0 011.033-1.072c.436-.268.927-.47 1.474-.607a11.958 11.958 0 011.71-.307 68.46 68.46 0 001.726-.197c.441-.063.762-.158.961-.284.205-.131.308-.334.308-.607v-.047c0-.594-.176-1.053-.529-1.379-.352-.326-.858-.489-1.52-.489-.7 0-1.254.153-1.663.457-.405.305-.678.665-.82 1.08l-2.664-.378c.21-.736.557-1.351 1.04-1.844a4.518 4.518 0 011.774-1.12c.699-.252 1.47-.378 2.317-.378.583 0 1.163.068 1.742.205a4.915 4.915 0 011.584.678c.478.31.861.733 1.15 1.269.294.536.441 1.205.441 2.009V119h-2.742v-1.663h-.095a3.484 3.484 0 01-.733.946 3.51 3.51 0 01-1.174.701c-.468.174-1.017.26-1.647.26zm.74-2.096c.574 0 1.07-.113 1.49-.339a2.51 2.51 0 00.97-.914c.23-.378.346-.791.346-1.237v-1.427c-.089.074-.241.142-.457.205-.21.063-.446.118-.709.166-.263.047-.523.089-.78.126l-.67.094a5.011 5.011 0 00-1.143.284 1.89 1.89 0 00-.796.552c-.194.231-.291.53-.291.898 0 .525.191.922.575 1.19.383.268.872.402 1.466.402zm9.91-1.947l-.007-3.444h.457l4.35-4.862h3.334l-5.352 5.958h-.59l-2.192 2.348zm-2.6 3.799v-16.14h2.853V119h-2.853zm7.597 0l-3.94-5.509 1.922-2.009 5.43 7.518h-3.412zm7.31.244c-.766 0-1.457-.136-2.072-.409a3.39 3.39 0 01-1.45-1.23c-.352-.541-.528-1.208-.528-2.002 0-.683.126-1.248.378-1.694a2.925 2.925 0 011.033-1.072c.436-.268.927-.47 1.473-.607a11.96 11.96 0 011.71-.307 68.53 68.53 0 001.727-.197c.44-.063.761-.158.961-.284.205-.131.307-.334.307-.607v-.047c0-.594-.176-1.053-.528-1.379-.352-.326-.859-.489-1.52-.489-.7 0-1.254.153-1.663.457-.405.305-.678.665-.82 1.08l-2.664-.378c.21-.736.557-1.351 1.04-1.844a4.518 4.518 0 011.774-1.12c.698-.252 1.47-.378 2.317-.378.583 0 1.163.068 1.741.205a4.915 4.915 0 011.584.678c.479.31.862.733 1.151 1.269.294.536.441 1.205.441 2.009V119h-2.742v-1.663h-.095a3.484 3.484 0 01-.733.946 3.51 3.51 0 01-1.174.701c-.468.174-1.017.26-1.647.26zm.742-2.096c.572 0 1.069-.113 1.49-.339.42-.231.743-.536.969-.914.23-.378.346-.791.346-1.237v-1.427c-.089.074-.241.142-.457.205-.21.063-.446.118-.71.166-.262.047-.522.089-.78.126l-.67.094a5.011 5.011 0 00-1.142.284 1.89 1.89 0 00-.796.552c-.194.231-.291.53-.291.898 0 .525.191.922.575 1.19.383.268.872.402 1.466.402zM92.585 119h-3.121l5.682-16.14h3.61l5.69 16.14h-3.121l-4.311-12.83h-.126L92.585 119zm.102-6.328h8.512v2.348h-8.512v-2.348zm15.598-9.812V119h-2.924v-16.14h2.924zm11.404 16.376c-1.182 0-2.207-.26-3.073-.78a5.298 5.298 0 01-2.018-2.183c-.473-.935-.709-2.028-.709-3.278 0-1.251.236-2.346.709-3.287.478-.94 1.151-1.67 2.018-2.191.866-.52 1.891-.78 3.073-.78s2.207.26 3.074.78a5.236 5.236 0 012.009 2.191c.479.941.718 2.036.718 3.287 0 1.25-.239 2.343-.718 3.278a5.239 5.239 0 01-2.009 2.183c-.867.52-1.892.78-3.074.78zm.016-2.285c.641 0 1.177-.176 1.608-.528.43-.357.751-.835.961-1.434.216-.599.323-1.267.323-2.002 0-.741-.107-1.411-.323-2.01-.21-.604-.531-1.085-.961-1.442-.431-.357-.967-.536-1.608-.536-.657 0-1.203.179-1.639.536-.431.357-.754.838-.97 1.442-.21.599-.315 1.269-.315 2.01 0 .735.105 1.403.315 2.002.216.599.539 1.077.97 1.434.436.352.982.528 1.639.528zm6.996 6.588v-16.644h2.805v2.002h.166a5.21 5.21 0 01.622-.938c.268-.337.631-.623 1.088-.859.457-.242 1.04-.363 1.749-.363.936 0 1.779.239 2.53.717.757.473 1.356 1.175 1.797 2.105.447.924.67 2.059.67 3.404 0 1.329-.218 2.459-.654 3.389-.436.93-1.03 1.639-1.781 2.128-.752.488-1.603.733-2.554.733-.693 0-1.269-.116-1.726-.347a3.513 3.513 0 01-1.103-.835 5.405 5.405 0 01-.638-.938h-.119v6.446h-2.852zm2.797-10.592c0 .783.111 1.469.331 2.057.226.589.549 1.049.97 1.38.425.325.94.488 1.544.488.631 0 1.159-.168 1.584-.504.426-.342.746-.807.962-1.395.221-.594.331-1.269.331-2.026 0-.751-.108-1.418-.323-2.001-.216-.584-.536-1.041-.962-1.372-.425-.331-.956-.496-1.592-.496-.609 0-1.127.16-1.552.481-.426.32-.749.769-.97 1.347-.215.578-.323 1.259-.323 2.041zm15.907-6.052v2.206h-6.959v-2.206h6.959zm-5.241-2.9h2.853v11.364c0 .384.058.678.174.883a.933.933 0 00.473.409c.194.074.409.111.646.111.179 0 .341-.013.489-.04.152-.026.267-.05.346-.071l.481 2.231c-.152.052-.37.11-.654.173a5.4 5.4 0 01-1.025.111c-.714.021-1.358-.087-1.93-.324a2.994 2.994 0 01-1.364-1.119c-.331-.504-.494-1.135-.489-1.891v-11.837zM146.581 119v-12.105h2.853V119h-2.853zm1.434-13.823c-.452 0-.84-.15-1.166-.45a1.445 1.445 0 01-.489-1.095c0-.431.163-.796.489-1.095a1.647 1.647 0 011.166-.458c.457 0 .846.153 1.167.458.325.299.488.664.488 1.095 0 .426-.163.791-.488 1.095-.321.3-.71.45-1.167.45zM151.157 119v-12.105h2.727v2.057h.142c.252-.694.67-1.235 1.253-1.624.583-.394 1.279-.591 2.088-.591.82 0 1.511.2 2.073.599.567.394.967.933 1.198 1.616h.126a3.31 3.31 0 011.355-1.608c.641-.405 1.401-.607 2.278-.607 1.114 0 2.023.352 2.727 1.056.704.704 1.056 1.731 1.056 3.082V119h-2.861v-7.684c0-.751-.2-1.3-.599-1.647-.399-.352-.888-.528-1.466-.528-.688 0-1.227.215-1.615.646-.384.426-.576.98-.576 1.663V119h-2.797v-7.802c0-.625-.19-1.125-.568-1.498-.373-.373-.861-.559-1.466-.559-.409 0-.783.105-1.119.315a2.207 2.207 0 00-.804.875c-.199.373-.299.809-.299 1.308V119h-2.853zm22.19.244c-.767 0-1.458-.136-2.073-.409a3.395 3.395 0 01-1.45-1.23c-.352-.541-.528-1.208-.528-2.002 0-.683.126-1.248.379-1.694a2.923 2.923 0 011.032-1.072c.436-.268.927-.47 1.474-.607a11.925 11.925 0 011.71-.307 68.476 68.476 0 001.726-.197c.441-.063.762-.158.961-.284.205-.131.308-.334.308-.607v-.047c0-.594-.176-1.053-.528-1.379-.352-.326-.859-.489-1.521-.489-.699 0-1.253.153-1.663.457-.405.305-.678.665-.82 1.08l-2.664-.378c.211-.736.557-1.351 1.041-1.844a4.513 4.513 0 011.773-1.12c.699-.252 1.471-.378 2.317-.378a7.53 7.53 0 011.742.205 4.913 4.913 0 011.584.678c.478.31.861.733 1.15 1.269.295.536.442 1.205.442 2.009V119h-2.743v-1.663h-.095a3.478 3.478 0 01-.732.946c-.31.289-.702.523-1.175.701-.467.174-1.016.26-1.647.26zm.741-2.096c.573 0 1.069-.113 1.489-.339.421-.231.744-.536.97-.914a2.33 2.33 0 00.347-1.237v-1.427c-.09.074-.242.142-.457.205a6.69 6.69 0 01-.71.166c-.262.047-.523.089-.78.126l-.67.094a5.03 5.03 0 00-1.143.284 1.896 1.896 0 00-.796.552c-.194.231-.291.53-.291.898 0 .525.192.922.575 1.19.384.268.872.402 1.466.402zm10.162-14.288V119h-2.853v-16.14h2.853zm1.723 16.14v-12.105h2.853V119h-2.853zm1.434-13.823c-.452 0-.84-.15-1.166-.45a1.445 1.445 0 01-.489-1.095c0-.431.163-.796.489-1.095a1.647 1.647 0 011.166-.458c.457 0 .846.153 1.167.458.325.299.488.664.488 1.095 0 .426-.163.791-.488 1.095-.321.3-.71.45-1.167.45zM190.391 119v-1.813l6.242-7.825v-.103h-6.037v-2.364h9.529v1.946l-5.943 7.692v.103h6.147V119h-9.938zm14.893.244c-.767 0-1.458-.136-2.073-.409a3.39 3.39 0 01-1.45-1.23c-.352-.541-.528-1.208-.528-2.002 0-.683.126-1.248.378-1.694a2.926 2.926 0 011.033-1.072c.436-.268.927-.47 1.473-.607a11.964 11.964 0 011.711-.307 69.023 69.023 0 001.726-.197c.441-.063.761-.158.961-.284.205-.131.307-.334.307-.607v-.047c0-.594-.176-1.053-.528-1.379-.352-.326-.859-.489-1.521-.489-.698 0-1.253.153-1.663.457-.404.305-.677.665-.819 1.08l-2.664-.378c.21-.736.557-1.351 1.04-1.844a4.524 4.524 0 011.774-1.12c.698-.252 1.471-.378 2.317-.378.583 0 1.163.068 1.741.205a4.913 4.913 0 011.584.678c.479.31.862.733 1.151 1.269.294.536.441 1.205.441 2.009V119h-2.742v-1.663h-.095a3.462 3.462 0 01-.733.946 3.51 3.51 0 01-1.174.701c-.468.174-1.017.26-1.647.26zm.741-2.096c.572 0 1.069-.113 1.489-.339.421-.231.744-.536.97-.914a2.33 2.33 0 00.346-1.237v-1.427c-.089.074-.241.142-.457.205-.21.063-.446.118-.709.166-.263.047-.523.089-.78.126l-.67.094a5.004 5.004 0 00-1.143.284 1.89 1.89 0 00-.796.552c-.194.231-.292.53-.292.898 0 .525.192.922.576 1.19.383.268.872.402 1.466.402zm-.237-11.845l1.766-3.602h2.789l-2.419 3.602h-2.136zm12.826 13.933c-1.209 0-2.246-.265-3.113-.796a5.311 5.311 0 01-1.994-2.198c-.462-.941-.694-2.023-.694-3.247 0-1.23.237-2.315.71-3.255.473-.946 1.14-1.681 2.001-2.207.867-.531 1.892-.796 3.074-.796.983 0 1.852.181 2.609.544a4.451 4.451 0 011.82 1.521c.452.651.71 1.413.773 2.285h-2.727a2.613 2.613 0 00-.788-1.458c-.41-.394-.959-.591-1.648-.591-.583 0-1.095.158-1.536.473-.442.31-.786.757-1.033 1.34-.241.583-.362 1.282-.362 2.096 0 .825.121 1.535.362 2.128.242.589.581 1.043 1.017 1.364.441.315.959.473 1.552.473.421 0 .796-.079 1.127-.237a2.27 2.27 0 00.844-.701c.226-.305.381-.675.465-1.112h2.727c-.069.857-.321 1.616-.757 2.278a4.48 4.48 0 01-1.781 1.545c-.751.368-1.634.551-2.648.551zm6.318-.236v-12.105h2.853V119h-2.853zm1.434-13.823a1.66 1.66 0 01-1.166-.45 1.445 1.445 0 01-.489-1.095c0-.431.163-.796.489-1.095a1.646 1.646 0 011.166-.458c.457 0 .846.153 1.166.458.326.299.489.664.489 1.095 0 .426-.163.791-.489 1.095-.32.3-.709.45-1.166.45zM229.508 119v-12.105h2.853V119h-2.853zm1.434-13.823a1.66 1.66 0 01-1.166-.45 1.445 1.445 0 01-.489-1.095c0-.431.163-.796.489-1.095a1.646 1.646 0 011.166-.458c.457 0 .846.153 1.167.458.325.299.488.664.488 1.095 0 .426-.163.791-.488 1.095-.321.3-.71.45-1.167.45z" fill="#4FBE79"/><path d="M269.143 92.674l-11.054-2.824v8.472h107.289V62.316l-12.68-7.06-3.251 5.295-10.079-5.295-11.704 13.06-17.231 7.414-10.729 16.944h-15.931l-3.576-8.825-11.054 8.825z" fill="url(#paint0_linear_2_49)"/><path d="M258.089 90.575l11.054 2.883 11.054-9.01 3.576 9.01h15.931l10.729-17.3 17.232-7.568 11.704-13.334 10.079 5.405 3.251-5.405 12.68 7.208" stroke="#242A36" stroke-width="1.434"/><defs><linearGradient id="paint0_linear_2_49" x1="314.569" y1="-58.828" x2="311.904" y2="99.029" gradientUnits="userSpaceOnUse"><stop stop-color="#242A36"/><stop offset="1" stop-color="#242A36" stop-opacity="0"/></linearGradient></defs></svg>