<svg width="24" height="24" fill="none" xmlns="http://www.w3.org/2000/svg"><path d="M14.535 11.087l4.023 1.574c2.32.907 3.48 1.361 3.441 2.081-.038.72-1.249 1.05-3.67 1.71-.721.197-1.082.296-1.331.546-.25.25-.349.61-.545 1.33-.66 2.422-.99 3.633-1.71 3.671-.72.039-1.175-1.121-2.082-3.441l-1.575-4.023c-.95-2.429-1.425-3.643-.81-4.259.616-.615 1.83-.14 4.26.81l-.001.001z" stroke="#242A36" stroke-width="1.5" stroke-linejoin="round"/><path d="M10.858 7.083a.75.75 0 001.284-.774l-1.284.774zm-4.549 5.06a.751.751 0 00.774-1.285l-.774 1.285zM5.75 8.5A2.75 2.75 0 018.5 5.75v-1.5A4.25 4.25 0 004.25 8.5h1.5zM8.5 5.75c1 0 1.875.533 2.358 1.333l1.284-.774A4.25 4.25 0 008.5 4.25v1.5zm-1.417 5.108A2.75 2.75 0 015.75 8.5h-1.5c0 1.547.827 2.9 2.06 3.642l.773-1.284z" fill="#242A36"/><path d="M14.252 8.135a.75.75 0 001.496-.095l-1.496.095zm-6.21 7.614a.75.75 0 10.094-1.498l-.094 1.498zM2.75 8.506A5.757 5.757 0 018.507 2.75v-1.5A7.257 7.257 0 001.25 8.507l1.5-.001zM8.507 2.75a5.757 5.757 0 015.745 5.385l1.496-.095a7.257 7.257 0 00-7.241-6.79v1.5zm-.37 11.502A5.757 5.757 0 012.75 8.506h-1.5c0 3.851 3 7.001 6.791 7.242l.096-1.496z" fill="#242A36"/></svg>