<svg width="24" height="24" fill="none" xmlns="http://www.w3.org/2000/svg"><path d="M3 12c0 1.657 3.582 3 8 3 .339 0 .672-.008 1-.023" stroke="#242A36" stroke-width="1.5" stroke-linecap="round"/><path d="M19 5v6.5M3 5v14c0 1.657 3.582 3 8 3 .339 0 .672-.008 1-.023" stroke="#242A36" stroke-width="1.5" stroke-linecap="round"/><path d="M11 8c4.418 0 8-1.343 8-3s-3.582-3-8-3-8 1.343-8 3 3.582 3 8 3z" stroke="#242A36" stroke-width="1.5"/><path d="M7 8v2m0 5v2" stroke="#242A36" stroke-width="1.5" stroke-linecap="round"/><path d="M19.987 14l.5 2.084-.83-.518a3.5 3.5 0 00-2.122-.715c-1.952 0-3.535 1.6-3.535 3.575C14 20.4 15.583 22 17.535 22c1.71 0 3.137-1.228 3.465-2.86" stroke="#242A36" stroke-width="1.5" stroke-linecap="round" stroke-linejoin="round"/></svg>