<svg width="365" height="443" fill="none" xmlns="http://www.w3.org/2000/svg"><path d="M10 .5h345a9.5 9.5 0 019.5 9.5v423a9.5 9.5 0 01-9.5 9.5H10A9.5 9.5 0 01.5 433V10l.013-.49A9.5 9.5 0 019.51.514L10 .5z" fill="#fff"/><path d="M10 .5h345a9.5 9.5 0 019.5 9.5v423a9.5 9.5 0 01-9.5 9.5H10A9.5 9.5 0 01.5 433V10l.013-.49A9.5 9.5 0 019.51.514L10 .5z" stroke="#E4E4E4"/><path d="M34.67 53.122v-17.6h4.45v17.6h-4.45zm-6.575-6.575v-4.45h17.6v4.45h-17.6zm32.831-15.001V57h-5.381V36.654h-.15l-5.829 3.654v-4.773l6.302-3.99h5.058zm14.546 25.802c-1.914 0-3.617-.31-5.108-.932-1.484-.63-2.648-1.487-3.493-2.573a5.85 5.85 0 01-1.268-3.691c0-1.061.24-2.035.721-2.921a6.488 6.488 0 011.989-2.225 6.556 6.556 0 012.809-1.143v-.174c-1.359-.274-2.461-.933-3.306-1.977-.845-1.052-1.268-2.274-1.268-3.666 0-1.318.385-2.49 1.156-3.518.77-1.035 1.827-1.847 3.17-2.436 1.35-.596 2.883-.895 4.598-.895 1.715 0 3.244.299 4.586.895 1.35.597 2.412 1.413 3.182 2.449.77 1.027 1.16 2.196 1.169 3.505-.009 1.4-.44 2.622-1.293 3.666-.854 1.044-1.947 1.703-3.281 1.977v.174a6.45 6.45 0 012.771 1.143c.837.588 1.5 1.33 1.989 2.225.497.886.75 1.86.758 2.92a5.91 5.91 0 01-1.28 3.692c-.845 1.085-2.014 1.943-3.505 2.573-1.483.621-3.182.932-5.096.932zm0-3.952c.854 0 1.6-.154 2.237-.46.638-.315 1.135-.746 1.492-1.293.364-.555.547-1.193.547-1.914 0-.737-.187-1.388-.56-1.951a3.845 3.845 0 00-1.516-1.343c-.638-.331-1.371-.497-2.2-.497-.82 0-1.554.166-2.2.497a3.825 3.825 0 00-1.529 1.343c-.364.563-.546 1.214-.546 1.951 0 .72.178 1.359.534 1.914.356.547.858.978 1.504 1.293.646.306 1.392.46 2.237.46zm0-11.373c.713 0 1.347-.145 1.902-.435.555-.29.99-.692 1.305-1.206.315-.513.472-1.106.472-1.777 0-.663-.157-1.243-.472-1.74a3.235 3.235 0 00-1.293-1.18c-.547-.29-1.185-.436-1.914-.436-.72 0-1.359.145-1.914.435-.555.282-.99.676-1.305 1.181-.307.497-.46 1.077-.46 1.74 0 .671.157 1.264.472 1.778.315.513.75.915 1.305 1.205.556.29 1.19.435 1.902.435zm21.94 15.325c-1.756 0-3.322-.323-4.697-.97-1.368-.646-2.453-1.536-3.257-2.672-.803-1.135-1.222-2.436-1.255-3.902h5.22c.058.986.472 1.785 1.243 2.398.77.614 1.686.92 2.747.92.845 0 1.59-.186 2.237-.56a4.003 4.003 0 001.529-1.578c.373-.68.559-1.458.559-2.336 0-.895-.19-1.682-.572-2.362a4.033 4.033 0 00-1.553-1.59c-.663-.382-1.421-.577-2.275-.585-.745 0-1.47.153-2.175.46-.696.307-1.239.725-1.628 1.255l-4.785-.857 1.205-13.424h15.562v4.4H94.393l-.66 6.376h.15c.447-.63 1.123-1.151 2.026-1.566.903-.414 1.914-.621 3.033-.621 1.533 0 2.9.36 4.101 1.081a7.783 7.783 0 012.846 2.97c.696 1.252 1.04 2.694 1.032 4.326.008 1.715-.389 3.24-1.193 4.574-.796 1.326-1.91 2.37-3.344 3.132-1.425.754-3.082 1.131-4.971 1.131zm26.195-5.12v-1.343c0-1.02.216-1.956.647-2.809a5.125 5.125 0 011.901-2.063c.837-.522 1.856-.783 3.058-.783 1.218 0 2.241.257 3.07.77a4.928 4.928 0 011.889 2.064c.431.853.646 1.794.646 2.82v1.343c0 1.02-.215 1.96-.646 2.822a5.031 5.031 0 01-1.902 2.05c-.836.523-1.856.784-3.057.784-1.218 0-2.241-.262-3.07-.784a5.054 5.054 0 01-1.889-2.05 6.219 6.219 0 01-.647-2.822zm3.617-1.343v1.342c0 .589.141 1.144.423 1.666.29.522.812.783 1.566.783s1.268-.257 1.541-.77a3.43 3.43 0 00.423-1.679v-1.342c0-.605-.133-1.168-.398-1.69s-.787-.783-1.566-.783c-.746 0-1.264.26-1.554.783a3.425 3.425 0 00-.435 1.69zM110.545 37.66v-1.343c0-1.027.219-1.968.658-2.821a5.12 5.12 0 011.902-2.063c.837-.514 1.848-.771 3.033-.771 1.226 0 2.253.257 3.082.77a5.034 5.034 0 011.889 2.064c.431.853.647 1.794.647 2.821v1.343c0 1.027-.22 1.967-.659 2.82a5.032 5.032 0 01-1.902 2.052c-.828.505-1.848.758-3.057.758-1.21 0-2.233-.257-3.07-.77a5.163 5.163 0 01-1.89-2.052c-.422-.853-.633-1.79-.633-2.809zm3.641-1.343v1.343c0 .604.141 1.164.423 1.677.29.514.799.771 1.529.771.762 0 1.28-.257 1.553-.77a3.43 3.43 0 00.423-1.678v-1.343c0-.605-.133-1.168-.398-1.69s-.791-.783-1.578-.783c-.738 0-1.247.265-1.529.795a3.524 3.524 0 00-.423 1.678zM112.185 57l17.5-25.454h3.257L115.442 57h-3.257z" fill="#242A36"/><path d="M265 37a4 4 0 014-4h67a4 4 0 014 4v15a4 4 0 01-4 4h-67a4 4 0 01-4-4V37z" fill="#FFC721" fill-opacity=".14"/><path d="M274.616 49v-9.455h1.145v4.69h.111l4.247-4.69h1.496l-3.971 4.266L281.615 49h-1.385l-3.287-4.395-1.182 1.33V49h-1.145zm10.433.148c-.64 0-1.202-.153-1.685-.457a3.099 3.099 0 01-1.126-1.28c-.268-.547-.402-1.187-.402-1.92 0-.738.134-1.383.402-1.934.27-.55.646-.979 1.126-1.283.483-.305 1.045-.457 1.685-.457.64 0 1.2.152 1.68.457.484.304.859.732 1.127 1.283.271.551.406 1.196.406 1.934 0 .733-.135 1.373-.406 1.92a3.06 3.06 0 01-1.127 1.28c-.48.304-1.04.457-1.68.457zm0-.979c.486 0 .886-.125 1.2-.374.314-.25.547-.577.697-.983a3.76 3.76 0 00.227-1.32 3.8 3.8 0 00-.227-1.325c-.15-.41-.383-.74-.697-.993-.314-.252-.714-.379-1.2-.379s-.886.127-1.2.379a2.226 2.226 0 00-.697.992 3.8 3.8 0 00-.227 1.326c0 .473.076.914.227 1.32.15.406.383.734.697.983.314.25.714.374 1.2.374zm5.706-3.435V49h-1.09v-7.09h1.053v1.107h.092c.166-.36.419-.65.757-.868.339-.221.776-.332 1.311-.332.48 0 .9.098 1.261.295.36.194.64.49.84.887.2.393.3.892.3 1.495V49h-1.09v-4.432c0-.557-.144-.99-.434-1.302-.289-.314-.686-.47-1.191-.47a1.9 1.9 0 00-.932.226c-.271.15-.485.37-.642.66-.157.29-.235.64-.235 1.052zm11.799-2.825L299.932 49h-1.108l-2.622-7.09h1.182l1.957 5.65h.074l1.957-5.65h1.182zm3.897 7.239c-.683 0-1.272-.151-1.768-.453a3.04 3.04 0 01-1.14-1.274c-.265-.548-.397-1.185-.397-1.911s.132-1.366.397-1.92c.268-.558.64-.992 1.117-1.302.48-.314 1.04-.471 1.68-.471.37 0 .734.061 1.094.184.361.123.688.324.984.6.295.275.531.638.706 1.09.176.453.263 1.01.263 1.671v.462h-5.466v-.942h4.358c0-.4-.08-.757-.24-1.07a1.805 1.805 0 00-.674-.744 1.887 1.887 0 00-1.025-.273c-.434 0-.809.108-1.126.324a2.122 2.122 0 00-.725.83 2.445 2.445 0 00-.254 1.1v.627c0 .536.093.99.277 1.362.188.37.448.65.78.845.333.19.719.286 1.159.286.286 0 .545-.04.776-.12.234-.083.435-.206.604-.37.17-.166.301-.372.393-.618l1.052.295a2.33 2.33 0 01-.558.942 2.725 2.725 0 01-.97.628 3.59 3.59 0 01-1.297.222zm4.334-.148v-7.09h1.052v1.07h.074a1.7 1.7 0 01.702-.854c.338-.218.72-.328 1.145-.328.08 0 .18.002.3.005s.21.008.272.014v1.108a3.268 3.268 0 00-.254-.042 2.489 2.489 0 00-.411-.032 1.93 1.93 0 00-.923.217c-.268.141-.48.338-.637.59-.154.25-.231.535-.231.855V49h-1.089zm4.373 0v-.831l4.026-5.17v-.074h-3.896v-1.016h5.299v.868l-3.914 5.133v.074h4.044V49h-5.559zm6.977 0v-7.09h1.089V49h-1.089zm.554-8.273a.775.775 0 01-.55-.217.696.696 0 01-.226-.521c0-.203.075-.377.226-.522a.775.775 0 01.55-.217c.212 0 .394.072.544.217a.69.69 0 01.231.522.69.69 0 01-.231.521.756.756 0 01-.544.217zm5.244 8.42c-.684 0-1.273-.15-1.768-.452a3.036 3.036 0 01-1.141-1.274c-.264-.548-.397-1.185-.397-1.911s.133-1.366.397-1.92c.268-.558.64-.992 1.117-1.302.481-.314 1.041-.471 1.681-.471.369 0 .734.061 1.094.184.36.123.688.324.983.6.296.275.531.638.707 1.09.175.453.263 1.01.263 1.671v.462h-5.466v-.942h4.358c0-.4-.08-.757-.24-1.07a1.812 1.812 0 00-.674-.744 1.89 1.89 0 00-1.025-.273c-.434 0-.81.108-1.127.324a2.13 2.13 0 00-.724.83c-.17.342-.254.708-.254 1.1v.627c0 .536.092.99.277 1.362.187.37.448.65.78.845.332.19.719.286 1.159.286.286 0 .544-.04.775-.12.234-.083.436-.206.605-.37.169-.166.3-.372.392-.618l1.053.295a2.332 2.332 0 01-.559.942 2.712 2.712 0 01-.969.628 3.594 3.594 0 01-1.297.222z" fill="#D97D1D"/><path d="M26.145 86v-9.454h3.195c.741 0 1.348.133 1.818.401.474.265.825.623 1.053 1.076.228.452.342.957.342 1.514s-.114 1.063-.342 1.519a2.539 2.539 0 01-1.043 1.09c-.471.267-1.075.4-1.81.4h-2.29v-1.015h2.253c.508 0 .916-.087 1.223-.263a1.57 1.57 0 00.67-.71c.141-.302.212-.643.212-1.021 0-.379-.07-.717-.212-1.016a1.516 1.516 0 00-.674-.701c-.311-.173-.723-.259-1.237-.259H27.29V86h-1.145zm8.104 0v-7.09h1.053v1.07h.074c.129-.35.363-.635.701-.854a2.07 2.07 0 011.145-.328c.08 0 .18.002.3.005s.211.008.273.014v1.108a3.235 3.235 0 00-.254-.042 2.494 2.494 0 00-.411-.032 1.93 1.93 0 00-.924.217c-.267.141-.48.338-.637.59-.154.25-.23.535-.23.855V86h-1.09zm4.837 0v-7.09h1.09V86h-1.09zm.554-8.273a.774.774 0 01-.55-.217.697.697 0 01-.226-.521c0-.204.076-.377.227-.522a.774.774 0 01.549-.217c.212 0 .394.072.545.217a.69.69 0 01.23.522.69.69 0 01-.23.521.758.758 0 01-.545.217zm5.504 8.42c-.683 0-1.273-.15-1.768-.452a3.037 3.037 0 01-1.14-1.274c-.265-.548-.397-1.185-.397-1.911s.132-1.367.397-1.92c.267-.558.64-.992 1.117-1.302.48-.314 1.04-.471 1.68-.471.37 0 .734.061 1.094.184.36.123.688.324.984.6.295.275.53.638.706 1.09.175.453.263 1.01.263 1.671v.462h-5.466v-.942h4.358c0-.4-.08-.757-.24-1.07a1.81 1.81 0 00-.674-.744 1.888 1.888 0 00-1.025-.272c-.434 0-.81.107-1.126.323a2.122 2.122 0 00-.725.83 2.44 2.44 0 00-.254 1.1v.627c0 .536.092.99.277 1.362.188.37.448.65.78.845.333.19.719.286 1.159.286.286 0 .545-.04.776-.12a1.66 1.66 0 00.604-.37c.17-.166.3-.372.393-.618l1.052.296c-.11.357-.297.67-.558.941a2.724 2.724 0 01-.97.628 3.596 3.596 0 01-1.297.222zM49.737 86v-7.09h1.053v1.107h.092c.148-.379.387-.672.716-.882.33-.212.725-.318 1.186-.318.468 0 .857.106 1.168.318.314.21.559.503.734.882h.074c.182-.366.454-.657.817-.873.363-.218.799-.327 1.307-.327.634 0 1.152.198 1.556.595.403.394.604 1.008.604 1.842V86h-1.09v-4.746c0-.523-.142-.897-.429-1.122a1.589 1.589 0 00-1.01-.337c-.5 0-.885.151-1.16.453-.273.298-.41.677-.41 1.135V86h-1.108v-4.856c0-.404-.131-.728-.393-.975-.261-.249-.598-.373-1.01-.373-.284 0-.548.075-.795.226-.243.15-.44.36-.59.627a1.853 1.853 0 00-.222.92V86h-1.09zm14.272.148c-.683 0-1.272-.151-1.768-.453a3.036 3.036 0 01-1.14-1.274c-.265-.548-.397-1.185-.397-1.911s.132-1.367.397-1.92c.268-.558.64-.992 1.117-1.302.48-.314 1.04-.471 1.68-.471.37 0 .734.061 1.095.184.36.123.687.324.983.6.295.275.53.638.706 1.09.176.453.263 1.01.263 1.671v.462H61.48v-.942h4.358c0-.4-.08-.757-.24-1.07a1.81 1.81 0 00-.674-.744 1.888 1.888 0 00-1.025-.272c-.434 0-.809.107-1.126.323a2.13 2.13 0 00-.725.83 2.448 2.448 0 00-.254 1.1v.627c0 .536.093.99.277 1.362.188.37.448.65.78.845.333.19.72.286 1.16.286.285 0 .544-.04.775-.12a1.66 1.66 0 00.605-.37c.169-.166.3-.372.392-.618l1.053.296c-.111.357-.297.67-.56.941a2.723 2.723 0 01-.969.628 3.596 3.596 0 01-1.297.222zM68.603 86v-7.09h1.052v1.07h.074c.13-.35.363-.635.702-.854.338-.218.72-.328 1.145-.328.08 0 .18.002.3.005s.21.008.272.014v1.108a3.226 3.226 0 00-.254-.042 2.493 2.493 0 00-.41-.032 1.93 1.93 0 00-.924.217c-.268.141-.48.338-.637.59-.154.25-.23.535-.23.855V86h-1.09zm5.926-4.266V86h-1.09v-7.09h1.053v1.107h.092c.167-.36.419-.65.757-.868.34-.221.776-.332 1.312-.332.48 0 .9.098 1.26.295.36.194.64.49.84.887.2.394.3.892.3 1.495V86h-1.09v-4.432c0-.557-.144-.99-.433-1.302-.29-.314-.687-.47-1.191-.47a1.9 1.9 0 00-.933.226c-.27.15-.485.37-.642.66-.156.29-.235.64-.235 1.052zm6.963 6.925c-.185 0-.35-.015-.494-.046a1.303 1.303 0 01-.3-.083l.277-.96a2.1 2.1 0 00.702.074.841.841 0 00.54-.273c.16-.16.306-.42.438-.78l.203-.554-2.622-7.128h1.182l1.957 5.65h.074l1.958-5.65h1.181l-3.01 8.125a3.07 3.07 0 01-.503.91c-.2.243-.432.423-.697.54a2.15 2.15 0 01-.886.175zm1.422-10.71l1.126-2.142h1.274l-1.44 2.142h-.96zm9.858 3.785V86h-1.09v-7.09h1.053v1.107h.093c.166-.36.418-.65.757-.868.338-.221.775-.332 1.31-.332.48 0 .901.098 1.261.295.36.194.64.49.84.887.2.394.3.892.3 1.495V86h-1.09v-4.432c0-.557-.144-.99-.433-1.302-.29-.314-.686-.47-1.191-.47a1.9 1.9 0 00-.933.226c-.27.15-.484.37-.641.66-.157.29-.236.64-.236 1.052zm8.602 4.432c-.449 0-.857-.084-1.224-.254a2.1 2.1 0 01-.872-.743c-.216-.326-.323-.72-.323-1.182 0-.406.08-.735.24-.988.16-.255.374-.455.642-.6.267-.145.563-.252.886-.323.326-.074.654-.132.983-.175.431-.056.78-.097 1.048-.125.271-.03.468-.082.591-.152.126-.071.189-.194.189-.37v-.037c0-.455-.124-.81-.374-1.061-.246-.253-.62-.379-1.121-.379-.52 0-.928.114-1.224.342-.295.227-.503.47-.623.729l-1.034-.37c.185-.43.43-.766.739-1.006.31-.243.649-.412 1.015-.507.37-.099.733-.148 1.09-.148.227 0 .489.028.784.083.299.052.587.161.864.328.28.166.512.417.697.752.185.336.277.785.277 1.348V86h-1.09v-.96h-.055a1.928 1.928 0 01-.369.494 2.143 2.143 0 01-.688.448c-.286.123-.636.184-1.048.184zm.166-.978c.431 0 .794-.085 1.09-.254.298-.17.523-.388.674-.656.153-.268.23-.55.23-.845v-.997c-.046.055-.147.106-.304.152a5.171 5.171 0 01-.536.116 24.437 24.437 0 01-1.043.138 4.165 4.165 0 00-.794.18c-.243.08-.44.202-.591.365-.148.16-.222.379-.222.656 0 .378.14.664.42.858.284.191.642.287 1.076.287zm.037-7.24l1.126-2.141h1.275l-1.441 2.142h-.96zM106.612 86v-7.09h1.053v1.07h.074a1.7 1.7 0 01.702-.854c.338-.218.72-.328 1.144-.328.08 0 .18.002.3.005.121.003.211.008.273.014v1.108a3.268 3.268 0 00-.254-.042 2.489 2.489 0 00-.411-.032c-.345 0-.652.072-.923.217a1.591 1.591 0 00-.868 1.445V86h-1.09zm6.924.166a2.88 2.88 0 01-1.223-.254 2.1 2.1 0 01-.873-.743c-.215-.326-.323-.72-.323-1.182 0-.406.08-.735.24-.988.16-.255.374-.455.642-.6a3.36 3.36 0 01.886-.323c.326-.074.654-.132.983-.175.431-.056.781-.097 1.048-.125.271-.03.468-.082.591-.152.126-.071.189-.194.189-.37v-.037c0-.455-.124-.81-.373-1.061-.247-.253-.621-.379-1.122-.379-.52 0-.928.114-1.224.342-.295.227-.503.47-.623.729l-1.034-.37c.185-.43.431-.766.739-1.006a2.77 2.77 0 011.015-.507c.37-.099.733-.148 1.09-.148.228 0 .489.028.785.083.298.052.586.161.863.328.28.166.512.417.697.752.185.336.277.785.277 1.348V86h-1.09v-.96h-.055a1.928 1.928 0 01-.369.494 2.143 2.143 0 01-.688.448c-.286.123-.636.184-1.048.184zm.166-.978c.431 0 .794-.085 1.09-.254.298-.17.523-.388.674-.656.154-.268.23-.55.23-.845v-.997c-.046.055-.147.106-.304.152a5.171 5.171 0 01-.536.116 24.437 24.437 0 01-1.043.138 4.165 4.165 0 00-.794.18c-.243.08-.44.202-.591.365-.148.16-.222.379-.222.656 0 .378.14.664.421.858.283.191.641.287 1.075.287zm10.095-4.69l-.978.276a1.832 1.832 0 00-.273-.475 1.322 1.322 0 00-.48-.388c-.203-.102-.463-.153-.78-.153-.434 0-.796.1-1.085.3-.286.198-.429.448-.429.753 0 .27.098.485.295.642.197.157.505.287.923.392l1.053.259c.634.154 1.106.389 1.417.706.311.314.467.719.467 1.214a1.8 1.8 0 01-.351 1.09c-.231.32-.554.572-.97.757-.415.184-.898.277-1.449.277-.724 0-1.322-.157-1.796-.471-.474-.314-.774-.773-.9-1.376l1.034-.258c.098.381.284.667.558.858.277.191.639.287 1.085.287.508 0 .911-.108 1.21-.324.301-.218.452-.48.452-.784a.825.825 0 00-.258-.619c-.173-.17-.437-.296-.794-.379l-1.182-.277c-.65-.154-1.127-.392-1.431-.715-.302-.326-.453-.734-.453-1.224 0-.4.113-.754.337-1.061a2.29 2.29 0 01.928-.725c.394-.175.84-.263 1.339-.263.702 0 1.252.154 1.653.461.403.308.689.714.858 1.22zm4.853-1.589v.923h-3.674v-.923h3.674zm-2.603-1.699h1.089v6.759c0 .308.045.538.134.692a.69.69 0 00.351.305c.144.05.297.074.457.074.12 0 .218-.006.295-.019l.185-.037.222.98a2.21 2.21 0 01-.31.082c-.132.031-.3.046-.503.046a2.2 2.2 0 01-.905-.198 1.8 1.8 0 01-.729-.605c-.191-.27-.286-.612-.286-1.025V77.21zm7.695 8.79v-.83l4.026-5.171v-.074h-3.896v-1.016h5.299v.868l-3.915 5.133v.074h4.045V86h-5.559zm9.323.166a2.88 2.88 0 01-1.223-.254 2.106 2.106 0 01-.873-.743c-.215-.326-.323-.72-.323-1.182 0-.406.08-.735.24-.988.16-.255.374-.455.642-.6a3.37 3.37 0 01.886-.323 10.8 10.8 0 01.984-.175c.431-.056.78-.097 1.048-.125.27-.03.467-.082.591-.152.126-.071.189-.194.189-.37v-.037c0-.455-.125-.81-.374-1.061-.246-.253-.62-.379-1.122-.379-.52 0-.928.114-1.223.342-.296.227-.504.47-.624.729l-1.034-.37c.185-.43.431-.766.739-1.006a2.766 2.766 0 011.016-.507 4.21 4.21 0 011.089-.148c.228 0 .489.028.785.083.298.052.586.161.863.328.28.166.513.417.697.752.185.336.277.785.277 1.348V86h-1.089v-.96h-.056a1.905 1.905 0 01-.369.494 2.132 2.132 0 01-.688.448c-.286.123-.635.184-1.048.184zm.166-.978c.431 0 .794-.085 1.09-.254a1.734 1.734 0 00.905-1.5v-.998c-.046.055-.148.106-.305.152a5.148 5.148 0 01-.535.116 24.507 24.507 0 01-1.044.138 4.165 4.165 0 00-.794.18c-.243.08-.44.202-.591.365-.147.16-.221.379-.221.656 0 .378.14.664.42.858.283.191.642.287 1.075.287zm11.905.941c-.609 0-1.152-.104-1.629-.314a2.79 2.79 0 01-1.131-.872 2.348 2.348 0 01-.453-1.307h1.163c.025.305.13.568.314.79.185.218.427.388.725.508.299.12.63.18.993.18.406 0 .766-.071 1.08-.213.314-.141.56-.338.739-.59.178-.253.267-.545.267-.878 0-.348-.086-.654-.258-.918a1.711 1.711 0 00-.757-.628c-.333-.151-.739-.227-1.219-.227h-.757v-1.015h.757c.375 0 .705-.068.988-.203a1.536 1.536 0 00.914-1.44c0-.32-.071-.6-.212-.836a1.454 1.454 0 00-.601-.554 1.94 1.94 0 00-.904-.199c-.327 0-.634.06-.924.18-.286.117-.52.288-.701.513-.182.221-.28.49-.296.803h-1.108c.019-.495.168-.93.448-1.302.28-.375.646-.668 1.099-.877.455-.21.955-.314 1.5-.314.585 0 1.087.119 1.505.356a2.5 2.5 0 01.965.928c.225.384.337.8.337 1.246 0 .532-.14.986-.42 1.362a2.13 2.13 0 01-1.131.78v.074c.597.098 1.063.352 1.399.762.335.406.503.91.503 1.51 0 .513-.14.975-.42 1.384a2.856 2.856 0 01-1.136.96c-.48.234-1.026.351-1.639.351zm8.758-.129v-7.09h1.052v1.107h.093a1.78 1.78 0 01.715-.882c.329-.212.725-.318 1.187-.318.467 0 .857.106 1.168.318.313.21.558.503.734.882h.073a2.07 2.07 0 01.818-.873c.363-.218.798-.327 1.306-.327.634 0 1.153.198 1.556.595.403.394.604 1.008.604 1.842V86h-1.089v-4.746c0-.523-.143-.897-.429-1.122a1.592 1.592 0 00-1.011-.337c-.499 0-.885.151-1.159.453-.274.298-.411.677-.411 1.135V86h-1.108v-4.856c0-.404-.131-.728-.392-.975-.262-.249-.599-.373-1.011-.373-.283 0-.548.075-.794.226-.243.15-.44.36-.591.627a1.85 1.85 0 00-.222.92V86h-1.089zm14.272.148c-.684 0-1.273-.151-1.769-.453a3.04 3.04 0 01-1.14-1.274c-.265-.548-.397-1.185-.397-1.911s.132-1.367.397-1.92c.268-.558.64-.992 1.117-1.302.48-.314 1.041-.471 1.681-.471.369 0 .734.061 1.094.184.36.123.688.324.983.6.296.275.531.638.706 1.09.176.453.264 1.01.264 1.671v.462h-5.466v-.942h4.358c0-.4-.08-.757-.24-1.07a1.812 1.812 0 00-.674-.744 1.89 1.89 0 00-1.025-.272c-.434 0-.81.107-1.127.323a2.13 2.13 0 00-.725.83 2.444 2.444 0 00-.253 1.1v.627c0 .536.092.99.277 1.362.187.37.447.65.78.845.332.19.718.286 1.159.286.286 0 .544-.04.775-.12.234-.083.436-.206.605-.37.169-.166.3-.372.392-.618l1.053.296a2.33 2.33 0 01-.559.941 2.723 2.723 0 01-.969.628 3.596 3.596 0 01-1.297.222zm9.616-5.65l-.979.276a1.827 1.827 0 00-.272-.475 1.317 1.317 0 00-.481-.388c-.203-.102-.463-.153-.78-.153-.434 0-.795.1-1.085.3-.286.198-.429.448-.429.753 0 .27.099.485.296.642.196.157.504.287.923.392l1.052.259c.634.154 1.107.389 1.418.706.31.314.466.719.466 1.214a1.8 1.8 0 01-.351 1.09c-.231.32-.554.572-.969.757-.416.184-.899.277-1.45.277-.723 0-1.322-.157-1.796-.471-.474-.314-.774-.773-.9-1.376l1.034-.258c.099.381.285.667.559.858.277.191.638.287 1.085.287.507 0 .911-.108 1.209-.324.302-.218.452-.48.452-.784a.825.825 0 00-.258-.619c-.172-.17-.437-.296-.794-.379l-1.182-.277c-.649-.154-1.126-.392-1.431-.715-.302-.326-.452-.734-.452-1.224 0-.4.112-.754.337-1.061.227-.308.537-.55.927-.725a3.262 3.262 0 011.339-.263c.702 0 1.253.154 1.653.461.403.308.689.714.859 1.22zM189.551 86v-7.09h1.089V86h-1.089zm.554-8.273a.773.773 0 01-.549-.217.697.697 0 01-.227-.521c0-.204.076-.377.227-.522a.773.773 0 01.549-.217.76.76 0 01.545.217c.153.145.23.319.23.522a.693.693 0 01-.23.521.76.76 0 01-.545.217zm4.617 8.44a2.88 2.88 0 01-1.223-.255 2.097 2.097 0 01-.872-.743c-.216-.326-.324-.72-.324-1.182 0-.406.08-.735.241-.988a1.69 1.69 0 01.641-.6c.268-.145.563-.252.887-.323.326-.074.654-.132.983-.175.431-.056.78-.097 1.048-.125.271-.03.468-.082.591-.152.126-.071.189-.194.189-.37v-.037c0-.455-.125-.81-.374-1.061-.246-.253-.62-.379-1.122-.379-.52 0-.928.114-1.223.342-.296.227-.503.47-.623.729l-1.034-.37c.184-.43.43-.766.738-1.006.311-.243.65-.412 1.016-.507a4.21 4.21 0 011.089-.148c.228 0 .49.028.785.083.299.052.586.161.863.328.28.166.513.417.698.752.184.336.276.785.276 1.348V86h-1.089v-.96h-.055a1.912 1.912 0 01-.37.494 2.121 2.121 0 01-.688.448c-.286.123-.635.184-1.048.184zm.167-.98c.431 0 .794-.084 1.089-.253a1.727 1.727 0 00.905-1.5v-.998c-.046.055-.148.106-.305.152a5.148 5.148 0 01-.535.116 25.175 25.175 0 01-1.044.138 4.183 4.183 0 00-.794.18c-.243.08-.44.202-.59.365-.148.16-.222.379-.222.656 0 .378.14.664.42.858.283.191.642.287 1.076.287zm7.953.96c-.665 0-1.237-.156-1.718-.47a3.074 3.074 0 01-1.108-1.297c-.258-.551-.387-1.18-.387-1.888 0-.72.132-1.356.397-1.907.267-.554.64-.986 1.117-1.297.48-.314 1.04-.471 1.68-.471.499 0 .948.092 1.348.277.4.184.728.443.984.775.255.333.414.72.475 1.164h-1.089a1.697 1.697 0 00-.554-.859c-.284-.252-.665-.379-1.145-.379a1.91 1.91 0 00-1.117.333 2.17 2.17 0 00-.744.928c-.175.397-.263.863-.263 1.399 0 .547.086 1.024.259 1.43.175.407.421.722.738.947.32.225.696.337 1.127.337.283 0 .54-.05.771-.148a1.587 1.587 0 00.928-1.09h1.089a2.52 2.52 0 01-1.413 1.926c-.393.194-.852.29-1.375.29zm7.354 0c-.683 0-1.273-.15-1.768-.452a3.036 3.036 0 01-1.141-1.274c-.264-.548-.397-1.185-.397-1.911s.133-1.367.397-1.92a3.135 3.135 0 011.118-1.302c.48-.314 1.04-.471 1.68-.471.369 0 .734.061 1.094.184.36.123.688.324.983.6.296.275.531.638.707 1.09.175.453.263 1.01.263 1.671v.462h-5.466v-.942h4.358c0-.4-.08-.757-.24-1.07a1.812 1.812 0 00-.674-.744 1.888 1.888 0 00-1.025-.272c-.434 0-.809.107-1.126.323a2.122 2.122 0 00-.725.83 2.445 2.445 0 00-.254 1.1v.627c0 .536.092.99.277 1.362.188.37.448.65.78.845.332.19.719.286 1.159.286.286 0 .545-.04.775-.12.234-.083.436-.206.605-.37.169-.166.3-.372.393-.618l1.052.296a2.33 2.33 0 01-.559.941 2.714 2.714 0 01-.969.628 3.596 3.596 0 01-1.297.222zM33 147a3 3 0 013-3h31.571a3 3 0 013 3v21H33v-21z" fill="#717580"/><path d="M76.571 138a3 3 0 013-3h31.572a3 3 0 013 3v30H76.571v-30z" fill="#242A36"/><path d="M120.143 129a3 3 0 013-3h31.571a3 3 0 013 3v39h-37.571v-39zm43.571-9a3 3 0 013-3h31.572a3 3 0 013 3v48h-37.572v-48zm43.572-6a3 3 0 013-3h31.571a3 3 0 013 3v54h-37.571v-54zm43.571 12a3 3 0 013-3h31.572a3 3 0 013 3v42h-37.572v-42zm43.572-15a3 3 0 013-3H329a3 3 0 013 3v57h-37.571v-57z" fill="#FFC721" fill-opacity=".23"/><path d="M25 194c0-5.523 4.477-10 10-10h295c5.523 0 10 4.477 10 10v50c0 5.523-4.477 10-10 10H35c-5.523 0-10-4.477-10-10v-50z" fill="#F8F8F8"/><path d="M35 184v.4h295v-.8H35v.4zm305 10h-.4v50h.8v-50h-.4zm-10 60v-.4H35v.8h295v-.4zM25 244h.4v-50h-.8v50h.4zm10 10v-.4a9.6 9.6 0 01-9.6-9.6h-.8c0 5.744 4.656 10.4 10.4 10.4v-.4zm305-10h-.4a9.6 9.6 0 01-9.6 9.6v.8c5.744 0 10.4-4.656 10.4-10.4h-.4zm-10-60v.4a9.6 9.6 0 019.6 9.6h.8c0-5.744-4.656-10.4-10.4-10.4v.4zm-295 0v-.4c-5.744 0-10.4 4.656-10.4 10.4h.8a9.6 9.6 0 019.6-9.6v-.4z" fill="#E4E4E4"/><path d="M48 213v-1c0-1.414 0-2.121.44-2.56.438-.44 1.145-.44 2.56-.44h4c1.414 0 2.121 0 2.56.44.44.438.44 1.145.44 2.56v1c0 1.414 0 2.121-.44 2.56-.438.44-1.145.44-2.56.44h-1l-3 2v-2c-1.414 0-2.121 0-2.56-.44-.44-.438-.44-1.145-.44-2.56z" stroke="#D97D1D" stroke-width="1.5" stroke-linejoin="round"/><path d="M44.59 225.74c-.629.422-2.277 1.282-1.273 2.358.49.526 1.037.902 1.723.902h3.92c.686 0 1.233-.376 1.723-.902 1.004-1.076-.644-1.936-1.273-2.357a4.289 4.289 0 00-4.82-.001zm12 0c-.629.422-2.277 1.282-1.273 2.358.49.526 1.037.902 1.723.902h3.92c.686 0 1.233-.376 1.723-.902 1.004-1.076-.644-1.936-1.273-2.357a4.289 4.289 0 00-4.82-.001zM49 220.5a2 2 0 11-4 0 2 2 0 014 0zm12 0a2 2 0 11-4 0 2 2 0 014 0z" stroke="#D97D1D" stroke-width="1.5"/><path d="M82.676 217h-4.238v-13.091h4.372c1.283 0 2.385.262 3.305.786a5.185 5.185 0 012.116 2.244c.494.972.741 2.137.741 3.496 0 1.364-.249 2.536-.748 3.516a5.253 5.253 0 01-2.147 2.263c-.938.524-2.071.786-3.4.786zm-2.263-1.726h2.154c.998 0 1.827-.187 2.487-.562a3.548 3.548 0 001.483-1.643c.328-.72.492-1.598.492-2.634 0-1.027-.164-1.898-.492-2.614-.324-.716-.808-1.259-1.451-1.63-.644-.371-1.442-.556-2.397-.556h-2.276v9.639zM90.275 217v-9.818h1.911V217h-1.911zm.965-11.333c-.332 0-.618-.111-.856-.332a1.082 1.082 0 01-.352-.806c0-.315.117-.584.352-.805a1.2 1.2 0 01.856-.339c.333 0 .616.113.85.339.239.221.358.49.358.805 0 .311-.119.58-.358.806a1.195 1.195 0 01-.85.332zM93.553 217v-1.31l5.318-6.757v-.089h-5.145v-1.662h7.529v1.393l-5.113 6.674v.089h5.292V217h-7.881zm11.993.217a4.01 4.01 0 01-1.687-.345 2.839 2.839 0 01-1.195-1.016c-.29-.443-.435-.987-.435-1.63 0-.554.106-1.01.319-1.368.214-.358.501-.641.863-.85a4.49 4.49 0 011.215-.473 11.85 11.85 0 011.368-.243l1.432-.166c.366-.047.632-.122.799-.224.166-.102.249-.268.249-.499v-.044c0-.559-.158-.991-.473-1.298-.311-.307-.776-.46-1.394-.46-.643 0-1.15.143-1.521.428-.366.281-.62.595-.761.94l-1.796-.409c.213-.597.524-1.078.934-1.445a3.773 3.773 0 011.425-.805 5.55 5.55 0 011.694-.256c.392 0 .807.047 1.246.141.443.089.857.255 1.24.498.388.243.706.59.953 1.042.247.448.371 1.029.371 1.745V217h-1.867v-1.342h-.077a2.7 2.7 0 01-.556.728 2.949 2.949 0 01-.952.595c-.388.158-.852.236-1.394.236zm.416-1.534c.528 0 .98-.104 1.355-.313.379-.209.667-.481.863-.818.2-.341.3-.705.3-1.093v-1.266c-.068.068-.2.132-.396.192a6.376 6.376 0 01-.658.147c-.248.038-.488.075-.723.109a64.2 64.2 0 00-.588.076 4.729 4.729 0 00-1.016.237c-.303.111-.546.27-.729.479-.179.205-.268.478-.268.818 0 .473.174.831.524 1.074.349.239.795.358 1.336.358zm5.975-8.501h1.911v10.457c0 .656-.119 1.21-.358 1.662a2.325 2.325 0 01-1.048 1.029c-.46.235-1.029.352-1.707.352h-.191c-.064 0-.13-.002-.198-.007v-1.642h.306c.452 0 .778-.122.978-.365.205-.238.307-.586.307-1.042v-10.444zm.946-1.515c-.332 0-.618-.111-.856-.332a1.08 1.08 0 01-.352-.806c0-.315.117-.584.352-.805a1.2 1.2 0 01.856-.339c.333 0 .616.113.85.339.239.221.358.49.358.805 0 .311-.119.58-.358.806a1.193 1.193 0 01-.85.332zm4.448 5.503V217h-1.911v-9.818h1.834v1.598h.122c.225-.52.579-.938 1.061-1.253.485-.315 1.097-.473 1.834-.473.669 0 1.255.141 1.758.422.503.277.893.69 1.17 1.24.277.55.415 1.229.415 2.039V217h-1.911v-6.015c0-.712-.185-1.268-.556-1.668-.371-.405-.88-.607-1.528-.607-.443 0-.837.095-1.182.287a2.067 2.067 0 00-.812.844c-.196.366-.294.81-.294 1.329z" fill="#242A36"/><path d="M78.145 232.545h1.366l3.213 7.848h.111l3.213-7.848h1.367V242h-1.071v-7.183h-.093L83.297 242h-1.034l-2.955-7.183h-.092V242h-1.071v-9.455zm14.038 9.603c-.64 0-1.202-.153-1.685-.457a3.106 3.106 0 01-1.126-1.279c-.268-.548-.402-1.188-.402-1.92 0-.739.134-1.384.402-1.935a3.1 3.1 0 011.126-1.283c.483-.305 1.045-.457 1.685-.457.64 0 1.2.152 1.68.457.484.305.86.732 1.127 1.283.27.551.406 1.196.406 1.935 0 .732-.135 1.372-.406 1.92a3.064 3.064 0 01-1.126 1.279c-.48.304-1.04.457-1.68.457zm0-.979c.486 0 .887-.125 1.2-.374.315-.249.547-.577.698-.983.15-.406.226-.847.226-1.32a3.82 3.82 0 00-.226-1.325 2.229 2.229 0 00-.697-.993c-.314-.252-.715-.379-1.2-.379-.487 0-.887.127-1.201.379a2.229 2.229 0 00-.697.993 3.82 3.82 0 00-.226 1.325c0 .473.075.914.226 1.32.15.406.383.734.697.983.314.249.714.374 1.2.374zm7.294.979c-.59 0-1.113-.15-1.565-.448-.452-.302-.806-.726-1.062-1.274-.255-.551-.383-1.202-.383-1.953 0-.745.128-1.391.383-1.939.256-.548.611-.971 1.067-1.269.455-.299.981-.448 1.578-.448.462 0 .827.077 1.095.231.27.15.477.323.618.517.145.19.257.347.337.471h.092v-3.491h1.09V242h-1.053v-1.089h-.129c-.08.129-.194.292-.341.489a2.033 2.033 0 01-.633.522c-.274.15-.638.226-1.094.226zm.148-.979c.437 0 .806-.114 1.108-.342.301-.23.531-.549.688-.955.156-.409.235-.882.235-1.417 0-.53-.077-.993-.231-1.39-.154-.4-.381-.711-.683-.933-.302-.224-.674-.337-1.117-.337-.462 0-.847.119-1.154.356a2.125 2.125 0 00-.688.956c-.151.4-.227.849-.227 1.348 0 .504.078.963.231 1.375.157.41.388.736.693.979.308.24.69.36 1.145.36zm7.962.979c-.684 0-1.273-.151-1.768-.453a3.03 3.03 0 01-1.141-1.274c-.264-.548-.397-1.185-.397-1.911s.133-1.367.397-1.92a3.13 3.13 0 011.117-1.302c.481-.314 1.041-.471 1.681-.471.369 0 .734.061 1.094.184.36.124.688.324.983.601.296.274.531.637.707 1.089.175.452.263 1.01.263 1.671v.462h-5.466v-.942h4.358c0-.4-.08-.757-.24-1.071a1.807 1.807 0 00-.674-.743 1.886 1.886 0 00-1.025-.273c-.434 0-.81.108-1.127.324a2.124 2.124 0 00-.724.831c-.17.341-.254.707-.254 1.098v.628c0 .536.092.99.277 1.362.187.369.448.651.78.845.332.191.719.286 1.159.286.286 0 .544-.04.775-.12.234-.083.436-.206.605-.369.169-.166.3-.373.392-.619l1.053.296a2.33 2.33 0 01-.559.941 2.713 2.713 0 01-.969.628 3.59 3.59 0 01-1.297.222zm4.333-.148v-7.091h1.053v1.071h.073c.13-.351.364-.635.702-.854a2.07 2.07 0 011.145-.328c.08 0 .18.002.3.005s.211.008.273.014v1.108a3.621 3.621 0 00-.254-.042 2.575 2.575 0 00-.411-.032c-.345 0-.653.072-.924.217a1.59 1.59 0 00-.867 1.445V242h-1.09zm5.666-4.266V242h-1.089v-7.091h1.053v1.108h.092c.166-.36.418-.649.757-.868.338-.221.776-.332 1.311-.332.48 0 .9.098 1.26.295a2 2 0 01.841.887c.2.394.3.892.3 1.495V242h-1.09v-4.432c0-.557-.145-.991-.434-1.302-.289-.314-.686-.471-1.191-.471-.348 0-.659.076-.932.227-.271.15-.485.371-.642.66-.157.289-.236.64-.236 1.052zm6.703 6.925c-.184 0-.349-.015-.494-.046a1.324 1.324 0 01-.3-.083l.277-.96c.265.067.499.092.702.073a.839.839 0 00.54-.272c.16-.16.306-.42.439-.78l.203-.554-2.622-7.128h1.181l1.958 5.651h.074l1.957-5.651h1.182l-3.01 8.125c-.136.366-.303.67-.503.91-.2.243-.433.423-.697.54a2.15 2.15 0 01-.887.175zm1.422-10.71l1.127-2.142h1.274l-1.441 2.142h-.96zm14.047.96L137.136 242h-1.108l-2.622-7.091h1.182l1.957 5.651h.074l1.958-5.651h1.181zm.975 7.091v-.831l4.026-5.17v-.074h-3.896v-1.016h5.299v.868l-3.914 5.134v.073h4.044V242h-5.559zm8.066-4.266V242h-1.089v-9.455h1.089v3.472h.092a2.01 2.01 0 01.748-.872c.336-.219.782-.328 1.339-.328.483 0 .907.097 1.27.291.363.19.644.484.844.881.204.394.305.896.305 1.505V242h-1.089v-4.432c0-.563-.147-.998-.439-1.306-.289-.311-.691-.467-1.205-.467-.357 0-.677.076-.96.227a1.65 1.65 0 00-.665.66c-.16.289-.24.64-.24 1.052zm7.421-5.189V242h-1.09v-9.455h1.09zm.905 1.949v-2.392h1.117l-.323 2.392h-.794zm3.793 7.672a2.87 2.87 0 01-1.223-.254 2.091 2.091 0 01-.873-.743c-.215-.326-.323-.72-.323-1.182 0-.406.08-.735.24-.988.16-.255.374-.455.642-.6.267-.144.563-.252.886-.323.326-.074.654-.132.983-.175.431-.056.78-.097 1.048-.125.271-.031.468-.082.591-.152.126-.071.189-.194.189-.37v-.037c0-.455-.124-.809-.374-1.061-.246-.253-.62-.379-1.121-.379-.52 0-.928.114-1.224.342-.295.227-.503.471-.623.729l-1.034-.369c.185-.431.431-.767.739-1.007.31-.243.649-.412 1.015-.507.37-.099.733-.148 1.09-.148.228 0 .489.027.785.083.298.052.586.161.863.328.28.166.512.417.697.752.185.336.277.785.277 1.348V242h-1.09v-.96h-.055a1.935 1.935 0 01-.369.494 2.164 2.164 0 01-.688.448c-.286.123-.636.184-1.048.184zm.166-.978c.431 0 .794-.085 1.09-.254.298-.17.523-.388.674-.656.153-.268.23-.549.23-.845v-.997c-.046.056-.147.106-.304.152a4.962 4.962 0 01-.536.116 24.954 24.954 0 01-1.043.138 4.173 4.173 0 00-.794.18c-.243.08-.44.202-.591.365-.148.16-.222.379-.222.656 0 .378.14.664.42.858.284.191.642.287 1.076.287zm7.49.96c-.591 0-1.113-.15-1.565-.448-.452-.302-.806-.726-1.062-1.274-.255-.551-.383-1.202-.383-1.953 0-.745.128-1.391.383-1.939.256-.548.611-.971 1.067-1.269.455-.299.981-.448 1.578-.448.462 0 .827.077 1.095.231.27.15.477.323.618.517.145.19.257.347.337.471h.093v-3.491h1.089V242h-1.053v-1.089h-.129c-.08.129-.194.292-.341.489a2.033 2.033 0 01-.633.522c-.274.15-.638.226-1.094.226zm.148-.979c.437 0 .806-.114 1.108-.342.301-.23.531-.549.688-.955.157-.409.235-.882.235-1.417 0-.53-.077-.993-.231-1.39-.154-.4-.381-.711-.683-.933-.302-.224-.674-.337-1.117-.337-.462 0-.847.119-1.154.356a2.124 2.124 0 00-.688.956c-.151.4-.226.849-.226 1.348 0 .504.077.963.23 1.375.157.41.388.736.693.979.308.24.689.36 1.145.36z" fill="#717580"/><mask id="a" fill="#fff"><path d="M252 211c0-8.284 6.716-15 15-15h42c8.284 0 15 6.716 15 15 0 8.284-6.716 15-15 15h-42c-8.284 0-15-6.716-15-15z"/></mask><path d="M252 211c0-8.284 6.716-15 15-15h42c8.284 0 15 6.716 15 15 0 8.284-6.716 15-15 15h-42c-8.284 0-15-6.716-15-15z" fill="#fff"/><path d="M267 196v.8h42v-1.6h-42v.8zm42 30v-.8h-42v1.6h42v-.8zm-42 0v-.8c-7.842 0-14.2-6.358-14.2-14.2h-1.6c0 8.726 7.074 15.8 15.8 15.8v-.8zm57-15h-.8c0 7.842-6.357 14.2-14.2 14.2v1.6c8.726 0 15.8-7.074 15.8-15.8h-.8zm-15-15v.8c7.843 0 14.2 6.358 14.2 14.2h1.6c0-8.726-7.074-15.8-15.8-15.8v.8zm-42 0v-.8c-8.726 0-15.8 7.074-15.8 15.8h1.6c0-7.842 6.358-14.2 14.2-14.2v-.8z" fill="#E4E4E4" mask="url(#a)"/><path d="M265.353 210.836l.9-.919 2.336 2.304 4.944-4.926.914.919-5.858 5.835-3.236-3.213zM282.991 215h-3.061v-9.455h3.158c.926 0 1.722.19 2.387.568a3.744 3.744 0 011.528 1.621c.357.701.535 1.543.535 2.525 0 .985-.18 1.831-.54 2.539a3.786 3.786 0 01-1.551 1.634c-.677.379-1.496.568-2.456.568zm-1.634-1.246h1.556c.72 0 1.318-.136 1.795-.407a2.56 2.56 0 001.071-1.186c.237-.52.356-1.154.356-1.902 0-.742-.119-1.371-.356-1.888a2.505 2.505 0 00-1.047-1.177c-.465-.268-1.042-.402-1.732-.402h-1.643v6.962zm10.831 1.389c-.664 0-1.245-.152-1.74-.457a3.08 3.08 0 01-1.154-1.279c-.274-.547-.411-1.188-.411-1.92 0-.736.137-1.379.411-1.93a3.073 3.073 0 011.154-1.283c.495-.305 1.076-.457 1.74-.457.665 0 1.245.152 1.741.457.495.305.88.732 1.154 1.283.274.551.411 1.194.411 1.93 0 .732-.137 1.373-.411 1.92a3.087 3.087 0 01-1.154 1.279c-.496.305-1.076.457-1.741.457zm.005-1.159c.431 0 .788-.113 1.071-.341.283-.228.492-.531.628-.91.138-.378.207-.795.207-1.251 0-.452-.069-.868-.207-1.246a2.037 2.037 0 00-.628-.919c-.283-.231-.64-.346-1.071-.346-.434 0-.794.115-1.08.346a2.061 2.061 0 00-.633.919 3.684 3.684 0 00-.203 1.246c0 .456.068.873.203 1.251.139.379.349.682.633.91.286.228.646.341 1.08.341zm6.222-3.194V215h-1.381v-7.091h1.325v1.154h.088c.163-.375.419-.677.766-.905.351-.227.793-.341 1.325-.341.484 0 .907.101 1.27.304.363.201.645.499.845.896.2.397.3.888.3 1.473V215h-1.381v-4.344c0-.514-.133-.916-.401-1.205-.268-.292-.636-.439-1.104-.439-.32 0-.604.07-.854.208a1.5 1.5 0 00-.586.61c-.141.264-.212.584-.212.96zm9.445 4.353c-.699 0-1.3-.149-1.805-.448a3.028 3.028 0 01-1.163-1.269c-.271-.548-.407-1.19-.407-1.925 0-.727.136-1.367.407-1.921a3.151 3.151 0 011.145-1.297c.492-.311 1.067-.466 1.726-.466.4 0 .788.066 1.163.198.376.133.713.34 1.011.624.299.283.534.65.707 1.103.172.449.258.995.258 1.639v.489h-5.636v-1.034h4.284c0-.363-.074-.685-.222-.965a1.674 1.674 0 00-.623-.669 1.745 1.745 0 00-.933-.245 1.8 1.8 0 00-1.015.286 1.924 1.924 0 00-.665.739 2.13 2.13 0 00-.231.983v.808c0 .474.083.877.249 1.21.17.332.405.586.707.761.301.173.654.259 1.057.259.262 0 .5-.037.715-.111a1.478 1.478 0 00.919-.9l1.307.235a2.366 2.366 0 01-.564 1.011c-.267.287-.604.51-1.011.67a3.78 3.78 0 01-1.38.235z" fill="#D97D1D"/><path d="M25 276c0-5.523 4.477-10 10-10h295c5.523 0 10 4.477 10 10v50c0 5.523-4.477 10-10 10H35c-5.523 0-10-4.477-10-10v-50z" fill="#F8F8F8"/><path d="M35 266v.4h295v-.8H35v.4zm305 10h-.4v50h.8v-50h-.4zm-10 60v-.4H35v.8h295v-.4zM25 326h.4v-50h-.8v50h.4zm10 10v-.4a9.6 9.6 0 01-9.6-9.6h-.8c0 5.744 4.656 10.4 10.4 10.4v-.4zm305-10h-.4a9.6 9.6 0 01-9.6 9.6v.8c5.744 0 10.4-4.656 10.4-10.4h-.4zm-10-60v.4a9.6 9.6 0 019.6 9.6h.8c0-5.744-4.656-10.4-10.4-10.4v.4zm-295 0v-.4c-5.744 0-10.4 4.656-10.4 10.4h.8a9.6 9.6 0 019.6-9.6v-.4z" fill="#E4E4E4"/><path d="M57.308 293.384c-.59 0-.886 0-1.155-.1l-.111-.046c-.261-.12-.47-.328-.888-.746-.962-.962-1.443-1.443-2.034-1.488a1.922 1.922 0 00-.24 0c-.591.045-1.072.526-2.034 1.488-.418.418-.627.627-.888.746l-.11.046c-.27.1-.565.1-1.156.1h-.11c-1.507 0-2.261 0-2.73.468-.469.468-.468 1.223-.468 2.73v.11c0 .59 0 .886-.1 1.155l-.046.111c-.12.261-.328.47-.746.888-.962.962-1.443 1.443-1.488 2.034-.005.08-.005.16 0 .24.045.591.526 1.072 1.488 2.034.418.418.627.627.746.888.017.036.032.073.046.11.1.27.1.565.1 1.156v.11c0 1.507 0 2.261.468 2.73.468.469 1.223.468 2.73.468h.11c.59 0 .886 0 1.155.1.038.014.075.029.111.046.261.12.47.328.888.746.962.962 1.443 1.443 2.034 1.488.08.006.16.006.24 0 .591-.045 1.072-.526 2.034-1.488.418-.418.627-.626.888-.746a1.45 1.45 0 01.11-.046c.27-.1.565-.1 1.156-.1h.11c1.507 0 2.261 0 2.73-.468.469-.468.468-1.223.468-2.73v-.11c0-.59 0-.886.1-1.155.014-.038.03-.075.046-.111.12-.261.328-.47.746-.888.962-.962 1.443-1.443 1.488-2.034.006-.08.006-.16 0-.24-.045-.591-.526-1.072-1.488-2.034-.418-.418-.626-.627-.746-.888l-.046-.11c-.1-.27-.1-.565-.1-1.156v-.11c0-1.507 0-2.261-.468-2.73-.468-.469-1.223-.468-2.73-.468h-.11z" stroke="#D97D1D" stroke-width="1.5"/><path d="M49.5 305.5a4.046 4.046 0 013.5-2.02c1.496 0 2.801.812 3.5 2.02M55 299a2 2 0 11-4 0 2 2 0 014 0z" stroke="#D97D1D" stroke-width="1.5" stroke-linecap="round"/><path d="M89.81 284.455c0 1.397-.256 2.599-.767 3.605-.512 1.001-1.213 1.772-2.103 2.314-.887.537-1.894.805-3.024.805-1.133 0-2.145-.268-3.036-.805-.886-.542-1.585-1.315-2.097-2.321-.511-1.005-.767-2.205-.767-3.598 0-1.398.256-2.598.767-3.599.512-1.006 1.21-1.777 2.097-2.314.89-.541 1.903-.812 3.036-.812 1.13 0 2.137.271 3.024.812.89.537 1.591 1.308 2.103 2.314.511 1.001.767 2.201.767 3.599zm-1.956 0c0-1.066-.173-1.963-.518-2.691-.341-.733-.81-1.287-1.406-1.662-.593-.38-1.264-.569-2.014-.569-.754 0-1.427.189-2.02.569-.592.375-1.06.929-1.406 1.662-.34.728-.511 1.625-.511 2.691 0 1.065.17 1.964.511 2.697.345.729.814 1.283 1.406 1.662.593.375 1.266.562 2.02.562.75 0 1.421-.187 2.014-.562.596-.379 1.065-.933 1.406-1.662.345-.733.518-1.632.518-2.697zm3.265 10.227v-13.5h1.866v1.591h.16c.11-.204.27-.441.48-.709.208-.269.498-.503.869-.703.37-.205.86-.307 1.47-.307.793 0 1.5.2 2.122.601.622.4 1.11.978 1.464 1.732.358.754.537 1.662.537 2.723s-.177 1.971-.53 2.73c-.354.754-.84 1.335-1.458 1.745-.618.404-1.323.607-2.116.607-.597 0-1.084-.1-1.464-.301-.375-.2-.669-.434-.882-.703a5.273 5.273 0 01-.492-.716h-.115v5.21h-1.911zm1.873-8.591c0 .69.1 1.295.3 1.815.2.52.49.927.87 1.221.379.29.843.435 1.393.435.57 0 1.048-.151 1.432-.454.383-.307.673-.722.869-1.246.2-.525.3-1.115.3-1.771 0-.648-.098-1.229-.294-1.745-.191-.516-.481-.923-.869-1.221-.383-.298-.863-.447-1.438-.447-.554 0-1.023.142-1.406.428-.38.285-.667.684-.863 1.195-.196.512-.294 1.108-.294 1.79zm12.819-4.909v1.534h-5.363v-1.534h5.363zm-3.924-2.352h1.911v9.287c0 .371.055.65.166.838a.87.87 0 00.428.377c.179.064.373.096.582.096.153 0 .288-.011.403-.032l.268-.052.345 1.579a3.081 3.081 0 01-.473.128c-.204.047-.46.073-.767.077a3.365 3.365 0 01-1.406-.269 2.41 2.41 0 01-1.055-.869c-.268-.392-.402-.884-.402-1.476v-9.684zm5.038 12.17v-9.818h1.912V291h-1.912zm.966-11.333c-.333 0-.618-.111-.857-.332a1.083 1.083 0 01-.351-.806c0-.315.117-.584.351-.805.239-.226.524-.339.857-.339.332 0 .615.113.85.339.238.221.358.49.358.805 0 .311-.12.58-.358.806a1.196 1.196 0 01-.85.332zM110.408 291v-9.818h1.834v1.598h.122a2.539 2.539 0 011.003-1.266c.465-.307 1.021-.46 1.669-.46.656 0 1.206.153 1.649.46.447.307.778.729.991 1.266h.102a2.762 2.762 0 011.118-1.253c.512-.315 1.121-.473 1.829-.473.89 0 1.617.279 2.179.837.567.559.85 1.4.85 2.525V291h-1.911v-6.405c0-.665-.181-1.146-.543-1.444-.362-.299-.795-.448-1.298-.448-.622 0-1.106.192-1.451.575-.345.38-.517.868-.517 1.464V291h-1.905v-6.526c0-.533-.166-.961-.499-1.285-.332-.324-.765-.486-1.297-.486-.363 0-.697.096-1.004.288a2.096 2.096 0 00-.735.786 2.414 2.414 0 00-.275 1.17V291h-1.911zm17.765.217a4.01 4.01 0 01-1.687-.345 2.847 2.847 0 01-1.196-1.016c-.289-.443-.434-.987-.434-1.63 0-.554.106-1.01.319-1.368.214-.358.501-.641.863-.85a4.49 4.49 0 011.215-.473 11.85 11.85 0 011.368-.243l1.432-.166c.366-.047.632-.122.799-.224.166-.102.249-.268.249-.499v-.044c0-.559-.158-.991-.473-1.298-.311-.307-.776-.46-1.394-.46-.643 0-1.15.143-1.521.428-.366.281-.62.595-.761.94l-1.796-.409c.213-.597.524-1.078.933-1.445a3.785 3.785 0 011.426-.805 5.546 5.546 0 011.694-.256c.392 0 .807.047 1.246.141.443.089.857.255 1.24.498.388.243.706.59.953 1.042.247.448.37 1.029.37 1.745V291h-1.866v-1.342h-.077a2.7 2.7 0 01-.556.728 2.949 2.949 0 01-.952.595c-.388.158-.853.236-1.394.236zm.416-1.534c.528 0 .98-.104 1.355-.313.379-.209.667-.481.863-.818.2-.341.3-.705.3-1.093v-1.266c-.068.068-.2.132-.396.192a6.376 6.376 0 01-.658.147c-.248.038-.488.075-.723.109a64.2 64.2 0 00-.588.076 4.729 4.729 0 00-1.016.237c-.303.111-.546.27-.729.479-.179.205-.268.478-.268.818 0 .473.174.831.524 1.074.349.239.795.358 1.336.358zm7.886-11.774V291h-1.911v-13.091h1.911zM138.047 291v-9.818h1.911V291h-1.911zm.965-11.333c-.333 0-.618-.111-.857-.332a1.083 1.083 0 01-.351-.806c0-.315.117-.584.351-.805.239-.226.524-.339.857-.339.332 0 .615.113.85.339.239.221.358.49.358.805 0 .311-.119.58-.358.806a1.196 1.196 0 01-.85.332zM141.324 291v-1.31l5.319-6.757v-.089h-5.146v-1.662h7.53v1.393l-5.114 6.674v.089h5.293V291h-7.882zm11.994.217a4.014 4.014 0 01-1.688-.345 2.839 2.839 0 01-1.195-1.016c-.29-.443-.435-.987-.435-1.63 0-.554.107-1.01.32-1.368a2.36 2.36 0 01.863-.85 4.483 4.483 0 011.214-.473c.448-.107.904-.188 1.368-.243l1.432-.166c.367-.047.633-.122.799-.224.166-.102.249-.268.249-.499v-.044c0-.559-.157-.991-.473-1.298-.311-.307-.775-.46-1.393-.46-.644 0-1.151.143-1.521.428-.367.281-.62.595-.761.94l-1.796-.409c.213-.597.524-1.078.933-1.445a3.78 3.78 0 011.425-.805 5.55 5.55 0 011.694-.256c.392 0 .808.047 1.247.141a3.64 3.64 0 011.24.498c.388.243.705.59.952 1.042.247.448.371 1.029.371 1.745V291h-1.866v-1.342h-.077c-.124.247-.309.49-.556.728a2.954 2.954 0 01-.953.595c-.387.158-.852.236-1.393.236zm.415-1.534c.529 0 .98-.104 1.355-.313.38-.209.667-.481.863-.818.201-.341.301-.705.301-1.093v-1.266c-.068.068-.2.132-.397.192a6.318 6.318 0 01-.658.147c-.247.038-.488.075-.722.109a56.2 56.2 0 00-.588.076c-.371.047-.71.126-1.017.237-.302.111-.545.27-.728.479-.179.205-.269.478-.269.818 0 .473.175.831.524 1.074.35.239.795.358 1.336.358zm-.07-9.812l1.496-2.946h2.013l-1.981 2.946h-1.528zm10.181 11.327c-.95 0-1.768-.215-2.454-.645a4.28 4.28 0 01-1.573-1.797c-.366-.762-.549-1.636-.549-2.62 0-.997.187-1.877.562-2.64.375-.767.903-1.366 1.585-1.796.682-.431 1.485-.646 2.41-.646.746 0 1.411.139 1.994.415a3.583 3.583 0 011.413 1.151c.362.494.577 1.072.646 1.732h-1.86a2.235 2.235 0 00-.704-1.189c-.362-.332-.848-.498-1.457-.498-.533 0-.999.14-1.4.422-.396.277-.705.673-.927 1.189-.221.511-.332 1.116-.332 1.815 0 .716.109 1.334.326 1.854.217.52.524.922.92 1.208.401.285.872.428 1.413.428.362 0 .69-.066.984-.198.299-.137.548-.33.748-.582a2.18 2.18 0 00.429-.908h1.86a3.629 3.629 0 01-.62 1.701c-.346.498-.808.89-1.387 1.176-.576.285-1.251.428-2.027.428zm5.078-.198v-9.818h1.911V291h-1.911zm.965-11.333c-.333 0-.618-.111-.857-.332a1.083 1.083 0 01-.351-.806c0-.315.117-.584.351-.805.239-.226.524-.339.857-.339.332 0 .615.113.85.339.239.221.358.49.358.805 0 .311-.119.58-.358.806a1.196 1.196 0 01-.85.332zm5.374 11.55a4.01 4.01 0 01-1.687-.345 2.841 2.841 0 01-1.196-1.016c-.289-.443-.434-.987-.434-1.63 0-.554.106-1.01.319-1.368a2.36 2.36 0 01.863-.85 4.477 4.477 0 011.215-.473 11.85 11.85 0 011.368-.243l1.431-.166c.367-.047.633-.122.799-.224.167-.102.25-.268.25-.499v-.044c0-.559-.158-.991-.473-1.298-.311-.307-.776-.46-1.394-.46-.643 0-1.15.143-1.521.428-.367.281-.62.595-.761.94l-1.796-.409c.213-.597.524-1.078.933-1.445a3.785 3.785 0 011.426-.805 5.546 5.546 0 011.694-.256c.392 0 .807.047 1.246.141.443.089.857.255 1.24.498.388.243.705.59.953 1.042.247.448.37 1.029.37 1.745V291h-1.866v-1.342h-.077a2.7 2.7 0 01-.556.728 2.96 2.96 0 01-.952.595c-.388.158-.853.236-1.394.236zm.416-1.534c.528 0 .98-.104 1.355-.313.379-.209.667-.481.863-.818.2-.341.3-.705.3-1.093v-1.266c-.068.068-.2.132-.396.192a6.34 6.34 0 01-.659.147c-.247.038-.487.075-.722.109a64.2 64.2 0 00-.588.076 4.729 4.729 0 00-1.016.237c-.303.111-.546.27-.729.479-.179.205-.268.478-.268.818 0 .473.174.831.524 1.074.349.239.794.358 1.336.358z" fill="#242A36"/><path d="M86.122 311.273c0 .997-.18 1.859-.54 2.585-.36.726-.854 1.286-1.482 1.68-.628.394-1.345.591-2.151.591-.806 0-1.524-.197-2.151-.591-.628-.394-1.122-.954-1.482-1.68-.36-.726-.54-1.588-.54-2.585 0-.997.18-1.859.54-2.585.36-.727.854-1.287 1.482-1.681.627-.394 1.344-.591 2.15-.591.807 0 1.524.197 2.152.591.628.394 1.122.954 1.482 1.681.36.726.54 1.588.54 2.585zm-1.108 0c0-.819-.137-1.51-.41-2.073-.272-.563-.64-.99-1.104-1.279a2.863 2.863 0 00-1.551-.434c-.573 0-1.091.145-1.556.434-.462.289-.83.716-1.103 1.279-.271.563-.407 1.254-.407 2.073 0 .818.136 1.509.407 2.073.274.563.641.989 1.103 1.278.465.29.983.434 1.556.434.572 0 1.09-.144 1.551-.434.465-.289.832-.715 1.103-1.278.274-.564.411-1.255.411-2.073zm2.626 7.386v-9.75h1.052v1.127h.13c.08-.124.19-.281.332-.471.144-.194.35-.367.618-.517.271-.154.637-.231 1.099-.231.597 0 1.123.149 1.579.448.455.298.81.721 1.066 1.269.256.548.383 1.194.383 1.939 0 .751-.127 1.402-.383 1.953-.255.548-.61.972-1.062 1.274-.452.298-.974.448-1.564.448-.456 0-.82-.076-1.095-.226a2.03 2.03 0 01-.632-.522 7.065 7.065 0 01-.342-.489h-.092v3.748h-1.09zm1.07-6.204c0 .535.079 1.008.236 1.417.157.406.386.725.688.955.301.228.67.342 1.108.342.455 0 .835-.12 1.14-.36.308-.243.539-.569.692-.979.157-.412.236-.871.236-1.375 0-.499-.077-.948-.23-1.348a2.08 2.08 0 00-.689-.956c-.304-.237-.688-.356-1.15-.356-.442 0-.815.113-1.116.337-.302.222-.53.533-.684.933-.154.397-.23.86-.23 1.39zm9.675-3.546v.923H94.71v-.923h3.675zm-2.604-1.699h1.09v6.759c0 .308.045.538.134.692.092.151.21.253.35.305.145.049.298.074.458.074.12 0 .218-.006.295-.019l.185-.037.221.979a2.214 2.214 0 01-.309.083c-.132.031-.3.046-.503.046-.308 0-.61-.066-.905-.198a1.794 1.794 0 01-.73-.605c-.19-.271-.285-.612-.285-1.025v-7.054zm3.983 8.79v-7.091h1.09V316h-1.09zm.554-8.273a.773.773 0 01-.55-.217.695.695 0 01-.226-.521c0-.203.076-.377.227-.522a.773.773 0 01.549-.217c.212 0 .394.072.545.217a.692.692 0 01.231.522.688.688 0 01-.231.521.759.759 0 01-.545.217zm2.271 8.273v-7.091h1.053v1.108h.092a1.79 1.79 0 01.715-.882c.33-.212.725-.318 1.187-.318.468 0 .857.106 1.168.318.314.21.558.504.734.882h.074a2.06 2.06 0 01.817-.872c.363-.219.798-.328 1.306-.328.634 0 1.153.198 1.556.595.403.394.605 1.008.605 1.842V316h-1.09v-4.746c0-.523-.143-.897-.429-1.122a1.592 1.592 0 00-1.011-.337c-.499 0-.885.151-1.159.453-.274.298-.411.677-.411 1.136V316h-1.108v-4.857c0-.403-.13-.727-.392-.974-.262-.249-.599-.374-1.011-.374-.283 0-.548.076-.794.227-.243.15-.44.36-.591.628-.148.264-.222.57-.222.918V316h-1.089zm13.125.166a2.87 2.87 0 01-1.223-.254 2.095 2.095 0 01-.872-.743c-.216-.326-.324-.72-.324-1.182 0-.406.08-.735.24-.988.161-.255.374-.455.642-.6a3.4 3.4 0 01.887-.323c.326-.074.654-.132.983-.175.431-.056.78-.097 1.048-.125.271-.031.468-.082.591-.152.126-.071.189-.194.189-.37v-.037c0-.455-.125-.809-.374-1.061-.246-.253-.62-.379-1.122-.379-.52 0-.928.114-1.223.342-.296.227-.503.471-.623.729l-1.034-.369c.184-.431.43-.767.738-1.007.311-.243.65-.412 1.016-.507a4.19 4.19 0 011.089-.148c.228 0 .49.027.785.083.299.052.586.161.863.328.28.166.513.417.697.752.185.336.277.785.277 1.348V316h-1.089v-.96h-.055a1.918 1.918 0 01-.37.494 2.141 2.141 0 01-.688.448c-.286.123-.635.184-1.048.184zm.167-.978c.431 0 .794-.085 1.089-.254a1.731 1.731 0 00.905-1.501v-.997c-.046.056-.148.106-.305.152a4.94 4.94 0 01-.535.116c-.2.031-.396.058-.587.083l-.457.055a4.19 4.19 0 00-.794.18c-.243.08-.44.202-.59.365-.148.16-.222.379-.222.656 0 .378.14.664.42.858.283.191.642.287 1.076.287zm5.902-8.643V316h-1.09v-9.455h1.09zm1.735 9.455v-7.091h1.089V316h-1.089zm.554-8.273a.771.771 0 01-.549-.217.695.695 0 01-.227-.521c0-.203.076-.377.227-.522a.771.771 0 01.549-.217c.212 0 .394.072.545.217a.692.692 0 01.231.522.688.688 0 01-.231.521.759.759 0 01-.545.217zM126.14 316v-.831l4.025-5.17v-.074h-3.896v-1.016h5.3v.868l-3.915 5.134v.073h4.044V316h-5.558zm9.063.166c-.45 0-.857-.084-1.224-.254a2.095 2.095 0 01-.872-.743c-.216-.326-.323-.72-.323-1.182 0-.406.08-.735.24-.988.16-.255.374-.455.642-.6.267-.144.563-.252.886-.323.326-.074.654-.132.983-.175.431-.056.78-.097 1.048-.125.271-.031.468-.082.591-.152.126-.071.189-.194.189-.37v-.037c0-.455-.124-.809-.374-1.061-.246-.253-.62-.379-1.121-.379-.521 0-.928.114-1.224.342-.295.227-.503.471-.623.729l-1.034-.369c.185-.431.431-.767.739-1.007.31-.243.649-.412 1.015-.507a4.197 4.197 0 011.09-.148c.227 0 .489.027.784.083.299.052.587.161.864.328.28.166.512.417.697.752.184.336.277.785.277 1.348V316h-1.09v-.96h-.055a1.935 1.935 0 01-.369.494 2.164 2.164 0 01-.688.448c-.286.123-.636.184-1.048.184zm.166-.978c.431 0 .794-.085 1.089-.254a1.724 1.724 0 00.905-1.501v-.997c-.046.056-.147.106-.304.152a4.962 4.962 0 01-.536.116 24.954 24.954 0 01-1.043.138 4.173 4.173 0 00-.794.18c-.243.08-.44.202-.591.365-.148.16-.222.379-.222.656 0 .378.14.664.42.858.283.191.642.287 1.076.287zm.037-7.239l1.126-2.142h1.274l-1.44 2.142h-.96zm7.656 8.199c-.665 0-1.237-.157-1.717-.471a3.065 3.065 0 01-1.108-1.297c-.259-.551-.388-1.181-.388-1.888 0-.721.132-1.356.397-1.907a3.14 3.14 0 011.117-1.297c.48-.314 1.04-.471 1.681-.471.498 0 .947.092 1.348.277.4.184.727.443.983.775.255.333.414.721.475 1.164h-1.089a1.69 1.69 0 00-.554-.859c-.283-.252-.665-.379-1.145-.379a1.91 1.91 0 00-1.117.333 2.159 2.159 0 00-.743.928c-.176.397-.264.863-.264 1.399 0 .547.087 1.024.259 1.431.175.406.422.721.739.946.32.225.695.337 1.126.337.283 0 .54-.049.771-.148.231-.098.426-.24.586-.424.16-.185.274-.407.342-.665h1.089a2.524 2.524 0 01-.457 1.131c-.24.332-.558.597-.955.794-.394.194-.853.291-1.376.291zm4.121-.148v-7.091h1.09V316h-1.09zm.554-8.273a.773.773 0 01-.549-.217.695.695 0 01-.227-.521c0-.203.076-.377.227-.522a.773.773 0 01.549-.217c.212 0 .394.072.545.217a.692.692 0 01.231.522.688.688 0 01-.231.521.759.759 0 01-.545.217zm4.358 8.439c-.45 0-.857-.084-1.224-.254a2.095 2.095 0 01-.872-.743c-.216-.326-.323-.72-.323-1.182 0-.406.08-.735.24-.988.16-.255.374-.455.641-.6.268-.144.564-.252.887-.323.326-.074.654-.132.983-.175.431-.056.78-.097 1.048-.125.271-.031.468-.082.591-.152.126-.071.189-.194.189-.37v-.037c0-.455-.124-.809-.374-1.061-.246-.253-.62-.379-1.122-.379-.52 0-.927.114-1.223.342-.295.227-.503.471-.623.729l-1.034-.369c.184-.431.431-.767.738-1.007.311-.243.65-.412 1.016-.507a4.197 4.197 0 011.09-.148c.227 0 .489.027.784.083.299.052.587.161.864.328.28.166.512.417.697.752.184.336.277.785.277 1.348V316h-1.09v-.96h-.055a1.918 1.918 0 01-.37.494 2.147 2.147 0 01-.687.448c-.287.123-.636.184-1.048.184zm.166-.978c.431 0 .794-.085 1.089-.254a1.724 1.724 0 00.905-1.501v-.997c-.046.056-.148.106-.305.152a4.888 4.888 0 01-.535.116 24.954 24.954 0 01-1.043.138 4.173 4.173 0 00-.794.18c-.244.08-.44.202-.591.365-.148.16-.222.379-.222.656 0 .378.14.664.42.858.283.191.642.287 1.076.287zm13.527-6.279a1.449 1.449 0 00-.674-1.089c-.394-.259-.877-.388-1.45-.388-.418 0-.785.068-1.099.203-.31.135-.554.322-.729.559a1.34 1.34 0 00-.259.807c0 .253.06.47.18.651.124.179.281.328.471.448.191.117.391.214.6.291.21.074.402.134.578.18l.96.259c.246.064.52.153.822.267.304.114.595.27.872.467.28.193.511.443.693.747.181.305.272.679.272 1.122 0 .511-.134.973-.402 1.385-.264.413-.652.74-1.163.984-.508.243-1.125.364-1.851.364-.677 0-1.264-.109-1.759-.328a2.801 2.801 0 01-1.164-.914 2.603 2.603 0 01-.475-1.361h1.182c.031.357.151.652.36.886.212.231.48.403.803.517.326.111.677.166 1.053.166a3.11 3.11 0 001.177-.212c.348-.145.623-.345.826-.6.203-.259.305-.56.305-.905 0-.314-.088-.57-.263-.767a1.93 1.93 0 00-.693-.48 7.354 7.354 0 00-.928-.323l-1.163-.332c-.739-.213-1.323-.516-1.754-.91-.431-.394-.647-.909-.647-1.546 0-.53.144-.991.43-1.385a2.845 2.845 0 011.163-.923 3.926 3.926 0 011.639-.333c.609 0 1.151.109 1.625.328.474.215.849.511 1.126.886.28.376.428.802.444 1.279h-1.108zm2.859 7.091v-9.455h5.706v1.016h-4.561v3.195h4.266v1.015h-4.266v3.213h4.635V316h-5.78zm15.487-4.727c0 .997-.18 1.859-.54 2.585-.36.726-.854 1.286-1.482 1.68-.628.394-1.345.591-2.151.591-.807 0-1.524-.197-2.152-.591-.627-.394-1.121-.954-1.481-1.68-.361-.726-.541-1.588-.541-2.585 0-.997.18-1.859.541-2.585.36-.727.854-1.287 1.481-1.681.628-.394 1.345-.591 2.152-.591.806 0 1.523.197 2.151.591.628.394 1.122.954 1.482 1.681.36.726.54 1.588.54 2.585zm-1.108 0c0-.819-.137-1.51-.411-2.073-.271-.563-.638-.99-1.103-1.279a2.865 2.865 0 00-1.551-.434c-.573 0-1.091.145-1.556.434-.462.289-.829.716-1.103 1.279-.271.563-.407 1.254-.407 2.073 0 .818.136 1.509.407 2.073.274.563.641.989 1.103 1.278.465.29.983.434 1.556.434.572 0 1.089-.144 1.551-.434.465-.289.832-.715 1.103-1.278.274-.564.411-1.255.411-2.073zm8.699 4.856c-.621 0-1.157-.114-1.606-.341a2.519 2.519 0 01-1.039-.937 2.556 2.556 0 01-.365-1.362c0-.394.083-.744.25-1.048.169-.308.401-.593.697-.854.298-.265.641-.53 1.029-.794l1.367-1.016c.267-.175.481-.363.641-.563.163-.2.245-.462.245-.785 0-.24-.106-.472-.319-.697-.209-.225-.484-.337-.826-.337-.24 0-.452.061-.637.185-.182.12-.325.273-.429.461a1.172 1.172 0 00-.153.573c0 .221.06.446.18.674.123.224.279.455.467.692.19.234.387.474.591.72l4.339 5.3h-1.311l-3.582-4.321-.905-1.089a5.2 5.2 0 01-.647-.965c-.16-.317-.24-.66-.24-1.03 0-.425.094-.797.282-1.117.191-.323.457-.574.799-.752.344-.182.747-.273 1.209-.273.474 0 .882.092 1.223.277.342.182.605.423.79.725.185.298.277.623.277.974 0 .452-.112.845-.337 1.177a3.839 3.839 0 01-.919.928l-1.883 1.404c-.425.313-.713.618-.864.914-.15.295-.226.507-.226.637 0 .295.077.571.231.826.154.255.371.462.651.619.28.157.608.235.983.235a2.54 2.54 0 001.044-.226c.338-.154.644-.376.918-.665.277-.289.496-.637.656-1.043.163-.406.244-.864.244-1.371h1.053c0 .628-.072 1.14-.217 1.537-.145.397-.308.708-.489.932a6.828 6.828 0 01-.439.504 1.726 1.726 0 00-.101.138 2.049 2.049 0 01-.102.139 2.801 2.801 0 01-1.154.766 4.071 4.071 0 01-1.376.249zM78.145 332v-9.455h3.195c.741 0 1.347.134 1.818.402.474.265.825.623 1.053 1.076.228.452.342.957.342 1.514a3.35 3.35 0 01-.342 1.519 2.54 2.54 0 01-1.043 1.089c-.471.268-1.075.402-1.81.402h-2.29v-1.016h2.253c.508 0 .916-.087 1.223-.263.308-.175.531-.412.67-.711.141-.301.212-.641.212-1.02s-.07-.717-.212-1.016a1.515 1.515 0 00-.674-.701c-.311-.173-.724-.259-1.237-.259H79.29V332h-1.145zm10.741.148c-.683 0-1.273-.151-1.768-.453a3.03 3.03 0 01-1.14-1.274c-.265-.548-.397-1.185-.397-1.911s.132-1.367.397-1.92c.267-.558.64-.991 1.117-1.302.48-.314 1.04-.471 1.68-.471.37 0 .734.061 1.094.184.36.124.688.324.984.601.295.274.53.637.706 1.089.175.452.263 1.01.263 1.671v.462h-5.466v-.942h4.358c0-.4-.08-.757-.24-1.071a1.804 1.804 0 00-.674-.743 1.884 1.884 0 00-1.025-.273c-.434 0-.81.108-1.126.324a2.121 2.121 0 00-.725.831c-.17.341-.254.707-.254 1.098v.628c0 .536.092.99.277 1.362.188.369.448.651.78.845.333.191.719.286 1.159.286.286 0 .545-.04.776-.12a1.66 1.66 0 00.604-.369c.17-.166.3-.373.393-.619l1.052.296c-.11.357-.297.67-.558.941a2.722 2.722 0 01-.97.628 3.59 3.59 0 01-1.297.222zm4.333-.148v-7.091h1.053v1.071h.074c.129-.351.363-.635.701-.854a2.07 2.07 0 011.145-.328c.08 0 .18.002.3.005s.211.008.273.014v1.108a3.57 3.57 0 00-.254-.042 2.56 2.56 0 00-.411-.032c-.345 0-.652.072-.923.217a1.592 1.592 0 00-.868 1.445V332h-1.09zm8.179-7.091v.923h-3.822v-.923h3.822zM98.721 332v-8.07c0-.406.095-.744.286-1.015a1.77 1.77 0 01.743-.61c.305-.135.626-.203.965-.203a2.521 2.521 0 011.034.185l-.314.942a4.593 4.593 0 00-.231-.07 1.424 1.424 0 00-.378-.041c-.36 0-.62.091-.78.272-.157.182-.236.448-.236.799V332h-1.09zm6.533.148c-.64 0-1.202-.153-1.685-.457a3.11 3.11 0 01-1.127-1.279c-.267-.548-.401-1.188-.401-1.92 0-.739.134-1.384.401-1.935a3.102 3.102 0 011.127-1.283c.483-.305 1.045-.457 1.685-.457.64 0 1.2.152 1.68.457.483.305.859.732 1.127 1.283.271.551.406 1.196.406 1.935 0 .732-.135 1.372-.406 1.92a3.068 3.068 0 01-1.127 1.279c-.48.304-1.04.457-1.68.457zm0-.979c.486 0 .886-.125 1.2-.374.314-.249.546-.577.697-.983.151-.406.226-.847.226-1.32 0-.474-.075-.916-.226-1.325a2.23 2.23 0 00-.697-.993c-.314-.252-.714-.379-1.2-.379s-.887.127-1.2.379a2.231 2.231 0 00-.698.993 3.82 3.82 0 00-.226 1.325c0 .473.076.914.226 1.32.151.406.384.734.698.983.313.249.714.374 1.2.374zm4.616.831v-7.091h1.053v1.071h.073c.13-.351.364-.635.702-.854a2.07 2.07 0 011.145-.328c.08 0 .18.002.3.005s.211.008.272.014v1.108a3.448 3.448 0 00-.253-.042 2.575 2.575 0 00-.411-.032c-.345 0-.653.072-.924.217a1.59 1.59 0 00-.867 1.445V332h-1.09zm4.577 0v-7.091h1.052v1.108h.093a1.79 1.79 0 01.715-.882c.33-.212.725-.318 1.187-.318.468 0 .857.106 1.168.318.314.21.558.504.734.882h.074a2.06 2.06 0 01.817-.872c.363-.219.798-.328 1.306-.328.634 0 1.153.198 1.556.595.403.394.605 1.008.605 1.842V332h-1.09v-4.746c0-.523-.143-.897-.429-1.122a1.592 1.592 0 00-1.011-.337c-.499 0-.885.151-1.159.453-.274.298-.411.677-.411 1.136V332h-1.108v-4.857c0-.403-.13-.727-.392-.974-.262-.249-.599-.374-1.011-.374-.283 0-.548.076-.794.227-.243.15-.44.36-.591.628-.148.264-.222.57-.222.918V332h-1.089zm13.125.166a2.87 2.87 0 01-1.223-.254 2.095 2.095 0 01-.872-.743c-.216-.326-.324-.72-.324-1.182 0-.406.08-.735.24-.988.16-.255.374-.455.642-.6.268-.144.563-.252.886-.323.327-.074.654-.132.984-.175.431-.056.78-.097 1.048-.125.271-.031.468-.082.591-.152.126-.071.189-.194.189-.37v-.037c0-.455-.125-.809-.374-1.061-.246-.253-.62-.379-1.122-.379-.52 0-.928.114-1.223.342-.296.227-.503.471-.623.729l-1.035-.369c.185-.431.431-.767.739-1.007.311-.243.65-.412 1.016-.507a4.19 4.19 0 011.089-.148c.228 0 .49.027.785.083.299.052.586.161.863.328.28.166.513.417.697.752.185.336.277.785.277 1.348V332h-1.089v-.96h-.055a1.918 1.918 0 01-.37.494 2.141 2.141 0 01-.688.448c-.286.123-.635.184-1.048.184zm.167-.978c.43 0 .794-.085 1.089-.254a1.731 1.731 0 00.905-1.501v-.997c-.046.056-.148.106-.305.152a4.94 4.94 0 01-.535.116c-.2.031-.396.058-.587.083l-.457.055a4.19 4.19 0 00-.794.18c-.243.08-.44.202-.591.365-.147.16-.221.379-.221.656 0 .378.14.664.42.858.283.191.642.287 1.076.287zm5.901-3.454V332h-1.089v-7.091h1.053v1.108h.092c.166-.36.418-.649.757-.868.338-.221.776-.332 1.311-.332.48 0 .9.098 1.26.295a2 2 0 01.841.887c.2.394.3.892.3 1.495V332h-1.09v-4.432c0-.557-.145-.991-.434-1.302-.289-.314-.686-.471-1.191-.471-.348 0-.659.076-.932.227-.271.15-.485.371-.642.66-.157.289-.236.64-.236 1.052zm9.136 4.414c-.665 0-1.237-.157-1.717-.471a3.065 3.065 0 01-1.108-1.297c-.259-.551-.388-1.181-.388-1.888 0-.721.132-1.356.397-1.907a3.14 3.14 0 011.117-1.297c.48-.314 1.041-.471 1.681-.471.498 0 .948.092 1.348.277.4.184.728.443.983.775.255.333.414.721.475 1.164h-1.089a1.69 1.69 0 00-.554-.859c-.283-.252-.665-.379-1.145-.379a1.91 1.91 0 00-1.117.333 2.159 2.159 0 00-.743.928c-.176.397-.263.863-.263 1.399 0 .547.086 1.024.258 1.431.175.406.422.721.739.946.32.225.695.337 1.126.337.283 0 .54-.049.771-.148.231-.098.426-.24.586-.424.16-.185.274-.407.342-.665h1.089a2.513 2.513 0 01-1.412 1.925c-.394.194-.853.291-1.376.291zm7.094 0c-.683 0-1.272-.151-1.768-.453a3.034 3.034 0 01-1.14-1.274c-.265-.548-.397-1.185-.397-1.911s.132-1.367.397-1.92a3.13 3.13 0 011.117-1.302c.48-.314 1.04-.471 1.68-.471.37 0 .734.061 1.094.184.361.124.688.324.984.601.295.274.531.637.706 1.089.176.452.263 1.01.263 1.671v.462h-5.466v-.942h4.358c0-.4-.08-.757-.24-1.071a1.8 1.8 0 00-.674-.743 1.884 1.884 0 00-1.025-.273c-.434 0-.809.108-1.126.324a2.118 2.118 0 00-.725.831 2.44 2.44 0 00-.254 1.098v.628c0 .536.093.99.277 1.362.188.369.448.651.78.845.333.191.719.286 1.159.286.286 0 .545-.04.776-.12.234-.083.435-.206.605-.369.169-.166.3-.373.392-.619l1.052.296c-.11.357-.297.67-.558.941a2.726 2.726 0 01-.97.628 3.586 3.586 0 01-1.297.222z" fill="#717580"/><mask id="b" fill="#fff"><path d="M252 285c0-8.284 6.716-15 15-15h42c8.284 0 15 6.716 15 15 0 8.284-6.716 15-15 15h-42c-8.284 0-15-6.716-15-15z"/></mask><path d="M252 285c0-8.284 6.716-15 15-15h42c8.284 0 15 6.716 15 15 0 8.284-6.716 15-15 15h-42c-8.284 0-15-6.716-15-15z" fill="#fff"/><path d="M267 270v.8h42v-1.6h-42v.8zm42 30v-.8h-42v1.6h42v-.8zm-42 0v-.8c-7.842 0-14.2-6.358-14.2-14.2h-1.6c0 8.726 7.074 15.8 15.8 15.8v-.8zm57-15h-.8c0 7.842-6.357 14.2-14.2 14.2v1.6c8.726 0 15.8-7.074 15.8-15.8h-.8zm-15-15v.8c7.843 0 14.2 6.358 14.2 14.2h1.6c0-8.726-7.074-15.8-15.8-15.8v.8zm-42 0v-.8c-8.726 0-15.8 7.074-15.8 15.8h1.6c0-7.842 6.358-14.2 14.2-14.2v-.8z" fill="#E4E4E4" mask="url(#b)"/><path d="M265.353 284.836l.9-.919 2.336 2.304 4.944-4.926.914.919-5.858 5.835-3.236-3.213zM282.991 289h-3.061v-9.455h3.158c.926 0 1.722.19 2.387.568a3.744 3.744 0 011.528 1.621c.357.701.535 1.543.535 2.525 0 .985-.18 1.831-.54 2.539a3.786 3.786 0 01-1.551 1.634c-.677.379-1.496.568-2.456.568zm-1.634-1.246h1.556c.72 0 1.318-.136 1.795-.407a2.56 2.56 0 001.071-1.186c.237-.52.356-1.154.356-1.902 0-.742-.119-1.371-.356-1.888a2.505 2.505 0 00-1.047-1.177c-.465-.268-1.042-.402-1.732-.402h-1.643v6.962zm10.831 1.389c-.664 0-1.245-.152-1.74-.457a3.08 3.08 0 01-1.154-1.279c-.274-.547-.411-1.188-.411-1.92 0-.736.137-1.379.411-1.93a3.073 3.073 0 011.154-1.283c.495-.305 1.076-.457 1.74-.457.665 0 1.245.152 1.741.457.495.305.88.732 1.154 1.283.274.551.411 1.194.411 1.93 0 .732-.137 1.373-.411 1.92a3.087 3.087 0 01-1.154 1.279c-.496.305-1.076.457-1.741.457zm.005-1.159c.431 0 .788-.113 1.071-.341.283-.228.492-.531.628-.91.138-.378.207-.795.207-1.251 0-.452-.069-.868-.207-1.246a2.037 2.037 0 00-.628-.919c-.283-.231-.64-.346-1.071-.346-.434 0-.794.115-1.08.346a2.061 2.061 0 00-.633.919 3.684 3.684 0 00-.203 1.246c0 .456.068.873.203 1.251.139.379.349.682.633.91.286.228.646.341 1.08.341zm6.222-3.194V289h-1.381v-7.091h1.325v1.154h.088c.163-.375.419-.677.766-.905.351-.227.793-.341 1.325-.341.484 0 .907.101 1.27.304.363.201.645.499.845.896.2.397.3.888.3 1.473V289h-1.381v-4.344c0-.514-.133-.916-.401-1.205-.268-.292-.636-.439-1.104-.439-.32 0-.604.07-.854.208a1.5 1.5 0 00-.586.61c-.141.264-.212.584-.212.96zm9.445 4.353c-.699 0-1.3-.149-1.805-.448a3.028 3.028 0 01-1.163-1.269c-.271-.548-.407-1.19-.407-1.925 0-.727.136-1.367.407-1.921a3.151 3.151 0 011.145-1.297c.492-.311 1.067-.466 1.726-.466.4 0 .788.066 1.163.198.376.133.713.34 1.011.624.299.283.534.65.707 1.103.172.449.258.995.258 1.639v.489h-5.636v-1.034h4.284c0-.363-.074-.685-.222-.965a1.674 1.674 0 00-.623-.669 1.745 1.745 0 00-.933-.245 1.8 1.8 0 00-1.015.286 1.924 1.924 0 00-.665.739 2.13 2.13 0 00-.231.983v.808c0 .474.083.877.249 1.21.17.332.405.586.707.761.301.173.654.259 1.057.259.262 0 .5-.037.715-.111a1.478 1.478 0 00.919-.9l1.307.235a2.366 2.366 0 01-.564 1.011c-.267.287-.604.51-1.011.67a3.78 3.78 0 01-1.38.235z" fill="#D97D1D"/><path d="M25 358c0-5.523 4.477-10 10-10h295c5.523 0 10 4.477 10 10v50c0 5.523-4.477 10-10 10H35c-5.523 0-10-4.477-10-10v-50z" fill="#F8F8F8"/><path d="M35 348v.4h295v-.8H35v.4zm305 10h-.4v50h.8v-50h-.4zm-10 60v-.4H35v.8h295v-.4zM25 408h.4v-50h-.8v50h.4zm10 10v-.4a9.6 9.6 0 01-9.6-9.6h-.8c0 5.744 4.656 10.4 10.4 10.4v-.4zm305-10h-.4a9.6 9.6 0 01-9.6 9.6v.8c5.744 0 10.4-4.656 10.4-10.4h-.4zm-10-60v.4a9.6 9.6 0 019.6 9.6h.8c0-5.744-4.656-10.4-10.4-10.4v.4zm-295 0v-.4c-5.744 0-10.4 4.656-10.4 10.4h.8a9.6 9.6 0 019.6-9.6v-.4z" fill="#E4E4E4"/><path d="M45.318 390.682C44 389.364 44 387.242 44 383c0-4.242 0-6.364 1.318-7.682C46.636 374 48.758 374 53 374c4.242 0 6.364 0 7.682 1.318C62 376.636 62 378.758 62 383c0 4.242 0 6.364-1.318 7.682C59.364 392 57.242 392 53 392c-4.242 0-6.364 0-7.682-1.318z" stroke="#D97D1D" stroke-width="1.5" stroke-linecap="round" stroke-linejoin="round"/><path d="M48 385l2.793-2.793a1.002 1.002 0 011.414 0l1.586 1.586a1.002 1.002 0 001.414 0L58 381" stroke="#D97D1D" stroke-width="1.5" stroke-linecap="round" stroke-linejoin="round"/><path d="M85.578 371.348c-.068-.605-.35-1.074-.844-1.406-.494-.337-1.116-.505-1.866-.505-.537 0-1.001.085-1.394.255-.392.167-.696.397-.914.691-.213.29-.32.62-.32.991 0 .311.073.579.218.805.15.226.343.415.582.569.243.149.503.275.78.377.277.098.543.179.799.243l1.278.332a9.81 9.81 0 011.285.416c.439.174.846.405 1.22.69.376.286.678.639.908 1.061.235.422.352.927.352 1.515 0 .742-.192 1.4-.575 1.975-.38.576-.931 1.029-1.656 1.362-.72.332-1.591.498-2.614.498-.98 0-1.828-.155-2.544-.466-.716-.311-1.277-.752-1.681-1.323-.405-.576-.629-1.258-.671-2.046h1.981c.038.473.192.867.46 1.183.273.311.62.543 1.042.696.426.15.893.224 1.4.224.558 0 1.055-.087 1.49-.262.438-.179.783-.426 1.035-.741.251-.32.377-.693.377-1.119 0-.388-.11-.705-.332-.952-.218-.248-.514-.452-.889-.614a8.611 8.611 0 00-1.26-.428l-1.546-.422c-1.048-.286-1.88-.706-2.493-1.259-.61-.554-.914-1.287-.914-2.199 0-.755.205-1.413.614-1.976.409-.562.963-.999 1.662-1.31.698-.315 1.487-.473 2.365-.473.886 0 1.668.156 2.346.467.681.311 1.218.739 1.61 1.285.392.541.597 1.163.614 1.866h-1.905zm3.29 13.334v-13.5h1.867v1.591h.16c.11-.204.27-.441.48-.709.208-.269.498-.503.869-.703.37-.205.86-.307 1.47-.307.793 0 1.5.2 2.122.601.622.4 1.11.978 1.464 1.732.358.754.537 1.662.537 2.723s-.177 1.971-.53 2.729c-.354.755-.84 1.336-1.458 1.746-.618.404-1.323.607-2.116.607-.597 0-1.084-.1-1.464-.301-.375-.2-.669-.434-.882-.703a5.273 5.273 0 01-.492-.716h-.115v5.21h-1.911zm1.874-8.591c0 .69.1 1.295.3 1.815.2.52.49.927.87 1.221.379.29.843.435 1.393.435.57 0 1.048-.151 1.432-.454.383-.307.673-.722.869-1.246.2-.525.3-1.115.3-1.771 0-.648-.098-1.229-.294-1.745-.191-.516-.481-.923-.869-1.221-.383-.298-.863-.447-1.438-.447-.554 0-1.023.142-1.406.428-.38.285-.667.684-.863 1.195-.196.512-.294 1.108-.294 1.79zm14.456.837v-5.746h1.917V381h-1.879v-1.7h-.102a3.06 3.06 0 01-1.087 1.31c-.494.345-1.11.518-1.847.518-.631 0-1.189-.139-1.675-.416-.481-.281-.86-.696-1.138-1.246-.272-.55-.409-1.229-.409-2.039v-6.245h1.911v6.015c0 .669.186 1.201.556 1.598.371.396.853.594 1.445.594.358 0 .714-.089 1.068-.268.358-.179.654-.45.888-.812.239-.362.356-.822.352-1.381zm10.842-3.349l-1.732.307a2.029 2.029 0 00-.345-.633 1.698 1.698 0 00-.626-.492c-.265-.128-.595-.192-.991-.192-.541 0-.993.121-1.355.364-.362.239-.544.548-.544.927 0 .328.122.592.365.793.243.2.635.364 1.176.492l1.56.358c.903.209 1.576.53 2.019.965.444.435.665.999.665 1.694 0 .588-.17 1.112-.511 1.572-.337.456-.808.814-1.413 1.074-.601.26-1.297.39-2.09.39-1.099 0-1.996-.234-2.691-.703-.695-.473-1.121-1.144-1.278-2.013l1.847-.282c.115.482.351.846.709 1.093.358.243.825.365 1.4.365.627 0 1.127-.13 1.502-.39.375-.264.563-.586.563-.965 0-.307-.115-.565-.345-.774-.226-.209-.573-.366-1.042-.473l-1.662-.364c-.916-.209-1.594-.541-2.033-.997-.434-.456-.652-1.034-.652-1.733 0-.579.162-1.086.486-1.521.324-.435.771-.773 1.342-1.016.571-.247 1.225-.371 1.963-.371 1.061 0 1.896.23 2.505.69.61.456 1.012 1.068 1.208 1.835zm5.877-2.397v1.534h-5.363v-1.534h5.363zm-3.925-2.352h1.911v9.287c0 .371.056.65.166.838a.873.873 0 00.429.377c.179.064.373.096.581.096.154 0 .288-.011.403-.032l.269-.052.345 1.579a3.114 3.114 0 01-.473.128 3.723 3.723 0 01-.767.077 3.37 3.37 0 01-1.407-.269 2.408 2.408 0 01-1.054-.869c-.269-.392-.403-.884-.403-1.477v-9.683zm9.165 12.368c-.967 0-1.8-.207-2.499-.62a4.194 4.194 0 01-1.611-1.758c-.375-.758-.563-1.647-.563-2.665 0-1.006.188-1.892.563-2.659.379-.767.908-1.366 1.585-1.796.682-.431 1.479-.646 2.391-.646.554 0 1.091.092 1.611.275a3.9 3.9 0 011.399.863c.414.392.74.901.978 1.527.239.623.358 1.379.358 2.27v.677h-7.804v-1.432h5.931a2.83 2.83 0 00-.306-1.336 2.32 2.32 0 00-.863-.926c-.367-.226-.797-.339-1.291-.339-.537 0-1.006.132-1.407.396-.396.26-.703.601-.92 1.023a2.95 2.95 0 00-.32 1.361v1.119c0 .656.115 1.214.345 1.675.235.46.561.811.978 1.054.418.239.906.358 1.464.358.362 0 .693-.051.991-.153a2.05 2.05 0 001.272-1.247l1.809.326c-.145.533-.405 1-.78 1.4a3.763 3.763 0 01-1.4.927c-.558.217-1.195.326-1.911.326zm7.244-6.028V381h-1.911v-9.818h1.834v1.598h.122c.226-.52.579-.938 1.061-1.253.486-.315 1.097-.473 1.834-.473.669 0 1.255.141 1.758.422.503.277.893.69 1.17 1.24.277.55.415 1.229.415 2.039V381h-1.911v-6.015c0-.712-.185-1.268-.556-1.668-.371-.405-.88-.607-1.528-.607-.443 0-.837.095-1.182.287a2.067 2.067 0 00-.812.844c-.196.366-.294.81-.294 1.329zm7.847 5.83v-9.818h1.911V381h-1.911zm.965-11.333a1.22 1.22 0 01-.857-.332 1.083 1.083 0 01-.351-.806c0-.315.117-.584.351-.805.239-.226.525-.339.857-.339.332 0 .616.113.85.339.239.221.358.49.358.805 0 .311-.119.58-.358.806a1.195 1.195 0 01-.85.332zm6.749 11.531c-.968 0-1.801-.207-2.5-.62a4.199 4.199 0 01-1.61-1.758c-.375-.758-.563-1.647-.563-2.665 0-1.006.188-1.892.563-2.659.379-.767.907-1.366 1.585-1.796.682-.431 1.478-.646 2.39-.646.554 0 1.091.092 1.611.275.52.183.987.471 1.4.863.413.392.739.901.978 1.527.239.623.358 1.379.358 2.27v.677h-7.805v-1.432h5.932c0-.502-.102-.948-.307-1.336a2.307 2.307 0 00-.863-.926c-.366-.226-.796-.339-1.291-.339-.537 0-1.005.132-1.406.396-.396.26-.703.601-.92 1.023-.214.417-.32.871-.32 1.361v1.119c0 .656.115 1.214.345 1.675.234.46.56.811.978 1.054.418.239.906.358 1.464.358.362 0 .692-.051.991-.153.298-.107.556-.264.773-.473.217-.209.384-.467.499-.774l1.809.326c-.145.533-.405 1-.78 1.4a3.77 3.77 0 01-1.4.927c-.558.217-1.195.326-1.911.326z" fill="#242A36"/><path d="M78.145 406v-9.455h1.145v8.439h4.395V406h-5.54zm8.991.166a2.87 2.87 0 01-1.223-.254 2.098 2.098 0 01-.873-.743c-.215-.326-.323-.72-.323-1.182 0-.406.08-.735.24-.988.16-.255.374-.455.642-.6a3.37 3.37 0 01.886-.323c.327-.074.654-.132.984-.175.43-.056.78-.097 1.048-.125.27-.031.467-.082.59-.152.127-.071.19-.194.19-.37v-.037c0-.455-.125-.809-.374-1.061-.246-.253-.62-.379-1.122-.379-.52 0-.928.114-1.223.342-.296.227-.504.47-.624.729l-1.034-.369c.185-.431.431-.767.739-1.007a2.78 2.78 0 011.016-.508 4.233 4.233 0 011.09-.147c.227 0 .489.027.784.083.298.052.586.161.863.328.28.166.513.417.697.752.185.336.277.785.277 1.348V406h-1.09v-.96h-.055a1.923 1.923 0 01-.369.494 2.152 2.152 0 01-.688.448c-.286.123-.635.184-1.048.184zm.166-.978c.431 0 .794-.085 1.09-.254a1.733 1.733 0 00.905-1.501v-.997c-.046.055-.148.106-.305.152a4.94 4.94 0 01-.535.116 25.126 25.126 0 01-1.044.138 4.175 4.175 0 00-.794.18 1.37 1.37 0 00-.59.365c-.148.16-.222.379-.222.656 0 .378.14.664.42.858.283.191.642.287 1.075.287zm9.282-2.087v-4.192h1.09V406h-1.09v-1.2h-.074a2.32 2.32 0 01-.776.918c-.35.25-.794.374-1.33.374-.443 0-.837-.097-1.181-.291a2.029 2.029 0 01-.813-.886c-.197-.397-.295-.897-.295-1.5v-4.506h1.09v4.432c0 .517.144.929.433 1.237.293.308.665.462 1.117.462.271 0 .547-.069.827-.208.283-.138.52-.351.71-.637.195-.286.292-.651.292-1.094zm3.914-1.367V406h-1.09v-7.091h1.053v1.108h.092c.167-.36.419-.649.758-.868.338-.221.775-.332 1.311-.332.48 0 .9.098 1.26.295.36.194.64.49.84.887.2.394.3.892.3 1.495V406h-1.089v-4.432c0-.557-.145-.991-.434-1.302-.29-.314-.687-.471-1.191-.471a1.9 1.9 0 00-.933.227c-.271.15-.485.371-.642.66-.156.289-.235.64-.235 1.052zm9.136 4.414c-.665 0-1.237-.157-1.718-.471a3.072 3.072 0 01-1.108-1.297c-.258-.551-.387-1.181-.387-1.889 0-.72.132-1.355.397-1.906.267-.554.64-.987 1.117-1.297.48-.314 1.04-.471 1.68-.471.499 0 .948.092 1.348.277.4.184.728.443.984.775.255.333.414.72.475 1.164h-1.089a1.69 1.69 0 00-.554-.859c-.284-.252-.665-.379-1.145-.379a1.91 1.91 0 00-1.117.333c-.317.218-.565.528-.744.928-.175.397-.263.863-.263 1.399 0 .547.086 1.024.259 1.431.175.406.421.721.738.946.32.225.696.337 1.127.337.283 0 .54-.049.771-.148.231-.098.426-.24.586-.424.16-.185.274-.407.342-.665h1.089a2.524 2.524 0 01-.457 1.131c-.24.332-.559.597-.956.794-.393.194-.852.291-1.375.291zm5.21-4.414V406h-1.089v-9.455h1.089v3.472h.093c.166-.366.415-.657.747-.872.336-.219.782-.328 1.339-.328.483 0 .907.097 1.27.291.363.19.645.484.845.881.203.394.304.896.304 1.505V406h-1.089v-4.432c0-.563-.146-.999-.439-1.306-.289-.311-.691-.467-1.205-.467-.357 0-.677.076-.96.227a1.65 1.65 0 00-.665.66c-.16.289-.24.64-.24 1.052zm12.405 4.395c-.621 0-1.157-.114-1.606-.341a2.514 2.514 0 01-1.039-.938 2.553 2.553 0 01-.365-1.361c0-.394.083-.744.25-1.048.169-.308.401-.593.697-.854.298-.265.641-.53 1.029-.794l1.367-1.016c.267-.175.481-.363.641-.563.163-.2.245-.462.245-.785 0-.24-.106-.472-.319-.697-.209-.225-.484-.337-.826-.337-.24 0-.452.061-.637.185-.182.12-.325.273-.429.461a1.172 1.172 0 00-.153.573c0 .221.06.446.18.674.124.224.279.455.467.692.19.234.387.474.591.72l4.339 5.3h-1.311l-3.582-4.321-.905-1.09a5.211 5.211 0 01-.647-.964 2.255 2.255 0 01-.24-1.03c0-.425.094-.797.282-1.117.191-.323.457-.574.799-.753.344-.181.748-.272 1.209-.272.474 0 .882.092 1.224.277.341.182.604.423.789.725.185.298.277.623.277.974 0 .452-.112.845-.337 1.177a3.839 3.839 0 01-.919.928l-1.883 1.404c-.425.313-.713.618-.864.914-.15.295-.226.507-.226.637 0 .295.077.571.231.826.154.255.371.462.651.619.28.157.608.235.983.235a2.54 2.54 0 001.044-.226c.338-.154.644-.376.918-.665.277-.289.496-.637.656-1.043a3.66 3.66 0 00.245-1.371h1.052c0 .627-.072 1.14-.217 1.537-.145.397-.308.708-.489.932a6.828 6.828 0 01-.439.504 1.726 1.726 0 00-.101.138 2.334 2.334 0 01-.102.139 2.801 2.801 0 01-1.154.766 4.071 4.071 0 01-1.376.249zm14.093-7.22a1.451 1.451 0 00-.674-1.089c-.394-.259-.878-.388-1.45-.388-.419 0-.785.068-1.099.203a1.747 1.747 0 00-.729.559 1.34 1.34 0 00-.259.807c0 .253.06.47.18.651.123.179.28.328.471.448.191.117.391.214.6.291.21.074.402.134.577.18l.961.259c.246.064.52.153.821.267.305.114.596.27.873.467.28.193.511.443.692.747.182.305.273.679.273 1.122 0 .511-.134.973-.402 1.385-.265.413-.652.74-1.163.983-.508.244-1.125.365-1.851.365-.678 0-1.264-.109-1.759-.328a2.795 2.795 0 01-1.164-.914 2.606 2.606 0 01-.475-1.361h1.182c.03.357.15.652.36.886.212.231.48.403.803.517.326.111.677.166 1.053.166a3.11 3.11 0 001.177-.212c.348-.145.623-.345.826-.6.203-.259.305-.561.305-.905 0-.314-.088-.57-.263-.767a1.938 1.938 0 00-.693-.48 7.354 7.354 0 00-.928-.323l-1.163-.332c-.739-.213-1.323-.516-1.754-.91-.431-.394-.647-.909-.647-1.546 0-.53.143-.991.43-1.385a2.845 2.845 0 011.163-.923 3.922 3.922 0 011.639-.333c.609 0 1.151.109 1.625.328.474.215.849.511 1.126.886.28.376.428.802.444 1.279h-1.108zm7.18 4.192v-4.192h1.09V406h-1.09v-1.2h-.074c-.166.36-.424.666-.775.918-.351.25-.794.374-1.33.374a2.37 2.37 0 01-1.182-.291 2.032 2.032 0 01-.812-.886c-.197-.397-.296-.897-.296-1.5v-4.506h1.09v4.432c0 .517.145.929.434 1.237.292.308.665.462 1.117.462.271 0 .546-.069.826-.208.284-.138.521-.351.711-.637.194-.286.291-.651.291-1.094zm2.825 5.558v-9.75h1.053v1.127h.129a9.23 9.23 0 01.332-.471 1.94 1.94 0 01.619-.517c.271-.154.637-.231 1.099-.231.597 0 1.123.149 1.578.448.456.298.811.721 1.067 1.269.255.548.383 1.194.383 1.939 0 .751-.128 1.402-.383 1.953-.256.548-.609.972-1.062 1.274-.452.298-.974.448-1.565.448-.455 0-.82-.076-1.094-.226a2.017 2.017 0 01-.632-.522 6.989 6.989 0 01-.342-.489h-.092v3.748h-1.09zm1.071-6.204c0 .535.079 1.007.236 1.417.157.406.386.725.687.955.302.228.671.342 1.108.342.456 0 .836-.12 1.141-.36.307-.243.538-.569.692-.979.157-.412.236-.871.236-1.375 0-.499-.077-.948-.231-1.348a2.08 2.08 0 00-.688-.956c-.305-.237-.688-.356-1.15-.356-.443 0-.815.113-1.117.337-.301.222-.529.533-.683.933-.154.397-.231.86-.231 1.39zm6.591 6.204v-9.75h1.053v1.127h.129a9.23 9.23 0 01.332-.471 1.94 1.94 0 01.619-.517c.271-.154.637-.231 1.099-.231.597 0 1.123.149 1.578.448.456.298.811.721 1.067 1.269.255.548.383 1.194.383 1.939 0 .751-.128 1.402-.383 1.953-.256.548-.61.972-1.062 1.274-.452.298-.974.448-1.565.448-.455 0-.82-.076-1.094-.226a2.033 2.033 0 01-.633-.522 7.276 7.276 0 01-.341-.489h-.093v3.748h-1.089zm1.071-6.204c0 .535.079 1.007.235 1.417.157.406.387.725.688.955.302.228.671.342 1.108.342.456 0 .836-.12 1.141-.36.307-.243.538-.569.692-.979.157-.412.235-.871.235-1.375 0-.499-.076-.948-.23-1.348a2.08 2.08 0 00-.688-.956c-.305-.237-.688-.356-1.15-.356-.443 0-.815.113-1.117.337-.302.222-.529.533-.683.933-.154.397-.231.86-.231 1.39zm9.472 3.693c-.641 0-1.202-.153-1.685-.457a3.103 3.103 0 01-1.127-1.279c-.268-.548-.402-1.188-.402-1.921 0-.738.134-1.383.402-1.934a3.09 3.09 0 011.127-1.283c.483-.305 1.044-.457 1.685-.457.64 0 1.2.152 1.68.457.483.304.859.732 1.126 1.283.271.551.407 1.196.407 1.934 0 .733-.136 1.373-.407 1.921a3.06 3.06 0 01-1.126 1.279c-.48.304-1.04.457-1.68.457zm0-.979c.486 0 .886-.125 1.2-.374.314-.249.546-.577.697-.983.151-.406.226-.847.226-1.321 0-.473-.075-.915-.226-1.324a2.23 2.23 0 00-.697-.993c-.314-.252-.714-.379-1.2-.379-.487 0-.887.127-1.201.379a2.23 2.23 0 00-.697.993 3.796 3.796 0 00-.226 1.324c0 .474.075.915.226 1.321.151.406.383.734.697.983.314.249.714.374 1.201.374zm4.616.831v-7.091h1.052v1.071h.074c.129-.351.363-.635.702-.854.338-.218.72-.328 1.145-.328.08 0 .18.002.3.005s.211.008.272.014v1.108a3.003 3.003 0 00-.254-.042 2.557 2.557 0 00-.411-.032c-.344 0-.652.072-.923.217a1.59 1.59 0 00-.868 1.445V406h-1.089zm8.105-7.091v.923h-3.675v-.923h3.675zm-2.604-1.699h1.09v6.759c0 .308.044.538.133.692.093.151.21.253.351.305.145.049.297.074.457.074a1.846 1.846 0 00.48-.056l.222.979a2.232 2.232 0 01-.309.083c-.133.031-.3.046-.503.046-.308 0-.61-.066-.905-.198a1.8 1.8 0 01-.73-.605c-.191-.271-.286-.612-.286-1.025v-7.054z" fill="#717580"/><mask id="c" fill="#fff"><path d="M213 375c0-8.284 6.716-15 15-15h81c8.284 0 15 6.716 15 15 0 8.284-6.716 15-15 15h-81c-8.284 0-15-6.716-15-15z"/></mask><path d="M213 375c0-8.284 6.716-15 15-15h81c8.284 0 15 6.716 15 15 0 8.284-6.716 15-15 15h-81c-8.284 0-15-6.716-15-15z" fill="#fff"/><path d="M228 360v.8h81v-1.6h-81v.8zm81 30v-.8h-81v1.6h81v-.8zm-81 0v-.8c-7.842 0-14.2-6.358-14.2-14.2h-1.6c0 8.726 7.074 15.8 15.8 15.8v-.8zm96-15h-.8c0 7.842-6.357 14.2-14.2 14.2v1.6c8.726 0 15.8-7.074 15.8-15.8h-.8zm-15-15v.8c7.843 0 14.2 6.358 14.2 14.2h1.6c0-8.726-7.074-15.8-15.8-15.8v.8zm-81 0v-.8c-8.726 0-15.8 7.074-15.8 15.8h1.6c0-7.842 6.358-14.2 14.2-14.2v-.8z" fill="#E4E4E4" mask="url(#c)"/><path d="M225 379.91h13v-13h-13v13zm18.906-10.365V379h-1.427v-9.455h1.427zm3.347 5.245V379h-1.381v-7.091h1.325v1.154h.088c.163-.375.419-.677.766-.905.351-.227.793-.341 1.325-.341.483 0 .907.101 1.27.304.363.2.645.499.845.896.2.397.3.888.3 1.473V379h-1.381v-4.344c0-.514-.134-.916-.401-1.205-.268-.292-.636-.439-1.104-.439-.32 0-.604.07-.854.208a1.5 1.5 0 00-.586.61c-.142.264-.212.584-.212.96zm9.94 4.21v-9.455h3.37c.736 0 1.345.134 1.828.402.483.268.845.634 1.085 1.099.24.461.36.982.36 1.56 0 .582-.121 1.105-.365 1.57-.24.461-.603.828-1.089 1.099-.483.267-1.091.401-1.824.401h-2.317v-1.209h2.188c.465 0 .842-.08 1.131-.24.29-.164.502-.385.637-.665.136-.28.203-.599.203-.956a2.13 2.13 0 00-.203-.951 1.455 1.455 0 00-.641-.651c-.29-.157-.671-.235-1.145-.235h-1.791V379h-1.427zm8.205 0v-7.091h1.334v1.127h.074c.129-.382.357-.682.683-.901a1.96 1.96 0 011.117-.332 6.07 6.07 0 01.586.032v1.321a2.22 2.22 0 00-.295-.051 2.766 2.766 0 00-.425-.033c-.326 0-.617.07-.872.208a1.54 1.54 0 00-.822 1.39V379h-1.38zm7.722.143c-.665 0-1.245-.152-1.74-.457a3.083 3.083 0 01-1.155-1.279c-.274-.548-.41-1.188-.41-1.92 0-.736.136-1.379.41-1.93a3.07 3.07 0 011.155-1.283c.495-.305 1.075-.457 1.74-.457s1.245.152 1.74.457a3.06 3.06 0 011.154 1.283c.274.551.411 1.194.411 1.93 0 .732-.137 1.372-.411 1.92a3.074 3.074 0 01-1.154 1.279c-.495.305-1.075.457-1.74.457zm.005-1.159c.43 0 .787-.113 1.071-.341.283-.228.492-.531.627-.91a3.6 3.6 0 00.208-1.251c0-.452-.069-.868-.208-1.246a2.027 2.027 0 00-.627-.919c-.284-.231-.641-.346-1.071-.346-.434 0-.794.115-1.081.346a2.06 2.06 0 00-.632.919 3.66 3.66 0 00-.203 1.246c0 .456.067.873.203 1.251.138.379.349.682.632.91.287.228.647.341 1.081.341zm7.814 3.823c-.563 0-1.048-.074-1.454-.222a2.805 2.805 0 01-.988-.586 2.457 2.457 0 01-.572-.799l1.186-.489c.083.135.194.278.332.429.142.154.333.285.573.393.243.107.555.161.937.161.523 0 .956-.127 1.297-.383.342-.252.513-.655.513-1.209v-1.395h-.088a3.145 3.145 0 01-.36.504 1.963 1.963 0 01-.637.48c-.271.135-.624.203-1.057.203a2.953 2.953 0 01-1.515-.393c-.446-.264-.8-.654-1.061-1.168-.259-.517-.388-1.152-.388-1.906s.127-1.4.383-1.939c.258-.539.612-.951 1.062-1.237.449-.29.958-.434 1.528-.434.44 0 .795.074 1.066.221.271.145.482.314.633.508.154.194.272.365.355.513h.102v-1.15h1.352v7.248c0 .609-.141 1.109-.424 1.5-.284.391-.667.68-1.15.868a4.428 4.428 0 01-1.625.282zm-.014-4.058c.397 0 .733-.092 1.007-.277.277-.188.486-.456.627-.803.145-.351.217-.771.217-1.261 0-.477-.07-.897-.212-1.26a1.867 1.867 0 00-.623-.849c-.274-.207-.613-.31-1.016-.31-.415 0-.761.108-1.038.324a1.941 1.941 0 00-.628.867 3.443 3.443 0 00-.208 1.228c0 .465.071.873.212 1.224.142.351.351.625.628.821.28.197.625.296 1.034.296zM285.99 379v-7.091h1.334v1.127h.074c.129-.382.357-.682.683-.901a1.957 1.957 0 011.117-.332 6.07 6.07 0 01.586.032v1.321a2.252 2.252 0 00-.295-.051 2.766 2.766 0 00-.425-.033c-.326 0-.617.07-.872.208a1.542 1.542 0 00-.822 1.39V379h-1.38zm7.791.143c-.699 0-1.3-.149-1.805-.448a3.022 3.022 0 01-1.163-1.269c-.271-.548-.407-1.19-.407-1.925 0-.727.136-1.367.407-1.921a3.149 3.149 0 011.144-1.297c.493-.311 1.068-.466 1.727-.466.4 0 .788.066 1.163.198.376.133.713.34 1.011.623.299.284.534.651.707 1.104.172.449.258.995.258 1.639v.489h-5.636v-1.034h4.284c0-.363-.074-.685-.222-.965a1.674 1.674 0 00-.623-.669 1.745 1.745 0 00-.933-.245c-.388 0-.726.095-1.015.286a1.916 1.916 0 00-.665.739 2.128 2.128 0 00-.231.983v.808c0 .474.083.877.249 1.21.17.332.405.586.707.761.301.173.654.259 1.057.259.261 0 .5-.037.715-.111a1.478 1.478 0 00.919-.9l1.307.235a2.366 2.366 0 01-.564 1.011c-.267.287-.604.51-1.011.67a3.78 3.78 0 01-1.38.235zm9.887-5.503l-1.251.222a1.465 1.465 0 00-.249-.457 1.245 1.245 0 00-.452-.356c-.191-.092-.43-.138-.716-.138-.391 0-.717.088-.979.263-.261.172-.392.395-.392.669 0 .237.088.428.263.573.175.144.459.263.849.355l1.127.259c.652.151 1.139.383 1.459.697.32.314.48.722.48 1.223 0 .425-.123.804-.37 1.136-.243.329-.583.588-1.02.776-.434.187-.937.281-1.509.281-.794 0-1.442-.169-1.944-.508-.502-.341-.809-.826-.923-1.454l1.334-.203c.083.348.254.611.512.789.259.176.596.264 1.011.264.453 0 .814-.094 1.085-.282.271-.191.407-.423.407-.697a.726.726 0 00-.25-.559c-.163-.151-.414-.264-.752-.341l-1.201-.264c-.661-.15-1.151-.39-1.468-.72-.313-.329-.47-.746-.47-1.251 0-.418.117-.785.35-1.098.234-.314.557-.559.97-.734.412-.179.885-.268 1.417-.268.766 0 1.37.166 1.81.498.44.33.731.771.872 1.325zm6.97 0l-1.251.222a1.465 1.465 0 00-.249-.457 1.24 1.24 0 00-.453-.356c-.191-.092-.429-.138-.715-.138-.391 0-.717.088-.979.263-.262.172-.392.395-.392.669 0 .237.087.428.263.573.175.144.458.263.849.355l1.127.259c.652.151 1.138.383 1.458.697.32.314.481.722.481 1.223 0 .425-.124.804-.37 1.136-.243.329-.583.588-1.02.776-.434.187-.937.281-1.51.281-.794 0-1.442-.169-1.943-.508-.502-.341-.81-.826-.923-1.454l1.334-.203c.083.348.254.611.512.789.259.176.596.264 1.011.264.453 0 .814-.094 1.085-.282.271-.191.406-.423.406-.697a.725.725 0 00-.249-.559c-.163-.151-.414-.264-.753-.341l-1.2-.264c-.661-.15-1.151-.39-1.468-.72-.314-.329-.471-.746-.471-1.251 0-.418.117-.785.351-1.098.234-.314.557-.559.97-.734.412-.179.884-.268 1.417-.268.766 0 1.369.166 1.81.498.44.33.73.771.872 1.325z" fill="#D97D1D"/></svg>