<svg width="256" height="372" fill="none" xmlns="http://www.w3.org/2000/svg"><path d="M6.988.35h241.095a6.64 6.64 0 016.639 6.638v357.638a6.64 6.64 0 01-6.639 6.639H6.988a6.64 6.64 0 01-6.638-6.639V6.988A6.639 6.639 0 016.988.35z" fill="#fff"/><path d="M6.988.35h241.095a6.64 6.64 0 016.639 6.638v357.638a6.64 6.64 0 01-6.639 6.639H6.988a6.64 6.64 0 01-6.638-6.639V6.988A6.639 6.639 0 016.988.35z" stroke="#E4E4E4" stroke-width=".699"/><path d="M24.228 36.76V24.463h3.11V36.76h-3.11zm-4.595-4.594v-3.11h12.3v3.11h-12.3zm14.703 7.305v-2.71l6.332-5.863c.539-.521.99-.99 1.355-1.407.37-.417.652-.825.843-1.225.19-.405.286-.842.286-1.311 0-.522-.118-.97-.356-1.347a2.338 2.338 0 00-.973-.877 3.05 3.05 0 00-1.398-.313c-.544 0-1.02.11-1.424.33-.406.22-.718.536-.938.947-.22.411-.33.9-.33 1.468h-3.57c0-1.164.263-2.174.79-3.031.527-.857 1.265-1.52 2.215-1.99.95-.468 2.044-.703 3.283-.703 1.274 0 2.383.226 3.327.678.95.445 1.688 1.065 2.215 1.858.526.794.79 1.703.79 2.728 0 .671-.133 1.334-.4 1.989-.26.654-.726 1.38-1.398 2.18-.672.793-1.618 1.746-2.84 2.857l-2.597 2.545v.122h7.47v3.075H34.335zm14.056-3.127v-2.962l7.427-11.7h2.553v4.1h-1.511l-4.682 7.409v.139h10.553v3.014h-14.34zm8.538 3.127v-4.03l.07-1.312V21.682h3.526v17.789H56.93zm14.584.39c-1.494-.005-2.78-.373-3.856-1.103-1.072-.73-1.897-1.786-2.476-3.17-.573-1.384-.857-3.049-.851-4.994 0-1.94.287-3.593.86-4.96.579-1.366 1.404-2.406 2.475-3.118 1.077-.718 2.36-1.077 3.848-1.077s2.768.36 3.839 1.077c1.077.718 1.905 1.76 2.484 3.127.58 1.36.866 3.011.86 4.95 0 1.952-.29 3.62-.868 5.004-.574 1.384-1.396 2.44-2.467 3.17-1.072.73-2.354 1.094-3.848 1.094zm0-3.118c1.02 0 1.833-.512 2.44-1.537.609-1.025.91-2.562.904-4.612 0-1.35-.139-2.473-.417-3.37-.272-.898-.66-1.572-1.164-2.024a2.538 2.538 0 00-1.763-.677c-1.013 0-1.824.506-2.432 1.52-.608 1.013-.915 2.53-.92 4.55 0 1.367.135 2.508.407 3.423.278.91.67 1.592 1.173 2.05a2.57 2.57 0 001.772.677zm18.903-.608v-.938c0-.712.15-1.366.451-1.963a3.58 3.58 0 011.33-1.442c.584-.364 1.296-.547 2.136-.547.851 0 1.566.18 2.145.539.585.359 1.025.84 1.32 1.442a4.31 4.31 0 01.452 1.971v.938c0 .712-.15 1.37-.452 1.972a3.515 3.515 0 01-1.329 1.433c-.584.365-1.297.547-2.136.547-.851 0-1.567-.182-2.146-.547a3.533 3.533 0 01-1.32-1.433 4.347 4.347 0 01-.451-1.972zm2.527-.938v.938c0 .411.099.8.295 1.164.203.365.568.547 1.095.547s.886-.18 1.077-.538c.197-.36.295-.75.295-1.173v-.938c0-.422-.093-.816-.278-1.181-.185-.365-.55-.547-1.094-.547-.521 0-.883.182-1.086.547a2.393 2.393 0 00-.304 1.181zm-11.656-9.241v-.938c0-.718.153-1.376.46-1.972a3.58 3.58 0 011.33-1.442c.584-.359 1.29-.538 2.118-.538.857 0 1.576.18 2.154.538a3.52 3.52 0 011.32 1.442 4.3 4.3 0 01.452 1.972v.938a4.24 4.24 0 01-.46 1.971 3.515 3.515 0 01-1.329 1.433c-.579.354-1.291.53-2.136.53-.846 0-1.561-.18-2.146-.538a3.608 3.608 0 01-1.32-1.433 4.363 4.363 0 01-.443-1.963zm2.545-.938v.938c0 .422.098.813.295 1.172.203.36.559.539 1.069.539.532 0 .894-.18 1.085-.539a2.4 2.4 0 00.296-1.172v-.938c0-.423-.093-.817-.279-1.182-.185-.364-.553-.547-1.103-.547-.515 0-.871.185-1.068.556-.197.37-.295.762-.295 1.173zM82.434 39.47l12.23-17.789h2.275L84.71 39.471h-2.276z" fill="#242A36"/><path d="M178.419 25.374a2.796 2.796 0 012.795-2.795h53.591a2.795 2.795 0 012.795 2.795v11.193a2.795 2.795 0 01-2.795 2.795h-53.591a2.796 2.796 0 01-2.795-2.795V25.374z" fill="#D4F4DD"/><path d="M185.088 34.47v-6.607h2.232c.517 0 .94.089 1.272.265.331.174.576.414.735.72.159.305.239.652.239 1.042 0 .389-.08.734-.239 1.035a1.681 1.681 0 01-.732.71c-.329.17-.75.255-1.262.255h-1.806v-.723h1.781c.352 0 .636-.052.851-.155a.972.972 0 00.471-.439c.099-.19.149-.419.149-.683 0-.265-.05-.496-.149-.694a1.013 1.013 0 00-.474-.458c-.217-.11-.504-.165-.861-.165h-1.407v5.898h-.8zm3.11-2.967l1.626 2.968h-.929l-1.6-2.968h.903zm8.094-.336c0 .697-.126 1.3-.377 1.807a2.835 2.835 0 01-1.036 1.174 2.77 2.77 0 01-1.503.413 2.77 2.77 0 01-1.504-.413 2.833 2.833 0 01-1.035-1.174c-.252-.508-.378-1.11-.378-1.807 0-.697.126-1.299.378-1.807a2.833 2.833 0 011.035-1.174 2.77 2.77 0 011.504-.413 2.77 2.77 0 011.503.413c.439.276.784.667 1.036 1.174.251.508.377 1.11.377 1.807zm-.774 0c0-.572-.096-1.055-.287-1.448-.19-.394-.447-.692-.771-.894a2.001 2.001 0 00-1.084-.303c-.4 0-.763.1-1.088.303-.322.202-.579.5-.771.894-.189.393-.283.876-.283 1.448s.094 1.055.283 1.449c.192.393.449.691.771.893a2.02 2.02 0 001.088.303 2 2 0 001.084-.303c.324-.202.581-.5.771-.893.191-.394.287-.877.287-1.449zm2.738-3.304v6.608h-.8v-6.607h.8zm8.312 2.065a2.303 2.303 0 00-.281-.584 1.803 1.803 0 00-.409-.445 1.722 1.722 0 00-.536-.28 2.13 2.13 0 00-.658-.097c-.391 0-.747.1-1.068.303-.32.202-.575.5-.764.894-.19.393-.284.876-.284 1.448s.095 1.055.287 1.449c.191.393.45.691.777.893.327.202.695.303 1.104.303.378 0 .712-.08 1-.241.29-.164.516-.394.677-.69.164-.3.245-.651.245-1.056l.246.052h-1.988v-.71h2.517v.71c0 .544-.116 1.017-.349 1.42-.23.402-.548.713-.955.935-.404.22-.868.329-1.393.329-.585 0-1.099-.138-1.542-.413a2.788 2.788 0 01-1.033-1.174c-.245-.508-.367-1.11-.367-1.807 0-.523.069-.993.209-1.41.142-.42.342-.776.6-1.07a2.63 2.63 0 01.916-.678 2.834 2.834 0 011.165-.236c.349 0 .673.053.974.158a2.6 2.6 0 011.736 1.997h-.826zm1.95 4.543v-4.956h.736v.749h.051c.091-.245.254-.444.491-.597a1.44 1.44 0 01.8-.23 8.555 8.555 0 01.4.014v.774a2.226 2.226 0 00-.178-.029 1.748 1.748 0 00-.287-.023c-.241 0-.456.051-.645.152a1.11 1.11 0 00-.607 1.01v3.136h-.761zm5.061.103c-.448 0-.84-.107-1.178-.32a2.171 2.171 0 01-.787-.893c-.187-.383-.281-.83-.281-1.342 0-.516.094-.967.281-1.352.189-.385.452-.684.787-.897.338-.213.73-.32 1.178-.32.447 0 .839.107 1.174.32.338.213.6.512.787.897.19.385.284.836.284 1.352 0 .512-.094.959-.284 1.342-.187.383-.449.68-.787.894a2.15 2.15 0 01-1.174.319zm0-.684c.34 0 .619-.087.839-.261.219-.175.381-.404.487-.688a2.64 2.64 0 00.158-.922c0-.331-.053-.64-.158-.926a1.567 1.567 0 00-.487-.694c-.22-.176-.499-.264-.839-.264-.34 0-.62.088-.839.264a1.56 1.56 0 00-.487.694 2.666 2.666 0 00-.158.926c0 .331.053.639.158.922.105.284.268.513.487.688.219.174.499.26.839.26zm4.18.58l-1.51-4.955h.8l1.071 3.794h.052l1.058-3.794h.813l1.045 3.781h.052l1.071-3.78h.8l-1.51 4.955h-.748l-1.084-3.807h-.078l-1.084 3.807h-.748zm8.232-4.955v.645h-2.568v-.645h2.568zm-1.82-1.187h.762v4.723c0 .215.031.377.093.484a.486.486 0 00.245.213.992.992 0 00.32.052c.084 0 .153-.005.206-.013l.129-.026.155.684a1.625 1.625 0 01-.568.09c-.215 0-.425-.046-.632-.139a1.262 1.262 0 01-.51-.422c-.133-.19-.2-.428-.2-.716v-4.93zm3.651 3.162v2.98h-.761v-6.607h.761v2.427h.065a1.4 1.4 0 01.522-.61c.235-.153.547-.23.936-.23.338 0 .633.069.887.204.254.133.451.339.591.616.141.276.212.626.212 1.052v3.149h-.761v-3.097c0-.394-.102-.698-.306-.913-.203-.218-.483-.326-.842-.326a1.4 1.4 0 00-.671.158 1.152 1.152 0 00-.465.461 1.498 1.498 0 00-.168.736z" fill="#0A9428"/><path d="M18.27 60.061v-6.607h2.233c.518 0 .942.094 1.271.28.331.186.577.436.736.752.159.317.238.67.238 1.059 0 .389-.08.743-.238 1.061a1.77 1.77 0 01-.73.761c-.328.188-.75.281-1.264.281h-1.6v-.71h1.574c.355 0 .64-.06.855-.184.215-.122.371-.288.468-.496a1.66 1.66 0 00.148-.713c0-.265-.05-.502-.148-.71a1.058 1.058 0 00-.471-.49c-.217-.12-.505-.181-.865-.181h-1.406v5.897h-.8zm5.664 0v-4.955h.736v.748h.051a1.19 1.19 0 01.49-.596c.237-.153.504-.23.8-.23a8.678 8.678 0 01.4.013v.775a2.223 2.223 0 00-.177-.03 1.751 1.751 0 00-.287-.022c-.24 0-.456.05-.645.152a1.112 1.112 0 00-.607 1.01v3.135h-.76zm3.38 0v-4.955h.762v4.955h-.762zm.387-5.781a.541.541 0 01-.384-.152.487.487 0 01-.158-.364c0-.142.053-.264.159-.365a.541.541 0 01.383-.151.53.53 0 01.381.151.483.483 0 01.161.365.483.483 0 01-.16.364.53.53 0 01-.382.152zm3.847 5.884c-.478 0-.89-.105-1.236-.316a2.122 2.122 0 01-.797-.89c-.185-.383-.277-.828-.277-1.336 0-.507.092-.955.277-1.342.187-.39.448-.692.781-.91a2.099 2.099 0 011.174-.329c.258 0 .513.043.765.13.252.086.48.225.687.419.207.191.371.445.494.761.122.316.184.706.184 1.168v.323h-3.82v-.658h3.045c0-.28-.056-.53-.168-.749a1.264 1.264 0 00-.47-.52 1.32 1.32 0 00-.717-.19c-.303 0-.565.076-.787.226-.22.149-.388.342-.506.58a1.705 1.705 0 00-.178.769v.438c0 .375.065.692.194.952.131.258.313.455.545.59.232.134.502.2.81.2.2 0 .38-.027.542-.083a1.16 1.16 0 00.422-.258c.119-.117.21-.26.275-.433l.735.207a1.63 1.63 0 01-.39.658 1.903 1.903 0 01-.678.439 2.514 2.514 0 01-.906.154zm3.21-.103v-4.955h.735v.774h.065c.103-.264.27-.47.5-.616.23-.148.506-.223.829-.223.327 0 .599.075.816.223.22.146.39.352.513.616h.052a1.45 1.45 0 01.57-.61c.255-.152.559-.229.914-.229.443 0 .805.14 1.087.417.282.275.422.704.422 1.287v3.316h-.76v-3.316c0-.366-.1-.627-.3-.784a1.11 1.11 0 00-.707-.236c-.349 0-.619.106-.81.316-.191.21-.287.474-.287.794v3.226h-.774v-3.394c0-.281-.092-.508-.275-.68-.182-.175-.418-.262-.706-.262-.198 0-.383.053-.555.158-.17.106-.308.252-.413.44a1.295 1.295 0 00-.155.641v3.097h-.761zm9.973.103c-.477 0-.89-.105-1.235-.316a2.122 2.122 0 01-.797-.89c-.185-.383-.278-.828-.278-1.336 0-.507.093-.955.278-1.342a2.19 2.19 0 01.78-.91 2.102 2.102 0 011.175-.329c.258 0 .513.043.764.13.252.086.481.225.688.419.206.191.37.445.493.761s.184.706.184 1.168v.323h-3.82v-.658h3.046c0-.28-.056-.53-.168-.749a1.264 1.264 0 00-.471-.52 1.32 1.32 0 00-.716-.19c-.304 0-.566.076-.787.226-.22.149-.389.342-.507.58a1.705 1.705 0 00-.177.769v.438c0 .375.064.692.193.952.131.258.313.455.546.59.232.134.502.2.81.2.2 0 .38-.027.541-.083a1.16 1.16 0 00.423-.258c.118-.117.21-.26.274-.433l.736.207a1.64 1.64 0 01-.39.658 1.903 1.903 0 01-.678.439 2.514 2.514 0 01-.907.154zm3.21-.103v-4.955h.736v.748h.051a1.19 1.19 0 01.49-.596c.237-.153.504-.23.8-.23a8.678 8.678 0 01.4.013v.775a2.218 2.218 0 00-.177-.03 1.751 1.751 0 00-.287-.022c-.24 0-.456.05-.645.152a1.112 1.112 0 00-.607 1.01v3.135h-.76zm4.142-2.98v2.98h-.762v-4.955h.736v.774h.064c.117-.252.293-.454.53-.606.236-.155.541-.233.916-.233.335 0 .629.07.88.207.252.135.448.342.588.62.14.275.21.623.21 1.044v3.15h-.762v-3.098c0-.39-.101-.692-.303-.91-.203-.219-.48-.329-.833-.329-.243 0-.46.053-.651.158-.19.106-.34.26-.449.462-.11.202-.164.447-.164.735zm4.866 4.838a1.668 1.668 0 01-.555-.09l.193-.67c.185.046.349.064.49.05a.588.588 0 00.378-.19c.112-.111.214-.293.306-.545l.142-.387-1.832-4.981h.826l1.368 3.949h.051l1.368-3.95h.826l-2.103 5.679a2.149 2.149 0 01-.352.635c-.14.17-.302.296-.487.378-.183.082-.39.123-.62.123zm.993-7.484l.787-1.497h.89l-1.006 1.497h-.67zm6.89 2.645v2.981h-.762v-4.955h.736v.774h.064c.116-.252.293-.454.53-.606.236-.155.541-.233.915-.233.336 0 .63.07.881.207.252.135.448.342.587.62.14.275.21.623.21 1.044v3.15h-.761v-3.098c0-.39-.101-.692-.304-.91-.202-.219-.48-.329-.832-.329-.243 0-.46.053-.652.158a1.14 1.14 0 00-.448.462c-.11.202-.164.447-.164.735zm6.01 3.097a2.01 2.01 0 01-.854-.177 1.467 1.467 0 01-.61-.52 1.465 1.465 0 01-.226-.825c0-.284.056-.514.168-.69.112-.18.261-.32.448-.42.187-.101.394-.177.62-.226.228-.052.457-.093.687-.123.3-.038.545-.067.732-.087.19-.021.327-.057.413-.106.088-.05.132-.136.132-.258v-.026c0-.318-.087-.566-.261-.742-.172-.176-.433-.265-.784-.265-.363 0-.648.08-.855.24a1.41 1.41 0 00-.435.509l-.723-.258a1.74 1.74 0 01.516-.704 1.92 1.92 0 01.71-.354c.258-.07.512-.104.761-.104.16 0 .342.02.549.059.208.036.41.112.603.228.196.117.358.292.487.526.13.235.194.549.194.942v3.265h-.762v-.67h-.038a1.34 1.34 0 01-.258.344 1.48 1.48 0 01-.481.313c-.2.086-.444.13-.733.13zm.117-.684c.3 0 .554-.059.761-.177a1.208 1.208 0 00.632-1.049v-.696c-.032.038-.103.074-.213.106a3.43 3.43 0 01-.374.08 17.583 17.583 0 01-.729.098 2.906 2.906 0 00-.555.125.957.957 0 00-.413.255c-.103.112-.155.265-.155.458 0 .265.098.465.294.6.198.134.448.2.752.2zm.025-5.058l.788-1.497h.89l-1.007 1.497h-.67zm3.52 5.626v-4.955h.735v.748h.051a1.19 1.19 0 01.49-.596c.237-.153.504-.23.801-.23a8.678 8.678 0 01.4.013v.775a2.226 2.226 0 00-.177-.03 1.754 1.754 0 00-.288-.022c-.24 0-.456.05-.645.152a1.113 1.113 0 00-.606 1.01v3.135h-.762zm4.838.116c-.314 0-.6-.059-.855-.177a1.467 1.467 0 01-.61-.52 1.466 1.466 0 01-.226-.825c0-.284.056-.514.168-.69.112-.18.261-.32.448-.42.188-.101.394-.177.62-.226a7.54 7.54 0 01.687-.123c.301-.038.545-.067.732-.087.19-.021.327-.057.413-.106.088-.05.133-.136.133-.258v-.026c0-.318-.088-.566-.262-.742-.172-.176-.433-.265-.784-.265-.363 0-.648.08-.855.24a1.401 1.401 0 00-.435.509l-.723-.258a1.75 1.75 0 01.516-.704c.218-.17.454-.288.71-.354.258-.07.512-.104.761-.104.16 0 .342.02.549.059.209.036.41.112.603.228.196.117.358.292.487.526.13.235.194.549.194.942v3.265h-.761v-.67h-.04a1.34 1.34 0 01-.257.344 1.48 1.48 0 01-.481.313c-.2.086-.444.13-.732.13zm.116-.684c.3 0 .555-.059.761-.177a1.208 1.208 0 00.633-1.049v-.696c-.033.038-.104.074-.213.106-.108.03-.233.057-.375.08a17.514 17.514 0 01-.729.098 2.904 2.904 0 00-.555.125.957.957 0 00-.413.255c-.103.112-.154.265-.154.458 0 .265.097.465.293.6.198.134.449.2.752.2zm7.055-3.277l-.684.193a1.269 1.269 0 00-.19-.332.923.923 0 00-.336-.271 1.218 1.218 0 00-.546-.106c-.303 0-.555.07-.758.21-.2.137-.3.312-.3.525 0 .19.07.339.207.448.137.11.352.202.645.275l.736.18c.443.108.773.273.99.494.217.22.326.502.326.848 0 .284-.082.538-.245.762-.162.224-.388.4-.678.529-.29.129-.628.194-1.013.194-.505 0-.924-.11-1.255-.33-.331-.219-.54-.54-.629-.961l.723-.18c.069.266.199.466.39.6.194.133.446.2.758.2.355 0 .637-.076.846-.226.21-.153.316-.336.316-.549a.576.576 0 00-.181-.432c-.12-.118-.305-.207-.555-.265l-.826-.193c-.454-.108-.787-.275-1-.5a1.21 1.21 0 01-.316-.855c0-.28.078-.527.236-.742.159-.215.375-.384.648-.507.275-.122.587-.184.935-.184.49 0 .876.108 1.155.323.282.215.482.499.6.852zm3.391-1.11v.645h-2.568v-.645h2.568zm-1.82-1.187h.762v4.723c0 .215.031.376.093.484a.485.485 0 00.246.213.984.984 0 00.319.051 1.35 1.35 0 00.335-.038l.155.683a1.593 1.593 0 01-.568.09c-.215 0-.425-.045-.632-.138a1.256 1.256 0 01-.51-.423c-.133-.189-.2-.428-.2-.716v-4.93zm5.378 6.142v-.58l2.813-3.614v-.051h-2.722v-.71h3.703v.606L94.52 59.3v.052h2.827v.71h-3.885zm6.516.116c-.314 0-.6-.059-.855-.177a1.467 1.467 0 01-.61-.52 1.466 1.466 0 01-.226-.825c0-.284.056-.514.168-.69.112-.18.261-.32.448-.42.187-.101.394-.177.62-.226.228-.052.457-.093.687-.123.301-.038.545-.067.732-.087.189-.021.327-.057.413-.106.088-.05.132-.136.132-.258v-.026c0-.318-.087-.566-.261-.742-.172-.176-.433-.265-.784-.265-.363 0-.648.08-.855.24a1.392 1.392 0 00-.435.509l-.723-.258a1.74 1.74 0 01.516-.704 1.92 1.92 0 01.71-.354c.258-.07.512-.104.761-.104.159 0 .342.02.549.059.208.036.409.112.603.228.196.117.358.292.487.526.129.235.194.549.194.942v3.265h-.762v-.67h-.038a1.36 1.36 0 01-.258.344 1.497 1.497 0 01-.481.313c-.2.086-.444.13-.732.13zm.116-.684c.301 0 .555-.059.761-.177a1.203 1.203 0 00.632-1.049v-.696c-.032.038-.103.074-.213.106a3.43 3.43 0 01-.374.08 17.232 17.232 0 01-.729.098 2.905 2.905 0 00-.555.125.957.957 0 00-.413.255c-.103.112-.155.265-.155.458 0 .265.098.465.294.6.198.134.448.2.752.2zm8.319.659c-.426 0-.806-.074-1.139-.22a1.946 1.946 0 01-.79-.61 1.634 1.634 0 01-.316-.913h.813a.96.96 0 00.219.552c.129.153.298.271.506.355.209.084.44.126.694.126.284 0 .536-.05.755-.149.219-.099.391-.236.516-.413a1.03 1.03 0 00.187-.613c0-.242-.06-.457-.18-.642a1.2 1.2 0 00-.529-.438c-.233-.106-.517-.158-.852-.158h-.529v-.71h.529c.262 0 .492-.047.69-.142a1.073 1.073 0 00.639-1.007c0-.223-.05-.418-.148-.584a1.015 1.015 0 00-.42-.387 1.354 1.354 0 00-.632-.138c-.228 0-.443.042-.645.126-.2.081-.364.2-.491.358a.933.933 0 00-.206.56h-.774c.012-.345.117-.649.312-.909.196-.262.452-.467.768-.613.319-.146.668-.22 1.049-.22.408 0 .759.084 1.051.25.293.163.518.379.675.648.157.268.235.559.235.87 0 .373-.098.69-.293.952a1.488 1.488 0 01-.791.546v.051c.418.07.743.246.978.533.234.283.351.635.351 1.054 0 .36-.097.682-.293.968a1.996 1.996 0 01-.794.671 2.58 2.58 0 01-1.145.246zm6.12-.09v-4.956h.735v.774h.065c.103-.264.27-.47.5-.616.23-.148.506-.223.829-.223.327 0 .599.075.816.223.22.146.391.352.513.616h.052c.127-.256.317-.459.571-.61.254-.152.558-.229.913-.229.443 0 .805.14 1.087.417.282.275.423.704.423 1.287v3.316h-.762v-3.316c0-.366-.1-.627-.3-.784a1.109 1.109 0 00-.706-.236c-.349 0-.619.106-.81.316-.191.21-.287.474-.287.794v3.226h-.774v-3.394c0-.281-.092-.508-.275-.68-.182-.175-.418-.262-.706-.262-.198 0-.383.053-.555.158a1.19 1.19 0 00-.413.44 1.298 1.298 0 00-.155.641v3.097h-.761zm9.973.102c-.477 0-.889-.105-1.235-.316a2.122 2.122 0 01-.797-.89c-.185-.383-.278-.828-.278-1.336 0-.507.093-.955.278-1.342.187-.39.447-.692.781-.91a2.099 2.099 0 011.174-.329c.258 0 .513.043.765.13.251.086.48.225.687.419a2 2 0 01.493.761c.123.316.184.706.184 1.168v.323h-3.82v-.658h3.046c0-.28-.056-.53-.168-.749a1.268 1.268 0 00-1.187-.71 1.37 1.37 0 00-.787.226c-.22.149-.388.342-.507.58a1.71 1.71 0 00-.177.769v.438c0 .375.064.692.193.952.132.258.313.455.546.59.232.134.502.2.809.2.2 0 .381-.027.542-.083.164-.058.305-.145.423-.258.118-.117.21-.26.274-.433l.736.207c-.078.25-.208.469-.391.658a1.893 1.893 0 01-.677.439 2.515 2.515 0 01-.907.154zm6.72-3.948l-.684.193a1.264 1.264 0 00-.19-.332.924.924 0 00-.335-.271 1.22 1.22 0 00-.546-.106c-.303 0-.556.07-.758.21-.2.137-.3.312-.3.525 0 .19.069.339.207.448.137.11.352.202.645.275l.735.18c.444.108.774.273.991.494.217.22.326.502.326.848 0 .284-.082.538-.245.762-.162.224-.388.4-.678.529-.29.129-.628.194-1.013.194-.505 0-.924-.11-1.255-.33-.331-.219-.541-.54-.629-.961l.723-.18c.068.266.199.466.39.6.194.133.446.2.758.2.355 0 .637-.076.845-.226.211-.153.317-.336.317-.549a.578.578 0 00-.181-.432c-.121-.118-.306-.207-.555-.265l-.826-.193c-.454-.108-.787-.275-1-.5a1.21 1.21 0 01-.316-.855c0-.28.078-.527.235-.742.16-.215.376-.384.649-.507.275-.122.587-.184.935-.184.491 0 .876.108 1.155.323.282.215.482.499.6.852zm1.237 3.845v-4.955h.761v4.955h-.761zm.387-5.781a.543.543 0 01-.384-.152.488.488 0 01-.158-.364.49.49 0 01.158-.365.543.543 0 01.384-.151c.148 0 .275.05.381.151a.484.484 0 01.161.365.484.484 0 01-.161.364.533.533 0 01-.381.152zm3.227 5.897c-.314 0-.599-.059-.855-.177a1.47 1.47 0 01-.61-.52 1.47 1.47 0 01-.226-.825c0-.284.056-.514.168-.69a1.18 1.18 0 01.449-.42 2.35 2.35 0 01.619-.226c.228-.052.457-.093.687-.123.301-.038.545-.067.732-.087.19-.021.327-.057.413-.106.089-.05.133-.136.133-.258v-.026c0-.318-.087-.566-.262-.742-.172-.176-.433-.265-.784-.265-.363 0-.648.08-.855.24a1.401 1.401 0 00-.435.509l-.723-.258a1.74 1.74 0 01.516-.704c.218-.17.454-.288.71-.354a2.9 2.9 0 01.762-.104c.159 0 .342.02.548.059.209.036.41.112.603.228.196.117.358.292.487.526.129.235.194.549.194.942v3.265h-.761v-.67h-.039a1.36 1.36 0 01-.258.344 1.497 1.497 0 01-.481.313c-.2.086-.444.13-.732.13zm.116-.684c.301 0 .555-.059.761-.177a1.203 1.203 0 00.633-1.049v-.696c-.033.038-.104.074-.213.106-.108.03-.233.057-.375.08a17.161 17.161 0 01-.729.098 2.938 2.938 0 00-.555.125.957.957 0 00-.412.255c-.104.112-.155.265-.155.458 0 .265.098.465.293.6.198.134.449.2.752.2zm5.558.671c-.465 0-.865-.11-1.2-.329a2.146 2.146 0 01-.775-.906 3.082 3.082 0 01-.271-1.32c0-.503.093-.947.278-1.332.187-.387.447-.69.781-.907a2.096 2.096 0 011.174-.329c.348 0 .662.065.942.194.279.129.509.31.687.542.179.232.289.503.332.813h-.761a1.18 1.18 0 00-.387-.6c-.198-.177-.465-.265-.8-.265a1.34 1.34 0 00-.781.233 1.504 1.504 0 00-.519.648 2.395 2.395 0 00-.184.978c0 .382.06.716.18 1 .123.284.295.504.517.661.223.157.486.236.787.236.198 0 .377-.035.538-.104a1.108 1.108 0 00.649-.761h.761a1.762 1.762 0 01-.987 1.345 2.151 2.151 0 01-.961.203zm5.139 0c-.478 0-.889-.105-1.236-.316a2.129 2.129 0 01-.797-.89c-.184-.383-.277-.828-.277-1.336 0-.507.093-.955.277-1.342a2.2 2.2 0 01.781-.91 2.101 2.101 0 011.174-.329c.259 0 .513.043.765.13.252.086.481.225.687.419.207.191.371.445.494.761.122.316.184.706.184 1.168v.323h-3.82v-.658h3.045c0-.28-.055-.53-.167-.749a1.268 1.268 0 00-1.188-.71c-.303 0-.565.076-.787.226a1.484 1.484 0 00-.506.58 1.71 1.71 0 00-.178.769v.438c0 .375.065.692.194.952.131.258.313.455.545.59.232.134.502.2.81.2.2 0 .381-.027.542-.083.163-.058.304-.145.423-.258.118-.117.209-.26.274-.433l.735.207c-.077.25-.207.469-.39.658a1.906 1.906 0 01-.678.439 2.51 2.51 0 01-.906.154zM23.061 102.497c0-1.158.939-2.097 2.097-2.097H47.22c1.157 0 2.096.939 2.096 2.097v14.675H23.061v-14.675z" fill="#717580"/><path d="M53.51 96.207c0-1.158.939-2.096 2.096-2.096H77.67c1.158 0 2.097.938 2.097 2.096v20.965H53.51V96.207z" fill="#242A36"/><path d="M83.959 89.918c0-1.158.938-2.097 2.096-2.097h22.063c1.158 0 2.097.939 2.097 2.097v27.254H83.959V89.918zm30.449-6.29c0-1.157.938-2.096 2.096-2.096h22.063c1.158 0 2.096.939 2.096 2.096v33.544h-26.255V83.628zm30.448-4.193c0-1.157.939-2.096 2.097-2.096h22.063c1.158 0 2.096.939 2.096 2.096v37.737h-26.256V79.435zm30.449 8.386c0-1.158.939-2.096 2.097-2.096h22.062c1.158 0 2.097.938 2.097 2.096v29.351h-26.256v-29.35zm30.449-10.482c0-1.158.938-2.097 2.096-2.097h22.063c1.158 0 2.097.939 2.097 2.097v39.833h-26.256V77.339z" fill="#D4F4DD"/><path d="M17.47 135.341a6.988 6.988 0 016.989-6.988h206.153a6.988 6.988 0 016.988 6.988v34.942a6.988 6.988 0 01-6.988 6.988H24.459a6.988 6.988 0 01-6.988-6.988v-34.942z" fill="#F8F8F8"/><path d="M24.459 128.353v.28h206.153v-.559H24.459v.279zm213.141 6.988h-.279v34.942h.559v-34.942h-.28zm-6.988 41.93v-.28H24.459v.559h206.153v-.279zm-213.141-6.988h.28v-34.942h-.56v34.942h.28zm6.988 6.988v-.28a6.708 6.708 0 01-6.709-6.708h-.559a7.268 7.268 0 007.268 7.267v-.279zm213.141-6.988h-.279a6.709 6.709 0 01-6.709 6.708v.559a7.268 7.268 0 007.268-7.267h-.28zm-6.988-41.93v.28a6.709 6.709 0 016.709 6.708h.559a7.267 7.267 0 00-7.268-7.267v.279zm-206.153 0v-.279a7.267 7.267 0 00-7.268 7.267h.56a6.708 6.708 0 016.708-6.708v-.28z" fill="#E4E4E4"/><path d="M33.544 148.619v-.699c0-.988 0-1.482.307-1.789.306-.307.8-.307 1.79-.307h2.794c.988 0 1.483 0 1.79.307.307.306.307.8.307 1.789v.699c0 .988 0 1.482-.308 1.789-.306.307-.8.307-1.789.307h-.699l-2.096 1.398v-1.398c-.988 0-1.482 0-1.789-.307-.307-.306-.307-.8-.307-1.789z" stroke="#0A9428" stroke-width="1.048" stroke-linejoin="round"/><path d="M31.16 157.522c-.439.295-1.59.896-.889 1.648.342.367.725.63 1.204.63h2.74c.479 0 .861-.263 1.203-.63.702-.752-.45-1.353-.89-1.647a2.993 2.993 0 00-3.367-.001zm8.387 0c-.44.295-1.592.896-.89 1.648.342.367.725.63 1.204.63h2.74c.479 0 .861-.263 1.203-.63.702-.752-.45-1.353-.89-1.647a2.993 2.993 0 00-3.367-.001zm-5.305-3.662a1.396 1.396 0 01-1.397 1.398 1.396 1.396 0 11.988-2.386c.262.262.41.617.41.988zm8.386 0a1.396 1.396 0 01-2.386.988 1.396 1.396 0 111.977-1.976c.262.262.41.617.41.988z" stroke="#0A9428" stroke-width="1.048"/><path d="M54.815 151.017v-9.149h1.38v4.369h.111l3.838-4.369h1.737l-3.69 4.119 3.704 5.03h-1.662l-2.957-4.088-1.081 1.242v2.846h-1.38zm9.933.138c-.643 0-1.205-.147-1.684-.442a2.983 2.983 0 01-1.117-1.237c-.265-.531-.397-1.15-.397-1.859 0-.711.132-1.334.397-1.867a2.978 2.978 0 011.117-1.242c.48-.294 1.04-.442 1.684-.442.643 0 1.205.148 1.684.442.48.295.852.709 1.117 1.242s.397 1.156.397 1.867c0 .709-.132 1.328-.397 1.859a2.98 2.98 0 01-1.117 1.237c-.48.295-1.04.442-1.684.442zm.005-1.121c.416 0 .762-.11 1.036-.331a1.93 1.93 0 00.607-.88c.134-.366.201-.769.201-1.21 0-.438-.067-.84-.2-1.206a1.959 1.959 0 00-.608-.889c-.274-.224-.62-.335-1.036-.335-.42 0-.769.111-1.046.335a1.99 1.99 0 00-.612.889 3.556 3.556 0 00-.196 1.206c0 .441.065.844.196 1.21.134.367.338.66.612.88.277.221.626.331 1.046.331zm5.321-3.091v4.074h-1.336v-6.862h1.282v1.117h.085a1.96 1.96 0 01.742-.875c.34-.221.767-.331 1.282-.331.467 0 .877.098 1.228.295.352.193.624.482.818.866.193.385.29.86.29 1.425v4.365h-1.336v-4.204c0-.497-.13-.886-.388-1.166-.26-.283-.615-.424-1.068-.424-.31 0-.585.067-.826.201a1.447 1.447 0 00-.567.59c-.138.256-.206.565-.206.929zm5.34 4.074v-.916l3.717-4.722v-.062h-3.596v-1.162h5.262v.974l-3.573 4.664v.062h3.698v1.162h-5.507zm10.731-2.846v-4.016h1.34v6.862h-1.313v-1.189h-.071a2.137 2.137 0 01-.76.916c-.345.241-.775.362-1.29.362a2.32 2.32 0 01-1.17-.29 2.043 2.043 0 01-.796-.871c-.19-.385-.286-.86-.286-1.425v-4.365h1.336v4.204c0 .467.13.84.388 1.117.26.276.596.415 1.01.415.25 0 .499-.063.746-.188.25-.125.457-.314.62-.567.168-.253.25-.575.246-.965zm3.772-6.303v9.149H88.58v-9.149h1.336zm4.3 2.287v1.072H90.47v-1.072h3.748zm-2.742-1.643h1.336v6.49c0 .259.038.454.116.585a.61.61 0 00.299.264c.125.044.26.067.406.067.108 0 .201-.008.282-.023l.187-.035.242 1.103c-.078.03-.188.06-.33.089a2.597 2.597 0 01-.537.054 2.351 2.351 0 01-.983-.188 1.684 1.684 0 01-.737-.607c-.187-.274-.281-.618-.281-1.032v-6.767zm5.518 8.656c-.435 0-.828-.08-1.18-.241a1.99 1.99 0 01-.835-.71c-.202-.31-.303-.689-.303-1.139 0-.387.074-.706.223-.956.149-.25.35-.448.603-.594.253-.146.536-.256.849-.331.312-.074.631-.131.956-.169l1-.116c.256-.033.442-.085.559-.157.116-.071.174-.187.174-.348v-.032c0-.39-.11-.692-.33-.906-.218-.215-.543-.322-.975-.322-.45 0-.804.1-1.063.299-.256.197-.433.416-.531.657l-1.255-.286c.148-.417.366-.753.652-1.009a2.64 2.64 0 01.996-.563c.375-.119.77-.179 1.183-.179.275 0 .565.033.872.098.31.063.598.179.866.349.271.17.493.412.666.728.172.313.259.719.259 1.219v4.557h-1.305v-.938h-.053a1.916 1.916 0 01-.389.509 2.058 2.058 0 01-.665.415c-.271.11-.596.165-.974.165zm.29-1.072c.37 0 .685-.073.947-.218.265-.146.466-.337.603-.572.14-.238.21-.493.21-.764v-.885c-.047.048-.14.093-.277.135a4.562 4.562 0 01-.46.102c-.172.027-.34.052-.505.076l-.41.054a3.33 3.33 0 00-.71.165 1.214 1.214 0 00-.51.335c-.125.143-.188.334-.188.572 0 .33.123.581.367.75.244.167.555.25.933.25zm-.049-6.856l1.045-2.06h1.407l-1.384 2.06h-1.068zm7.115 7.915c-.664 0-1.236-.15-1.715-.451a2.984 2.984 0 01-1.099-1.255c-.256-.533-.384-1.144-.384-1.832 0-.697.131-1.311.393-1.845a3.009 3.009 0 011.108-1.255c.476-.301 1.037-.451 1.684-.451.521 0 .985.097 1.393.29a2.436 2.436 0 011.439 2.015h-1.3a1.554 1.554 0 00-.492-.831c-.253-.232-.592-.348-1.018-.348-.372 0-.698.098-.978.295-.277.193-.493.47-.648.83-.155.358-.232.781-.232 1.269 0 .5.076.932.228 1.295.151.364.366.645.643.845.28.199.609.299.987.299.253 0 .482-.046.688-.139.208-.095.383-.23.523-.406.142-.176.242-.387.299-.634h1.3a2.526 2.526 0 01-.434 1.188 2.498 2.498 0 01-.969.822c-.402.199-.874.299-1.416.299zm3.548-.138v-6.862h1.336v6.862h-1.336zm.675-7.92a.85.85 0 01-.599-.233.752.752 0 01-.246-.562c0-.221.082-.408.246-.563a.84.84 0 01.599-.237c.232 0 .43.079.594.237.167.155.25.342.25.563a.746.746 0 01-.25.562.834.834 0 01-.594.233zm3.755 8.071c-.434 0-.827-.08-1.179-.241-.351-.164-.63-.4-.835-.71-.203-.31-.304-.689-.304-1.139 0-.387.075-.706.223-.956.149-.25.35-.448.604-.594.253-.146.536-.256.848-.331.313-.074.632-.131.956-.169l1.001-.116c.256-.033.442-.085.558-.157.116-.071.174-.187.174-.348v-.032c0-.39-.11-.692-.33-.906-.218-.215-.542-.322-.974-.322-.45 0-.804.1-1.063.299-.256.197-.433.416-.532.657l-1.255-.286a2.41 2.41 0 01.652-1.009c.289-.259.621-.447.996-.563.376-.119.77-.179 1.184-.179.274 0 .564.033.871.098.31.063.599.179.867.349.271.17.493.412.665.728.173.313.259.719.259 1.219v4.557h-1.304v-.938h-.054a1.898 1.898 0 01-.388.509 2.062 2.062 0 01-.666.415c-.271.11-.595.165-.974.165zm.291-1.072c.369 0 .685-.073.947-.218.265-.146.466-.337.603-.572.14-.238.21-.493.21-.764v-.885c-.048.048-.14.093-.277.135a4.603 4.603 0 01-.46.102l-.505.076-.411.054a3.345 3.345 0 00-.71.165 1.21 1.21 0 00-.509.335c-.126.143-.188.334-.188.572 0 .33.122.581.366.75.244.167.556.25.934.25z" fill="#242A36"/><path d="M56.648 169.607H54.61V163h2.129c.64 0 1.19.132 1.645.397.456.262.806.64 1.049 1.132.243.491.364 1.078.364 1.762 0 .688-.122 1.281-.368 1.777a2.615 2.615 0 01-1.07 1.142c-.47.265-1.04.397-1.71.397zm-1.238-.71h1.187c.546 0 .999-.105 1.358-.316.36-.21.627-.51.803-.9.177-.389.265-.853.265-1.39 0-.534-.087-.993-.261-1.378a1.925 1.925 0 00-.781-.89c-.346-.209-.778-.313-1.294-.313H55.41v5.187zm7.522.813c-.478 0-.89-.105-1.236-.316a2.12 2.12 0 01-.797-.89c-.184-.383-.277-.828-.277-1.336 0-.507.093-.955.277-1.342.188-.389.448-.692.781-.91a2.1 2.1 0 011.174-.329c.258 0 .513.043.765.129.252.086.48.226.687.42.207.191.371.445.494.761.122.316.184.706.184 1.168v.323h-3.82v-.658h3.045c0-.28-.056-.53-.167-.749a1.266 1.266 0 00-.471-.519 1.318 1.318 0 00-.717-.191 1.37 1.37 0 00-.787.226 1.48 1.48 0 00-.506.581 1.708 1.708 0 00-.178.768v.438c0 .375.065.692.194.952.131.258.313.455.545.591.232.133.502.2.81.2.2 0 .38-.028.542-.084a1.16 1.16 0 00.423-.258 1.18 1.18 0 00.274-.433l.735.207a1.633 1.633 0 01-.39.658 1.913 1.913 0 01-.678.439 2.518 2.518 0 01-.906.154zm5.235-5.058v.645h-2.671v-.645h2.67zm-1.871 4.955v-5.639c0-.284.066-.52.2-.71.133-.189.306-.331.52-.426.212-.094.437-.142.673-.142.188 0 .34.016.459.046.118.03.206.058.264.083l-.22.659a4.532 4.532 0 00-.16-.049.993.993 0 00-.265-.029c-.252 0-.434.064-.545.191-.11.126-.165.312-.165.558v5.458h-.761zm2.756 0v-4.955h.761v4.955h-.76zm.387-5.781a.542.542 0 01-.384-.152.486.486 0 01-.158-.364.49.49 0 01.158-.365.541.541 0 01.384-.151.53.53 0 01.381.151.483.483 0 01.161.365.481.481 0 01-.161.364.531.531 0 01-.38.152zm2.349 2.8v2.981h-.762v-4.955h.736v.774h.064c.117-.251.293-.454.53-.606.236-.155.541-.233.916-.233a1.8 1.8 0 01.88.207c.252.135.448.342.588.619.14.276.21.624.21 1.046v3.148h-.762v-3.097c0-.389-.101-.692-.303-.91-.203-.219-.48-.329-.833-.329-.243 0-.46.053-.651.158-.19.106-.34.26-.449.462-.11.202-.164.447-.164.735zm4.37 2.981v-4.955h.762v4.955h-.761zm.04-5.626l.787-1.497h.89l-1.006 1.497h-.671zm3.948 5.729c-.465 0-.865-.109-1.2-.329a2.14 2.14 0 01-.774-.906 3.072 3.072 0 01-.271-1.32c0-.503.092-.947.277-1.332a2.2 2.2 0 01.78-.907 2.1 2.1 0 011.175-.329c.349 0 .663.065.942.194.28.129.509.31.687.542.179.232.29.503.333.813h-.762a1.179 1.179 0 00-.387-.6c-.198-.176-.464-.265-.8-.265-.297 0-.557.078-.78.233a1.506 1.506 0 00-.52.648 2.404 2.404 0 00-.184.978c0 .382.06.716.18 1 .123.284.295.504.517.661.224.157.486.236.787.236.198 0 .377-.035.539-.104a1.103 1.103 0 00.648-.761h.762a1.761 1.761 0 01-.988 1.345 2.145 2.145 0 01-.96.203zm2.88-.103v-4.955h.761v4.955h-.761zm.387-5.781a.542.542 0 01-.384-.152.486.486 0 01-.158-.364.49.49 0 01.158-.365.541.541 0 01.384-.151.53.53 0 01.38.151.483.483 0 01.162.365.481.481 0 01-.161.364.531.531 0 01-.38.152zm3.045 5.897c-.314 0-.599-.059-.855-.177a1.476 1.476 0 01-.61-.519 1.467 1.467 0 01-.225-.826c0-.284.056-.514.168-.691.111-.178.26-.318.448-.419a2.38 2.38 0 01.62-.226 7.6 7.6 0 01.687-.123c.3-.038.545-.067.732-.087.19-.021.327-.057.413-.106.088-.05.132-.136.132-.258v-.026c0-.318-.087-.566-.261-.742-.172-.176-.434-.265-.784-.265-.364 0-.649.08-.855.239a1.409 1.409 0 00-.436.51l-.722-.258a1.73 1.73 0 01.516-.703c.217-.17.454-.289.71-.355a2.94 2.94 0 01.761-.104c.16 0 .342.02.548.058.21.037.41.113.604.23.195.116.358.291.487.525.129.235.194.549.194.942v3.265h-.762v-.671h-.039a1.32 1.32 0 01-.258.345c-.12.123-.28.227-.48.313-.2.086-.445.129-.733.129zm.116-.684c.302 0 .555-.059.762-.177a1.207 1.207 0 00.632-1.048v-.697c-.032.038-.103.074-.213.106-.107.03-.232.057-.374.081a18.636 18.636 0 01-.73.097 2.852 2.852 0 00-.554.125.958.958 0 00-.413.255c-.103.112-.155.265-.155.458 0 .265.098.465.294.6.198.134.448.2.751.2zm7.75.671c-.465 0-.865-.109-1.2-.329a2.141 2.141 0 01-.774-.906 3.074 3.074 0 01-.271-1.32c0-.503.092-.947.277-1.332a2.2 2.2 0 01.78-.907 2.1 2.1 0 011.175-.329c.348 0 .662.065.942.194.28.129.509.31.687.542.179.232.29.503.332.813h-.76a1.18 1.18 0 00-.388-.6c-.198-.176-.465-.265-.8-.265-.297 0-.557.078-.78.233a1.505 1.505 0 00-.52.648 2.404 2.404 0 00-.184.978c0 .382.06.716.18 1 .123.284.295.504.517.661.223.157.486.236.787.236.198 0 .377-.035.539-.104a1.104 1.104 0 00.648-.761h.761a1.764 1.764 0 01-.987 1.345 2.145 2.145 0 01-.961.203zm2.88-.103v-4.955h.761v4.955h-.761zm.387-5.781a.542.542 0 01-.384-.152.486.486 0 01-.158-.364.49.49 0 01.158-.365.541.541 0 01.384-.151.53.53 0 01.38.151.483.483 0 01.162.365.481.481 0 01-.161.364.531.531 0 01-.381.152zm3.665 5.884c-.478 0-.89-.105-1.236-.316a2.119 2.119 0 01-.797-.89c-.185-.383-.277-.828-.277-1.336 0-.507.092-.955.277-1.342.187-.389.447-.692.781-.91a2.099 2.099 0 011.174-.329c.258 0 .513.043.765.129.251.086.48.226.687.42a2 2 0 01.493.761c.123.316.184.706.184 1.168v.323h-3.82v-.658h3.046c0-.28-.056-.53-.168-.749a1.257 1.257 0 00-.471-.519 1.318 1.318 0 00-.716-.191 1.37 1.37 0 00-.787.226 1.494 1.494 0 00-.507.581 1.71 1.71 0 00-.177.768v.438c0 .375.065.692.194.952.131.258.313.455.545.591.232.133.502.2.81.2.2 0 .38-.028.542-.084.163-.058.304-.144.422-.258a1.18 1.18 0 00.274-.433l.736.207a1.647 1.647 0 01-.39.658 1.916 1.916 0 01-.678.439 2.517 2.517 0 01-.906.154zm3.789-6.71v6.607h-.761V163h.761zm.633 1.362v-1.672h.78l-.226 1.672h-.554zm3.205 5.348c-.447 0-.84-.106-1.177-.319a2.165 2.165 0 01-.787-.894c-.188-.382-.281-.83-.281-1.342 0-.516.093-.966.281-1.351a2.16 2.16 0 01.787-.897c.337-.213.73-.32 1.177-.32.448 0 .839.107 1.175.32.337.213.6.512.787.897.189.385.284.835.284 1.351 0 .512-.095.96-.284 1.342-.187.383-.45.681-.787.894a2.145 2.145 0 01-1.175.319zm0-.683c.34 0 .62-.088.839-.262.219-.174.382-.403.487-.687.106-.284.158-.591.158-.923 0-.331-.052-.639-.158-.926a1.557 1.557 0 00-.487-.693c-.219-.176-.499-.265-.839-.265-.34 0-.619.089-.839.265a1.564 1.564 0 00-.487.693 2.672 2.672 0 00-.158.926c0 .332.053.639.158.923.106.284.268.513.487.687.22.174.499.262.839.262zm7.101-4.375l-1.833 4.955h-.774l-1.832-4.955h.825l1.368 3.949h.052l1.368-3.949h.826z" fill="#717580"/><mask id="a" fill="#fff"><path d="M175.647 146.499c0-5.789 4.693-10.482 10.483-10.482h29.807c5.789 0 10.482 4.693 10.482 10.482s-4.693 10.482-10.482 10.482H186.13c-5.79 0-10.483-4.693-10.483-10.482z"/></mask><path d="M175.647 146.499c0-5.789 4.693-10.482 10.483-10.482h29.807c5.789 0 10.482 4.693 10.482 10.482s-4.693 10.482-10.482 10.482H186.13c-5.79 0-10.483-4.693-10.483-10.482z" fill="#fff"/><path d="M186.13 136.017v.559h29.807v-1.118H186.13v.559zm29.807 20.964v-.559H186.13v1.118h29.807v-.559zm-29.807 0v-.559c-5.481 0-9.924-4.443-9.924-9.923h-1.118c0 6.098 4.944 11.041 11.042 11.041v-.559zm40.289-10.482h-.559c0 5.48-4.443 9.923-9.923 9.923v1.118c6.098 0 11.041-4.943 11.041-11.041h-.559zm-10.482-10.482v.559c5.48 0 9.923 4.442 9.923 9.923h1.118c0-6.098-4.943-11.041-11.041-11.041v.559zm-29.807 0v-.559c-6.098 0-11.042 4.943-11.042 11.041h1.118c0-5.481 4.443-9.923 9.924-9.923v-.559z" fill="#E4E4E4" mask="url(#a)"/><path d="M184.978 146.589l.63-.642 1.632 1.61 3.455-3.442.639.642-4.094 4.077-2.262-2.245zm12.327 2.91h-2.139v-6.607h2.206c.648 0 1.204.132 1.668.397.465.262.821.64 1.068 1.132.25.49.374 1.079.374 1.765 0 .688-.125 1.279-.377 1.774-.25.495-.611.875-1.084 1.142-.473.265-1.045.397-1.716.397zm-1.142-.871h1.087c.503 0 .921-.095 1.255-.284.333-.191.583-.468.748-.829.166-.364.249-.807.249-1.329 0-.519-.083-.958-.249-1.32a1.75 1.75 0 00-.732-.822c-.325-.187-.728-.281-1.21-.281h-1.148v4.865zm7.569.971c-.465 0-.87-.106-1.216-.319a2.148 2.148 0 01-.807-.894c-.191-.383-.287-.83-.287-1.342 0-.514.096-.964.287-1.349.191-.385.46-.684.807-.896.346-.213.751-.32 1.216-.32.464 0 .87.107 1.216.32.346.212.615.511.807.896.191.385.287.835.287 1.349 0 .512-.096.959-.287 1.342a2.16 2.16 0 01-.807.894c-.346.213-.752.319-1.216.319zm.003-.81c.301 0 .551-.079.749-.238.197-.16.344-.371.438-.636.097-.265.145-.556.145-.874a2.51 2.51 0 00-.145-.871 1.416 1.416 0 00-.438-.642c-.198-.162-.448-.242-.749-.242-.303 0-.555.08-.755.242a1.439 1.439 0 00-.442.642 2.583 2.583 0 00-.142.871c0 .318.048.609.142.874.097.265.244.476.442.636.2.159.452.238.755.238zm4.348-2.232v2.942h-.965v-4.955h.926v.806h.062c.114-.262.292-.473.535-.632.245-.159.554-.239.926-.239.338 0 .633.071.887.213.254.14.451.349.591.626.139.277.209.62.209 1.029v3.152h-.964v-3.036c0-.359-.094-.64-.281-.842-.187-.204-.444-.306-.771-.306-.224 0-.423.048-.597.145a1.053 1.053 0 00-.41.426 1.415 1.415 0 00-.148.671zm6.601 3.042c-.489 0-.909-.104-1.262-.313a2.13 2.13 0 01-.813-.887c-.189-.383-.284-.831-.284-1.345 0-.508.095-.955.284-1.342.192-.388.458-.69.8-.907.344-.217.747-.326 1.207-.326.28 0 .551.046.813.139.262.092.498.238.706.435.209.198.374.455.494.771.12.314.181.696.181 1.146v.342h-3.939v-.723h2.993c0-.254-.051-.479-.154-.674a1.178 1.178 0 00-1.088-.639 1.26 1.26 0 00-.709.2c-.2.131-.355.303-.465.516-.107.211-.161.44-.161.687v.565c0 .331.058.613.174.845.118.232.283.41.494.532.21.121.457.181.738.181.183 0 .35-.026.5-.077a1.09 1.09 0 00.391-.239c.109-.105.193-.236.251-.39l.913.164a1.653 1.653 0 01-.393.707c-.187.2-.423.356-.707.467-.281.11-.603.165-.964.165z" fill="#0A9428"/><path d="M17.47 192.645a6.988 6.988 0 016.989-6.988h206.153a6.987 6.987 0 016.988 6.988v34.941a6.987 6.987 0 01-6.988 6.988H24.459a6.988 6.988 0 01-6.988-6.988v-34.941z" fill="#F8F8F8"/><path d="M24.459 185.657v.279h206.153v-.559H24.459v.28zm213.141 6.988h-.279v34.941h.559v-34.941h-.28zm-6.988 41.929v-.279H24.459v.559h206.153v-.28zm-213.141-6.988h.28v-34.941h-.56v34.941h.28zm6.988 6.988v-.279a6.709 6.709 0 01-6.709-6.709h-.559a7.268 7.268 0 007.268 7.268v-.28zm213.141-6.988h-.279a6.71 6.71 0 01-6.709 6.709v.559a7.268 7.268 0 007.268-7.268h-.28zm-6.988-41.929v.279a6.71 6.71 0 016.709 6.709h.559a7.268 7.268 0 00-7.268-7.268v.28zm-206.153 0v-.28a7.268 7.268 0 00-7.268 7.268h.56a6.71 6.71 0 016.708-6.709v-.279z" fill="#E4E4E4"/><path d="M40.048 204.793c-.412 0-.619 0-.807-.07l-.078-.032c-.182-.084-.328-.229-.62-.521-.672-.672-1.008-1.008-1.421-1.04a1.565 1.565 0 00-.168 0c-.413.032-.75.368-1.422 1.04-.292.292-.438.438-.62.521l-.077.032c-.189.07-.395.07-.808.07h-.077c-1.053 0-1.58 0-1.908.327-.327.327-.327.855-.327 1.908v.077c0 .412 0 .619-.07.807a.908.908 0 01-.032.078c-.083.182-.229.328-.52.62-.673.673-1.01 1.009-1.04 1.422a1.41 1.41 0 000 .167c.03.413.367.75 1.04 1.422.291.292.437.438.52.62.012.025.023.051.033.077.07.189.07.395.07.808v.077c0 1.053 0 1.58.326 1.908.328.327.855.327 1.908.327h.077c.413 0 .62 0 .807.07a.71.71 0 01.078.032c.182.084.328.229.62.521.673.672 1.009 1.009 1.422 1.04.056.004.112.004.168 0 .413-.031.749-.368 1.421-1.04.292-.292.438-.437.62-.521a.743.743 0 01.077-.032c.19-.07.395-.07.808-.07h.077c1.053 0 1.58 0 1.908-.327.328-.327.327-.855.327-1.908v-.077c0-.412 0-.619.07-.807a.943.943 0 01.032-.078c.084-.182.23-.328.521-.62.673-.672 1.009-1.009 1.04-1.422a1.108 1.108 0 000-.167c-.031-.413-.367-.749-1.04-1.422-.292-.292-.437-.438-.521-.62l-.032-.077c-.07-.189-.07-.395-.07-.808v-.077c0-1.053 0-1.58-.327-1.908-.327-.327-.855-.327-1.908-.327h-.077z" stroke="#0A9428" stroke-width="1.048"/><path d="M34.592 213.26a2.818 2.818 0 012.446-1.411c1.045 0 1.957.567 2.446 1.411m-1.049-4.542a1.396 1.396 0 01-2.386.988 1.396 1.396 0 111.977-1.976c.262.262.41.617.41.988z" stroke="#0A9428" stroke-width="1.048" stroke-linecap="round"/><path d="M62.198 199.172v9.148H60.93l-4.65-6.709h-.085v6.709h-1.38v-9.148h1.277l4.655 6.718h.084v-6.718h1.367zm3.205 9.3c-.435 0-.828-.08-1.18-.241a1.993 1.993 0 01-.835-.71c-.203-.31-.304-.69-.304-1.139 0-.388.075-.706.223-.956.15-.251.35-.449.603-.594.254-.146.537-.257.85-.331.312-.074.63-.131.955-.17l1-.116c.257-.033.443-.085.56-.156.115-.072.173-.188.173-.349v-.031c0-.39-.11-.692-.33-.907-.218-.214-.542-.321-.974-.321-.45 0-.804.099-1.063.299-.256.197-.433.415-.532.657l-1.255-.286c.149-.417.366-.754.652-1.01.29-.259.621-.446.996-.563.376-.119.77-.178 1.184-.178.274 0 .564.032.871.098.31.062.599.179.867.348.27.17.493.413.665.728.173.313.26.72.26 1.22v4.556h-1.305v-.938h-.053a1.885 1.885 0 01-.39.509 2.06 2.06 0 01-.665.416c-.27.11-.595.165-.974.165zm.29-1.072c.37 0 .685-.073.947-.219.265-.146.466-.336.603-.572.14-.238.21-.492.21-.763v-.885c-.048.048-.14.092-.277.134a4.288 4.288 0 01-.46.103l-.505.076-.41.053a3.28 3.28 0 00-.711.166 1.214 1.214 0 00-.51.335c-.124.143-.187.333-.187.571 0 .331.122.581.366.751.244.167.556.25.934.25zm9.317-4.266l-1.21.215a1.435 1.435 0 00-.242-.443 1.2 1.2 0 00-.438-.344 1.59 1.59 0 00-.692-.134c-.378 0-.694.085-.947.255-.253.167-.38.383-.38.648 0 .229.085.414.255.554.17.14.444.254.822.344l1.09.25c.631.146 1.102.37 1.411.674.31.304.465.698.465 1.184a1.8 1.8 0 01-.357 1.099c-.236.318-.565.569-.988.75-.42.182-.906.273-1.46.273-.769 0-1.395-.164-1.88-.492-.486-.33-.784-.799-.894-1.407l1.29-.196c.081.336.246.591.497.764.25.169.576.254.978.254.438 0 .788-.091 1.05-.272.262-.185.393-.41.393-.675a.7.7 0 00-.242-.54c-.157-.146-.4-.256-.728-.331l-1.161-.254c-.64-.146-1.114-.379-1.42-.697-.304-.319-.456-.722-.456-1.211 0-.405.113-.759.34-1.063.226-.304.538-.54.937-.71.4-.173.856-.259 1.372-.259.741 0 1.325.16 1.75.482.427.319.708.746.845 1.282zm4.106-1.675v1.072H75.37v-1.072h3.747zm-2.742-1.644h1.335v6.491c0 .259.04.454.117.585a.602.602 0 00.299.263c.125.045.26.067.406.067.107 0 .201-.007.282-.022l.187-.036.242 1.104a2.385 2.385 0 01-.331.089 2.597 2.597 0 01-.536.054 2.351 2.351 0 01-.983-.188 1.686 1.686 0 01-.737-.608c-.188-.274-.281-.617-.281-1.031v-6.768zm5.518 8.657c-.435 0-.828-.08-1.18-.241a1.992 1.992 0 01-.835-.71c-.202-.31-.304-.69-.304-1.139 0-.388.075-.706.224-.956.149-.251.35-.449.603-.594a3.13 3.13 0 01.849-.331c.312-.074.63-.131.955-.17l1.001-.116c.256-.033.442-.085.558-.156.116-.072.175-.188.175-.349v-.031c0-.39-.11-.692-.331-.907-.217-.214-.542-.321-.974-.321-.45 0-.804.099-1.063.299-.256.197-.433.415-.531.657l-1.256-.286c.15-.417.367-.754.653-1.01.288-.259.62-.446.996-.563a3.89 3.89 0 011.183-.178c.274 0 .565.032.871.098.31.062.599.179.867.348.271.17.493.413.666.728.172.313.259.72.259 1.22v4.556h-1.305v-.938h-.053a1.883 1.883 0 01-.389.509 2.058 2.058 0 01-.666.416c-.27.11-.595.165-.973.165zm.29-1.072c.37 0 .685-.073.947-.219.265-.146.466-.336.603-.572.14-.238.21-.492.21-.763v-.885c-.048.048-.14.092-.277.134a4.288 4.288 0 01-.46.103 53.38 53.38 0 01-.505.076l-.41.053a3.29 3.29 0 00-.71.166 1.215 1.215 0 00-.51.335c-.125.143-.188.333-.188.571 0 .331.122.581.367.751.244.167.555.25.933.25zm9.8-5.941l-2.488 6.861h-1.43l-2.492-6.861h1.433l1.738 5.28h.072l1.733-5.28h1.434zm3.28 7c-.676 0-1.258-.145-1.747-.434a2.933 2.933 0 01-1.126-1.228c-.262-.53-.393-1.151-.393-1.863 0-.703.131-1.322.394-1.858a3.053 3.053 0 011.107-1.255c.477-.301 1.034-.451 1.67-.451.388 0 .763.064 1.127.192.363.128.689.329.978.603.289.274.516.63.683 1.067.167.435.25.964.25 1.586v.474h-5.454v-1.001h4.146c0-.351-.072-.663-.215-.934a1.62 1.62 0 00-.603-.647 1.684 1.684 0 00-.902-.237c-.375 0-.703.092-.983.277a1.86 1.86 0 00-.643.715 2.063 2.063 0 00-.223.951v.782c0 .458.08.849.24 1.17.165.322.392.567.684.737.292.167.633.25 1.023.25.253 0 .484-.035.692-.107a1.434 1.434 0 00.889-.871l1.265.228a2.291 2.291 0 01-.545.978c-.26.277-.586.493-.979.648-.39.152-.835.228-1.335.228zm5.062-4.213v4.074h-1.335v-6.861h1.282v1.117h.084c.158-.364.405-.655.742-.876.339-.22.767-.33 1.282-.33.467 0 .877.098 1.228.295.352.193.624.482.818.866.193.384.29.859.29 1.425v4.364h-1.336v-4.203c0-.497-.129-.886-.388-1.166-.259-.283-.615-.424-1.068-.424-.309 0-.585.067-.826.201-.238.134-.427.33-.567.589-.137.256-.206.566-.206.929zm5.484 4.074v-6.861h1.335v6.861h-1.335zm.674-7.92a.85.85 0 01-.599-.232.757.757 0 01-.245-.563.75.75 0 01.245-.563.845.845 0 01.599-.236c.232 0 .43.079.594.236a.74.74 0 01.25.563.748.748 0 01-.25.563.833.833 0 01-.594.232zm4.716 8.059c-.676 0-1.258-.145-1.746-.434a2.93 2.93 0 01-1.126-1.228c-.262-.53-.393-1.151-.393-1.863 0-.703.131-1.322.393-1.858a3.05 3.05 0 011.108-1.255c.476-.301 1.033-.451 1.67-.451.388 0 .763.064 1.126.192.363.128.689.329.978.603.289.274.517.63.684 1.067.167.435.25.964.25 1.586v.474h-5.454v-1.001h4.145c0-.351-.071-.663-.214-.934a1.621 1.621 0 00-.603-.647 1.684 1.684 0 00-.903-.237 1.74 1.74 0 00-.982.277c-.277.182-.492.42-.644.715a2.062 2.062 0 00-.223.951v.782c0 .458.08.849.241 1.17.164.322.392.567.684.737.292.167.632.25 1.023.25.253 0 .484-.035.692-.107a1.44 1.44 0 00.889-.871l1.264.228a2.288 2.288 0 01-.545.978 2.642 2.642 0 01-.978.648c-.39.152-.836.228-1.336.228z" fill="#242A36"/><path d="M54.61 226.911v-6.607h.8v3.277h.077l2.968-3.277H59.5l-2.774 2.981 2.774 3.626h-.968l-2.296-3.071-.826.929v2.142h-.8zm7.1.116c-.315 0-.6-.059-.856-.177a1.471 1.471 0 01-.61-.52 1.465 1.465 0 01-.225-.826c0-.284.056-.514.168-.69.111-.179.26-.318.448-.42.187-.101.394-.176.62-.225.227-.052.456-.093.686-.123.302-.039.546-.068.733-.087.19-.022.327-.057.413-.107.088-.049.132-.135.132-.258v-.025c0-.319-.087-.566-.261-.742-.172-.177-.434-.265-.784-.265-.364 0-.649.08-.855.239a1.415 1.415 0 00-.436.509l-.722-.258c.129-.301.3-.535.516-.703.217-.17.454-.288.71-.355a2.93 2.93 0 01.76-.103c.16 0 .343.019.55.058.208.037.41.113.603.229.195.116.358.292.487.526.129.234.193.548.193.942v3.265h-.761v-.671h-.039a1.357 1.357 0 01-.258.345c-.12.123-.28.227-.48.313-.2.086-.445.129-.733.129zm.115-.684c.301 0 .555-.059.762-.177a1.209 1.209 0 00.632-1.049v-.697c-.032.039-.103.074-.213.107-.108.03-.232.057-.374.08a14.03 14.03 0 01-.73.097 2.928 2.928 0 00-.554.126.957.957 0 00-.413.255c-.103.112-.155.264-.155.458 0 .264.098.465.294.6.198.133.448.2.751.2zm3.363.568v-4.955h.736v.774h.064c.104-.265.27-.47.5-.616.23-.149.507-.223.83-.223.326 0 .599.074.816.223.22.146.39.351.513.616h.051c.127-.256.318-.459.571-.61.254-.153.558-.229.913-.229.443 0 .806.139 1.087.416.282.275.423.705.423 1.287v3.317h-.761v-3.317c0-.365-.1-.627-.3-.784a1.11 1.11 0 00-.707-.235c-.348 0-.618.105-.81.316-.19.209-.287.473-.287.794v3.226h-.774v-3.394c0-.282-.091-.509-.274-.681-.183-.174-.418-.261-.707-.261-.198 0-.383.053-.555.158-.17.105-.307.252-.412.439a1.296 1.296 0 00-.155.642v3.097h-.762zm7.715 1.858v-6.813h.735v.787h.09c.056-.086.134-.196.233-.329.1-.136.245-.256.432-.362.19-.107.445-.161.768-.161.417 0 .785.104 1.103.313.318.209.567.504.745.887.179.383.268.835.268 1.355 0 .525-.09.98-.268 1.365a2.112 2.112 0 01-.742.89c-.316.209-.68.313-1.093.313-.319 0-.574-.053-.765-.158a1.419 1.419 0 01-.442-.365 4.593 4.593 0 01-.239-.342h-.064v2.62h-.761zm.748-4.336c0 .374.055.705.165.991.11.283.27.506.48.667.211.16.47.239.774.239.319 0 .584-.084.797-.252a1.53 1.53 0 00.484-.683 2.69 2.69 0 00.165-.962 2.6 2.6 0 00-.162-.942 1.458 1.458 0 00-.48-.668c-.213-.165-.48-.248-.803-.248-.31 0-.57.078-.781.235a1.42 1.42 0 00-.478.652 2.679 2.679 0 00-.161.971zm6.064 2.594c-.314 0-.599-.059-.855-.177a1.471 1.471 0 01-.61-.52 1.464 1.464 0 01-.225-.826c0-.284.055-.514.167-.69.112-.179.262-.318.449-.42a2.33 2.33 0 01.62-.225 7.38 7.38 0 01.686-.123c.301-.039.546-.068.733-.087.189-.022.326-.057.413-.107.088-.049.132-.135.132-.258v-.025c0-.319-.087-.566-.261-.742-.172-.177-.434-.265-.784-.265-.364 0-.649.08-.855.239a1.414 1.414 0 00-.436.509l-.722-.258c.129-.301.3-.535.516-.703a1.93 1.93 0 01.71-.355c.257-.069.511-.103.76-.103.16 0 .343.019.55.058.208.037.409.113.602.229.196.116.359.292.488.526.129.234.193.548.193.942v3.265h-.761v-.671h-.039a1.354 1.354 0 01-.258.345 1.48 1.48 0 01-.48.313c-.2.086-.445.129-.733.129zm.116-.684c.301 0 .555-.059.761-.177a1.209 1.209 0 00.633-1.049v-.697c-.032.039-.103.074-.213.107-.108.03-.232.057-.374.08a14.127 14.127 0 01-.73.097 2.929 2.929 0 00-.554.126.957.957 0 00-.413.255c-.103.112-.155.264-.155.458 0 .264.098.465.293.6.198.133.449.2.752.2zm4.124-2.413v2.981h-.76v-4.955h.735v.774h.064c.116-.252.293-.454.53-.607.236-.155.541-.232.915-.232.336 0 .63.069.881.206.252.136.448.342.587.62.14.275.21.624.21 1.045v3.149h-.761v-3.097c0-.39-.101-.693-.303-.91-.203-.219-.48-.329-.833-.329-.243 0-.46.053-.651.158-.19.105-.34.259-.449.461a1.53 1.53 0 00-.165.736zm6.45 3.084c-.478 0-.89-.105-1.236-.316a2.122 2.122 0 01-.797-.891c-.185-.382-.278-.828-.278-1.335 0-.508.093-.955.278-1.342a2.19 2.19 0 01.78-.91 2.1 2.1 0 011.175-.329c.258 0 .513.043.764.129a1.9 1.9 0 01.688.419c.206.192.37.446.493.762s.184.705.184 1.168v.322h-3.82v-.658h3.046c0-.279-.056-.529-.168-.748a1.262 1.262 0 00-.471-.52 1.318 1.318 0 00-.716-.19c-.303 0-.566.075-.787.226a1.48 1.48 0 00-.507.58 1.708 1.708 0 00-.177.768v.439c0 .374.064.691.193.952.131.258.313.455.545.59.233.133.503.2.81.2.2 0 .381-.028.542-.084a1.16 1.16 0 00.423-.258c.118-.116.21-.26.274-.432l.736.206a1.64 1.64 0 01-.39.658 1.886 1.886 0 01-.678.439 2.517 2.517 0 01-.907.155zm7.272-.013c-.434 0-.809-.079-1.123-.239a1.762 1.762 0 01-.725-.654 1.788 1.788 0 01-.255-.952c0-.275.058-.52.174-.733a2.23 2.23 0 01.487-.596c.209-.185.448-.37.72-.555l.954-.71c.188-.123.337-.254.449-.394.114-.139.17-.322.17-.548 0-.168-.073-.33-.222-.487a.753.753 0 00-.577-.236.784.784 0 00-.445.129.92.92 0 00-.3.323.818.818 0 00-.107.4c0 .155.042.312.126.471.086.157.195.318.326.484.133.163.27.331.413.503l3.032 3.704h-.916l-2.504-3.02-.632-.761a3.632 3.632 0 01-.451-.674 1.578 1.578 0 01-.168-.72c0-.297.065-.557.197-.781a1.37 1.37 0 01.558-.525c.24-.127.522-.191.845-.191.331 0 .616.065.855.194.238.127.422.296.551.506.13.209.194.436.194.681 0 .316-.078.59-.236.823a2.693 2.693 0 01-.641.648l-1.317.981c-.296.219-.498.432-.603.639-.105.206-.158.354-.158.445 0 .206.054.399.161.577.108.179.26.323.455.433.196.109.425.164.687.164.25 0 .493-.053.73-.158.236-.108.45-.262.641-.465.194-.202.347-.445.459-.729.114-.284.17-.603.17-.958h.736c0 .439-.051.797-.152 1.075a2.29 2.29 0 01-.342.651 4.86 4.86 0 01-.306.352c-.026.032-.05.064-.071.097a1.375 1.375 0 01-.071.096 1.951 1.951 0 01-.806.536 2.846 2.846 0 01-.962.174zm6.506-.09h-.839l2.426-6.607h.826l2.426 6.607h-.839l-1.974-5.562h-.052l-1.974 5.562zm.31-2.581h3.381v.71h-3.381v-.71zm6.035-.4v2.981h-.762v-4.955h.736v.774h.064c.116-.252.293-.454.529-.607.237-.155.542-.232.917-.232.335 0 .629.069.88.206.252.136.448.342.587.62.14.275.21.624.21 1.045v3.149h-.761v-3.097c0-.39-.101-.693-.303-.91-.203-.219-.48-.329-.833-.329-.243 0-.46.053-.651.158-.19.105-.339.259-.449.461-.11.203-.164.448-.164.736zm5.829 3.097c-.314 0-.599-.059-.855-.177a1.474 1.474 0 01-.61-.52 1.469 1.469 0 01-.226-.826c0-.284.056-.514.168-.69.112-.179.262-.318.449-.42.187-.101.393-.176.619-.225.228-.052.457-.093.687-.123.301-.039.545-.068.733-.087.189-.022.326-.057.412-.107.089-.049.133-.135.133-.258v-.025c0-.319-.087-.566-.262-.742-.172-.177-.433-.265-.783-.265-.364 0-.649.08-.855.239a1.411 1.411 0 00-.436.509l-.723-.258c.129-.301.302-.535.517-.703.217-.17.453-.288.709-.355a2.94 2.94 0 01.762-.103c.159 0 .342.019.548.058.209.037.41.113.603.229.196.116.359.292.488.526.129.234.193.548.193.942v3.265h-.761v-.671h-.039a1.375 1.375 0 01-.258.345 1.48 1.48 0 01-.481.313c-.2.086-.444.129-.732.129zm.116-.684c.301 0 .555-.059.761-.177.209-.119.366-.271.471-.459a1.16 1.16 0 00.162-.59v-.697c-.032.039-.103.074-.213.107-.108.03-.232.057-.374.08a14.394 14.394 0 01-.729.097 2.926 2.926 0 00-.555.126.955.955 0 00-.413.255c-.104.112-.155.264-.155.458 0 .264.098.465.293.6.198.133.449.2.752.2zm4.124-6.039v6.607h-.761v-6.607h.761zm1.704 8.465c-.129 0-.245-.011-.346-.032a.947.947 0 01-.209-.058l.193-.671c.185.047.349.064.491.051a.587.587 0 00.377-.19c.112-.112.214-.294.307-.545l.142-.387-1.833-4.981h.826l1.368 3.948h.051l1.368-3.948h.826l-2.103 5.677a2.157 2.157 0 01-.352.636c-.14.17-.302.296-.487.377a1.497 1.497 0 01-.619.123zm6.539-6.813v.645h-2.567v-.645h2.567zm-1.819-1.188h.761v4.723c0 .215.032.377.094.484a.477.477 0 00.245.213.97.97 0 00.319.052c.084 0 .153-.005.207-.013l.129-.026.155.684a1.582 1.582 0 01-.216.058 1.57 1.57 0 01-.352.032c-.215 0-.426-.046-.632-.138a1.256 1.256 0 01-.51-.423c-.133-.189-.2-.428-.2-.716v-4.93zm2.783 6.143v-4.955h.761v4.955h-.761zm.387-5.781a.544.544 0 01-.384-.152.49.49 0 01-.158-.365c0-.141.053-.263.158-.364a.544.544 0 01.384-.152.53.53 0 01.381.152.484.484 0 01.161.364.485.485 0 01-.161.365.53.53 0 01-.381.152zm3.6 5.884c-.464 0-.864-.11-1.2-.329a2.149 2.149 0 01-.774-.907 3.063 3.063 0 01-.271-1.319c0-.503.092-.947.277-1.332.188-.388.448-.69.781-.907a2.101 2.101 0 011.174-.329c.349 0 .663.065.942.194a1.8 1.8 0 01.688.542c.178.232.289.503.332.813h-.761a1.193 1.193 0 00-.388-.601c-.197-.176-.464-.264-.8-.264-.296 0-.557.077-.78.232a1.514 1.514 0 00-.52.649 2.409 2.409 0 00-.184.977c0 .383.061.716.181 1 .123.284.295.505.516.662.224.157.486.235.787.235.198 0 .378-.034.539-.103a1.12 1.12 0 00.41-.297c.112-.129.191-.284.239-.464h.761a1.767 1.767 0 01-.987 1.345 2.162 2.162 0 01-.962.203zm6.39-3.949l-.684.194a1.255 1.255 0 00-.19-.332.925.925 0 00-.336-.271 1.215 1.215 0 00-.545-.107c-.303 0-.556.07-.758.21-.2.137-.3.313-.3.526 0 .189.069.338.207.448.137.11.352.201.645.274l.735.181c.443.108.773.272.991.494.217.219.326.502.326.848 0 .284-.082.538-.246.761-.161.224-.387.4-.677.529-.29.13-.628.194-1.013.194-.506 0-.924-.11-1.255-.329-.331-.219-.541-.54-.629-.961l.722-.181c.069.267.199.467.391.6.193.133.446.2.758.2.355 0 .637-.075.845-.226.211-.153.316-.335.316-.548a.58.58 0 00-.18-.433c-.121-.118-.306-.206-.555-.264l-.826-.194c-.454-.107-.787-.274-1-.5a1.21 1.21 0 01-.316-.855c0-.279.078-.527.235-.742.159-.215.375-.384.649-.506.275-.123.587-.184.935-.184.491 0 .876.108 1.155.323.282.215.482.499.6.851z" fill="#717580"/><mask id="b" fill="#fff"><path d="M175.647 203.803c0-5.79 4.693-10.483 10.483-10.483h29.807c5.789 0 10.482 4.693 10.482 10.483 0 5.789-4.693 10.482-10.482 10.482H186.13c-5.79 0-10.483-4.693-10.483-10.482z"/></mask><path d="M175.647 203.803c0-5.79 4.693-10.483 10.483-10.483h29.807c5.789 0 10.482 4.693 10.482 10.483 0 5.789-4.693 10.482-10.482 10.482H186.13c-5.79 0-10.483-4.693-10.483-10.482z" fill="#fff"/><path d="M186.13 193.32v.559h29.807v-1.118H186.13v.559zm29.807 20.965v-.559H186.13v1.118h29.807v-.559zm-29.807 0v-.559c-5.481 0-9.924-4.443-9.924-9.923h-1.118c0 6.098 4.944 11.041 11.042 11.041v-.559zm40.289-10.482h-.559c0 5.48-4.443 9.923-9.923 9.923v1.118c6.098 0 11.041-4.943 11.041-11.041h-.559zm-10.482-10.483v.559c5.48 0 9.923 4.443 9.923 9.924h1.118c0-6.098-4.943-11.042-11.041-11.042v.559zm-29.807 0v-.559c-6.098 0-11.042 4.944-11.042 11.042h1.118c0-5.481 4.443-9.924 9.924-9.924v-.559z" fill="#E4E4E4" mask="url(#b)"/><path d="M184.978 203.893l.63-.642 1.632 1.609 3.455-3.442.639.642-4.094 4.078-2.262-2.245zm12.327 2.91h-2.139v-6.607h2.206c.648 0 1.204.132 1.668.396.465.263.821.64 1.068 1.133.25.49.374 1.078.374 1.764 0 .689-.125 1.28-.377 1.775-.25.494-.611.875-1.084 1.142-.473.264-1.045.397-1.716.397zm-1.142-.871h1.087c.503 0 .921-.095 1.255-.284.333-.192.583-.468.748-.829.166-.364.249-.807.249-1.33 0-.518-.083-.958-.249-1.319a1.753 1.753 0 00-.732-.823c-.325-.187-.728-.28-1.21-.28h-1.148v4.865zm7.569.971c-.465 0-.87-.107-1.216-.32a2.15 2.15 0 01-.807-.893c-.191-.383-.287-.831-.287-1.342 0-.515.096-.964.287-1.349.191-.385.46-.684.807-.897.346-.213.751-.319 1.216-.319.464 0 .87.106 1.216.319.346.213.615.512.807.897.191.385.287.834.287 1.349 0 .511-.096.959-.287 1.342-.192.382-.461.68-.807.893-.346.213-.752.32-1.216.32zm.003-.81c.301 0 .551-.08.749-.239a1.4 1.4 0 00.438-.635c.097-.265.145-.556.145-.875 0-.316-.048-.606-.145-.871a1.427 1.427 0 00-.438-.642c-.198-.161-.448-.242-.749-.242-.303 0-.555.081-.755.242a1.45 1.45 0 00-.442.642 2.587 2.587 0 00-.142.871c0 .319.048.61.142.875.097.264.244.476.442.635.2.159.452.239.755.239zm4.348-2.233v2.943h-.965v-4.956h.926v.807h.062c.114-.263.292-.473.535-.633.245-.159.554-.238.926-.238.338 0 .633.071.887.213.254.139.451.348.591.626.139.277.209.62.209 1.029v3.152h-.964v-3.036c0-.359-.094-.64-.281-.842-.187-.205-.444-.307-.771-.307-.224 0-.423.049-.597.145a1.053 1.053 0 00-.41.426 1.418 1.418 0 00-.148.671zm6.601 3.043c-.489 0-.909-.105-1.262-.313a2.132 2.132 0 01-.813-.888c-.189-.382-.284-.831-.284-1.345 0-.507.095-.955.284-1.342.192-.387.458-.689.8-.906.344-.218.747-.326 1.207-.326.28 0 .551.046.813.138.262.093.498.238.706.436.209.198.374.455.494.771.12.314.181.696.181 1.145v.342h-3.939v-.722h2.993a1.43 1.43 0 00-.154-.675 1.175 1.175 0 00-1.088-.638c-.271 0-.507.066-.709.2-.2.131-.355.303-.465.516-.107.211-.161.44-.161.687v.565c0 .331.058.612.174.845.118.232.283.409.494.532.21.121.457.181.738.181.183 0 .35-.026.5-.078.151-.053.281-.133.391-.238a1.05 1.05 0 00.251-.391l.913.165a1.65 1.65 0 01-.393.706 1.91 1.91 0 01-.707.468c-.281.11-.603.165-.964.165z" fill="#0A9428"/><path d="M17.47 249.948a6.988 6.988 0 016.989-6.988h206.153a6.988 6.988 0 016.988 6.988v34.942a6.988 6.988 0 01-6.988 6.988H24.459a6.988 6.988 0 01-6.988-6.988v-34.942z" fill="#F8F8F8"/><path d="M24.459 242.96v.28h206.153v-.559H24.459v.279zm213.141 6.988h-.279v34.942h.559v-34.942h-.28zm-6.988 41.93v-.28H24.459v.559h206.153v-.279zM17.471 284.89h.28v-34.942h-.56v34.942h.28zm6.988 6.988v-.28a6.708 6.708 0 01-6.709-6.708h-.559a7.267 7.267 0 007.268 7.267v-.279zM237.6 284.89h-.279a6.709 6.709 0 01-6.709 6.708v.559a7.267 7.267 0 007.268-7.267h-.28zm-6.988-41.93v.28a6.709 6.709 0 016.709 6.708h.559a7.268 7.268 0 00-7.268-7.267v.279zm-206.153 0v-.279a7.268 7.268 0 00-7.268 7.267h.56a6.708 6.708 0 016.708-6.708v-.28z" fill="#E4E4E4"/><path d="M31.67 272.787c-.922-.921-.922-2.403-.922-5.368 0-2.964 0-4.447.921-5.368.921-.921 2.404-.921 5.369-.921 2.964 0 4.447 0 5.368.921.921.921.921 2.404.921 5.368 0 2.965 0 4.447-.92 5.368-.922.922-2.405.922-5.37.922-2.964 0-4.447 0-5.368-.922z" stroke="#FFC721" stroke-width="1.048" stroke-linecap="round" stroke-linejoin="round"/><path d="M33.544 268.817l1.951-1.952a.7.7 0 01.989 0l1.108 1.108a.699.699 0 00.988 0l1.952-1.952" stroke="#FFC721" stroke-width="1.048" stroke-linecap="round" stroke-linejoin="round"/><path d="M62.761 261.05c0 .976-.178 1.816-.536 2.519-.357.7-.847 1.239-1.47 1.617-.619.375-1.323.563-2.112.563-.792 0-1.5-.188-2.122-.563-.62-.378-1.108-.919-1.465-1.621-.358-.703-.536-1.542-.536-2.515 0-.977.178-1.815.536-2.515.357-.703.846-1.242 1.465-1.617.622-.378 1.33-.568 2.122-.568.789 0 1.493.19 2.112.568.623.375 1.113.914 1.47 1.617.358.7.536 1.538.536 2.515zm-1.367 0c0-.745-.12-1.372-.361-1.881-.239-.512-.566-.899-.983-1.161a2.554 2.554 0 00-1.407-.398c-.527 0-.998.133-1.412.398-.414.262-.741.649-.983 1.161-.238.509-.357 1.136-.357 1.881 0 .744.12 1.373.357 1.885.242.509.57.896.983 1.161.414.262.885.393 1.412.393.524 0 .993-.131 1.407-.393.417-.265.744-.652.983-1.161.24-.512.361-1.141.361-1.885zm2.282 7.147v-9.434h1.304v1.112h.112c.078-.143.19-.308.335-.496a1.89 1.89 0 01.608-.491c.259-.143.601-.215 1.027-.215.554 0 1.048.14 1.483.42.435.28.776.684 1.023 1.211.25.527.375 1.161.375 1.903 0 .741-.123 1.377-.37 1.907-.248.527-.587.934-1.02 1.219a2.637 2.637 0 01-1.478.425c-.417 0-.758-.07-1.023-.21a1.933 1.933 0 01-.616-.492 3.675 3.675 0 01-.344-.5h-.08v3.641h-1.336zm1.309-6.004c0 .483.07.906.21 1.269.14.363.342.648.607.853.265.202.59.304.974.304.4 0 .733-.106 1-.317.269-.215.471-.505.608-.871.14-.367.21-.779.21-1.238a3.41 3.41 0 00-.205-1.219 1.86 1.86 0 00-.608-.853c-.268-.209-.603-.313-1.005-.313-.387 0-.715.1-.983.299-.265.2-.466.478-.603.835-.137.358-.205.775-.205 1.251zm8.959-3.43v1.072h-3.748v-1.072h3.748zm-2.743-1.644h1.335v6.49c0 .259.04.454.117.585a.61.61 0 00.299.264c.125.045.26.067.406.067.108 0 .201-.008.282-.022l.187-.036.242 1.103a2.677 2.677 0 01-.867.143 2.35 2.35 0 01-.983-.187 1.693 1.693 0 01-.737-.608c-.187-.274-.281-.618-.281-1.032v-6.767zm3.521 8.505v-6.861h1.336v6.861h-1.336zm.675-7.92a.848.848 0 01-.599-.232.756.756 0 01-.246-.563c0-.221.082-.408.246-.563a.84.84 0 01.599-.237c.232 0 .43.079.594.237a.74.74 0 01.25.563.75.75 0 01-.25.563.833.833 0 01-.594.232zm1.759 7.92v-6.861h1.282v1.116h.085a1.77 1.77 0 01.7-.884c.326-.215.714-.322 1.167-.322.458 0 .843.107 1.152.322.313.214.544.509.693.884h.071c.164-.366.424-.658.782-.875.357-.221.783-.331 1.277-.331.623 0 1.13.195 1.523.585.397.391.595.979.595 1.765v4.601h-1.336v-4.476c0-.465-.127-.801-.38-1.01a1.383 1.383 0 00-.906-.312c-.435 0-.773.134-1.014.402-.242.265-.362.606-.362 1.023v4.373h-1.331v-4.561c0-.372-.117-.671-.349-.898-.232-.226-.534-.339-.907-.339-.253 0-.486.067-.7.201a1.475 1.475 0 00-.515.549 1.683 1.683 0 00-.192.818v4.23h-1.335zm12.415.152c-.435 0-.828-.081-1.18-.242-.351-.163-.63-.4-.835-.71-.203-.309-.304-.689-.304-1.139 0-.387.075-.706.224-.956.148-.25.35-.448.603-.594a3.13 3.13 0 01.848-.33 8.38 8.38 0 01.956-.17l1-.116c.257-.033.443-.085.56-.157.115-.071.174-.187.174-.348v-.031c0-.39-.11-.693-.331-.907-.218-.215-.542-.322-.974-.322-.45 0-.804.1-1.063.3-.256.196-.433.415-.532.656l-1.255-.286a2.43 2.43 0 01.652-1.009c.29-.259.621-.447.996-.563.376-.119.77-.179 1.184-.179.274 0 .565.033.871.099.31.062.599.178.867.348.27.17.493.412.666.728.172.313.259.719.259 1.22v4.556h-1.305v-.938H91.6a1.916 1.916 0 01-.389.509 2.057 2.057 0 01-.666.415c-.27.111-.595.166-.973.166zm.29-1.072c.37 0 .685-.073.947-.219.265-.146.466-.337.603-.572.14-.238.21-.493.21-.764v-.884a.712.712 0 01-.277.134 4.303 4.303 0 01-.46.102 33.018 33.018 0 01-.916.13 3.345 3.345 0 00-.71.165 1.224 1.224 0 00-.51.335c-.124.143-.187.334-.187.572 0 .331.122.581.366.75.245.167.556.251.934.251zm5.511-8.228v9.148h-1.335v-9.148h1.335zm1.098 9.148v-6.861h1.336v6.861H96.47zm.675-7.92a.848.848 0 01-.599-.232.756.756 0 01-.246-.563c0-.221.082-.408.246-.563a.84.84 0 01.599-.237c.232 0 .43.079.594.237a.74.74 0 01.25.563.75.75 0 01-.25.563.833.833 0 01-.594.232zm1.616 7.92v-.916l3.716-4.721v-.063h-3.596v-1.161h5.263v.973l-3.574 4.664v.062h3.699v1.162h-5.508zm8.381.152c-.435 0-.828-.081-1.179-.242-.351-.163-.63-.4-.835-.71-.203-.309-.304-.689-.304-1.139 0-.387.074-.706.223-.956.149-.25.35-.448.603-.594.253-.146.536-.256.849-.33.313-.075.631-.131.956-.17l1.001-.116c.256-.033.442-.085.558-.157.116-.071.174-.187.174-.348v-.031c0-.39-.11-.693-.33-.907-.218-.215-.542-.322-.974-.322-.45 0-.804.1-1.063.3-.256.196-.434.415-.532.656l-1.255-.286a2.41 2.41 0 01.652-1.009c.289-.259.621-.447.996-.563.375-.119.77-.179 1.184-.179.274 0 .564.033.871.099.31.062.598.178.867.348.271.17.492.412.665.728.173.313.259.719.259 1.22v4.556h-1.304v-.938h-.054a1.919 1.919 0 01-.388.509 2.062 2.062 0 01-.666.415c-.271.111-.596.166-.974.166zm.291-1.072c.369 0 .685-.073.947-.219.265-.146.466-.337.603-.572.14-.238.21-.493.21-.764v-.884a.712.712 0 01-.277.134 4.34 4.34 0 01-.46.102 33.224 33.224 0 01-.916.13 3.345 3.345 0 00-.71.165 1.223 1.223 0 00-.51.335c-.125.143-.187.334-.187.572 0 .331.122.581.366.75.244.167.555.251.934.251zm-.05-6.857l1.046-2.059h1.407l-1.385 2.059h-1.068zm7.115 7.915c-.664 0-1.235-.15-1.715-.451a2.99 2.99 0 01-1.099-1.255c-.256-.533-.384-1.144-.384-1.832 0-.696.131-1.311.393-1.844a3.011 3.011 0 011.108-1.256c.476-.3 1.038-.451 1.684-.451.521 0 .986.097 1.394.291.408.19.737.458.987.804.253.345.403.749.451 1.21h-1.3a1.56 1.56 0 00-.491-.831c-.253-.232-.593-.348-1.019-.348-.372 0-.698.098-.978.295-.277.193-.493.47-.648.831-.154.357-.232.78-.232 1.268 0 .501.076.932.228 1.296.152.363.366.644.643.844.28.199.609.299.987.299.253 0 .483-.046.688-.138.209-.096.383-.231.523-.407.143-.176.243-.387.299-.634h1.3c-.048.444-.192.84-.433 1.188a2.502 2.502 0 01-.97.822c-.402.2-.874.299-1.416.299zm3.548-.138v-6.861h1.336v6.861h-1.336zm.675-7.92a.85.85 0 01-.599-.232.759.759 0 01-.245-.563c0-.221.082-.408.245-.563a.842.842 0 01.599-.237c.232 0 .43.079.594.237.167.155.25.342.25.563a.75.75 0 01-.25.563.833.833 0 01-.594.232zm3.756 8.072c-.435 0-.828-.081-1.179-.242a1.98 1.98 0 01-.836-.71c-.202-.309-.304-.689-.304-1.139 0-.387.075-.706.224-.956.149-.25.35-.448.603-.594.253-.146.536-.256.849-.33a8.36 8.36 0 01.955-.17l1.001-.116c.256-.033.442-.085.558-.157.117-.071.175-.187.175-.348v-.031c0-.39-.111-.693-.331-.907-.217-.215-.542-.322-.974-.322-.449 0-.804.1-1.063.3-.256.196-.433.415-.531.656l-1.256-.286c.149-.417.367-.753.653-1.009.288-.259.62-.447.996-.563a3.886 3.886 0 011.183-.179c.274 0 .565.033.871.099.31.062.599.178.867.348.271.17.493.412.666.728.172.313.259.719.259 1.22v4.556h-1.305v-.938h-.053a1.924 1.924 0 01-.389.509 2.057 2.057 0 01-.665.415c-.271.111-.596.166-.974.166zm.29-1.072c.369 0 .685-.073.947-.219.265-.146.466-.337.603-.572.14-.238.21-.493.21-.764v-.884a.712.712 0 01-.277.134 4.284 4.284 0 01-.46.102 33.224 33.224 0 01-.916.13 3.36 3.36 0 00-.71.165 1.226 1.226 0 00-.509.335c-.125.143-.188.334-.188.572 0 .331.122.581.367.75.244.167.555.251.933.251z" fill="#242A36"/><path d="M59.849 277.607v6.607h-.774l-3.6-5.187h-.065v5.187h-.8v-6.607h.774l3.613 5.201h.065v-5.201h.787zm3.393 6.711c-.477 0-.889-.106-1.235-.317a2.114 2.114 0 01-.797-.89c-.185-.383-.278-.828-.278-1.336 0-.507.093-.954.278-1.342.187-.389.447-.692.78-.909.336-.22.728-.329 1.175-.329.258 0 .513.043.764.129.252.086.481.225.688.419.206.191.37.445.493.761.123.317.184.706.184 1.168v.323h-3.82v-.658h3.046c0-.28-.056-.529-.168-.749a1.266 1.266 0 00-1.187-.709 1.37 1.37 0 00-.787.225 1.49 1.49 0 00-.507.581 1.708 1.708 0 00-.177.768v.439c0 .374.064.691.193.951.132.258.313.455.546.591.232.133.502.2.81.2.2 0 .38-.028.541-.084a1.16 1.16 0 00.423-.258c.118-.116.21-.261.274-.433l.736.207a1.633 1.633 0 01-.39.658 1.913 1.913 0 01-.678.439 2.517 2.517 0 01-.907.155zm6.152-2.13v-2.929h.76v4.955h-.76v-.838h-.052a1.634 1.634 0 01-.542.642c-.245.174-.555.261-.93.261a1.66 1.66 0 01-.825-.203 1.423 1.423 0 01-.568-.62c-.138-.277-.206-.627-.206-1.048v-3.149h.761v3.097c0 .361.101.65.303.865.205.215.465.322.781.322.19 0 .382-.048.578-.145a1.26 1.26 0 00.496-.445c.136-.2.204-.455.204-.765zm5.484-1.819l-.684.193a1.278 1.278 0 00-.19-.332.92.92 0 00-.336-.271 1.218 1.218 0 00-.545-.106c-.304 0-.556.07-.758.209-.2.138-.3.313-.3.526 0 .19.068.339.206.449.138.109.353.201.645.274l.736.181c.443.107.773.272.99.493.217.22.326.502.326.849 0 .284-.082.537-.245.761-.162.224-.387.4-.678.529-.29.129-.628.194-1.013.194-.505 0-.923-.11-1.255-.329-.33-.22-.54-.54-.629-.962l.723-.18c.069.266.199.466.39.6.194.133.447.2.758.2.355 0 .637-.076.846-.226.21-.153.316-.336.316-.549a.576.576 0 00-.18-.432c-.121-.118-.306-.206-.556-.264l-.826-.194c-.453-.108-.787-.274-1-.5a1.212 1.212 0 01-.316-.855c0-.28.079-.527.236-.742.159-.215.375-.384.648-.507.275-.122.587-.183.936-.183.49 0 .875.107 1.155.322.281.215.481.499.6.852zm3.21-1.11v.645h-2.569v-.645h2.568zm-1.82-1.187h.761v4.723c0 .215.032.376.094.484a.49.49 0 00.245.213.995.995 0 00.32.051 1.3 1.3 0 00.206-.013l.129-.025.155.684a1.705 1.705 0 01-.568.09c-.215 0-.426-.046-.632-.139a1.253 1.253 0 01-.51-.422c-.133-.19-.2-.428-.2-.717v-4.929zm4.241 6.259c-.314 0-.599-.06-.855-.178a1.462 1.462 0 01-.61-.519 1.466 1.466 0 01-.225-.826c0-.284.056-.514.168-.691.111-.178.26-.318.448-.419a2.38 2.38 0 01.62-.226 7.72 7.72 0 01.686-.122c.302-.039.546-.068.733-.087.19-.022.327-.057.413-.107.088-.049.132-.135.132-.258v-.026c0-.318-.087-.565-.261-.742-.172-.176-.434-.264-.784-.264-.364 0-.649.079-.855.238a1.408 1.408 0 00-.436.51l-.722-.258c.129-.301.3-.536.516-.703.217-.17.454-.289.71-.355.258-.069.511-.103.761-.103.16 0 .342.019.548.058.209.036.41.113.604.229.195.116.358.291.487.526.129.234.193.548.193.942v3.264h-.761v-.671h-.039a1.34 1.34 0 01-.258.346c-.12.122-.28.226-.48.312-.2.087-.445.13-.733.13zm.116-.684c.302 0 .555-.06.762-.178a1.207 1.207 0 00.632-1.048v-.697c-.032.039-.103.074-.213.106-.107.03-.232.057-.374.081a18.714 18.714 0 01-.73.097 2.854 2.854 0 00-.554.126.946.946 0 00-.413.254c-.103.112-.155.265-.155.459 0 .264.098.464.294.6.198.133.448.2.751.2zm.026-5.059l.787-1.497h.89l-1.006 1.497h-.67zm4.099-.981v6.607h-.762v-6.607h.762zm3.29 6.711c-.477 0-.89-.106-1.236-.317a2.114 2.114 0 01-.796-.89c-.185-.383-.278-.828-.278-1.336 0-.507.093-.954.278-1.342.187-.389.447-.692.78-.909.336-.22.727-.329 1.175-.329.258 0 .513.043.764.129.252.086.481.225.687.419.207.191.371.445.494.761.123.317.184.706.184 1.168v.323h-3.82v-.658h3.046c0-.28-.056-.529-.168-.749a1.266 1.266 0 00-1.187-.709 1.37 1.37 0 00-.787.225c-.22.149-.389.342-.507.581a1.708 1.708 0 00-.177.768v.439c0 .374.064.691.193.951a1.4 1.4 0 00.545.591c.233.133.503.2.81.2.2 0 .38-.028.542-.084.164-.058.304-.144.423-.258.118-.116.21-.261.274-.433l.736.207a1.63 1.63 0 01-.39.658 1.913 1.913 0 01-.678.439 2.518 2.518 0 01-.907.155zm5.26-.104v-.58l2.813-3.614v-.051H93.39v-.71h3.704v.607l-2.736 3.587v.052h2.826v.709H93.3zm5.636-6.607v6.607h-.76v-6.607h.76zm3.291 6.711c-.478 0-.89-.106-1.236-.317a2.114 2.114 0 01-.797-.89c-.185-.383-.277-.828-.277-1.336 0-.507.092-.954.277-1.342a2.19 2.19 0 01.781-.909c.336-.22.727-.329 1.174-.329.258 0 .513.043.765.129.252.086.481.225.687.419.207.191.371.445.494.761.122.317.184.706.184 1.168v.323h-3.82v-.658h3.045c0-.28-.056-.529-.167-.749a1.27 1.27 0 00-.471-.519 1.321 1.321 0 00-.717-.19c-.303 0-.565.075-.787.225a1.488 1.488 0 00-.506.581 1.7 1.7 0 00-.178.768v.439c0 .374.065.691.194.951.131.258.313.455.545.591.232.133.502.2.81.2.2 0 .381-.028.542-.084.163-.058.304-.144.422-.258.119-.116.21-.261.275-.433l.735.207a1.624 1.624 0 01-.39.658 1.916 1.916 0 01-.678.439 2.513 2.513 0 01-.906.155zm3.028 1.755v-6.814h.736v.787h.09c.056-.086.133-.195.232-.329.101-.135.245-.256.433-.361.189-.108.445-.161.767-.161.418 0 .785.104 1.104.313.318.208.566.504.745.887.178.383.268.834.268 1.355 0 .524-.09.979-.268 1.364a2.12 2.12 0 01-.742.891 1.946 1.946 0 01-1.094.313c-.318 0-.573-.053-.764-.158a1.408 1.408 0 01-.442-.365 4.829 4.829 0 01-.239-.342h-.065v2.62h-.761zm.749-4.336c0 .374.054.704.164.99.11.284.27.507.481.668.211.159.469.239.774.239.318 0 .584-.084.797-.252.215-.17.376-.398.484-.684.11-.288.164-.609.164-.961 0-.349-.053-.663-.161-.942a1.45 1.45 0 00-.481-.668c-.213-.166-.48-.248-.803-.248-.31 0-.57.078-.781.235-.21.155-.37.372-.477.652a2.667 2.667 0 00-.161.971zm8.115-1.368l-.684.193a1.27 1.27 0 00-.19-.332.92.92 0 00-.335-.271 1.22 1.22 0 00-.546-.106c-.303 0-.556.07-.758.209-.2.138-.3.313-.3.526 0 .19.069.339.207.449.137.109.352.201.645.274l.735.181c.444.107.774.272.991.493.217.22.326.502.326.849 0 .284-.082.537-.245.761-.162.224-.388.4-.678.529-.29.129-.628.194-1.013.194-.505 0-.924-.11-1.255-.329-.331-.22-.541-.54-.629-.962l.723-.18c.069.266.199.466.39.6.194.133.446.2.758.2.355 0 .637-.076.845-.226.211-.153.317-.336.317-.549a.577.577 0 00-.181-.432c-.121-.118-.305-.206-.555-.264l-.826-.194c-.454-.108-.787-.274-1-.5a1.21 1.21 0 01-.316-.855c0-.28.078-.527.235-.742.16-.215.376-.384.649-.507.275-.122.587-.183.935-.183.491 0 .876.107 1.155.322.282.215.482.499.6.852zm-2.426-3.097l.671.903.671-.903h.723v.051l-1.045 1.342h-.697l-1.045-1.342v-.051h.722zm5.494 7.046c-.447 0-.84-.107-1.177-.32a2.168 2.168 0 01-.787-.893c-.188-.383-.281-.831-.281-1.342 0-.517.093-.967.281-1.352a2.16 2.16 0 01.787-.897c.337-.213.73-.319 1.177-.319.448 0 .839.106 1.175.319.337.213.6.512.787.897.189.385.284.835.284 1.352 0 .511-.095.959-.284 1.342-.187.382-.45.68-.787.893-.336.213-.727.32-1.175.32zm0-.684c.34 0 .62-.087.839-.262.219-.174.382-.403.487-.687.106-.284.158-.591.158-.922 0-.332-.052-.64-.158-.926a1.56 1.56 0 00-.487-.694c-.219-.176-.499-.264-.839-.264-.34 0-.619.088-.839.264a1.567 1.567 0 00-.487.694 2.664 2.664 0 00-.158.926c0 .331.053.638.158.922.106.284.268.513.487.687.22.175.499.262.839.262zm7.101-4.375l-1.833 4.955h-.774l-1.832-4.955h.825l1.368 3.949h.052l1.368-3.949h.826zm2.13 5.072c-.314 0-.599-.06-.855-.178a1.456 1.456 0 01-.609-.519 1.463 1.463 0 01-.226-.826c0-.284.056-.514.168-.691a1.18 1.18 0 01.448-.419c.187-.101.394-.176.619-.226a7.68 7.68 0 01.688-.122c.301-.039.545-.068.732-.087.189-.022.327-.057.413-.107.088-.049.132-.135.132-.258v-.026c0-.318-.087-.565-.261-.742-.172-.176-.434-.264-.784-.264-.364 0-.649.079-.855.238a1.406 1.406 0 00-.436.51l-.722-.258a1.73 1.73 0 01.516-.703c.217-.17.454-.289.71-.355.258-.069.512-.103.761-.103.159 0 .342.019.548.058.209.036.41.113.604.229.195.116.358.291.487.526.129.234.193.548.193.942v3.264h-.761v-.671h-.039a1.314 1.314 0 01-.258.346c-.12.122-.28.226-.48.312-.2.087-.445.13-.733.13zm.116-.684c.302 0 .555-.06.762-.178.208-.118.365-.271.471-.458.107-.187.161-.384.161-.59v-.697c-.032.039-.103.074-.213.106-.107.03-.232.057-.374.081a18.316 18.316 0 01-.729.097 2.851 2.851 0 00-.555.126.944.944 0 00-.413.254c-.103.112-.155.265-.155.459 0 .264.098.464.294.6.198.133.448.2.751.2zm4.125-2.414v2.981h-.762v-4.955h.736v.774h.064c.117-.251.293-.453.53-.606.236-.155.542-.232.916-.232.335 0 .629.068.881.206.251.136.447.342.587.619.139.276.209.624.209 1.046v3.148h-.761v-3.097c0-.389-.101-.692-.303-.909-.202-.22-.48-.329-.833-.329-.243 0-.46.052-.651.158-.19.105-.339.259-.449.461a1.53 1.53 0 00-.164.735zm4.371 2.981v-4.955h.761v4.955h-.761zm.387-5.781a.543.543 0 01-.384-.151.49.49 0 01-.158-.365.49.49 0 01.158-.365.543.543 0 01.384-.151c.148 0 .275.05.381.151a.486.486 0 01.161.365.485.485 0 01-.161.365.532.532 0 01-.381.151zm3.665 5.885c-.478 0-.89-.106-1.236-.317a2.114 2.114 0 01-.797-.89c-.185-.383-.277-.828-.277-1.336 0-.507.092-.954.277-1.342a2.19 2.19 0 01.781-.909 2.09 2.09 0 011.174-.329c.258 0 .513.043.765.129.251.086.481.225.687.419.206.191.371.445.494.761.122.317.183.706.183 1.168v.323h-3.819v-.658h3.045c0-.28-.056-.529-.168-.749a1.257 1.257 0 00-.471-.519 1.315 1.315 0 00-.716-.19c-.303 0-.565.075-.787.225a1.488 1.488 0 00-.506.581 1.7 1.7 0 00-.178.768v.439c0 .374.065.691.194.951.131.258.313.455.545.591.232.133.502.2.81.2.2 0 .38-.028.542-.084.163-.058.304-.144.422-.258.119-.116.21-.261.275-.433l.735.207a1.624 1.624 0 01-.39.658 1.916 1.916 0 01-.678.439 2.517 2.517 0 01-.906.155z" fill="#717580"/><mask id="c" fill="#fff"><path d="M170.647 261.106c0-5.789 4.693-10.482 10.483-10.482h34.807c5.789 0 10.482 4.693 10.482 10.482s-4.693 10.483-10.482 10.483H181.13c-5.79 0-10.483-4.694-10.483-10.483z"/></mask><path d="M170.647 261.106c0-5.789 4.693-10.482 10.483-10.482h34.807c5.789 0 10.482 4.693 10.482 10.482s-4.693 10.483-10.482 10.483H181.13c-5.79 0-10.483-4.694-10.483-10.483z" fill="#fff"/><path d="M181.13 250.624v.559h34.807v-1.118H181.13v.559zm34.807 20.965v-.56H181.13v1.119h34.807v-.559zm-34.807 0v-.56c-5.481 0-9.924-4.442-9.924-9.923h-1.118c0 6.098 4.944 11.042 11.042 11.042v-.559zm45.289-10.483h-.559c0 5.481-4.443 9.923-9.923 9.923v1.119c6.098 0 11.041-4.944 11.041-11.042h-.559zm-10.482-10.482v.559c5.48 0 9.923 4.443 9.923 9.923h1.118c0-6.098-4.943-11.041-11.041-11.041v.559zm-34.807 0v-.559c-6.098 0-11.042 4.943-11.042 11.041h1.118c0-5.48 4.443-9.923 9.924-9.923v-.559z" fill="#E4E4E4" mask="url(#c)"/><path d="M179.033 264.742h9.085v-9.085h-9.085v9.085zm12.773-.636h-1.058l2.378-6.607h1.151l2.378 6.607h-1.058l-1.868-5.407h-.052l-1.871 5.407zm.178-2.587h3.432v.839h-3.432v-.839zm7.555 2.687c-.479 0-.892-.108-1.239-.326a2.153 2.153 0 01-.793-.906 3.019 3.019 0 01-.278-1.323c0-.503.095-.947.284-1.332.189-.387.456-.69.8-.907.344-.217.75-.326 1.216-.326.377 0 .712.07 1.007.21.295.138.532.331.713.581.183.249.291.541.326.874h-.939a1.13 1.13 0 00-.355-.6c-.183-.168-.428-.252-.735-.252-.269 0-.505.071-.707.213-.2.14-.356.34-.468.6a2.293 2.293 0 00-.167.917c0 .361.054.673.164.935.11.262.265.466.465.61.202.144.439.216.713.216.182 0 .348-.033.496-.1.151-.069.277-.167.378-.294.103-.127.175-.279.216-.458h.939a1.827 1.827 0 01-.313.858 1.8 1.8 0 01-.7.594c-.29.144-.631.216-1.023.216zm5.381-5.055v.774h-2.707v-.774h2.707zm-1.981-1.187h.964v4.687c0 .187.028.328.084.423a.438.438 0 00.216.19.88.88 0 00.294.049 1.1 1.1 0 00.203-.017l.136-.025.174.796a1.849 1.849 0 01-.626.104 1.7 1.7 0 01-.71-.136 1.211 1.211 0 01-.532-.439c-.136-.197-.203-.446-.203-.745v-4.887zm3.048 6.142v-4.955h.964v4.955h-.964zm.487-5.72a.618.618 0 01-.433-.167.547.547 0 01-.177-.407c0-.159.059-.295.177-.406a.61.61 0 01.433-.171c.167 0 .31.057.429.171.12.111.18.247.18.406 0 .157-.06.293-.18.407a.607.607 0 01-.429.167zm6.014.765l-1.797 4.955h-1.032l-1.801-4.955h1.036l1.255 3.813h.052l1.251-3.813h1.036zm2.874 5.055c-.489 0-.909-.104-1.262-.313a2.13 2.13 0 01-.813-.887c-.189-.383-.284-.831-.284-1.345 0-.508.095-.955.284-1.342.192-.387.458-.69.8-.907.344-.217.747-.326 1.207-.326.279 0 .55.047.813.139.262.093.498.238.706.436.209.197.374.454.494.771.12.314.181.695.181 1.145v.342h-3.939v-.723h2.993c0-.254-.051-.478-.154-.674a1.178 1.178 0 00-1.088-.639 1.26 1.26 0 00-.709.2c-.2.131-.355.303-.465.516-.108.211-.161.44-.161.688v.564c0 .331.058.613.174.845.118.233.283.41.494.533.21.12.457.18.738.18.183 0 .35-.025.5-.077a1.038 1.038 0 00.642-.629l.913.164a1.653 1.653 0 01-.393.707 1.91 1.91 0 01-.707.468 2.658 2.658 0 01-.964.164z" fill="#FFC721"/><mask id="d" fill="#fff"><path d="M17.47 311.445a8.386 8.386 0 018.387-8.386h87.702a8.387 8.387 0 018.386 8.386v34.312a8.386 8.386 0 01-8.386 8.386H25.856a8.386 8.386 0 01-8.385-8.386v-34.312z"/></mask><path d="M17.47 311.445a8.386 8.386 0 018.387-8.386h87.702a8.387 8.387 0 018.386 8.386v34.312a8.386 8.386 0 01-8.386 8.386H25.856a8.386 8.386 0 01-8.385-8.386v-34.312z" fill="#fff"/><path d="M25.857 303.059v.559h87.702V302.5H25.856v.559zm96.088 8.386h-.559v34.312h1.118v-34.312h-.559zm-8.386 42.698v-.559H25.856v1.118h87.703v-.559zm-96.088-8.386h.559v-34.312h-1.118v34.312h.559zm8.386 8.386v-.559a7.827 7.827 0 01-7.827-7.827h-1.118a8.945 8.945 0 008.945 8.945v-.559zm96.088-8.386h-.559a7.827 7.827 0 01-7.827 7.827v1.118a8.945 8.945 0 008.945-8.945h-.559zm-8.386-42.698v.559a7.827 7.827 0 017.827 7.827h1.118a8.945 8.945 0 00-8.945-8.945v.559zm-87.703 0v-.559a8.945 8.945 0 00-8.944 8.945h1.118a7.827 7.827 0 017.826-7.827v-.559z" fill="#E8E8E6" mask="url(#d)"/><path d="M27.216 322.219v-6.607h.8v3.277h.077l2.968-3.277h1.045l-2.774 2.981 2.774 3.626h-.967l-2.297-3.072-.826.93v2.142h-.8zm7.1.116c-.315 0-.6-.059-.856-.178a1.462 1.462 0 01-.61-.519 1.465 1.465 0 01-.225-.826c0-.284.056-.514.167-.69.112-.179.262-.319.449-.42.187-.101.394-.176.62-.225.227-.052.456-.093.687-.123.3-.039.545-.068.732-.087.19-.022.327-.057.413-.107.088-.049.132-.135.132-.258v-.026c0-.318-.087-.565-.261-.742-.172-.176-.434-.264-.784-.264-.364 0-.649.079-.855.239a1.414 1.414 0 00-.436.509l-.722-.258c.129-.301.3-.535.516-.703.217-.17.454-.288.71-.355.258-.069.511-.103.761-.103.16 0 .342.019.548.058.21.037.41.113.604.229.195.116.358.291.487.526.129.234.193.548.193.942v3.265h-.76v-.671h-.04a1.359 1.359 0 01-.258.345 1.5 1.5 0 01-.48.313c-.2.086-.445.129-.733.129zm.115-.684c.302 0 .555-.059.762-.178a1.207 1.207 0 00.632-1.048v-.697c-.032.039-.103.074-.213.107a3.43 3.43 0 01-.374.08 14.078 14.078 0 01-.73.097 2.93 2.93 0 00-.554.126.957.957 0 00-.413.255c-.103.112-.155.264-.155.458 0 .264.098.464.294.6.198.133.448.2.751.2zm3.363.568v-4.956h.736v.775h.064c.104-.265.27-.47.5-.617a1.5 1.5 0 01.83-.222c.327 0 .599.074.816.222.22.147.39.352.513.617h.051a1.44 1.44 0 01.571-.61c.254-.153.559-.229.913-.229.444 0 .806.139 1.088.416.281.275.422.704.422 1.287v3.317h-.761v-3.317c0-.365-.1-.627-.3-.784a1.11 1.11 0 00-.707-.235c-.348 0-.618.105-.81.316-.19.209-.287.473-.287.794v3.226h-.774v-3.394c0-.282-.091-.509-.274-.681-.183-.174-.418-.261-.707-.261-.197 0-.382.053-.554.158-.17.105-.308.252-.413.439a1.296 1.296 0 00-.155.642v3.097h-.762zm7.715 1.858v-6.814h.735v.788h.09c.056-.086.134-.196.233-.329.1-.136.245-.256.432-.362.19-.107.445-.161.768-.161.417 0 .785.104 1.103.313.319.208.567.504.745.887.179.383.268.834.268 1.355 0 .525-.09.98-.268 1.365a2.118 2.118 0 01-.742.89c-.316.209-.68.313-1.093.313-.319 0-.573-.053-.765-.158a1.417 1.417 0 01-.442-.365 4.593 4.593 0 01-.239-.342h-.064v2.62h-.761zm.748-4.336c0 .374.055.704.165.99.11.284.27.507.48.668.211.159.47.239.774.239.319 0 .584-.084.797-.252a1.54 1.54 0 00.484-.684 2.68 2.68 0 00.165-.961c0-.348-.054-.662-.161-.942a1.458 1.458 0 00-.481-.668c-.213-.165-.48-.248-.803-.248-.31 0-.57.078-.781.235-.211.155-.37.372-.478.652a2.675 2.675 0 00-.16.971zm6.064 2.594c-.314 0-.599-.059-.855-.178a1.462 1.462 0 01-.61-.519 1.465 1.465 0 01-.225-.826c0-.284.056-.514.167-.69.112-.179.262-.319.449-.42a2.33 2.33 0 01.62-.225c.227-.052.456-.093.686-.123.302-.039.546-.068.733-.087.189-.022.327-.057.413-.107.088-.049.132-.135.132-.258v-.026c0-.318-.087-.565-.261-.742-.172-.176-.434-.264-.784-.264-.364 0-.649.079-.855.239a1.415 1.415 0 00-.436.509l-.722-.258c.129-.301.3-.535.516-.703a1.94 1.94 0 01.71-.355 2.93 2.93 0 01.76-.103c.16 0 .343.019.55.058.208.037.409.113.603.229.195.116.358.291.487.526.129.234.193.548.193.942v3.265h-.761v-.671h-.039a1.354 1.354 0 01-.258.345 1.49 1.49 0 01-.48.313c-.2.086-.445.129-.733.129zm.116-.684c.301 0 .555-.059.762-.178a1.207 1.207 0 00.632-1.048v-.697c-.032.039-.103.074-.213.107-.108.03-.232.057-.374.08a14.127 14.127 0 01-.73.097 2.927 2.927 0 00-.554.126.958.958 0 00-.413.255c-.103.112-.155.264-.155.458 0 .264.098.464.294.6.197.133.448.2.751.2zm4.125-2.413v2.981H55.8v-4.956h.736v.775h.064c.116-.252.293-.454.53-.607.236-.155.541-.232.916-.232.335 0 .629.069.88.206.252.136.448.342.587.62.14.275.21.623.21 1.045v3.149h-.761v-3.097c0-.39-.101-.693-.303-.91-.203-.219-.48-.329-.833-.329-.243 0-.46.053-.651.158-.19.105-.34.259-.449.461-.11.202-.164.448-.164.736zm4.37 2.981v-4.956h.762v4.956h-.761zm.04-5.627l.787-1.497h.89l-1.007 1.497h-.67z" fill="#717580"/><path d="M30.766 332.461v9.149h-1.384v-7.764h-.054l-2.189 1.429v-1.322l2.283-1.492h1.344zm1.776 9.149v-1.001l3.096-3.207c.33-.349.603-.654.817-.916a3.42 3.42 0 00.487-.755 1.83 1.83 0 00.16-.759c0-.304-.07-.566-.213-.787a1.401 1.401 0 00-.586-.513 1.862 1.862 0 00-.835-.183c-.328 0-.613.067-.858.201a1.378 1.378 0 00-.563.567c-.13.244-.196.53-.196.858h-1.318c0-.557.128-1.044.384-1.461.256-.417.608-.74 1.055-.969.446-.233.954-.349 1.523-.349.575 0 1.08.115 1.519.344.44.226.784.536 1.031.929.248.39.371.831.371 1.322 0 .34-.064.672-.192.997-.125.324-.344.686-.656 1.085-.313.396-.748.877-1.305 1.443l-1.818 1.903v.067h4.119v1.184h-6.022zm9.723-1.537v-6.039h1.201v6.039h-1.201zm-2.417-2.421v-1.197h6.04v1.197h-6.04z" fill="#242A36"/><mask id="e" fill="#fff"><path d="M133.126 311.445a8.387 8.387 0 018.386-8.386h87.702a8.386 8.386 0 018.386 8.386v34.312a8.385 8.385 0 01-8.386 8.386h-87.702a8.386 8.386 0 01-8.386-8.386v-34.312z"/></mask><path d="M133.126 311.445a8.387 8.387 0 018.386-8.386h87.702a8.386 8.386 0 018.386 8.386v34.312a8.385 8.385 0 01-8.386 8.386h-87.702a8.386 8.386 0 01-8.386-8.386v-34.312z" fill="#fff"/><path d="M141.512 303.059v.559h87.702V302.5h-87.702v.559zm96.088 8.386h-.559v34.312h1.118v-34.312h-.559zm-8.386 42.698v-.559h-87.702v1.118h87.702v-.559zm-96.088-8.386h.559v-34.312h-1.118v34.312h.559zm8.386 8.386v-.559a7.827 7.827 0 01-7.827-7.827h-1.118a8.945 8.945 0 008.945 8.945v-.559zm96.088-8.386h-.559a7.827 7.827 0 01-7.827 7.827v1.118a8.945 8.945 0 008.945-8.945h-.559zm-8.386-42.698v.559a7.827 7.827 0 017.827 7.827h1.118a8.945 8.945 0 00-8.945-8.945v.559zm-87.702 0v-.559a8.945 8.945 0 00-8.945 8.945h1.118a7.827 7.827 0 017.827-7.827v-.559z" fill="#E8E8E6" mask="url(#e)"/><path d="M142.51 316.321v-.709h4.955v.709h-2.078v5.898h-.8v-5.898h-2.077zm5.39 5.898v-4.956h.736v.749h.052c.09-.245.253-.444.49-.597.236-.153.503-.229.8-.229l.21.003c.084.002.147.006.19.01v.774a2.631 2.631 0 00-.465-.051c-.24 0-.456.05-.645.151a1.108 1.108 0 00-.606 1.01v3.136h-.762zm4.657.116c-.314 0-.599-.059-.855-.178a1.465 1.465 0 01-.61-.519 1.469 1.469 0 01-.225-.826c0-.284.055-.514.167-.69.112-.179.262-.319.449-.42.187-.101.393-.176.619-.225.228-.052.457-.093.687-.123.301-.039.545-.068.733-.087.189-.022.327-.057.413-.107.088-.049.132-.135.132-.258v-.026c0-.318-.087-.565-.262-.742-.172-.176-.433-.264-.783-.264-.364 0-.649.079-.855.239a1.411 1.411 0 00-.436.509l-.723-.258c.13-.301.302-.535.517-.703.217-.17.453-.288.709-.355a2.94 2.94 0 01.762-.103c.159 0 .342.019.548.058.209.037.41.113.603.229.196.116.359.291.488.526.129.234.193.548.193.942v3.265h-.761v-.671h-.039a1.375 1.375 0 01-.258.345c-.12.122-.281.227-.481.313-.2.086-.444.129-.732.129zm.116-.684c.301 0 .555-.059.761-.178a1.21 1.21 0 00.633-1.048v-.697c-.032.039-.103.074-.213.107-.108.03-.232.057-.374.08a14.394 14.394 0 01-.729.097 2.926 2.926 0 00-.555.126.955.955 0 00-.413.255c-.104.112-.155.264-.155.458 0 .264.098.464.293.6.198.133.449.2.752.2zm5.376.671c-.464 0-.864-.11-1.2-.329a2.142 2.142 0 01-.774-.907 3.063 3.063 0 01-.271-1.319c0-.503.092-.948.277-1.333.187-.387.448-.689.781-.906a2.101 2.101 0 011.174-.329c.349 0 .663.064.942.193.28.129.509.31.687.542.179.233.29.504.333.813h-.762a1.186 1.186 0 00-.387-.6c-.198-.176-.464-.264-.8-.264-.297 0-.557.077-.781.232a1.519 1.519 0 00-.519.649 2.409 2.409 0 00-.184.977c0 .383.06.716.181 1 .122.284.295.504.516.662.224.157.486.235.787.235.198 0 .378-.034.539-.103a1.12 1.12 0 00.41-.297 1.13 1.13 0 00.238-.465h.762a1.766 1.766 0 01-.987 1.346 2.162 2.162 0 01-.962.203zm3.59-1.91l-.013-.942h.155l2.168-2.207h.942l-2.31 2.336h-.065l-.877.813zm-.71 1.807v-6.607h.761v6.607h-.761zm3.149 0l-1.936-2.452.542-.529 2.362 2.981h-.968zm1.611 0v-4.956h.761v4.956h-.761zm.387-5.781a.544.544 0 01-.384-.152.49.49 0 01-.158-.365c0-.142.053-.263.158-.364a.544.544 0 01.384-.152c.149 0 .275.051.381.152a.483.483 0 01.161.364.485.485 0 01-.161.365.532.532 0 01-.381.152zm2.349 2.8v2.981h-.762v-4.956h.736v.775h.064c.116-.252.293-.454.529-.607.237-.155.542-.232.917-.232.335 0 .629.069.88.206.252.136.448.342.587.62.14.275.21.623.21 1.045v3.149h-.761v-3.097c0-.39-.101-.693-.304-.91-.202-.219-.479-.329-.832-.329-.243 0-.46.053-.652.158a1.132 1.132 0 00-.448.461c-.11.202-.164.448-.164.736zm6.371 4.942c-.368 0-.684-.047-.949-.142a1.999 1.999 0 01-1.077-.851l.606-.426c.069.09.156.193.262.309.105.119.249.221.432.307.185.088.427.132.726.132.4 0 .73-.097.99-.29.26-.194.391-.497.391-.91v-1.007h-.065a3.791 3.791 0 01-.239.336 1.367 1.367 0 01-.438.352c-.19.101-.446.151-.768.151-.4 0-.759-.094-1.078-.284a1.986 1.986 0 01-.751-.826c-.183-.361-.275-.8-.275-1.316 0-.507.09-.949.268-1.326a2.07 2.07 0 01.745-.877 1.966 1.966 0 011.104-.313c.322 0 .578.054.768.161.191.106.337.226.438.362.103.133.183.243.239.329h.077v-.788h.736v5.098c0 .426-.097.772-.29 1.038-.192.269-.45.466-.775.591-.322.127-.681.19-1.077.19zm-.026-2.723c.305 0 .564-.07.774-.209.211-.14.371-.341.481-.604.11-.262.165-.576.165-.942 0-.357-.054-.672-.162-.945a1.414 1.414 0 00-.477-.642c-.211-.155-.471-.232-.781-.232-.323 0-.591.082-.806.245a1.488 1.488 0 00-.481.658 2.53 2.53 0 00-.158.916c0 .344.054.649.161.913.11.263.271.469.484.62.215.148.482.222.8.222z" fill="#717580"/><path d="M142.951 341.61v-1.001l3.096-3.207c.33-.349.603-.654.817-.916.217-.265.38-.517.487-.755a1.83 1.83 0 00.161-.759c0-.304-.072-.566-.215-.787a1.402 1.402 0 00-.585-.513 1.86 1.86 0 00-.835-.183c-.328 0-.614.067-.858.201a1.38 1.38 0 00-.563.567c-.131.244-.196.53-.196.858h-1.318c0-.557.128-1.044.384-1.461a2.61 2.61 0 011.054-.969c.447-.233.955-.349 1.524-.349.574 0 1.081.115 1.518.344.441.226.785.536 1.032.929.247.39.371.831.371 1.322 0 .34-.064.672-.192.997-.125.324-.344.686-.657 1.085-.312.396-.747.877-1.304 1.443l-1.818 1.903v.067h4.118v1.184h-6.021zm6.627-1.787v-1.117l3.953-6.245h.88v1.644h-.558l-2.828 4.476v.071h5.419v1.171h-6.866zm4.337 1.787v-2.127l.009-.509v-6.513h1.309v9.149h-1.318zm6.888-9.578l-2.948 10.953h-1.192l2.948-10.953h1.192zm.727 9.578l3.993-7.898v-.067h-4.619v-1.184h6.048v1.224l-3.98 7.925h-1.442z" fill="#242A36"/></svg>