<svg width="24" height="24" fill="none" xmlns="http://www.w3.org/2000/svg"><path d="M18.99 19H19m-.01 0c-.622.617-1.75.464-2.542.464-.972 0-1.44.19-2.133.883C13.725 20.937 12.934 22 12 22c-.934 0-1.725-1.063-2.315-1.653-.694-.693-1.162-.883-2.133-.883-.791 0-1.92.154-2.543-.464-.627-.622-.473-1.756-.473-2.552 0-1.007-.22-1.47-.937-2.186C2.533 13.196 2 12.662 2 12c0-.662.533-1.196 1.6-2.262.64-.64.936-1.274.936-2.186 0-.791-.154-1.92.464-2.543.622-.627 1.756-.473 2.552-.473.912 0 1.546-.297 2.186-.937C10.804 2.533 11.338 2 12 2c.662 0 1.196.533 2.262 1.6.64.64 1.274.936 2.186.936.791 0 1.92-.154 2.543.464.627.622.473 1.756.473 2.552 0 1.007.22 1.47.937 2.186C21.467 10.804 22 11.338 22 12c0 .662-.533 1.196-1.6 2.262-.716.717-.936 1.18-.936 2.186 0 .796.153 1.93-.474 2.552z" stroke="#242A36" stroke-width="1.5"/><path d="M9 12.893s1.2.652 1.8 1.607c0 0 1.8-3.75 4.2-5" stroke="#242A36" stroke-width="1.5" stroke-linecap="round" stroke-linejoin="round"/></svg>