<svg width="24" height="24" fill="none" xmlns="http://www.w3.org/2000/svg"><path d="M11.5 22c-4.007 0-6.01 0-7.255-1.465C3 19.072 3 16.714 3 12s0-7.071 1.245-8.536C5.49 1.999 7.493 2 11.5 2s6.01 0 7.255 1.464c1.002 1.18 1.198 2.937 1.236 6.036M8 8h7m-7 5h3" stroke="#242A36" stroke-width="1.5" stroke-linecap="round" stroke-linejoin="round"/><path d="M19.61 18.105A3.376 3.376 0 0017.627 12h-.251a3.375 3.375 0 00-1.984 6.105m0 0a3.36 3.36 0 001.984.645h.25a3.36 3.36 0 001.984-.645l.583 1.835c.222.7.334 1.05.303 1.268-.063.454-.433.79-.87.792-.21 0-.524-.164-1.153-.494-.27-.142-.404-.212-.542-.254a1.5 1.5 0 00-.86 0c-.138.042-.273.112-.542.254-.63.33-.943.495-1.153.494-.437-.002-.807-.338-.87-.792-.03-.218.08-.568.303-1.268l.583-1.835z" stroke="#242A36" stroke-width="1.5"/></svg>