<svg width="170" height="33" fill="none" xmlns="http://www.w3.org/2000/svg"><path fill="#FFC721" d="M0 0h170v33H0z"/><path d="M50.07 14.145a1.26 1.26 0 00-.544-.942c-.317-.225-.73-.337-1.237-.337-.357 0-.663.054-.919.161-.255.108-.45.254-.586.439a1.067 1.067 0 00-.208.632c0 .197.045.368.134.513.092.144.217.268.374.37.157.098.33.18.521.248s.384.125.578.171l.886.222c.357.083.7.195 1.03.337.332.141.629.32.89.535.265.216.474.476.628.78.154.305.231.662.231 1.072 0 .553-.142 1.041-.425 1.463-.283.418-.692.746-1.228.983-.532.234-1.177.351-1.934.351-.736 0-1.374-.114-1.916-.341-.538-.228-.96-.56-1.265-.998-.301-.437-.465-.97-.49-1.597h1.686c.024.33.126.603.305.822.178.218.41.381.697.49.289.107.612.16.97.16.372 0 .698-.055.978-.165a1.59 1.59 0 00.665-.471c.16-.203.241-.44.244-.711a.904.904 0 00-.217-.61 1.59 1.59 0 00-.595-.406 5.74 5.74 0 00-.887-.295l-1.075-.277c-.779-.2-1.394-.504-1.847-.91-.45-.41-.674-.952-.674-1.63 0-.556.151-1.044.453-1.463a2.99 2.99 0 011.241-.974c.524-.234 1.116-.35 1.778-.35.67 0 1.259.116 1.763.35.508.23.907.553 1.196.965.29.41.438.88.448 1.413H50.07zM53.116 21v-9.454h1.713v4.344h.115l3.689-4.345h2.09l-3.655 4.243L60.755 21h-2.059l-2.82-4.053-1.048 1.237V21h-1.713zm10.402-1.514v-6.39h1.45v6.39h-1.45zm-2.47-2.47v-1.45h6.39v1.45h-6.39zM69.289 21v-9.454h6.15v1.435h-4.437v2.567h4.118v1.436h-4.118v2.58h4.473V21H69.29zm15.406-9.454V21h-1.523l-4.455-6.44h-.079V21h-1.712v-9.454h1.532l4.45 6.444h.084v-6.444h1.703zm10.831 2.363L93.001 21h-1.847l-2.525-7.09h1.782l1.63 5.267h.073l1.635-5.268h1.777zm3.794 7.23c-.71 0-1.324-.148-1.841-.444a3.001 3.001 0 01-1.187-1.265c-.277-.547-.415-1.192-.415-1.934 0-.73.138-1.37.415-1.92.28-.554.671-.985 1.173-1.293.501-.31 1.09-.466 1.768-.466.437 0 .849.07 1.237.212a2.79 2.79 0 011.034.646c.302.293.539.665.711 1.118.172.449.258.985.258 1.606v.513h-5.812v-1.127h4.211a1.802 1.802 0 00-.208-.854 1.515 1.515 0 00-.568-.595 1.596 1.596 0 00-.84-.217c-.342 0-.642.083-.9.249-.259.163-.46.378-.605.646a1.86 1.86 0 00-.217.873v.983c0 .412.075.766.226 1.062.15.292.362.517.632.674.271.154.588.23.952.23.243 0 .463-.033.66-.1.197-.072.367-.175.512-.31a1.29 1.29 0 00.328-.503l1.56.175a2.428 2.428 0 01-.563 1.08 2.747 2.747 0 01-1.053.711c-.427.166-.917.25-1.468.25zm4.307-.139v-7.09h1.621v1.18h.074c.129-.408.35-.724.664-.945a1.831 1.831 0 011.085-.338c.093 0 .196.005.309.014.117.007.214.017.291.033v1.537a1.746 1.746 0 00-.337-.065 3.097 3.097 0 00-.438-.032 1.69 1.69 0 00-.822.198c-.24.13-.429.31-.568.54a1.534 1.534 0 00-.208.8V21h-1.671zm4.802 0v-1.062l3.657-4.584v-.06h-3.537v-1.385h5.582v1.14l-3.481 4.506v.06h3.601V21h-5.822zm7.132 0v-7.09h1.672V21h-1.672zm.841-8.097a.977.977 0 01-.684-.263.85.85 0 01-.286-.642c0-.252.096-.466.286-.642a.967.967 0 01.684-.268c.267 0 .495.09.683.268a.84.84 0 01.286.642c0 .25-.095.463-.286.642a.966.966 0 01-.683.263zm4.33 8.24c-.45 0-.855-.08-1.215-.24a1.98 1.98 0 01-.849-.72c-.206-.317-.309-.708-.309-1.173 0-.4.074-.73.221-.992.148-.262.35-.471.605-.628.255-.157.543-.276.863-.356a7.007 7.007 0 011.002-.18 38.19 38.19 0 001.011-.115c.259-.037.446-.092.563-.166.12-.077.18-.196.18-.356v-.027c0-.348-.103-.617-.309-.808-.206-.191-.503-.287-.891-.287-.409 0-.734.09-.974.268-.237.179-.397.39-.48.633l-1.561-.222c.124-.43.327-.79.61-1.08a2.644 2.644 0 011.039-.656 3.967 3.967 0 011.357-.221c.341 0 .682.04 1.02.12.339.08.648.212.928.397.28.181.505.43.674.743.172.314.258.706.258 1.177V21h-1.606v-.974h-.055a2.044 2.044 0 01-.43.554 2.06 2.06 0 01-.688.41 2.77 2.77 0 01-.964.153zm.433-1.228c.336 0 .627-.066.873-.198.246-.136.435-.314.568-.536.135-.222.203-.463.203-.725v-.835a.787.787 0 01-.268.12 3.82 3.82 0 01-.415.097 13.27 13.27 0 01-.457.074l-.393.055c-.249.034-.472.09-.669.166a1.105 1.105 0 00-.466.323.79.79 0 00-.171.527c0 .307.112.54.337.697.224.157.511.235.858.235z" fill="#242A36"/></svg>