<svg width="27" height="27" fill="none" xmlns="http://www.w3.org/2000/svg"><path d="M13.5 5.063a2.812 2.812 0 10-5.625 0 3.375 3.375 0 00-2.888 5.122 3.376 3.376 0 000 6.63 3.375 3.375 0 002.888 5.122 2.812 2.812 0 105.625 0m0 0a2.813 2.813 0 105.625 0 3.374 3.374 0 002.888-5.123 3.376 3.376 0 000-6.63 3.374 3.374 0 00-2.888-5.121 2.812 2.812 0 10-5.625 0" stroke="#1059B9" stroke-width="1.688" stroke-linecap="round" stroke-linejoin="round"/><path d="M11.798 7.875v2.227m-3.923 1.71h2.309m6.717 0h2.308m-2.308 3.346h2.308m-11.334.001h2.309m1.614 1.739v2.227m3.403-2.227v2.227m-.011-11.25v2.227m-3.881 6.737h4.467a1.125 1.125 0 001.125-1.125v-4.487a1.125 1.125 0 00-1.125-1.125h-4.467a1.125 1.125 0 00-1.125 1.125v4.487a1.125 1.125 0 001.125 1.125z" stroke="#1059B9" stroke-width="1.688" stroke-linecap="round"/></svg>