<svg width="24" height="24" fill="none" xmlns="http://www.w3.org/2000/svg"><path d="M12 12c2.761 0 5-2.257 5-5.042a5.04 5.04 0 00-3.052-4.645c-.702-.3-1.053-.45-1.5-.15-.447.3-.448.79-.448 1.77V12zm0 0c-2.761 0-5 2.257-5 5.042a5.04 5.04 0 003.053 4.645c.701.3 1.052.45 1.5.15.448-.3.447-.79.447-1.77V12z" stroke="#242A36" stroke-width="1.5" stroke-linejoin="round"/><path d="M12 12c0 2.761 2.257 5 5.042 5a5.04 5.04 0 004.645-3.052c.3-.702.45-1.053.15-1.5-.3-.447-.79-.448-1.77-.448H12zm0 0c0-2.761-2.257-5-5.042-5a5.04 5.04 0 00-4.645 3.053c-.3.701-.45 1.052-.15 1.5.3.448.79.447 1.77.447H12z" stroke="#242A36" stroke-width="1.5" stroke-linejoin="round"/></svg>