<svg width="24" height="24" fill="none" xmlns="http://www.w3.org/2000/svg"><path d="M11.538 8.322a.493.493 0 01.924 0l.712 1.922c.1.27.312.483.582.582l1.922.712a.493.493 0 010 .924l-1.922.712a1 1 0 00-.582.582l-.712 1.922a.493.493 0 01-.924 0l-.712-1.922a1 1 0 00-.582-.582l-1.922-.712a.494.494 0 010-.924l1.922-.712c.27-.1.483-.312.582-.582l.712-1.922z" stroke="#242A36" stroke-width="1.5"/><path d="M12 22c5.523 0 10-4.477 10-10S17.523 2 12 2 2 6.477 2 12s4.477 10 10 10z" stroke="#242A36" stroke-width="1.5"/><path d="M8 8c.673-3.532 2.21-6 4-6s3.327 2.468 4 6m-8 8c.673 3.532 2.21 6 4 6s3.327-2.468 4-6M2 12h2.5M22 12h-2.5" stroke="#242A36" stroke-width="1.5" stroke-linecap="round" stroke-linejoin="round"/></svg>