<svg width="24" height="24" fill="none" xmlns="http://www.w3.org/2000/svg"><path d="M4 11v4c0 3.3 0 4.95 1.025 5.975C6.05 22 7.7 22 11 22h2c3.3 0 4.95 0 5.975-1.025C20 19.95 20 18.3 20 15v-4" stroke="#242A36" stroke-width="1.5" stroke-linecap="round" stroke-linejoin="round"/><path d="M12 5.857A3.857 3.857 0 008.143 2h-.357C6.8 2 6 2.799 6 3.786A3.214 3.214 0 009.214 7H12m0-1.143V7m0-1.143A3.857 3.857 0 0115.857 2h.357C17.2 2 18 2.799 18 3.786A3.212 3.212 0 0114.786 7H12M3 9c0-.748 0-1.122.201-1.4a1.4 1.4 0 01.549-.44C4.098 7 4.565 7 5.5 7h13c.935 0 1.402 0 1.75.16.228.106.417.258.549.44C21 7.878 21 8.252 21 9c0 .748 0 1.121-.201 1.4a1.4 1.4 0 01-.549.44c-.348.16-.815.16-1.75.16h-13c-.935 0-1.402 0-1.75-.16a1.4 1.4 0 01-.549-.44C3 10.121 3 9.748 3 9z" stroke="#242A36" stroke-width="1.5" stroke-linejoin="round"/><path d="M12 11v11" stroke="#242A36" stroke-width="1.5" stroke-linecap="round" stroke-linejoin="round"/></svg>