<svg width="36" height="36" fill="none" xmlns="http://www.w3.org/2000/svg"><path d="M17.95 22.337L9.1 19.029l-1.46-8.284c-.646-3.661 1.853-7.16 5.584-7.818a6.892 6.892 0 016.084 1.902" stroke="#242A36" stroke-width="2.524" stroke-linecap="round" stroke-linejoin="round"/><path d="M15.662 30.138a6.898 6.898 0 006.198 2.016c3.728-.657 6.23-4.156 5.584-7.818l-1.46-8.284-9.026-3.367" stroke="#242A36" stroke-width="2.524" stroke-linecap="round" stroke-linejoin="round"/><path d="M13.757 20.77l-1.703-9.659 6.58-5.43c2.908-2.401 7.23-2.044 9.654.796a6.612 6.612 0 011.255 6.383" stroke="#242A36" stroke-width="2.524" stroke-linecap="round" stroke-linejoin="round"/><path d="M5.536 22.22a6.612 6.612 0 001.254 6.383c2.424 2.84 6.748 3.197 9.656.798l6.58-5.43-1.476-9.3" stroke="#242A36" stroke-width="2.524" stroke-linecap="round" stroke-linejoin="round"/><path d="M27.628 25.38a6.88 6.88 0 004.979-4.288c1.307-3.498-.515-7.357-4.068-8.617l-8.042-2.853-7.577 6.043" stroke="#242A36" stroke-width="2.524" stroke-linecap="round" stroke-linejoin="round"/><path d="M7.454 9.701a6.88 6.88 0 00-4.98 4.288c-1.307 3.5.515 7.358 4.068 8.617l8.042 2.853 7.56-6.031" stroke="#242A36" stroke-width="2.524" stroke-linecap="round" stroke-linejoin="round"/></svg>