<svg width="38" height="39" fill="none" xmlns="http://www.w3.org/2000/svg"><path fill-rule="evenodd" clip-rule="evenodd" d="M.1 24.384s3.15 7.556 3.365 7.911a3.623 3.623 0 002.355 1.667l21.76 4.687a3.661 3.661 0 004.3-2.618l5.81-21.414a3.57 3.57 0 00-.852-3.38c-1.507-1.595-4.49-4.757-5.377-5.765a5.028 5.028 0 00-2.78-1.6C25.02 3.134 14.28.984 9.736.07 7.92-.295 6.15.803 5.677 2.565L.043 23.56c-.072.272-.053.562.06.818l-.002.006zm34.871-9.35l-.003.011-5.519 20.327a1.145 1.145 0 01-1.345.817l-21.76-4.687a1.138 1.138 0 01-.734-.52 1.14 1.14 0 01-.13-.89l5.416-20.186c.158-.585.74-.947 1.333-.82l21.866 4.534c.307.063.574.251.74.522.163.264.212.588.13.89l.006.001zm-10.7 10.989l2.222-8.282c-.264-.537-.876-.669-1.674-1.168a.23.23 0 01-.105-.164.213.213 0 01.069-.182c1.448-1.248 4.156.5 6.251.41a.18.18 0 01.161.075c.037.055.039.12.01.177-.412.79-1.185 1.041-2.169.971L25.38 31.485a1.157 1.157 0 01-.972.852c-.429.053-.879.113-.879.113a2.097 2.097 0 01-2.448-1.414l-4.023-12.643-2.636 9.821c.258.535.876.669 1.674 1.168a.23.23 0 01.105.163.213.213 0 01-.069.183c-1.454 1.247-4.156-.5-6.251-.41a.166.166 0 01-.161-.075c-.039-.049-.039-.12-.01-.177.412-.79 1.185-1.041 2.169-.971L15.33 15.23l-1.777-.664s.524-1.445 2.308-1.148c.88.146 3.145.65 3.964.83a.57.57 0 01.403.355l4.05 11.408-.009.01zM11.424 5.887a1.82 1.82 0 001.07.669c3.119.65 16.437 3.42 19.74 4.106a.24.24 0 00.224-.4c-1.2-1.286-2.383-2.548-2.889-3.123a2.556 2.556 0 00-1.39-.8S13.05 3.159 9.894 2.668c-.397-.061-.52.055-.546.106-.104.172-.075.329.043.49.49.636 1.476 1.904 2.034 2.623z" fill="#F8F8F8"/></svg>