<svg width="38" height="38" fill="none" xmlns="http://www.w3.org/2000/svg"><g clip-path="url(#clip0_729_4093)"><path d="M31.176 9.69l-3.013.64-1.947-9.157-8.032 10.369-1.737-8.17-1.507.32 1.718 8.082L5.856 5.408l1.965 9.247-3.766.8 2.882 13.56 3.767-.8 1.805 8.494 7.278-10.215 1.719 8.087 1.507-.32-1.676-7.887 10.753 6.14-1.798-8.462 3.767-.801-2.883-13.56zM25.4 4.742l1.256 5.91-6.984 1.484L25.4 4.742zM8.09 8.513l7.588 4.472-6.35 1.35-1.237-5.822zm.034 18.676L5.882 16.642l10.235-2.176-6.28 9.67.546 2.573-2.26.48zm5.164 5.773l-1.077-5.067-.735-3.455 5.933-9.135 1.943 9.144-6.064 8.513zm16.581-3.49l-8.962-5.117-1.991-9.37 9.135 5.932 1.818 8.554zm2.363-7.408l-2.26.48-.547-2.571-9.67-6.28 10.235-2.175 2.242 10.546z" fill="#fff"/></g><defs><clipPath id="clip0_729_4093"><path fill="#fff" transform="rotate(-12 31.651 3.327)" d="M0 0h32v32H0z"/></clipPath></defs></svg>