<svg width="24" height="24" fill="none" xmlns="http://www.w3.org/2000/svg"><path fill-rule="evenodd" clip-rule="evenodd" d="M15.055 7.885l2.103-2.104a2 2 0 012.623-2.623l2.097-2.096A1.6 1.6 0 0021.44 1h-7.45c-.551 0-1.08.22-1.47.609L8.096 6.034l2.048 2.048a4.5 4.5 0 014.91-.197zm-8.021-.79L1.609 12.52a2.08 2.08 0 000 2.939l2.936 2.936 4.34-4.34a4.5 4.5 0 01.197-4.912L7.034 7.095zm-1.43 12.36l2.937 2.936a2.08 2.08 0 002.94 0l5.425-5.425-1.548-1.548A4.5 4.5 0 019.86 15.2l-4.255 4.255zm12.362-3.55l4.425-4.425c.39-.39.609-.918.609-1.47V2.56c0-.153-.021-.298-.062-.436L20.842 4.22a2 2 0 01-2.623 2.623l-3.032 3.031-.525-.435a3 3 0 10.994 3.062H13V11h4.25v.75a4.5 4.5 0 01-.832 2.607l1.548 1.548z" fill="#242A36"/></svg>