<svg width="24" height="24" fill="none" xmlns="http://www.w3.org/2000/svg"><path d="M17 13.805c0-.346 0-.519.052-.673.151-.448.55-.62.95-.803.448-.205.672-.307.895-.325.252-.02.505.034.721.155.286.16.486.466.69.714.943 1.146 1.415 1.72 1.587 2.35.14.51.14 1.044 0 1.553-.251.922-1.046 1.694-1.635 2.41-.301.365-.452.548-.642.655a1.27 1.27 0 01-.721.155c-.223-.018-.447-.12-.896-.325-.4-.182-.798-.355-.949-.803-.052-.154-.052-.327-.052-.672v-4.39z" stroke="#242A36" stroke-width="1.5"/><path d="M9.5 21c1.38 1.333 3.62 1.333 5 0" stroke="#242A36" stroke-width="1.5" stroke-linecap="round" stroke-linejoin="round"/><path d="M7 13.805c0-.436-.012-.827-.364-1.133-.128-.111-.298-.188-.637-.343-.45-.204-.673-.307-.896-.325-.667-.054-1.026.402-1.41.87-.944 1.145-1.416 1.718-1.59 2.35a2.94 2.94 0 000 1.552c.253.922 1.049 1.694 1.637 2.41.37.45.726.86 1.363.81.223-.018.447-.12.896-.325.34-.155.509-.232.637-.343.352-.306.364-.697.364-1.133v-4.39z" stroke="#242A36" stroke-width="1.5"/><path d="M2 16v-4C2 6.477 6.477 2 12 2s10 4.477 10 10v4" stroke="#242A36" stroke-width="1.5" stroke-linecap="round" stroke-linejoin="round"/></svg>