<svg width="24" height="24" fill="none" xmlns="http://www.w3.org/2000/svg"><path d="M5 20.5h14m-2.128-3H7.128c-1.028 0-1.542 0-1.932-.277-.39-.276-.56-.761-.9-1.732L2.052 9.077a.97.97 0 01.241-1.007 1.01 1.01 0 011.26-.123l1.231.81c1.244.818 1.866 1.226 2.495 1.078.63-.149 1.002-.793 1.75-2.08l2.213-3.82a.88.88 0 011.517-.001l2.214 3.82c.747 1.288 1.12 1.932 1.75 2.08.628.15 1.25-.26 2.493-1.077l1.233-.81a1.01 1.01 0 011.26.123c.266.264.36.653.24 1.007l-2.246 6.414c-.34.97-.51 1.456-.9 1.732-.39.277-.903.277-1.93.277z" stroke="#242A36" stroke-width="1.5" stroke-linecap="round" stroke-linejoin="round"/></svg>