<svg width="24" height="24" fill="none" xmlns="http://www.w3.org/2000/svg"><path d="M15 2.5V4c0 1.414 0 2.121.44 2.56C15.878 7 16.585 7 18 7h1.5" stroke="#242A36" stroke-width="1.5" stroke-linecap="round" stroke-linejoin="round"/><path d="M8 11h8m-8 3h8m-8 3h4.17M4 16V8c0-2.828 0-4.243.879-5.121C5.757 2 7.172 2 10 2h4.172c.408 0 .613 0 .797.076.183.076.328.22.617.51l3.828 3.828c.29.29.434.434.51.618.076.183.076.388.076.796V16c0 2.828 0 4.243-.879 5.121C18.243 22 16.828 22 14 22h-4c-2.828 0-4.243 0-5.121-.879C4 20.243 4 18.828 4 16z" stroke="#242A36" stroke-width="1.5" stroke-linecap="round" stroke-linejoin="round"/></svg>