<svg width="24" height="24" fill="none" xmlns="http://www.w3.org/2000/svg"><path d="M2.017 13.5C4.217 13.5 6 15.283 6 17.483m12 0v-.092a3.89 3.89 0 013.89-3.89M6 3.515c0 2.2-1.783 3.982-3.983 3.982M18 3.516c0 2.18 1.77 3.951 3.942 3.982" stroke="#242A36" stroke-width="1.5" stroke-linecap="round" stroke-linejoin="round"/><path d="M5 20.5h14m-3-17H8c-2.828 0-4.243 0-5.121.879C2 5.257 2 6.672 2 9.5v2c0 2.828 0 4.243.879 5.121.878.879 2.293.879 5.121.879h8c2.828 0 4.243 0 5.121-.879C22 15.743 22 14.328 22 11.5v-2c0-2.828 0-4.243-.879-5.121C20.243 3.5 18.828 3.5 16 3.5z" stroke="#242A36" stroke-width="1.5" stroke-linecap="round" stroke-linejoin="round"/><path d="M15 10.5a3 3 0 11-6 0 3 3 0 016 0z" stroke="#242A36" stroke-width="1.5" stroke-linecap="round" stroke-linejoin="round"/></svg>