<svg width="48" height="20" fill="none" xmlns="http://www.w3.org/2000/svg"><g clip-path="url(#clip0_30_305)"><g clip-path="url(#clip1_30_305)"><g clip-path="url(#clip2_30_305)"><path d="M13 7l-6 6m0-6l6 6m6-3a9 9 0 11-18 0 9 9 0 0118 0z" stroke="#717580" stroke-width="1.5" stroke-linecap="round" stroke-linejoin="round"/></g></g></g><g clip-path="url(#clip3_30_305)"><g clip-path="url(#clip4_30_305)"><g clip-path="url(#clip5_30_305)"><path d="M34.667 10.633l1.505 1.721a1.001 1.001 0 001.564-.073L41.333 7.3M47 10a9 9 0 11-18 0 9 9 0 0118 0z" stroke="#717580" stroke-width="1.5" stroke-linecap="round" stroke-linejoin="round"/></g></g></g><defs><clipPath id="clip0_30_305"><path fill="#fff" d="M0 0h20v20H0z"/></clipPath><clipPath id="clip1_30_305"><path fill="#fff" d="M0 0h20v20H0z"/></clipPath><clipPath id="clip2_30_305"><path fill="#fff" d="M0 0h20v20H0z"/></clipPath><clipPath id="clip3_30_305"><path fill="#fff" transform="translate(28)" d="M0 0h20v20H0z"/></clipPath><clipPath id="clip4_30_305"><path fill="#fff" transform="translate(28)" d="M0 0h20v20H0z"/></clipPath><clipPath id="clip5_30_305"><path fill="#fff" transform="translate(28)" d="M0 0h20v20H0z"/></clipPath></defs></svg>