<svg width="20" height="20" fill="#242A36" xmlns="http://www.w3.org/2000/svg"><path d="M6.909 3.462l-.403-.906c-.263-.592-.395-.888-.592-1.115a2 2 0 00-.928-.603C4.699.75 4.375.75 3.726.75c-.948 0-1.422 0-1.82.182A2.12 2.12 0 00.845 2.101c-.143.413-.102.838-.02 1.689.873 9.05 5.835 14.012 14.886 14.885.85.082 1.275.123 1.689-.02.51-.19.929-.57 1.168-1.06.182-.399.182-.873.182-1.821 0-.649 0-.973-.088-1.26a2.002 2.002 0 00-.603-.928c-.226-.197-.523-.328-1.115-.592l-.906-.402c-.642-.285-.962-.428-1.288-.459a2 2 0 00-.92.128c-.304.119-.573.343-1.113.793-.537.447-.805.67-1.133.79a2.16 2.16 0 01-.981.101c-.346-.05-.61-.192-1.14-.475-1.645-.88-2.553-1.787-3.433-3.433-.283-.53-.424-.794-.475-1.14a2.16 2.16 0 01.1-.98c.12-.329.344-.597.79-1.134.45-.54.676-.809.794-1.114.114-.292.158-.607.128-.919-.03-.326-.173-.646-.46-1.288h.002z" stroke="#242A36" stroke-width="1.5" stroke-linecap="round"/></svg>