<svg width="24" height="24" fill="none" xmlns="http://www.w3.org/2000/svg"><path d="M18.47 2.025c.006-.033.054-.033.06 0a4.42 4.42 0 003.445 3.444c.033.007.033.055 0 .062a4.42 4.42 0 00-3.444 3.444c-.007.033-.055.033-.062 0a4.42 4.42 0 00-3.444-3.444c-.033-.007-.033-.055 0-.062a4.42 4.42 0 003.445-3.444z" stroke="#242A36" stroke-width="1.5" stroke-linecap="round" stroke-linejoin="round"/><path d="M11.99 11H12m-4.005 0h.01" stroke="#242A36" stroke-width="2" stroke-linecap="round" stroke-linejoin="round"/><path d="M13 3.005a98.564 98.564 0 00-5.244.083c-2.44.105-3.66.157-4.626 1.13-.965.972-1.007 2.159-1.09 4.532a64 64 0 000 4.5c.083 2.373.125 3.56 1.09 4.532.965.973 2.186 1.025 4.626 1.13l.244.01v2.348a.73.73 0 001.205.554l2.18-1.869c.547-.47.821-.704 1.147-.828.326-.124.696-.131 1.437-.145a99.36 99.36 0 002.275-.07c2.44-.105 3.66-.157 4.626-1.13.965-.972 1.007-2.159 1.09-4.532.044-1.25.052-2.5.023-3.75" stroke="#242A36" stroke-width="1.5" stroke-linecap="round" stroke-linejoin="round"/></svg>