<svg width="24" height="24" fill="none" xmlns="http://www.w3.org/2000/svg"><path d="M22 13c-.078 1.872-.329 3.02-1.139 3.828C19.688 18 17.8 18 14.021 18h-4.007c-3.778 0-5.667 0-6.84-1.172S2 13.771 2 10c0-3.771 0-5.657 1.174-6.828C4.348 2.001 6.236 2 10.014 2H11" stroke="#242A36" stroke-width="1.5" stroke-linecap="round"/><path d="M12 18v4" stroke="#242A36" stroke-width="1.5"/><path d="M8 22h8" stroke="#242A36" stroke-width="1.5" stroke-linecap="round"/><path d="M11 15h2m9-9.5V3c-2 0-3.5-1-3.5-1S17 3 15 3v2.5C15 9 18.5 10 18.5 10S22 9 22 5.5z" stroke="#242A36" stroke-width="1.5" stroke-linecap="round" stroke-linejoin="round"/></svg>