<svg width="24" height="24" fill="none" xmlns="http://www.w3.org/2000/svg"><path d="M12 20s1 0 2 2c0 0 3.177-5 6-6" stroke="#242A36" stroke-width="1.5" stroke-linecap="round" stroke-linejoin="round"/><path d="M20 13.005V10.66c0-.818 0-1.227-.152-1.595-.152-.368-.441-.657-1.02-1.235l-4.736-4.739c-.499-.499-.748-.748-1.058-.896a2.002 2.002 0 00-.197-.082C12.514 2 12.161 2 11.456 2c-3.245 0-4.868 0-5.967.886a4 4 0 00-.603.604C4 4.59 4 6.213 4 9.46v4.545c0 3.773 0 5.66 1.172 6.832C6.115 21.78 7.52 21.964 10 22m3-19.5V3c0 2.83 0 4.245.879 5.124.878.879 2.293.879 5.121.879h.5" stroke="#242A36" stroke-width="1.5" stroke-linecap="round" stroke-linejoin="round"/></svg>