<svg width="24" height="24" fill="none" xmlns="http://www.w3.org/2000/svg"><path d="M20 11.999v-1.343c0-.818 0-1.226-.152-1.594-.152-.367-.441-.656-1.02-1.235l-4.736-4.736c-.499-.499-.748-.748-1.058-.896a2.002 2.002 0 00-.197-.082c-.323-.114-.676-.114-1.381-.114-3.245 0-4.868 0-5.967.886a4 4 0 00-.603.603C4 4.588 4 6.21 4 9.455v4.544c0 3.771 0 5.657 1.172 6.828C6.344 21.998 8.229 22 12 22m1-19.5V3c0 2.828 0 4.243.879 5.121C14.757 9 16.172 9 19 9h.5" stroke="#242A36" stroke-width="1.5" stroke-linecap="round" stroke-linejoin="round"/><path d="M20 17.621v-1.97a.634.634 0 00-.523-.62 9.1 9.1 0 01-2.66-.95.66.66 0 00-.634 0 9.1 9.1 0 01-2.66.95.634.634 0 00-.523.62v1.97c0 2.572 2.542 3.974 3.294 4.333.132.063.28.063.412 0 .752-.359 3.294-1.76 3.294-4.333z" stroke="#242A36" stroke-width="1.5" stroke-linecap="round"/></svg>