<svg width="24" height="24" fill="none" xmlns="http://www.w3.org/2000/svg"><path d="M4 22V9.456c0-3.245 0-4.868.886-5.967a4 4 0 01.603-.603C6.59 2 8.211 2 11.456 2c.705 0 1.058 0 1.381.114a2.1 2.1 0 01.197.082c.31.148.559.397 1.058.896l4.736 4.736c.579.578.867.868 1.02 1.235.152.368.152.776.152 1.594V14c0 3.771 0 5.657-1.172 6.828-.93.932-2.314 1.123-4.736 1.162M13 2.5V3c0 2.828 0 4.243.879 5.121C14.757 9 16.172 9 19 9h.5m-12-3.5H7m3 2h-.5m-2 2H7m3 2.023h-.5m-2 1.977H7" stroke="#242A36" stroke-width="1.5" stroke-linecap="round" stroke-linejoin="round"/><path d="M11 22v-3a2 2 0 00-4 0v3h4z" stroke="#242A36" stroke-width="1.5" stroke-linecap="round" stroke-linejoin="round"/></svg>