<svg width="24" height="24" fill="none" xmlns="http://www.w3.org/2000/svg"><path d="M14.98 7.016s.5.5 1 1.5c0 0 1.589-2.5 3-3M9.995 2.02c-2.5-.105-4.43.182-4.43.182-1.218.088-3.553.77-3.553 4.762 0 3.956-.026 8.834 0 10.779 0 1.188.735 3.96 3.28 4.108 3.096.18 8.67.219 11.229 0 .684-.04 2.964-.576 3.252-3.056.3-2.57.24-4.355.24-4.78" stroke="#242A36" stroke-width="1.5" stroke-linecap="round" stroke-linejoin="round"/><path d="M6.98 13.016h4m-4 4h8m7.02-10c0 2.76-2.24 5-5.005 5a5 5 0 111.915-9.621A5 5 0 0122 7.015z" stroke="#242A36" stroke-width="1.5" stroke-linecap="round"/></svg>