<svg width="24" height="24" fill="none" xmlns="http://www.w3.org/2000/svg"><path d="M8.73 21.5c1.293-2.224 4.252-2.486 5.937-.787.377.38.566.57.733.592.167.022 1.215-.578 1.587-.792.38-.217 1.432-.82 1.498-.979.066-.157-.003-.427-.142-.965-.503-1.957.718-4.017 2.668-4.548.522-.142.783-.213.886-.349.103-.136.103-1.33.103-1.768 0-.437 0-1.633-.103-1.769-.103-.136-.364-.207-.886-.349-1.95-.53-3.172-2.59-2.67-4.548.14-.538.208-.807.142-.965-.066-.158-1.118-.76-1.497-.979-.372-.213-1.42-.815-1.588-.792-.167.023-.355.213-.732.592a3.775 3.775 0 01-5.333 0c-.377-.38-.566-.57-.733-.592-.167-.022-1.215.58-1.587.792-.38.218-1.432.821-1.498.98-.066.157.003.426.142.964.503 1.957-.718 4.017-2.668 4.548-.522.142-.783.213-.886.35C2 10.27 2 11.466 2 11.903c0 .438 0 1.632.103 1.768.103.136.364.207.886.35a.04.04 0 01.018.004" stroke="#242A36" stroke-width="1.5" stroke-linecap="round"/><path d="M2.489 18.183c1.08-1.08 4.752-4.714 5.112-5.134.38-.444.072-1.044.256-2.903.088-.9.282-1.573.836-2.075.66-.624 1.2-.624 3.06-.666 1.62.042 1.812-.138 1.98.282.12.3-.24.48-.672.96-.96.96-1.524 1.44-1.578 1.74-.39 1.319 1.146 2.098 1.986 1.258.318-.317 1.788-1.799 1.932-1.919.108-.096.366-.091.492.06.108.106.12.12.108.6-.011.444-.006 1.082-.005 1.74.002.851-.043 1.799-.403 2.278-.72 1.08-1.92 1.14-3 1.188-1.02.06-1.86-.048-2.124.144-.216.108-1.356 1.307-2.736 2.687l-2.46 2.459c-2.04 1.62-4.284-.9-2.784-2.7v.001z" stroke="#242A36" stroke-width="1.5" stroke-linecap="round"/></svg>