<svg width="24" height="24" fill="none" xmlns="http://www.w3.org/2000/svg"><path d="M22 12c0-5.523-4.477-10-10-10S2 6.477 2 12s4.477 10 10 10" stroke="#242A36" stroke-width="1.5" stroke-linecap="round"/><path d="M20 5.699c-.935.067-2.132.43-2.962 1.504-1.5 1.94-2.999 2.103-3.999 1.456-1.5-.97-.239-2.543-1.999-3.397C9.893 4.705 9.733 3.19 10.372 2M2 11c.763.662 1.83 1.268 3.089 1.268 2.6 0 3.12.497 3.12 2.484s0 1.987.52 3.477c.338.97.456 1.938-.218 2.771" stroke="#242A36" stroke-width="1.5" stroke-linejoin="round"/><path d="M19.899 19.929L22 22m-.892-4.954a4.05 4.05 0 01-4.054 4.046 4.05 4.05 0 01-3.744-5.596 4.05 4.05 0 015.294-2.19 4.05 4.05 0 012.504 3.74z" stroke="#242A36" stroke-width="1.5" stroke-linecap="round"/></svg>