<svg width="24" height="24" fill="none" xmlns="http://www.w3.org/2000/svg"><path d="M8.941 6.349L10.755 8.9c.37.52.554.78.65 1.079.095.3.095.619.095 1.258V20h-6c-1.886 0-2.828 0-3.414-.589-.586-.588-.586-1.536-.586-3.431v-4.742c0-.64 0-.959.095-1.258.096-.3.28-.56.65-1.08L4.06 6.35C5.172 4.783 5.729 4 6.5 4c.772 0 1.328.783 2.441 2.349z" stroke="#242A36" stroke-width="1.5" stroke-linecap="round" stroke-linejoin="round"/><path d="M8.5 20v-4c0-.748 0-1.121-.16-1.4a1.2 1.2 0 00-.44-.44C7.622 14 7.248 14 6.5 14c-.748 0-1.122 0-1.4.16a1.2 1.2 0 00-.44.44c-.16.279-.16.652-.16 1.4v4" stroke="#242A36" stroke-width="1.5" stroke-linecap="round" stroke-linejoin="round"/><path d="M8.5 20h10c1.886 0 2.828 0 3.414-.586.586-.586.586-1.528.586-3.414v-4.552c0-.716 0-1.075-.12-1.405-.119-.33-.348-.605-.807-1.156L18.699 5.44c-.59-.707-.884-1.061-1.287-1.25C17.008 4 16.548 4 15.627 4H6.5M22 10H11.5" stroke="#242A36" stroke-width="1.5" stroke-linecap="round" stroke-linejoin="round"/></svg>