<svg width="271" height="143" fill="none" xmlns="http://www.w3.org/2000/svg"><path d="M10 .5h251a9.5 9.5 0 019.5 9.5v123a9.5 9.5 0 01-9.5 9.5H10A9.5 9.5 0 01.5 133V10A9.499 9.499 0 019.51.513L10 .5z" fill="#fff"/><path d="M10 .5h251a9.5 9.5 0 019.5 9.5v123a9.5 9.5 0 01-9.5 9.5H10A9.5 9.5 0 01.5 133V10A9.499 9.499 0 019.51.513L10 .5z" stroke="#E4E4E4"/><path d="M87.941 26.364V38h-1.364l-6.34-9.136h-.114V38h-1.41V26.364h1.364l6.364 9.159h.114v-9.16h1.386zm5.206 11.84a3.546 3.546 0 01-1.506-.312 2.584 2.584 0 01-1.074-.915c-.265-.401-.397-.886-.397-1.454 0-.5.098-.906.295-1.216.197-.315.46-.56.79-.739a4.15 4.15 0 011.09-.398c.402-.09.806-.162 1.211-.215.53-.069.96-.12 1.29-.154.333-.038.576-.1.727-.187.156-.087.233-.239.233-.455v-.045c0-.561-.153-.997-.46-1.307-.303-.31-.763-.466-1.38-.466-.64 0-1.143.14-1.506.42-.364.28-.62.58-.767.898l-1.273-.454c.227-.53.53-.944.909-1.24.382-.298.8-.507 1.25-.624a5.191 5.191 0 011.34-.182c.281 0 .603.034.967.102a3.09 3.09 0 011.062.404c.345.204.63.513.858.926.227.413.341.966.341 1.659V38h-1.34v-1.182h-.07a2.36 2.36 0 01-.454.608c-.212.216-.494.4-.846.551-.352.152-.782.228-1.29.228zM93.352 37c.53 0 .977-.104 1.34-.313a2.127 2.127 0 001.114-1.846v-1.227c-.057.068-.182.13-.375.187-.19.053-.409.1-.659.142a29.81 29.81 0 01-1.284.17c-.349.046-.674.12-.977.222a1.68 1.68 0 00-.728.45c-.181.196-.272.465-.272.806 0 .466.172.818.517 1.057.348.235.79.352 1.324.352zm.045-8.91l1.386-2.636h1.569l-1.773 2.637h-1.182zM99.594 38v-8.727h1.296v1.318h.091c.159-.432.447-.782.863-1.051a2.545 2.545 0 011.41-.404c.098 0 .221.002.369.006s.259.01.335.017v1.364a4.014 4.014 0 00-.312-.051 3.08 3.08 0 00-.506-.04c-.424 0-.803.089-1.136.267-.33.174-.591.416-.785.727a1.964 1.964 0 00-.284 1.051V38h-1.34zm8.522.205a3.548 3.548 0 01-1.506-.313 2.582 2.582 0 01-1.074-.915c-.265-.401-.397-.886-.397-1.454 0-.5.098-.906.295-1.216.197-.315.46-.56.79-.739a4.14 4.14 0 011.091-.398c.401-.09.805-.162 1.21-.215.53-.069.96-.12 1.29-.154.333-.038.575-.1.727-.187.155-.087.233-.239.233-.455v-.045c0-.561-.154-.997-.46-1.307-.303-.31-.764-.466-1.381-.466-.64 0-1.142.14-1.506.42-.363.28-.619.58-.767.898l-1.272-.454c.227-.53.53-.944.909-1.24a3.411 3.411 0 011.25-.624 5.184 5.184 0 011.341-.182c.28 0 .602.034.965.102.368.065.722.2 1.063.404.345.204.631.513.858.926.227.413.341.966.341 1.659V38h-1.341v-1.182h-.068a2.36 2.36 0 01-.455.608c-.212.216-.494.4-.846.551-.353.152-.783.228-1.29.228zM108.32 37c.531 0 .978-.104 1.341-.313a2.128 2.128 0 001.114-1.846v-1.227c-.057.068-.182.13-.375.187-.19.053-.409.1-.659.142a29.629 29.629 0 01-1.284.17 5.13 5.13 0 00-.978.222 1.687 1.687 0 00-.727.45c-.182.196-.273.465-.273.806 0 .466.173.818.517 1.057.349.235.79.352 1.324.352zm12.425-5.773l-1.205.341a2.207 2.207 0 00-.335-.585 1.628 1.628 0 00-.591-.477c-.25-.125-.57-.188-.96-.188-.534 0-.979.123-1.335.37-.352.242-.529.55-.529.926 0 .333.122.596.364.79.243.193.621.354 1.136.482l1.296.319c.78.189 1.362.479 1.744.869.383.386.574.884.574 1.494 0 .5-.144.947-.432 1.341-.284.394-.682.705-1.193.932-.511.227-1.106.34-1.784.34-.89 0-1.627-.192-2.21-.579-.584-.386-.953-.95-1.108-1.693l1.273-.318c.121.47.35.822.687 1.057.341.235.786.352 1.335.352.625 0 1.122-.133 1.489-.398.371-.269.557-.59.557-.966 0-.303-.106-.556-.318-.761-.213-.208-.538-.364-.978-.466l-1.454-.34c-.799-.19-1.387-.484-1.762-.882-.371-.401-.556-.903-.556-1.505 0-.493.138-.928.414-1.307a2.828 2.828 0 011.142-.892c.485-.216 1.034-.324 1.648-.324.864 0 1.542.19 2.034.568.496.38.849.88 1.057 1.5zm5.973-1.954v1.136h-4.523v-1.136h4.523zm-3.204-2.091h1.34V35.5c0 .379.055.663.165.852.114.186.258.31.432.375.178.06.366.091.563.091.147 0 .268-.007.363-.023l.227-.045.273 1.205a2.733 2.733 0 01-.381.102 2.793 2.793 0 01-.619.057c-.379 0-.75-.082-1.113-.245a2.208 2.208 0 01-.898-.744c-.235-.333-.352-.754-.352-1.261v-8.682zm13.017 11c-.728 0-1.37-.184-1.927-.551-.556-.371-.992-.894-1.306-1.569-.315-.677-.472-1.479-.472-2.403 0-.917.157-1.712.472-2.386.314-.674.751-1.195 1.312-1.563.561-.367 1.208-.55 1.943-.55.568 0 1.017.094 1.347.283.333.186.587.398.761.636.178.235.317.429.415.58h.114v-4.295h1.341V38h-1.296v-1.34h-.159a8.7 8.7 0 01-.42.601c-.182.239-.442.453-.779.642-.337.186-.786.279-1.346.279zm.181-1.205c.538 0 .993-.14 1.364-.42.371-.284.653-.676.847-1.176.193-.504.289-1.086.289-1.745 0-.651-.094-1.221-.284-1.71-.189-.492-.469-.875-.841-1.148-.371-.276-.829-.414-1.375-.414-.568 0-1.041.145-1.42.437-.375.288-.657.68-.847 1.176a4.689 4.689 0 00-.278 1.66c0 .62.095 1.185.284 1.693.193.503.477.905.852 1.204.379.296.849.443 1.409.443zm10.006 1.205c-.788 0-1.479-.188-2.074-.563-.591-.375-1.053-.9-1.386-1.574-.33-.674-.494-1.462-.494-2.363 0-.91.164-1.703.494-2.38.333-.679.795-1.205 1.386-1.58.595-.375 1.286-.563 2.074-.563.788 0 1.477.188 2.068.563.595.375 1.057.901 1.387 1.58.333.677.5 1.47.5 2.38 0 .901-.167 1.69-.5 2.363-.33.675-.792 1.2-1.387 1.574-.591.375-1.28.563-2.068.563zm0-1.205c.599 0 1.091-.153 1.477-.46.387-.307.673-.71.858-1.21.186-.5.279-1.042.279-1.625 0-.584-.093-1.127-.279-1.63a2.74 2.74 0 00-.858-1.223c-.386-.31-.878-.465-1.477-.465-.598 0-1.091.155-1.477.465a2.74 2.74 0 00-.858 1.222 4.672 4.672 0 00-.279 1.63c0 .584.093 1.126.279 1.626.185.5.471.903.858 1.21.386.307.879.46 1.477.46zm6.001 4.296v-12h1.296v1.386h.159c.099-.151.235-.345.409-.58.178-.238.432-.45.761-.636.334-.19.785-.284 1.353-.284.735 0 1.382.184 1.943.551.561.368.998.889 1.312 1.563.315.674.472 1.47.472 2.386 0 .924-.157 1.726-.472 2.404-.314.674-.75 1.197-1.306 1.568-.557.367-1.199.55-1.927.55-.56 0-1.009-.092-1.346-.278-.337-.189-.597-.403-.779-.642a9.066 9.066 0 01-.42-.602h-.114v4.614h-1.341zm1.319-7.637c0 .66.096 1.24.289 1.745.194.5.476.892.847 1.176.371.28.826.42 1.364.42.56 0 1.028-.147 1.403-.443.379-.3.663-.7.852-1.204.194-.508.29-1.072.29-1.694a4.6 4.6 0 00-.284-1.659c-.186-.496-.468-.888-.847-1.176-.375-.291-.846-.437-1.414-.437-.546 0-1.004.138-1.375.414-.372.273-.652.656-.841 1.148-.19.489-.284 1.059-.284 1.71zm8.983 7.637c-.228 0-.43-.02-.608-.057a1.626 1.626 0 01-.37-.102l.341-1.182c.326.083.614.113.864.09.25-.022.471-.134.665-.334.197-.198.377-.518.539-.96l.25-.683-3.227-8.772h1.455l2.409 6.954h.091l2.409-6.954h1.454l-3.704 10c-.167.45-.373.824-.62 1.119-.246.3-.532.52-.857.665a2.646 2.646 0 01-1.091.216zm11.838-12v1.136h-4.523v-1.136h4.523zm-3.205-2.091h1.341V35.5c0 .379.055.663.165.852a.85.85 0 00.432.375c.178.06.365.091.562.091.148 0 .269-.007.364-.023l.227-.045.273 1.205a2.733 2.733 0 01-.381.102 2.8 2.8 0 01-.619.057 2.7 2.7 0 01-1.114-.245 2.215 2.215 0 01-.898-.744c-.234-.333-.352-.754-.352-1.261v-8.682zm8.673 11c-.787 0-1.479-.188-2.073-.563-.591-.375-1.053-.9-1.387-1.574-.329-.674-.494-1.462-.494-2.363 0-.91.165-1.703.494-2.38.334-.679.796-1.205 1.387-1.58.594-.375 1.286-.563 2.073-.563.788 0 1.478.188 2.069.563.594.375 1.056.901 1.386 1.58.333.677.5 1.47.5 2.38 0 .901-.167 1.69-.5 2.363-.33.675-.792 1.2-1.386 1.574-.591.375-1.281.563-2.069.563zm0-1.205c.599 0 1.091-.153 1.478-.46a2.72 2.72 0 00.858-1.21c.185-.5.278-1.042.278-1.625 0-.584-.093-1.127-.278-1.63a2.755 2.755 0 00-.858-1.223c-.387-.31-.879-.465-1.478-.465-.598 0-1.09.155-1.477.465a2.757 2.757 0 00-.858 1.222 4.695 4.695 0 00-.278 1.63c0 .584.093 1.126.278 1.626.186.5.472.903.858 1.21.387.307.879.46 1.477.46zm12.826-7.704L189.925 38h-1.363l-3.227-8.727h1.454l2.409 6.954h.091l2.409-6.954h1.455zM96.597 81.122v-17.6h4.449v17.6h-4.45zm-6.575-6.575v-4.45h17.599v4.45h-17.6zm21.372 5.979v-4.239l10.627-16.742h3.654v5.867h-2.163l-6.699 10.602v.199h15.101v4.313h-20.52zM123.611 85v-5.767l.1-1.877v-17.81h5.046V85h-5.146zm20.186.348c-1.757 0-3.323-.323-4.699-.97-1.367-.646-2.452-1.537-3.256-2.672-.804-1.135-1.222-2.436-1.255-3.902h5.22c.058.986.472 1.785 1.243 2.398.77.614 1.686.92 2.747.92.845 0 1.591-.186 2.237-.56a4.01 4.01 0 001.529-1.578c.372-.68.559-1.458.559-2.336 0-.895-.191-1.682-.572-2.362a4.047 4.047 0 00-1.553-1.59c-.663-.382-1.421-.577-2.275-.585-.746 0-1.471.153-2.175.46-.696.307-1.239.725-1.628 1.255l-4.785-.857 1.205-13.423H151.9v4.4h-11.124l-.658 6.375h.149c.447-.63 1.123-1.151 2.026-1.566.903-.414 1.914-.621 3.032-.621 1.533 0 2.9.36 4.102 1.081a7.79 7.79 0 012.846 2.97c.696 1.252 1.04 2.694 1.032 4.326.008 1.715-.39 3.24-1.193 4.574-.796 1.326-1.91 2.37-3.344 3.132-1.425.754-3.082 1.131-4.971 1.131zm26.194-5.12v-1.343c0-1.02.216-1.956.647-2.809a5.125 5.125 0 011.901-2.063c.837-.522 1.856-.783 3.058-.783 1.218 0 2.241.257 3.07.77a4.928 4.928 0 011.889 2.064c.431.853.646 1.794.646 2.821v1.342c0 1.02-.215 1.96-.646 2.822a5.031 5.031 0 01-1.902 2.05c-.837.522-1.856.783-3.057.783-1.218 0-2.242-.26-3.07-.783a5.047 5.047 0 01-1.889-2.05 6.219 6.219 0 01-.647-2.822zm3.617-1.343v1.342c0 .589.141 1.144.423 1.666.29.522.812.783 1.566.783s1.267-.257 1.541-.77a3.43 3.43 0 00.422-1.679v-1.342a3.68 3.68 0 00-.397-1.69c-.265-.522-.787-.783-1.566-.783-.746 0-1.264.26-1.554.783a3.425 3.425 0 00-.435 1.69zm-16.68-13.225v-1.342c0-1.027.22-1.968.659-2.821a5.12 5.12 0 011.902-2.063c.837-.514 1.848-.771 3.032-.771 1.227 0 2.254.257 3.083.77a5.04 5.04 0 011.889 2.064c.431.853.646 1.794.646 2.821v1.343c0 1.027-.219 1.967-.658 2.82a5.032 5.032 0 01-1.902 2.052c-.829.505-1.848.758-3.058.758-1.209 0-2.233-.257-3.07-.77a5.168 5.168 0 01-1.889-2.052c-.422-.853-.634-1.79-.634-2.808zm3.642-1.342v1.343c0 .604.141 1.164.423 1.677.29.514.799.771 1.528.771.763 0 1.281-.257 1.554-.77a3.43 3.43 0 00.423-1.678v-1.343c0-.605-.133-1.168-.398-1.69s-.791-.783-1.579-.783c-.737 0-1.247.265-1.528.795a3.524 3.524 0 00-.423 1.678zM158.569 85l17.5-25.455h3.256L161.825 85h-3.256z" fill="#242A36"/><path d="M21.633 123.539v-16.644h2.806v2.002h.165c.148-.295.355-.607.623-.938.268-.337.63-.623 1.088-.859.457-.242 1.04-.363 1.75-.363.934 0 1.778.239 2.529.717.757.473 1.356 1.175 1.797 2.105.447.924.67 2.059.67 3.404 0 1.329-.218 2.459-.654 3.389-.436.93-1.03 1.639-1.781 2.128-.752.488-1.603.733-2.554.733-.693 0-1.269-.116-1.726-.347a3.52 3.52 0 01-1.103-.835 5.42 5.42 0 01-.639-.938h-.118v6.446h-2.853zm2.798-10.592c0 .783.11 1.469.331 2.057.226.589.55 1.049.97 1.38.425.325.94.488 1.544.488.63 0 1.159-.168 1.584-.504.426-.342.746-.807.962-1.395.22-.594.33-1.269.33-2.026 0-.751-.107-1.418-.322-2.001-.216-.584-.536-1.041-.962-1.372-.425-.331-.956-.496-1.592-.496-.61 0-1.127.16-1.552.481-.426.32-.75.769-.97 1.347-.215.578-.323 1.259-.323 2.041zM34.293 119v-12.105h2.767v2.017h.126c.22-.698.599-1.237 1.135-1.615a3.12 3.12 0 011.852-.576c.157 0 .333.008.528.024.2.011.365.029.496.055v2.625a3.032 3.032 0 00-.575-.111 5.26 5.26 0 00-.749-.055c-.52 0-.988.113-1.403.339-.41.221-.733.528-.969.922s-.355.849-.355 1.363V119h-2.853zm7.589 0v-12.105h2.853V119h-2.853zm1.434-13.823c-.452 0-.84-.15-1.166-.45a1.445 1.445 0 01-.489-1.095c0-.431.163-.796.489-1.095a1.648 1.648 0 011.166-.458c.457 0 .846.153 1.167.458.326.299.488.664.488 1.095 0 .426-.162.791-.488 1.095-.32.3-.71.45-1.167.45zm8.501 14.059c-1.213 0-2.262-.252-3.144-.756a5.127 5.127 0 01-2.026-2.16c-.473-.935-.709-2.035-.709-3.302 0-1.245.236-2.338.71-3.278.477-.946 1.145-1.681 2.001-2.207.856-.531 1.863-.796 3.018-.796.747 0 1.45.121 2.113.363a4.77 4.77 0 011.765 1.103c.515.499.92 1.135 1.214 1.907.294.767.441 1.682.441 2.743v.875h-9.922v-1.923h7.187c-.005-.547-.123-1.033-.354-1.458a2.58 2.58 0 00-.97-1.017c-.41-.247-.888-.37-1.434-.37-.583 0-1.096.141-1.537.425a2.931 2.931 0 00-1.032 1.104 3.17 3.17 0 00-.37 1.489v1.679c0 .704.128 1.308.386 1.812.257.499.617.883 1.08 1.151.462.263 1.003.394 1.623.394.415 0 .79-.058 1.127-.173.336-.121.627-.297.874-.528.247-.232.434-.518.56-.859l2.664.299a4.15 4.15 0 01-.962 1.844c-.467.52-1.066.925-1.797 1.214-.73.284-1.565.425-2.506.425zm6.586-.236v-12.105h2.727v2.057h.142c.252-.694.67-1.235 1.253-1.624.583-.394 1.28-.591 2.088-.591.82 0 1.51.2 2.073.599.567.394.967.933 1.198 1.616h.126a3.306 3.306 0 011.355-1.608c.642-.405 1.4-.607 2.278-.607 1.114 0 2.023.352 2.727 1.056.704.704 1.056 1.731 1.056 3.082V119h-2.86v-7.684c0-.751-.2-1.3-.6-1.647-.399-.352-.888-.528-1.466-.528-.688 0-1.226.215-1.615.646-.384.426-.576.98-.576 1.663V119h-2.797v-7.802c0-.625-.19-1.125-.568-1.498-.373-.373-.861-.559-1.466-.559-.41 0-.782.105-1.119.315a2.202 2.202 0 00-.804.875c-.2.373-.299.809-.299 1.308V119h-2.853zm24.066.236c-1.214 0-2.262-.252-3.145-.756a5.127 5.127 0 01-2.025-2.16c-.473-.935-.71-2.035-.71-3.302 0-1.245.237-2.338.71-3.278.478-.946 1.145-1.681 2.002-2.207.856-.531 1.862-.796 3.018-.796.746 0 1.45.121 2.112.363a4.77 4.77 0 011.766 1.103c.515.499.92 1.135 1.213 1.907.295.767.442 1.682.442 2.743v.875H77.93v-1.923h7.187a3.065 3.065 0 00-.355-1.458 2.58 2.58 0 00-.969-1.017c-.41-.247-.888-.37-1.434-.37-.584 0-1.096.141-1.537.425a2.931 2.931 0 00-1.033 1.104 3.17 3.17 0 00-.37 1.489v1.679c0 .704.129 1.308.386 1.812.258.499.617.883 1.08 1.151.462.263 1.003.394 1.623.394.415 0 .791-.058 1.127-.173a2.5 2.5 0 00.875-.528c.247-.232.434-.518.56-.859l2.664.299a4.152 4.152 0 01-.962 1.844c-.468.52-1.067.925-1.797 1.214-.73.284-1.566.425-2.506.425zm6.586-.236v-12.105h2.766v2.017h.126c.22-.698.599-1.237 1.135-1.615a3.121 3.121 0 011.852-.576c.158 0 .334.008.528.024.2.011.365.029.496.055v2.625a3.029 3.029 0 00-.575-.111 5.26 5.26 0 00-.748-.055c-.52 0-.988.113-1.403.339-.41.221-.733.528-.97.922-.236.394-.354.849-.354 1.363V119h-2.853zm10.441-7.093V119h-2.853v-12.105h2.727v2.057h.142a3.455 3.455 0 011.332-1.616c.615-.399 1.374-.599 2.278-.599.835 0 1.563.179 2.183.536a3.612 3.612 0 011.45 1.553c.347.677.517 1.5.512 2.466V119h-2.853v-7.266c0-.809-.21-1.443-.63-1.9-.415-.457-.991-.685-1.726-.685-.499 0-.943.11-1.332.331a2.289 2.289 0 00-.907.938c-.215.409-.323.906-.323 1.489zm14.82 7.329c-1.214 0-2.262-.252-3.145-.756a5.13 5.13 0 01-2.025-2.16c-.473-.935-.709-2.035-.709-3.302 0-1.245.236-2.338.709-3.278.478-.946 1.145-1.681 2.002-2.207.856-.531 1.862-.796 3.018-.796.746 0 1.45.121 2.112.363a4.776 4.776 0 011.766 1.103c.514.499.919 1.135 1.213 1.907.294.767.442 1.682.442 2.743v.875h-9.923v-1.923h7.188a3.065 3.065 0 00-.355-1.458 2.577 2.577 0 00-.969-1.017c-.41-.247-.888-.37-1.435-.37-.583 0-1.095.141-1.536.425a2.928 2.928 0 00-1.033 1.104 3.176 3.176 0 00-.37 1.489v1.679c0 .704.129 1.308.386 1.812.257.499.617.883 1.08 1.151.462.263 1.003.394 1.623.394.415 0 .791-.058 1.127-.173a2.51 2.51 0 00.875-.528 2.22 2.22 0 00.56-.859l2.663.299a4.147 4.147 0 01-.961 1.844c-.468.52-1.067.925-1.797 1.214-.73.284-1.566.425-2.506.425zm10.722-.236v-1.813l6.242-7.825v-.103h-6.037v-2.364h9.528v1.946l-5.942 7.692v.103h6.147V119h-9.938zm14.893.244c-.767 0-1.458-.136-2.073-.409a3.39 3.39 0 01-1.45-1.23c-.352-.541-.528-1.208-.528-2.002 0-.683.126-1.248.378-1.694a2.918 2.918 0 011.033-1.072c.436-.268.927-.47 1.473-.607a11.964 11.964 0 011.711-.307 68.314 68.314 0 001.725-.197c.442-.063.762-.158.962-.284.205-.131.307-.334.307-.607v-.047c0-.594-.176-1.053-.528-1.379-.352-.326-.859-.489-1.521-.489-.699 0-1.253.153-1.663.457-.404.305-.677.665-.819 1.08l-2.664-.378c.21-.736.557-1.351 1.04-1.844a4.527 4.527 0 011.773-1.12c.699-.252 1.472-.378 2.317-.378.584 0 1.164.068 1.742.205a4.913 4.913 0 011.584.678c.478.31.862.733 1.151 1.269.294.536.441 1.205.441 2.009V119h-2.742v-1.663h-.095a3.482 3.482 0 01-.733.946 3.51 3.51 0 01-1.174.701c-.468.174-1.017.26-1.647.26zm.741-2.096c.572 0 1.069-.113 1.489-.339a2.5 2.5 0 00.969-.914c.232-.378.347-.791.347-1.237v-1.427c-.089.074-.241.142-.457.205a6.67 6.67 0 01-.709.166c-.263.047-.523.089-.78.126l-.67.094a5.004 5.004 0 00-1.143.284 1.89 1.89 0 00-.796.552c-.194.231-.292.53-.292.898 0 .525.192.922.576 1.19.383.268.872.402 1.466.402zm17.364 2.073c-1.135 0-2.144-.195-3.026-.584-.878-.388-1.571-.929-2.081-1.623s-.78-1.495-.812-2.404h2.963c.027.436.171.817.434 1.143.263.321.612.57 1.048.749.436.178.925.268 1.466.268.578 0 1.09-.1 1.537-.3a2.524 2.524 0 001.048-.851c.252-.362.376-.78.37-1.253a2.177 2.177 0 00-.378-1.293c-.257-.373-.63-.664-1.119-.874-.483-.21-1.067-.316-1.75-.316h-1.426v-2.254h1.426c.563 0 1.054-.097 1.474-.291a2.388 2.388 0 001.001-.82c.242-.357.36-.769.355-1.237.005-.457-.098-.854-.308-1.19a2.068 2.068 0 00-.875-.796c-.373-.189-.811-.284-1.316-.284-.494 0-.951.09-1.371.268-.42.179-.759.434-1.017.765a1.932 1.932 0 00-.409 1.166h-2.814c.021-.904.281-1.697.78-2.38.505-.688 1.177-1.224 2.018-1.608.84-.389 1.784-.583 2.829-.583 1.077 0 2.012.202 2.806.607.798.399 1.416.938 1.852 1.615a4.07 4.07 0 01.654 2.247c.005.908-.263 1.67-.804 2.285-.536.615-1.24 1.017-2.112 1.206v.126c1.135.158 2.004.578 2.609 1.261.609.678.911 1.521.906 2.53 0 .903-.258 1.713-.772 2.427-.51.709-1.214 1.266-2.113 1.671-.893.404-1.917.607-3.073.607zm11.778-.221v-12.105h2.727v2.057h.142c.252-.694.67-1.235 1.253-1.624.583-.394 1.28-.591 2.089-.591.819 0 1.51.2 2.072.599.568.394.967.933 1.198 1.616h.126a3.306 3.306 0 011.356-1.608c.641-.405 1.4-.607 2.278-.607 1.113 0 2.022.352 2.726 1.056.704.704 1.056 1.731 1.056 3.082V119h-2.86v-7.684c0-.751-.2-1.3-.599-1.647-.4-.352-.888-.528-1.466-.528-.688 0-1.227.215-1.616.646-.383.426-.575.98-.575 1.663V119h-2.798v-7.802c0-.625-.189-1.125-.567-1.498-.373-.373-.862-.559-1.466-.559-.41 0-.783.105-1.119.315a2.193 2.193 0 00-.804.875c-.2.373-.3.809-.3 1.308V119h-2.853zm24.066.236c-1.213 0-2.262-.252-3.144-.756a5.126 5.126 0 01-2.026-2.16c-.472-.935-.709-2.035-.709-3.302 0-1.245.237-2.338.709-3.278.478-.946 1.146-1.681 2.002-2.207.857-.531 1.863-.796 3.019-.796.746 0 1.45.121 2.112.363a4.773 4.773 0 011.765 1.103c.515.499.92 1.135 1.214 1.907.294.767.441 1.682.441 2.743v.875h-9.922v-1.923h7.187c-.005-.547-.123-1.033-.354-1.458a2.58 2.58 0 00-.97-1.017c-.409-.247-.888-.37-1.434-.37-.583 0-1.095.141-1.537.425a2.934 2.934 0 00-1.032 1.104 3.177 3.177 0 00-.371 1.489v1.679c0 .704.129 1.308.387 1.812.257.499.617.883 1.079 1.151.463.263 1.004.394 1.624.394.415 0 .79-.058 1.127-.173a2.51 2.51 0 00.875-.528c.246-.232.433-.518.559-.859l2.664.299a4.148 4.148 0 01-.962 1.844c-.467.52-1.066.925-1.797 1.214-.73.284-1.565.425-2.506.425zm16.154-9.142l-2.601.284a2.1 2.1 0 00-.386-.741 1.928 1.928 0 00-.725-.559c-.305-.142-.678-.213-1.119-.213-.594 0-1.093.129-1.498.386-.399.258-.596.591-.591 1.001a1.05 1.05 0 00.386.859c.268.221.71.402 1.324.544l2.065.441c1.146.247 1.997.639 2.554 1.175.562.535.846 1.237.851 2.104a3.29 3.29 0 01-.67 2.017c-.436.578-1.043 1.03-1.821 1.356-.777.326-1.67.488-2.679.488-1.482 0-2.674-.31-3.578-.93-.904-.625-1.442-1.494-1.616-2.608l2.782-.268c.126.546.394.959.804 1.237.41.279.943.418 1.6.418.678 0 1.221-.139 1.631-.418.415-.278.623-.622.623-1.032 0-.347-.134-.633-.402-.859-.263-.226-.673-.4-1.229-.52l-2.065-.434c-1.161-.242-2.02-.649-2.577-1.221-.557-.578-.833-1.309-.828-2.191-.005-.746.197-1.393.607-1.939.415-.552.99-.977 1.726-1.277.741-.305 1.594-.457 2.561-.457 1.419 0 2.535.302 3.35.906.819.605 1.326 1.422 1.521 2.451zm1.402 8.906v-12.105h2.853V119h-2.853zm1.434-13.823a1.66 1.66 0 01-1.166-.45 1.445 1.445 0 01-.489-1.095c0-.431.163-.796.489-1.095a1.646 1.646 0 011.166-.458c.457 0 .846.153 1.166.458.326.299.489.664.489 1.095 0 .426-.163.791-.489 1.095-.32.3-.709.45-1.166.45zm6.625 14.067c-.767 0-1.458-.136-2.072-.409a3.392 3.392 0 01-1.451-1.23c-.352-.541-.528-1.208-.528-2.002 0-.683.127-1.248.379-1.694a2.923 2.923 0 011.032-1.072c.436-.268.927-.47 1.474-.607a11.975 11.975 0 011.71-.307 68.476 68.476 0 001.726-.197c.441-.063.762-.158.961-.284.205-.131.308-.334.308-.607v-.047c0-.594-.176-1.053-.528-1.379-.352-.326-.859-.489-1.521-.489-.699 0-1.253.153-1.663.457-.405.305-.678.665-.82 1.08l-2.664-.378c.211-.736.557-1.351 1.041-1.844a4.513 4.513 0 011.773-1.12c.699-.252 1.471-.378 2.317-.378a7.53 7.53 0 011.742.205 4.913 4.913 0 011.584.678c.478.31.861.733 1.15 1.269.295.536.442 1.205.442 2.009V119h-2.743v-1.663h-.094a3.502 3.502 0 01-.733.946c-.31.289-.702.523-1.175.701-.467.174-1.016.26-1.647.26zm.741-2.096c.573 0 1.069-.113 1.49-.339.42-.231.743-.536.969-.914a2.33 2.33 0 00.347-1.237v-1.427c-.09.074-.242.142-.457.205a6.69 6.69 0 01-.71.166c-.262.047-.522.089-.78.126l-.67.094a5.03 5.03 0 00-1.143.284 1.886 1.886 0 00-.795.552c-.195.231-.292.53-.292.898 0 .525.192.922.575 1.19.384.268.872.402 1.466.402zm12.589 2.088c-1.208 0-2.246-.265-3.113-.796a5.318 5.318 0 01-1.994-2.198c-.462-.941-.693-2.023-.693-3.247 0-1.23.236-2.315.709-3.255.473-.946 1.14-1.681 2.002-2.207.867-.531 1.891-.796 3.073-.796.983 0 1.853.181 2.609.544a4.454 4.454 0 011.821 1.521c.451.651.709 1.413.772 2.285h-2.727a2.607 2.607 0 00-.788-1.458c-.41-.394-.959-.591-1.647-.591-.583 0-1.096.158-1.537.473-.441.31-.785.757-1.032 1.34-.242.583-.363 1.282-.363 2.096 0 .825.121 1.535.363 2.128.241.589.58 1.043 1.016 1.364.442.315.959.473 1.553.473.42 0 .796-.079 1.127-.237.336-.163.617-.397.843-.701.226-.305.381-.675.465-1.112h2.727c-.068.857-.321 1.616-.757 2.278a4.473 4.473 0 01-1.781 1.545c-.751.368-1.634.551-2.648.551zm11.677 0c-1.213 0-2.262-.252-3.144-.756a5.126 5.126 0 01-2.026-2.16c-.473-.935-.709-2.035-.709-3.302 0-1.245.236-2.338.709-3.278.478-.946 1.146-1.681 2.002-2.207.856-.531 1.863-.796 3.018-.796.747 0 1.451.121 2.113.363a4.773 4.773 0 011.765 1.103c.515.499.919 1.135 1.214 1.907.294.767.441 1.682.441 2.743v.875h-9.922v-1.923h7.187c-.005-.547-.123-1.033-.354-1.458a2.587 2.587 0 00-.97-1.017c-.41-.247-.888-.37-1.434-.37-.583 0-1.096.141-1.537.425a2.934 2.934 0 00-1.032 1.104 3.165 3.165 0 00-.371 1.489v1.679c0 .704.129 1.308.386 1.812.258.499.618.883 1.08 1.151.462.263 1.004.394 1.624.394.415 0 .79-.058 1.127-.173.336-.121.627-.297.874-.528.247-.232.434-.518.56-.859l2.664.299a4.148 4.148 0 01-.962 1.844c-.467.52-1.066.925-1.797 1.214-.73.284-1.565.425-2.506.425z" fill="#4FBE79"/></svg>