<svg width="365" height="183" fill="none" xmlns="http://www.w3.org/2000/svg"><g clip-path="url(#clip0_48_284)"><path d="M0 10C0 4.477 4.477 0 10 0h345c5.523 0 10 4.477 10 10v163c0 5.523-4.477 10-10 10H10c-5.523 0-10-4.477-10-10V10z" fill="#fff"/><path d="M36.273 31.197c1.31 0 2.569.22 3.778.66a8.702 8.702 0 013.257 2.1c.961.96 1.72 2.237 2.274 3.828.564 1.582.85 3.526.858 5.829 0 2.163-.244 4.093-.733 5.792-.48 1.69-1.173 3.128-2.076 4.313-.903 1.185-1.993 2.088-3.269 2.71-1.276.612-2.701.919-4.275.919-1.699 0-3.199-.327-4.5-.982-1.3-.663-2.349-1.562-3.144-2.697a8.398 8.398 0 01-1.43-3.853h5.308c.207.928.642 1.649 1.305 2.163.663.505 1.483.758 2.46.758 1.658 0 2.917-.721 3.78-2.163.86-1.45 1.296-3.434 1.304-5.953h-.174a6.093 6.093 0 01-1.541 1.926c-.646.53-1.388.94-2.225 1.23a7.957 7.957 0 01-2.647.436c-1.5 0-2.838-.352-4.015-1.057a7.58 7.58 0 01-2.784-2.908c-.68-1.235-1.02-2.643-1.02-4.226-.007-1.707.386-3.227 1.182-4.561.795-1.334 1.905-2.378 3.33-3.133 1.434-.762 3.1-1.139 4.997-1.13zm.037 4.226c-.837 0-1.582.2-2.237.597a4.401 4.401 0 00-1.541 1.603c-.373.671-.555 1.421-.547 2.25 0 .837.182 1.59.547 2.262a4.365 4.365 0 001.516 1.59c.647.39 1.384.585 2.213.585a4.263 4.263 0 003.107-1.305c.398-.414.708-.89.932-1.43.224-.538.336-1.11.336-1.715a4.578 4.578 0 00-.572-2.212 4.368 4.368 0 00-1.541-1.616c-.655-.406-1.392-.609-2.213-.609zm12.473 17.103v-4.239L59.41 31.546h3.654v5.866h-2.162l-6.7 10.602v.199h15.102v4.313h-20.52zM61.001 57v-5.767l.1-1.877v-17.81h5.046V57H61zm24.821-4.773v-1.342c0-1.02.216-1.956.647-2.809a5.123 5.123 0 011.901-2.063c.837-.522 1.856-.783 3.058-.783 1.218 0 2.241.257 3.07.77a4.926 4.926 0 011.889 2.064c.43.853.646 1.794.646 2.82v1.343a6.22 6.22 0 01-.646 2.822 5.03 5.03 0 01-1.902 2.05c-.837.523-1.856.784-3.057.784-1.218 0-2.242-.262-3.07-.784a5.056 5.056 0 01-1.89-2.05 6.22 6.22 0 01-.646-2.822zm3.617-1.342v1.342c0 .589.141 1.144.423 1.666.29.522.812.783 1.566.783s1.267-.257 1.54-.77a3.432 3.432 0 00.423-1.679v-1.342a3.68 3.68 0 00-.397-1.69c-.265-.522-.787-.783-1.566-.783-.746 0-1.264.26-1.554.783a3.425 3.425 0 00-.435 1.69zM72.76 37.66v-1.343c0-1.027.22-1.968.66-2.821a5.123 5.123 0 011.9-2.063c.838-.514 1.849-.771 3.034-.771 1.226 0 2.253.257 3.082.77a5.036 5.036 0 011.889 2.064c.43.853.646 1.794.646 2.821v1.343c0 1.027-.22 1.967-.658 2.82a5.031 5.031 0 01-1.902 2.052c-.829.505-1.848.758-3.057.758-1.21 0-2.234-.257-3.07-.77a5.163 5.163 0 01-1.89-2.052c-.422-.853-.634-1.79-.634-2.809zm3.642-1.343v1.343c0 .604.141 1.164.423 1.677.29.514.8.771 1.529.771.762 0 1.28-.257 1.553-.77a3.433 3.433 0 00.423-1.678v-1.343a3.68 3.68 0 00-.398-1.69c-.265-.522-.791-.783-1.578-.783-.738 0-1.248.265-1.53.795a3.527 3.527 0 00-.422 1.678zM74.4 57l17.5-25.454h3.256L77.656 57H74.4z" fill="#242A36"/><path d="M260 37a4 4 0 014-4h72a4 4 0 014 4v15a4 4 0 01-4 4h-72a4 4 0 01-4-4V37z" fill="#D4F4DD"/><path d="M275.597 39.545h1.145v6.26c0 .647-.152 1.224-.457 1.732a3.2 3.2 0 01-1.278 1.195c-.551.29-1.198.434-1.939.434-.742 0-1.388-.144-1.939-.434a3.236 3.236 0 01-1.284-1.195c-.301-.508-.452-1.085-.452-1.732v-6.26h1.145v6.168c0 .462.101.873.304 1.233a2.2 2.2 0 00.868.845c.379.203.831.304 1.358.304.526 0 .978-.101 1.357-.304a2.15 2.15 0 00.868-.845c.203-.36.304-.771.304-1.233v-6.168zm-3.028-.96l1.126-2.142h1.275l-1.441 2.142h-.96zm11.075 4.912l-.979.277a1.828 1.828 0 00-.272-.475 1.317 1.317 0 00-.481-.388c-.203-.102-.463-.153-.78-.153-.434 0-.795.1-1.085.3-.286.198-.429.448-.429.753 0 .27.099.485.296.642.197.157.504.287.923.392l1.052.259c.634.154 1.107.389 1.418.706.311.314.466.719.466 1.214a1.8 1.8 0 01-.351 1.09c-.231.32-.554.572-.969.757-.416.184-.899.277-1.45.277-.723 0-1.322-.157-1.796-.471-.474-.314-.774-.773-.9-1.376l1.034-.258c.099.381.285.668.559.858.277.191.638.286 1.085.286.507 0 .911-.107 1.209-.323.302-.218.453-.48.453-.784a.826.826 0 00-.259-.62c-.172-.168-.437-.294-.794-.378l-1.182-.277c-.649-.154-1.126-.392-1.431-.715-.302-.326-.452-.734-.452-1.224 0-.4.112-.754.337-1.061.227-.308.537-.55.928-.725a3.26 3.26 0 011.338-.263c.702 0 1.253.154 1.653.461.403.308.689.714.859 1.22zm1.509 8.162v-9.75h1.052v1.127h.13a9.7 9.7 0 01.332-.471 1.95 1.95 0 01.619-.517c.271-.154.637-.231 1.098-.231.598 0 1.124.149 1.579.448.456.298.811.721 1.067 1.27.255.547.383 1.193.383 1.938 0 .751-.128 1.402-.383 1.953-.256.548-.61.972-1.062 1.274-.452.298-.974.448-1.565.448-.456 0-.82-.076-1.094-.227a2.033 2.033 0 01-.633-.521 7.192 7.192 0 01-.341-.49h-.093v3.75h-1.089zm1.071-6.204c0 .535.078 1.008.235 1.417.157.406.387.725.688.955.302.228.671.342 1.108.342.456 0 .836-.12 1.14-.36.308-.243.539-.57.693-.979a3.84 3.84 0 00.235-1.375 3.75 3.75 0 00-.23-1.349 2.09 2.09 0 00-.688-.955c-.305-.237-.688-.356-1.15-.356-.443 0-.815.113-1.117.337-.302.222-.529.533-.683.933-.154.397-.231.86-.231 1.39zm9.564 3.693c-.683 0-1.273-.151-1.768-.453a3.036 3.036 0 01-1.141-1.274c-.264-.548-.397-1.185-.397-1.911s.133-1.366.397-1.92a3.136 3.136 0 011.118-1.302c.48-.314 1.04-.471 1.68-.471.369 0 .734.061 1.094.184.36.123.688.324.983.6.296.275.531.638.707 1.09.175.453.263 1.01.263 1.671v.462h-5.466v-.942h4.358c0-.4-.08-.757-.24-1.07a1.812 1.812 0 00-.674-.744 1.887 1.887 0 00-1.025-.273c-.434 0-.809.108-1.126.324a2.122 2.122 0 00-.725.83 2.445 2.445 0 00-.254 1.1v.627c0 .536.092.99.277 1.362.188.37.448.65.78.845.332.19.719.286 1.159.286.286 0 .545-.04.775-.12.234-.083.436-.206.605-.37.169-.166.3-.372.393-.618l1.052.295a2.342 2.342 0 01-.558.942 2.725 2.725 0 01-.97.628 3.594 3.594 0 01-1.297.222zm9.356-5.65l-.979.276a1.8 1.8 0 00-.272-.475 1.322 1.322 0 00-.48-.388c-.203-.102-.463-.153-.78-.153-.434 0-.796.1-1.085.3-.287.198-.43.448-.43.753 0 .27.099.485.296.642.197.157.505.287.923.392l1.053.259c.634.154 1.106.389 1.417.706.311.314.466.719.466 1.214a1.8 1.8 0 01-.351 1.09c-.23.32-.554.572-.969.757-.416.184-.899.277-1.45.277-.723 0-1.322-.157-1.795-.471-.474-.314-.775-.773-.901-1.376l1.034-.258c.099.381.285.668.559.858.277.191.639.286 1.085.286.508 0 .911-.107 1.209-.323.302-.218.453-.48.453-.784a.823.823 0 00-.259-.62c-.172-.168-.437-.294-.794-.378l-1.182-.277c-.649-.154-1.126-.392-1.431-.715-.301-.326-.452-.734-.452-1.224 0-.4.112-.754.337-1.061a2.29 2.29 0 01.928-.725c.394-.175.84-.263 1.339-.263.701 0 1.252.154 1.652.461.403.308.69.714.859 1.22zm-3.472-4.433l.961 1.293.96-1.293h1.034v.074l-1.496 1.92h-.997l-1.496-1.92v-.074h1.034zm6.071 5.67V49h-1.09v-7.09h1.053v1.107h.092c.166-.36.419-.65.757-.868.339-.221.776-.332 1.311-.332.48 0 .9.098 1.261.295.36.194.64.49.84.887.2.393.3.892.3 1.495V49h-1.09v-4.432c0-.557-.144-.99-.434-1.302-.289-.314-.686-.47-1.191-.47a1.9 1.9 0 00-.932.226c-.271.15-.485.37-.642.66-.157.29-.235.64-.235 1.052zm9.135 4.413c-.64 0-1.201-.153-1.685-.457a3.106 3.106 0 01-1.126-1.28c-.268-.547-.402-1.187-.402-1.92 0-.738.134-1.383.402-1.934a3.1 3.1 0 011.126-1.283c.484-.305 1.045-.457 1.685-.457.641 0 1.201.152 1.681.457.483.304.858.732 1.126 1.283.271.551.406 1.196.406 1.934 0 .733-.135 1.373-.406 1.92a3.064 3.064 0 01-1.126 1.28c-.48.304-1.04.457-1.681.457zm0-.979c.487 0 .887-.125 1.201-.374a2.21 2.21 0 00.697-.983 3.76 3.76 0 00.226-1.32c0-.474-.075-.916-.226-1.325a2.234 2.234 0 00-.697-.993c-.314-.252-.714-.379-1.201-.379-.486 0-.886.127-1.2.379a2.234 2.234 0 00-.697.992c-.151.41-.226.852-.226 1.326 0 .473.075.914.226 1.32.151.406.383.734.697.983.314.25.714.374 1.2.374zm9.639-4.672l-.978.277a1.833 1.833 0 00-.273-.475 1.322 1.322 0 00-.48-.388c-.203-.102-.463-.153-.78-.153-.434 0-.796.1-1.085.3-.286.198-.429.448-.429.753 0 .27.098.485.295.642.197.157.505.287.923.392l1.053.259c.634.154 1.106.389 1.417.706.311.314.467.719.467 1.214a1.8 1.8 0 01-.351 1.09c-.231.32-.554.572-.97.757-.415.184-.898.277-1.449.277-.724 0-1.322-.157-1.796-.471-.474-.314-.774-.773-.9-1.376l1.034-.258c.098.381.284.668.558.858.277.191.639.286 1.085.286.508 0 .911-.107 1.21-.323.301-.218.452-.48.452-.784a.826.826 0 00-.258-.62c-.173-.168-.437-.294-.794-.378l-1.182-.277c-.65-.154-1.127-.392-1.431-.715-.302-.326-.453-.734-.453-1.224 0-.4.113-.754.337-1.061a2.29 2.29 0 01.928-.725c.394-.175.84-.263 1.339-.263.702 0 1.253.154 1.653.461.403.308.689.714.858 1.22zm4.593-1.588v.923h-3.674v-.923h3.674zm-2.603-1.699h1.089v6.759c0 .307.045.538.134.692a.69.69 0 00.351.305c.145.05.297.074.457.074.12 0 .218-.006.295-.019l.185-.037.222.98a2.21 2.21 0 01-.31.082c-.132.03-.3.046-.503.046a2.2 2.2 0 01-.905-.198 1.8 1.8 0 01-.729-.605c-.191-.27-.286-.612-.286-1.025V40.21zm1.874.822v-2.391h1.117l-.323 2.391h-.794z" fill="#0D894F"/><path d="M31.315 78.91a1.45 1.45 0 00-.674-1.09c-.394-.259-.877-.388-1.45-.388-.418 0-.784.068-1.098.203-.31.135-.554.322-.73.559a1.339 1.339 0 00-.258.807c0 .253.06.47.18.651.123.179.28.328.471.448.19.117.39.214.6.291.21.074.402.134.577.18l.96.259c.247.064.52.154.822.267.305.114.596.27.873.467.28.194.51.443.692.748.182.304.273.678.273 1.121 0 .511-.134.973-.402 1.385-.265.413-.653.74-1.163.984-.508.243-1.125.364-1.852.364-.677 0-1.263-.109-1.758-.328a2.801 2.801 0 01-1.164-.914 2.61 2.61 0 01-.475-1.362h1.181c.031.358.151.653.36.887.213.23.48.403.804.517.326.11.677.166 1.052.166a3.1 3.1 0 001.178-.212 2.02 2.02 0 00.826-.6c.203-.259.305-.56.305-.905 0-.314-.088-.57-.264-.767a1.931 1.931 0 00-.692-.48 7.256 7.256 0 00-.928-.323l-1.163-.332c-.739-.213-1.324-.516-1.755-.91-.43-.394-.646-.91-.646-1.546 0-.53.143-.991.43-1.385a2.845 2.845 0 011.163-.923 3.929 3.929 0 011.639-.333c.61 0 1.15.11 1.625.328.474.215.85.51 1.126.886.28.376.428.802.443 1.28h-1.108zm5.853 7.238c-.665 0-1.237-.157-1.717-.471a3.068 3.068 0 01-1.108-1.297c-.259-.551-.388-1.18-.388-1.888 0-.72.132-1.356.397-1.907a3.14 3.14 0 011.117-1.297c.48-.314 1.04-.471 1.68-.471.499 0 .948.092 1.348.277.4.184.728.443.984.775.255.333.414.72.475 1.164h-1.09a1.69 1.69 0 00-.553-.859c-.283-.252-.665-.379-1.145-.379a1.91 1.91 0 00-1.117.333 2.165 2.165 0 00-.744.928c-.175.397-.263.863-.263 1.399 0 .547.087 1.024.259 1.43.175.407.422.722.739.947.32.225.695.337 1.126.337.283 0 .54-.05.77-.148.232-.098.427-.24.587-.424.16-.185.274-.407.342-.665h1.09a2.524 2.524 0 01-.458 1.13c-.24.333-.558.598-.955.795-.394.194-.853.29-1.376.29zm5.47-4.414V86h-1.09v-9.454h1.09v3.471h.093c.166-.366.415-.657.748-.872.335-.219.781-.328 1.338-.328.484 0 .907.097 1.27.29.363.191.645.485.845.882.203.394.304.896.304 1.505V86h-1.09v-4.432c0-.563-.145-.998-.438-1.306-.289-.311-.69-.466-1.204-.466-.357 0-.678.075-.96.226-.28.15-.502.37-.665.66-.16.29-.24.64-.24 1.052zm12.136-2.825L52.152 86h-1.108l-2.622-7.09h1.181l1.958 5.65h.074l1.957-5.65h1.182zm3.309 7.257a2.88 2.88 0 01-1.224-.254 2.099 2.099 0 01-.872-.743c-.215-.326-.323-.72-.323-1.182 0-.406.08-.735.24-.988.16-.255.374-.455.641-.6.268-.145.564-.252.887-.323.326-.074.654-.132.983-.175.431-.056.78-.097 1.048-.125.271-.03.468-.082.591-.152.126-.071.19-.194.19-.37v-.037c0-.455-.125-.81-.375-1.061-.246-.253-.62-.379-1.121-.379-.52 0-.928.114-1.224.342-.295.227-.503.47-.623.729l-1.034-.37c.185-.43.43-.766.739-1.006.31-.243.649-.412 1.015-.507.37-.099.733-.148 1.09-.148.227 0 .489.028.785.083.298.052.586.161.863.328.28.166.512.417.697.752.184.336.277.785.277 1.348V86h-1.09v-.96h-.055a1.916 1.916 0 01-.37.494 2.13 2.13 0 01-.687.448c-.286.123-.636.184-1.048.184zm.166-.978c.43 0 .794-.085 1.09-.254a1.729 1.729 0 00.904-1.5v-.998c-.046.055-.147.106-.304.152a5.173 5.173 0 01-.536.116 25.129 25.129 0 01-1.043.138 4.16 4.16 0 00-.794.18c-.243.08-.44.202-.591.365-.148.16-.222.379-.222.656 0 .378.14.664.42.858.283.191.642.287 1.076.287zm.037-7.24l1.126-2.141h1.275l-1.44 2.142h-.961zm6.125-1.402V86h-1.09v-9.454h1.09zm4.968 9.602c-.683 0-1.272-.151-1.768-.453a3.036 3.036 0 01-1.14-1.274c-.265-.548-.397-1.185-.397-1.911s.132-1.367.397-1.92c.268-.558.64-.992 1.117-1.302.48-.314 1.04-.471 1.68-.471.37 0 .735.061 1.095.184.36.124.688.324.983.6.295.275.53.638.706 1.09.176.453.263 1.01.263 1.671v.462H66.85v-.942h4.358c0-.4-.08-.757-.24-1.07a1.808 1.808 0 00-.675-.744 1.887 1.887 0 00-1.024-.272c-.434 0-.81.107-1.127.323a2.13 2.13 0 00-.725.83 2.44 2.44 0 00-.254 1.1v.627c0 .536.093.99.277 1.362.188.37.448.651.78.845.333.19.72.286 1.16.286.286 0 .544-.04.775-.12a1.66 1.66 0 00.605-.37c.169-.166.3-.372.392-.618l1.053.296a2.33 2.33 0 01-.559.941 2.722 2.722 0 01-.97.628 3.596 3.596 0 01-1.297.222zm5.683-4.414V86h-1.09v-7.09h1.053v1.107h.093c.166-.36.418-.65.757-.868.338-.221.775-.332 1.31-.332.48 0 .901.098 1.261.295.36.194.64.49.84.887.2.394.3.892.3 1.495V86h-1.09v-4.432c0-.557-.144-.99-.433-1.302-.29-.314-.686-.47-1.191-.47a1.9 1.9 0 00-.933.226c-.27.15-.484.37-.641.66-.157.29-.236.64-.236 1.052zm6.963 6.925c-.185 0-.35-.015-.494-.046a1.303 1.303 0 01-.3-.083l.277-.96c.265.067.499.092.702.074a.841.841 0 00.54-.273c.16-.16.306-.42.438-.78l.203-.554-2.622-7.128h1.182l1.958 5.65h.073l1.958-5.65h1.182l-3.01 8.125c-.136.366-.303.67-.503.91-.2.243-.433.423-.698.54a2.15 2.15 0 01-.886.175zm1.422-10.71l1.126-2.142h1.275l-1.44 2.142h-.961zm7.74 8.199c-.665 0-1.238-.157-1.718-.471a3.069 3.069 0 01-1.108-1.297c-.258-.551-.388-1.18-.388-1.888 0-.72.133-1.356.397-1.907.268-.554.64-.986 1.118-1.297.48-.314 1.04-.471 1.68-.471.499 0 .948.092 1.348.277.4.184.728.443.983.775.256.333.414.72.476 1.164h-1.09a1.689 1.689 0 00-.554-.859c-.283-.252-.664-.379-1.145-.379-.424 0-.797.111-1.117.333a2.165 2.165 0 00-.743.928c-.175.397-.263.863-.263 1.399 0 .547.086 1.024.258 1.43.176.407.422.722.739.947.32.225.696.337 1.126.337.284 0 .54-.05.771-.148.231-.098.427-.24.587-.424.16-.185.274-.407.341-.665h1.09a2.525 2.525 0 01-.457 1.13c-.24.333-.559.598-.956.795-.394.194-.852.29-1.376.29zm5.47-4.414V86h-1.09v-9.454h1.09v3.471h.092c.166-.366.416-.657.748-.872.336-.219.782-.328 1.339-.328.483 0 .906.097 1.269.29.364.191.645.485.845.882.203.394.305.896.305 1.505V86h-1.09v-4.432c0-.563-.146-.998-.438-1.306-.29-.311-.691-.466-1.205-.466a2.01 2.01 0 00-.96.226c-.28.15-.502.37-.665.66-.16.29-.24.64-.24 1.052zm10.247 6.925v-9.75h1.053v1.126h.129c.08-.123.191-.28.333-.47.144-.194.35-.367.618-.517.271-.154.637-.231 1.099-.231.597 0 1.123.15 1.579.448.455.298.811.721 1.066 1.27.256.547.383 1.193.383 1.938 0 .751-.127 1.402-.383 1.953-.255.548-.609.972-1.062 1.274-.452.299-.974.448-1.565.448-.455 0-.82-.076-1.094-.226a2.028 2.028 0 01-.632-.522 6.911 6.911 0 01-.342-.49h-.092v3.75h-1.09zm1.071-6.204c0 .535.079 1.008.236 1.417.157.406.386.725.688.955.301.228.671.342 1.108.342.455 0 .835-.12 1.14-.36.308-.243.539-.57.692-.979a3.84 3.84 0 00.236-1.375c0-.499-.077-.948-.231-1.348a2.083 2.083 0 00-.688-.956c-.305-.237-.688-.355-1.149-.355-.444 0-.816.112-1.118.336-.301.222-.529.533-.683.933-.154.397-.231.86-.231 1.39zM114.826 86v-7.09h1.053v1.07h.074c.129-.35.363-.635.701-.854a2.069 2.069 0 011.145-.328c.08 0 .18.002.3.005s.211.008.273.014v1.108a3.32 3.32 0 00-.254-.042 2.5 2.5 0 00-.411-.032 1.92 1.92 0 00-.923.217 1.591 1.591 0 00-.868 1.445V86h-1.09zm7.502.148c-.64 0-1.202-.153-1.685-.457a3.099 3.099 0 01-1.126-1.279c-.268-.548-.402-1.188-.402-1.92 0-.74.134-1.384.402-1.935a3.1 3.1 0 011.126-1.283c.483-.305 1.045-.457 1.685-.457.64 0 1.2.152 1.68.457.484.305.859.732 1.127 1.283.271.551.406 1.196.406 1.934 0 .733-.135 1.373-.406 1.921a3.06 3.06 0 01-1.127 1.279c-.48.304-1.04.457-1.68.457zm0-.979c.486 0 .886-.125 1.2-.374.314-.25.547-.577.697-.983a3.76 3.76 0 00.227-1.32c0-.474-.076-.916-.227-1.325-.15-.41-.383-.74-.697-.993-.314-.252-.714-.379-1.2-.379s-.886.127-1.2.379a2.227 2.227 0 00-.697.993c-.151.409-.227.85-.227 1.325 0 .474.076.914.227 1.32.15.406.383.734.697.983.314.25.714.374 1.2.374zm7.554.979c-.591 0-1.113-.15-1.565-.448-.453-.302-.807-.726-1.062-1.274-.255-.551-.383-1.202-.383-1.953 0-.745.128-1.391.383-1.939s.611-.97 1.066-1.27c.456-.298.982-.447 1.579-.447.462 0 .827.077 1.094.23.271.151.477.324.619.518.145.19.257.347.337.47h.092v-3.49h1.09V86h-1.053v-1.09h-.129c-.08.13-.194.293-.342.49a2.017 2.017 0 01-.632.522c-.274.15-.639.226-1.094.226zm.147-.979c.438 0 .807-.114 1.108-.342.302-.23.531-.549.688-.955.157-.41.236-.882.236-1.417 0-.53-.077-.993-.231-1.39-.154-.4-.382-.71-.683-.933-.302-.224-.674-.337-1.118-.337-.461 0-.846.119-1.154.356a2.125 2.125 0 00-.687.956c-.151.4-.227.849-.227 1.348 0 .504.077.963.231 1.375.157.41.388.736.693.979.307.24.689.36 1.144.36zm9.718-2.068v-4.192h1.09V86h-1.09v-1.2h-.074c-.166.36-.424.666-.775.918-.351.25-.794.374-1.33.374a2.37 2.37 0 01-1.182-.29 2.038 2.038 0 01-.812-.887c-.197-.397-.296-.897-.296-1.5v-4.506h1.09v4.432c0 .517.145.93.434 1.237.292.308.665.462 1.117.462.271 0 .546-.07.826-.208a1.79 1.79 0 00.711-.637c.194-.286.291-.65.291-1.094zm4.101.314l-.019-1.348h.222l3.102-3.158h1.348l-3.305 3.342h-.093l-1.255 1.164zM142.832 86v-9.454h1.09V86h-1.09zm4.506 0l-2.77-3.508.775-.758 3.38 4.266h-1.385zm5.649-7.09v.922h-3.674v-.923h3.674zm-2.603-1.7h1.089v6.759c0 .308.045.538.134.692a.69.69 0 00.351.305c.144.05.297.074.457.074.12 0 .218-.006.295-.019l.185-.037.221.98a2.153 2.153 0 01-.309.082c-.132.031-.3.046-.503.046a2.2 2.2 0 01-.905-.198 1.8 1.8 0 01-.729-.605c-.191-.27-.286-.612-.286-1.025V77.21zm7.047 8.938c-.641 0-1.202-.153-1.685-.457a3.101 3.101 0 01-1.127-1.279c-.268-.548-.401-1.188-.401-1.92 0-.74.133-1.384.401-1.935.271-.55.646-.978 1.127-1.283.483-.305 1.044-.457 1.685-.457.64 0 1.2.152 1.68.457.483.305.859.732 1.126 1.283.271.551.407 1.196.407 1.934 0 .733-.136 1.373-.407 1.921a3.058 3.058 0 01-1.126 1.279c-.48.304-1.04.457-1.68.457zm0-.979c.486 0 .886-.125 1.2-.374a2.21 2.21 0 00.697-.983 3.76 3.76 0 00.226-1.32c0-.474-.075-.916-.226-1.325a2.234 2.234 0 00-.697-.993c-.314-.252-.714-.379-1.2-.379-.487 0-.887.127-1.201.379a2.234 2.234 0 00-.697.993c-.151.409-.226.85-.226 1.325 0 .474.075.914.226 1.32.151.406.383.734.697.983.314.25.714.374 1.201.374zm10.42-6.26L165.229 86h-1.108l-2.622-7.09h1.182l1.957 5.65h.074l1.957-5.65h1.182zm5.094 9.75v-9.75h1.053v1.126h.129c.08-.123.191-.28.333-.47.144-.194.35-.367.618-.517.271-.154.637-.231 1.099-.231.597 0 1.123.15 1.579.448.455.298.811.721 1.066 1.27.256.547.383 1.193.383 1.938 0 .751-.127 1.402-.383 1.953-.255.548-.609.972-1.062 1.274-.452.299-.974.448-1.565.448-.455 0-.82-.076-1.094-.226a2.028 2.028 0 01-.632-.522 6.911 6.911 0 01-.342-.49h-.092v3.75h-1.09zm1.071-6.204c0 .535.079 1.008.236 1.417.157.406.386.725.688.955.301.228.671.342 1.108.342.455 0 .835-.12 1.14-.36.308-.243.539-.57.692-.979a3.84 3.84 0 00.236-1.375c0-.499-.077-.948-.231-1.348a2.083 2.083 0 00-.688-.956c-.304-.237-.688-.355-1.149-.355-.443 0-.816.112-1.117.336-.302.222-.53.533-.684.933-.154.397-.231.86-.231 1.39zm9.732 3.693c-.64 0-1.202-.153-1.685-.457a3.099 3.099 0 01-1.126-1.279c-.268-.548-.402-1.188-.402-1.92 0-.74.134-1.384.402-1.935a3.1 3.1 0 011.126-1.283c.483-.305 1.045-.457 1.685-.457.64 0 1.2.152 1.68.457.484.305.859.732 1.127 1.283.271.551.406 1.196.406 1.934 0 .733-.135 1.373-.406 1.921a3.06 3.06 0 01-1.127 1.279c-.48.304-1.04.457-1.68.457zm0-.979c.486 0 .886-.125 1.2-.374.314-.25.547-.577.697-.983a3.76 3.76 0 00.227-1.32c0-.474-.076-.916-.227-1.325-.15-.41-.383-.74-.697-.993-.314-.252-.714-.379-1.2-.379s-.886.127-1.2.379a2.227 2.227 0 00-.697.993c-.151.409-.227.85-.227 1.325 0 .474.076.914.227 1.32.15.406.383.734.697.983.314.25.714.374 1.2.374zm11.413.979c-.64 0-1.202-.153-1.685-.457a3.099 3.099 0 01-1.126-1.279c-.268-.548-.402-1.188-.402-1.92 0-.74.134-1.384.402-1.935a3.1 3.1 0 011.126-1.283c.483-.305 1.045-.457 1.685-.457.64 0 1.2.152 1.68.457.484.305.859.732 1.127 1.283.271.551.406 1.196.406 1.934 0 .733-.135 1.373-.406 1.921a3.06 3.06 0 01-1.127 1.279c-.48.304-1.04.457-1.68.457zm0-.979c.486 0 .886-.125 1.2-.374.314-.25.547-.577.697-.983a3.76 3.76 0 00.227-1.32c0-.474-.076-.916-.227-1.325-.15-.41-.383-.74-.697-.993-.314-.252-.714-.379-1.2-.379s-.886.127-1.2.379a2.227 2.227 0 00-.697.993c-.151.409-.227.85-.227 1.325 0 .474.076.914.227 1.32.15.406.383.734.697.983.314.25.714.374 1.2.374zm4.876 3.49v-9.75h1.053v1.126h.129c.08-.123.191-.28.332-.47a1.94 1.94 0 01.619-.517c.271-.154.637-.231 1.099-.231.597 0 1.123.15 1.579.448.455.298.811.721 1.066 1.27.255.547.383 1.193.383 1.938 0 .751-.128 1.402-.383 1.953-.255.548-.609.972-1.062 1.274-.452.299-.974.448-1.565.448-.455 0-.82-.076-1.094-.226a2.017 2.017 0 01-.632-.522 6.911 6.911 0 01-.342-.49h-.092v3.75h-1.09zm1.071-6.204c0 .535.079 1.008.236 1.417.157.406.386.725.688.955.301.228.67.342 1.107.342.456 0 .836-.12 1.141-.36a2.2 2.2 0 00.692-.979 3.84 3.84 0 00.236-1.375c0-.499-.077-.948-.231-1.348a2.083 2.083 0 00-.688-.956c-.305-.237-.688-.355-1.15-.355-.443 0-.815.112-1.117.336-.301.222-.529.533-.683.933-.154.397-.231.86-.231 1.39zM207.959 86v-7.09h1.053v1.07h.074c.129-.35.363-.635.701-.854a2.07 2.07 0 011.145-.328c.08 0 .18.002.3.005s.211.008.273.014v1.108a3.32 3.32 0 00-.254-.042 2.518 2.518 0 00-.411-.032c-.345 0-.653.072-.924.217-.267.141-.48.338-.637.59a1.6 1.6 0 00-.23.855V86h-1.09zm6.924.166c-.45 0-.857-.084-1.224-.254a2.097 2.097 0 01-.872-.743c-.216-.326-.323-.72-.323-1.182 0-.406.08-.735.24-.988.16-.255.374-.455.641-.6a3.38 3.38 0 01.887-.323c.326-.074.654-.132.983-.175.431-.056.78-.097 1.048-.125.271-.03.468-.082.591-.152.126-.071.189-.194.189-.37v-.037c0-.455-.124-.81-.374-1.061-.246-.253-.62-.379-1.122-.379-.52 0-.927.114-1.223.342-.295.227-.503.47-.623.729l-1.034-.37c.184-.43.431-.766.738-1.006.311-.243.65-.412 1.016-.507a4.21 4.21 0 011.089-.148c.228 0 .49.028.785.083.299.052.587.161.864.328.28.166.512.417.697.752.184.336.277.785.277 1.348V86h-1.09v-.96h-.055a1.912 1.912 0 01-.37.494 2.126 2.126 0 01-.687.448c-.287.123-.636.184-1.048.184zm.166-.978c.431 0 .794-.085 1.089-.254a1.72 1.72 0 00.674-.656 1.67 1.67 0 00.231-.845v-.997c-.046.055-.148.106-.305.152a5.12 5.12 0 01-.535.116 25.735 25.735 0 01-1.043.138 4.158 4.158 0 00-.794.18c-.244.08-.44.202-.591.365-.148.16-.222.379-.222.656 0 .378.14.664.42.858.283.191.642.287 1.076.287zm10.617-6.279L223.043 86h-1.108l-2.622-7.09h1.182l1.958 5.65h.073l1.958-5.65h1.182zm4.157 7.239c-.684 0-1.273-.151-1.768-.453a3.036 3.036 0 01-1.141-1.274c-.264-.548-.397-1.185-.397-1.911s.133-1.367.397-1.92a3.136 3.136 0 011.118-1.302c.48-.314 1.04-.471 1.68-.471.369 0 .734.061 1.094.184.36.124.688.324.983.6.296.275.531.638.707 1.09.175.453.263 1.01.263 1.671v.462h-5.466v-.942h4.358c0-.4-.08-.757-.24-1.07a1.811 1.811 0 00-.674-.744 1.89 1.89 0 00-1.025-.272c-.434 0-.809.107-1.126.323a2.122 2.122 0 00-.725.83c-.17.342-.254.709-.254 1.1v.627c0 .536.092.99.277 1.362.188.37.448.651.78.845.332.19.719.286 1.159.286.286 0 .544-.04.775-.12.234-.083.436-.206.605-.37.169-.166.3-.372.392-.618l1.053.296a2.33 2.33 0 01-.559.941 2.713 2.713 0 01-.969.628 3.596 3.596 0 01-1.297.222z" fill="#717580"/><path d="M33 147a3 3 0 013-3h31.571a3 3 0 013 3v21H33v-21z" fill="#FE5E7B"/><path d="M76.571 138a3 3 0 013-3h31.572a3 3 0 013 3v30H76.571v-30z" fill="#FE7089"/><path d="M120.143 129a3 3 0 013-3h31.571a3 3 0 013 3v39h-37.571v-39z" fill="#FD92A4"/><path d="M163.714 120a3 3 0 013-3h31.572a3 3 0 013 3v48h-37.572v-48z" fill="#FDD8DF"/><path d="M207.286 114a3 3 0 013-3h31.571a3 3 0 013 3v54h-37.571v-54zm43.571 12a3 3 0 013-3h31.572a3 3 0 013 3v42h-37.572v-42zm43.572-15a3 3 0 013-3H329a3 3 0 013 3v57h-37.571v-57z" fill="#D4F4DD"/></g><path d="M10 .5h345a9.5 9.5 0 019.5 9.5v163a9.5 9.5 0 01-9.5 9.5H10A9.5 9.5 0 01.5 173V10A9.5 9.5 0 0110 .5z" stroke="#E4E4E4"/><defs><clipPath id="clip0_48_284"><path d="M0 10C0 4.477 4.477 0 10 0h345c5.523 0 10 4.477 10 10v163c0 5.523-4.477 10-10 10H10c-5.523 0-10-4.477-10-10V10z" fill="#fff"/></clipPath></defs></svg>