<svg width="24" height="24" fill="none" xmlns="http://www.w3.org/2000/svg"><path d="M3.5 10.5v9c0 .466 0 .699.076.883a1 1 0 00.541.54C4.301 21 4.534 21 5 21s.699 0 .883-.076a1 1 0 00.54-.541c.077-.184.077-.417.077-.883v-9c0-.466 0-.699-.076-.883a1 1 0 00-.541-.54C5.699 9 5.466 9 5 9s-.699 0-.883.076a1 1 0 00-.54.541c-.077.184-.077.417-.077.883z" stroke="#242A36" stroke-width="1.5" stroke-linejoin="round"/><path d="M17.5 8l2 2.5-2.5 2m2-1.998s-7.5 0-15-7.5" stroke="#242A36" stroke-width="1.5" stroke-linecap="round" stroke-linejoin="round"/><path d="M10.5 14v5.5c0 .466 0 .699.076.883a1 1 0 00.541.54c.184.077.417.077.883.077s.699 0 .883-.076a1 1 0 00.54-.541c.077-.184.077-.417.077-.883V14c0-.466 0-.699-.076-.883a1 1 0 00-.541-.54c-.184-.077-.417-.077-.883-.077s-.699 0-.883.076a1 1 0 00-.54.541c-.077.184-.077.417-.077.883zm7 2.5v3c0 .466 0 .699.076.883a1 1 0 00.541.54c.184.077.417.077.883.077s.699 0 .883-.076a1 1 0 00.54-.541c.077-.184.077-.417.077-.883v-3c0-.466 0-.699-.076-.883a1 1 0 00-.541-.54C19.699 15 19.466 15 19 15s-.699 0-.883.076a1 1 0 00-.54.541c-.077.184-.077.417-.077.883z" stroke="#242A36" stroke-width="1.5" stroke-linejoin="round"/></svg>