<svg width="24" height="24" fill="none" xmlns="http://www.w3.org/2000/svg"><path d="M12 20c3.771 0 5.657 0 6.828-1.172C20 17.657 20 15.771 20 12m-8 8c-3.771 0-5.657 0-6.828-1.172C4.001 17.656 4 15.771 4 12m8 8v2M4 12c0-3.771 0-5.657 1.172-6.828C6.344 4.001 8.229 4 12 4m-8 8H2m10-8c3.771 0 5.657 0 6.828 1.172C19.999 6.344 20 8.229 20 12m-8-8V2m8 10h2M8 2v2m8-2v2M8 20v2m8-2v2m6-6h-2M4 8H2m2 8H2m20-8h-2" stroke="#242A36" stroke-width="1.5" stroke-linecap="round" stroke-linejoin="round"/><path d="M11.48 7.862a.554.554 0 011.04 0l.8 2.163c.113.303.353.543.656.655l2.163.8a.554.554 0 010 1.04l-2.163.8a1.1 1.1 0 00-.655.655l-.8 2.163a.554.554 0 01-1.04 0l-.8-2.163a1.101 1.101 0 00-.655-.655l-2.163-.8a.555.555 0 010-1.04l2.163-.8a1.11 1.11 0 00.655-.655l.8-2.163z" stroke="#242A36" stroke-width="1.5"/></svg>