<svg viewBox="0 0 1360.2 361.1" xmlns="http://www.w3.org/2000/svg" fill="#242a36"><path d="M890.2 163.2c0-19.5-12-33.7-35-33.7h-74.3v101.1h24.4v-34.5h28.9l28.3 34.5H890v-2.2l-27.5-32.9c17.3-3.5 27.7-16.1 27.7-32.3zm-37.7 12.5h-47.1v-25.2h47.1c8.7 0 14.3 4.6 14.3 12.6 0 8.2-5.4 12.6-14.3 12.6zm406.6-46.2h-22.9v38.4h-61.5v-38.4H1150v101.2h24.7v-39.9h61.5v39.9h22.9zm-543.5 0l-27.2 85.1h-1.5l-27.3-85.1h-43.5v101.2h23.3v-83.1h1.4l27.2 83.1h37.5l27.3-83.1h1.4v83.1h24V129.5zm-265.8 41.4c-8.6-.9-24.7-2.4-33.3-3.3-8.5-.9-13.4-3.4-13.4-9 0-5.4 5.2-9.9 26.2-9.9 18.6 0 35.7 4 50.6 11.2v-22.6c-14.9-7.1-31.4-10.6-51.9-10.6-28.8 0-48.7 12-48.7 32.4 0 17.2 11.7 26.6 35.1 29.2 8.5.9 22.9 2.2 33 3 11 .9 14.2 4.3 14.2 9.3 0 6.9-7.7 11.1-27.2 11.1-19.8 0-39.9-6.5-54.2-15.6v23.3c11.5 7.7 31.3 14.2 53.4 14.2 31.4 0 51.6-12.1 51.6-33.8.2-16.4-10.6-26.3-35.4-28.9zm51.6-41.4v101.2h94.3V210h-71v-20.5h69.8V169h-69.8v-18.8h71v-20.7zm598.1 41.4c-8.6-.9-24.7-2.4-33.3-3.3-8.5-.9-13.4-3.4-13.4-9 0-5.4 5.2-9.9 26.2-9.9 18.6 0 35.7 4 50.6 11.2v-22.6c-14.9-7.1-31.4-10.6-51.9-10.6-28.8 0-48.7 12-48.7 32.4 0 17.2 11.7 26.6 35.1 29.2 8.5.9 22.9 2.2 33 3 11 .9 14.2 4.3 14.2 9.3 0 6.9-7.7 11.1-27.2 11.1-19.8 0-39.9-6.5-54.2-15.6v23.3c11.5 7.7 31.3 14.2 53.4 14.2 31.4 0 51.6-12.1 51.6-33.8.2-16.4-10.6-26.3-35.4-28.9zM988 129.5v51.8c0 19.6-11.9 30.4-29.8 30.4-18 0-29.8-10.6-29.8-30.7v-51.5h-24.3v49.2c0 36.7 22.9 54.9 54.5 54.9 30.3 0 53.8-17.4 53.8-53.7v-50.4H988zm-692.3 50c0 4.9-2.5 5.7-8.7 5.7-6.6 0-7.8-1.1-8.5-6.1-1.3-12.7-9.9-23.5-24.3-24.7-4.6-.4-5.7-2.1-5.7-7.8 0-5.3.8-7.8 4.9-7.8 25 .1 42.3 20.2 42.3 40.7zm36.4 0c0-38.1-25.8-78.4-85.4-78.4H128.3c-2.4 0-3.9 1.2-3.9 3.4 0 1.2.9 2.3 1.7 2.9 4.3 3.4 10.7 7.2 19.1 11.4 8.2 4.1 14.6 6.8 21 9.4 2.7 1.1 3.7 2.3 3.7 3.8 0 2.1-1.5 3.4-4.4 3.4h-94c-2.8 0-4.1 1.8-4.1 3.6 0 1.5.5 2.8 1.8 4.1 7.6 8 19.8 17.6 37.5 28.7 15.5 9.7 34.7 20.2 50 27.5 2.6 1.2 3.4 2.6 3.4 4.1-.1 1.7-1.4 3.1-4.4 3.1h-43.1c-2.4 0-3.8 1.3-3.8 3.3 0 1.1.9 2.5 2.1 3.6 9.8 8.9 25.5 18.6 46.4 27.5 27.9 11.9 56.2 19 88 19 60.3 0 86.8-45.1 86.8-80.4zm-78.7 54.1c-29.6 0-54.3-24.1-54.3-54.1 0-29.6 24.7-53.3 54.3-53.3 30.4 0 54.1 23.7 54.1 53.3-.1 30-23.8 54.1-54.1 54.1z"/></svg>