<svg width="24" height="24" fill="none" xmlns="http://www.w3.org/2000/svg"><path d="M9.5 2v2m5-2v2m-5 16v2m5-2v2m7.5-7.5h-2m-16-5H2m2 5H2m20-5h-2m-7.306-1l-2.091 2.537c-.224.272-.064.663.302.736l2.19.434c.39.077.538.51.266.774L10.767 15.5" stroke="#242A36" stroke-width="1.5" stroke-linecap="round" stroke-linejoin="round"/><path d="M4 12c0-3.771 0-5.657 1.172-6.828C6.344 4.001 8.229 4 12 4c3.771 0 5.657 0 6.828 1.172C19.999 6.344 20 8.229 20 12c0 3.771 0 5.657-1.172 6.828C17.656 19.999 15.771 20 12 20c-3.771 0-5.657 0-6.828-1.172C4.001 17.656 4 15.771 4 12z" stroke="#242A36" stroke-width="1.5" stroke-linejoin="round"/></svg>