<svg width="24" height="24" fill="none" xmlns="http://www.w3.org/2000/svg"><path d="M2.001 8.5v5.497c-.002 3.3-.003 4.951 1.022 5.977C4.048 21 5.698 21 9 21h6c3.3 0 4.95 0 5.974-1.025C22 18.95 22 17.3 22 14.001l.001-5.501M8.5 6.5c0-1.404 0-2.107.337-2.611a2 2 0 01.551-.552C9.892 3 10.594 3 12 3c1.404 0 2.106 0 2.61.337.219.146.407.333.553.552.337.504.337 1.207.337 2.611" stroke="#242A36" stroke-width="1.5" stroke-linecap="round" stroke-linejoin="round"/><path d="M10 12.5v1c0 .465 0 .697.049.888a1.5 1.5 0 001.061 1.06c.191.052.424.052.889.052s.697 0 .888-.051a1.5 1.5 0 001.06-1.06c.052-.191.052-.424.052-.889v-1m5.999-6h-16a2 2 0 00-2 2A4 4 0 006 12.5h11.999a4 4 0 004-4 2 2 0 00-2-2z" stroke="#242A36" stroke-width="1.5" stroke-linecap="round" stroke-linejoin="round"/></svg>