<svg width="24" height="24" fill="none" xmlns="http://www.w3.org/2000/svg"><path d="M14 21h2m-2 0a1.5 1.5 0 01-1.5-1.5V17H12m2 4h-4m2-4h-.5v2.5A1.5 1.5 0 0110 21m2-4v4m-2 0H8m8-18H8c-2.828 0-4.243 0-5.121.879C2 4.757 2 6.172 2 9v2c0 2.828 0 4.243.879 5.121C3.757 17 5.172 17 8 17h8c2.828 0 4.243 0 5.121-.879C22 15.243 22 13.828 22 11V9c0-2.828 0-4.243-.879-5.121C20.243 3 18.828 3 16 3z" stroke="#242A36" stroke-width="1.5" stroke-linecap="round" stroke-linejoin="round"/><path d="M16 8l-2.5 2.5c-.273.273-.409.409-.556.482a1 1 0 01-.888 0c-.147-.073-.283-.21-.556-.482-.273-.273-.409-.409-.556-.482a1 1 0 00-.888 0c-.147.073-.283.21-.556.482L7 13m7-6h1.714c.606 0 .91 0 1.098.188.188.189.188.492.188 1.098V10" stroke="#242A36" stroke-width="1.5" stroke-linecap="round" stroke-linejoin="round"/></svg>