<svg width="220" height="149" fill="none" xmlns="http://www.w3.org/2000/svg"><path d="M10 .5h200a9.5 9.5 0 019.5 9.5v129a9.5 9.5 0 01-9.5 9.5H10A9.5 9.5 0 01.5 139V10A9.5 9.5 0 0110 .5z" fill="#fff"/><path d="M10 .5h200a9.5 9.5 0 019.5 9.5v129a9.5 9.5 0 01-9.5 9.5H10A9.5 9.5 0 01.5 139V10A9.5 9.5 0 0110 .5z" stroke="#E4E4E4"/><path d="M21.023 38v-1.023l6.273-9.363h-6.341v-1.25h8.022v1.022l-6.273 9.364h6.341V38h-8.022zm12.772.205a3.545 3.545 0 01-1.505-.313 2.584 2.584 0 01-1.074-.915c-.265-.401-.398-.886-.398-1.454 0-.5.099-.906.296-1.216.197-.315.46-.56.79-.739a4.18 4.18 0 011.09-.398c.402-.09.805-.162 1.21-.215.53-.069.96-.12 1.29-.154.334-.038.576-.1.728-.187.155-.087.233-.239.233-.455v-.045c0-.561-.154-.997-.46-1.307-.304-.31-.764-.466-1.381-.466-.64 0-1.142.14-1.506.42-.364.28-.62.58-.767.898l-1.273-.454c.227-.53.53-.944.91-1.24a3.403 3.403 0 011.25-.624 5.19 5.19 0 011.34-.182c.28 0 .602.034.966.102a3.09 3.09 0 011.063.404c.344.204.63.513.858.926.227.413.34.966.34 1.659V38h-1.34v-1.182h-.069a2.36 2.36 0 01-.454.608c-.212.216-.495.4-.847.551-.352.152-.782.228-1.29.228zM34 37c.53 0 .977-.104 1.34-.313a2.128 2.128 0 001.114-1.846v-1.227c-.056.068-.181.13-.374.187-.19.053-.41.1-.66.142a29.952 29.952 0 01-1.284.17 5.19 5.19 0 00-.977.222 1.67 1.67 0 00-.727.45c-.182.196-.273.465-.273.806 0 .466.172.818.517 1.057.349.235.79.352 1.324.352zm9.788 1.182c-.818 0-1.522-.193-2.113-.58a3.777 3.777 0 01-1.364-1.596c-.318-.678-.477-1.453-.477-2.324 0-.887.163-1.669.488-2.347.33-.682.788-1.214 1.375-1.596.591-.387 1.28-.58 2.069-.58.613 0 1.166.114 1.659.341.492.227.896.546 1.21.954.314.41.51.887.585 1.432h-1.34c-.103-.397-.33-.75-.683-1.056-.348-.311-.818-.466-1.409-.466-.522 0-.98.136-1.375.409-.39.269-.695.65-.914 1.142-.216.488-.324 1.062-.324 1.721 0 .675.106 1.262.318 1.762.216.5.519.888.909 1.164.394.277.856.415 1.386.415.349 0 .665-.06.95-.181.283-.122.524-.296.72-.523.198-.228.338-.5.421-.819h1.341c-.076.516-.263.98-.562 1.393a3.153 3.153 0 01-1.177.977c-.484.239-1.049.358-1.693.358zm-1.227-12.41l1.182 1.592 1.182-1.591h1.272v.09l-1.84 2.364h-1.228l-1.84-2.363v-.091h1.272zM49.181 38v-8.727h1.34V38h-1.34zm.681-10.182a.953.953 0 01-.676-.267.858.858 0 01-.278-.642.86.86 0 01.278-.642.954.954 0 01.676-.267.93.93 0 01.67.267.85.85 0 01.285.642.85.85 0 01-.284.642.934.934 0 01-.67.267zm5.683 10.387a3.545 3.545 0 01-1.505-.313 2.584 2.584 0 01-1.074-.915c-.265-.401-.398-.886-.398-1.454 0-.5.099-.906.296-1.216.197-.315.46-.56.79-.739a4.18 4.18 0 011.09-.398c.402-.09.805-.162 1.21-.215.53-.069.96-.12 1.29-.154.334-.038.576-.1.728-.187.155-.087.233-.239.233-.455v-.045c0-.561-.154-.997-.46-1.307-.304-.31-.764-.466-1.381-.466-.64 0-1.142.14-1.506.42-.364.28-.62.58-.767.898l-1.273-.454c.227-.53.53-.944.91-1.24a3.403 3.403 0 011.25-.624 5.19 5.19 0 011.34-.182c.28 0 .602.034.966.102a3.09 3.09 0 011.063.404c.344.204.63.513.858.926.227.413.34.966.34 1.659V38h-1.34v-1.182h-.069a2.36 2.36 0 01-.454.608c-.212.216-.495.4-.847.551-.352.152-.782.228-1.29.228zM55.75 37c.53 0 .977-.104 1.34-.313a2.128 2.128 0 001.115-1.846v-1.227c-.057.068-.182.13-.375.187-.19.053-.41.1-.66.142a29.952 29.952 0 01-1.284.17 5.19 5.19 0 00-.977.222 1.67 1.67 0 00-.727.45c-.182.196-.273.465-.273.806 0 .466.172.818.517 1.057.349.235.79.352 1.324.352zm10.038-7.727v1.136h-4.522v-1.136h4.522zm-3.204-2.091h1.34V35.5c0 .379.056.663.166.852.113.186.257.31.431.375.178.06.366.091.563.091.147 0 .269-.007.364-.023l.227-.045.273 1.205a2.735 2.735 0 01-.381.102c-.163.038-.37.057-.62.057a2.7 2.7 0 01-1.113-.245 2.213 2.213 0 01-.898-.744c-.235-.333-.352-.754-.352-1.261v-8.682zm8.673 11c-.788 0-1.48-.188-2.074-.563-.59-.375-1.053-.9-1.386-1.574-.33-.674-.494-1.462-.494-2.363 0-.91.164-1.703.494-2.38.333-.679.795-1.205 1.386-1.58.595-.375 1.286-.563 2.074-.563.788 0 1.477.188 2.068.563.595.375 1.057.901 1.387 1.58.333.677.5 1.47.5 2.38 0 .901-.167 1.69-.5 2.363a3.77 3.77 0 01-1.387 1.574c-.59.375-1.28.563-2.068.563zm0-1.205c.599 0 1.091-.153 1.477-.46.387-.307.673-.71.858-1.21.186-.5.279-1.042.279-1.625 0-.584-.093-1.127-.279-1.63a2.75 2.75 0 00-.858-1.223c-.386-.31-.878-.465-1.477-.465-.598 0-1.09.155-1.477.465a2.75 2.75 0 00-.858 1.222 4.681 4.681 0 00-.278 1.63c0 .584.092 1.126.278 1.626.186.5.472.903.858 1.21.386.307.879.46 1.477.46zm9.547 1.205c-.818 0-1.523-.193-2.114-.58a3.777 3.777 0 01-1.363-1.596c-.319-.678-.478-1.453-.478-2.324 0-.887.163-1.669.49-2.347.329-.682.787-1.214 1.374-1.596.591-.387 1.28-.58 2.068-.58.614 0 1.167.114 1.66.341a3.19 3.19 0 011.21.954c.314.41.509.887.585 1.432h-1.341c-.102-.397-.33-.75-.682-1.056-.348-.311-.818-.466-1.409-.466-.523 0-.981.136-1.375.409-.39.269-.695.65-.915 1.142-.216.488-.324 1.062-.324 1.721 0 .675.106 1.262.319 1.762.215.5.519.888.909 1.164.394.277.856.415 1.386.415.349 0 .665-.06.949-.181a1.96 1.96 0 00.721-.523c.197-.228.338-.5.42-.819h1.342c-.076.516-.264.98-.563 1.393a3.142 3.142 0 01-1.176.977c-.485.239-1.05.358-1.693.358zm-1.227-12.41l1.181 1.592 1.182-1.591h1.273v.09l-1.84 2.364h-1.228l-1.841-2.363v-.091h1.273zm7.96 6.978V38h-1.341v-8.727h1.296v1.363h.113c.205-.443.515-.799.932-1.068.417-.273.954-.409 1.614-.409.59 0 1.108.121 1.55.364.444.238.789.602 1.035 1.09.246.486.37 1.1.37 1.842V38h-1.342v-5.455c0-.685-.178-1.22-.534-1.602-.356-.386-.845-.58-1.466-.58-.428 0-.81.093-1.147.279a1.993 1.993 0 00-.79.813c-.194.356-.29.787-.29 1.295zm11.677 5.432c-.84 0-1.566-.186-2.176-.557a3.737 3.737 0 01-1.403-1.568c-.326-.674-.489-1.459-.489-2.352 0-.894.163-1.682.489-2.364.33-.686.788-1.22 1.375-1.602.59-.387 1.28-.58 2.068-.58.455 0 .903.076 1.347.227a3.34 3.34 0 011.21.739c.364.337.653.784.869 1.34.216.558.324 1.243.324 2.058v.568h-6.727v-1.16h5.364c0-.492-.099-.931-.296-1.317a2.23 2.23 0 00-.829-.915c-.357-.224-.777-.335-1.262-.335-.534 0-.996.132-1.386.397a2.616 2.616 0 00-.892 1.023c-.209.42-.313.871-.313 1.352v.773c0 .66.114 1.218.341 1.676.231.455.551.801.96 1.04.41.235.885.352 1.427.352.352 0 .67-.049.954-.147.288-.103.536-.254.744-.455.209-.205.37-.458.483-.761l1.296.363a2.88 2.88 0 01-.688 1.16 3.344 3.344 0 01-1.193.772 4.423 4.423 0 01-1.597.273zm-.818-10.091l1.387-2.637h1.568l-1.773 2.637h-1.182zm12.313 4.659V38h-1.341v-8.727h1.295v1.363h.114c.205-.443.515-.799.932-1.068.416-.273.954-.409 1.613-.409.591 0 1.108.121 1.552.364.443.238.787.602 1.034 1.09.246.486.369 1.1.369 1.842V38h-1.341v-5.455c0-.685-.178-1.22-.534-1.602-.356-.386-.845-.58-1.466-.58a2.34 2.34 0 00-1.148.279 1.992 1.992 0 00-.789.813c-.194.356-.29.787-.29 1.295zm10.586 5.455a3.543 3.543 0 01-1.505-.313 2.582 2.582 0 01-1.074-.915c-.265-.401-.398-.886-.398-1.454 0-.5.099-.906.296-1.216.197-.315.46-.56.789-.739a4.2 4.2 0 011.091-.398c.402-.09.805-.162 1.211-.215.53-.069.96-.12 1.289-.154.334-.038.576-.1.728-.187.155-.087.233-.239.233-.455v-.045c0-.561-.154-.997-.461-1.307-.303-.31-.763-.466-1.38-.466-.641 0-1.142.14-1.506.42-.364.28-.619.58-.767.898l-1.273-.454c.227-.53.53-.944.909-1.24.383-.298.8-.507 1.25-.624a5.196 5.196 0 011.341-.182c.28 0 .602.034.966.102.368.065.722.2 1.063.404.344.204.63.513.858.926.227.413.34.966.34 1.659V38h-1.34v-1.182h-.069c-.091.19-.242.392-.454.608-.212.216-.494.4-.847.551-.352.152-.782.228-1.29.228zM121.5 37c.53 0 .977-.104 1.341-.313.367-.208.644-.477.829-.806.19-.33.285-.676.285-1.04v-1.227c-.057.068-.182.13-.375.187-.19.053-.41.1-.66.142a29.56 29.56 0 01-1.284.17 5.19 5.19 0 00-.977.222 1.681 1.681 0 00-.727.45c-.182.196-.273.465-.273.806 0 .466.172.818.517 1.057.349.235.79.352 1.324.352zm.045-8.91l1.387-2.636h1.568l-1.773 2.637h-1.182zm7.448 6.728l-.023-1.659h.273l3.818-3.886h1.659l-4.068 4.113h-.114l-1.545 1.432zM127.743 38V26.364h1.341V38h-1.341zm5.545 0l-3.409-4.318.955-.932 4.159 5.25h-1.705zm4.499-11.636V38h-1.341V26.364h1.341zm5.024 11.84a3.548 3.548 0 01-1.506-.312 2.585 2.585 0 01-1.073-.915c-.266-.401-.398-.886-.398-1.454 0-.5.098-.906.295-1.216a2.09 2.09 0 01.79-.739c.33-.178.693-.31 1.091-.398.401-.09.805-.162 1.21-.215.53-.069.96-.12 1.29-.154.333-.038.576-.1.727-.187.156-.087.233-.239.233-.455v-.045c0-.561-.153-.997-.46-1.307-.303-.31-.763-.466-1.381-.466-.64 0-1.142.14-1.505.42-.364.28-.62.58-.767.898l-1.273-.454c.227-.53.53-.944.909-1.24a3.411 3.411 0 011.25-.624 5.184 5.184 0 011.341-.182c.28 0 .602.034.966.102.367.065.721.2 1.062.404.345.204.631.513.858.926.227.413.341.966.341 1.659V38h-1.341v-1.182h-.068c-.091.19-.242.392-.455.608-.212.216-.494.4-.846.551-.352.152-.782.228-1.29.228zm.205-1.204c.53 0 .977-.104 1.341-.313a2.131 2.131 0 001.113-1.846v-1.227c-.057.068-.182.13-.375.187a6.29 6.29 0 01-.659.142 30.27 30.27 0 01-1.284.17 5.19 5.19 0 00-.977.222 1.68 1.68 0 00-.728.45c-.181.196-.272.465-.272.806 0 .466.172.818.517 1.057.348.235.79.352 1.324.352zm9.538 1.182c-.727 0-1.369-.184-1.926-.551-.557-.371-.993-.894-1.307-1.569-.314-.677-.472-1.479-.472-2.403 0-.917.158-1.712.472-2.386.314-.674.752-1.195 1.313-1.563.56-.367 1.208-.55 1.943-.55.568 0 1.017.094 1.346.283.334.186.587.398.762.636.178.235.316.429.414.58h.114v-4.295h1.341V38h-1.295v-1.34h-.16a8.522 8.522 0 01-.42.601c-.182.239-.441.453-.778.642-.338.186-.786.279-1.347.279zm.182-1.205c.538 0 .992-.14 1.363-.42.372-.284.654-.676.847-1.176.193-.504.29-1.086.29-1.745 0-.651-.095-1.221-.284-1.71-.19-.492-.47-.875-.841-1.148-.371-.276-.83-.414-1.375-.414-.568 0-1.042.145-1.421.437-.375.288-.657.68-.846 1.176a4.666 4.666 0 00-.279 1.66c0 .62.095 1.185.284 1.693.194.503.478.905.853 1.204.379.296.848.443 1.409.443zm7.324 4.296c-.228 0-.43-.02-.608-.057a1.626 1.626 0 01-.37-.102l.341-1.182c.326.083.614.113.864.09.25-.022.472-.134.665-.334.197-.198.377-.518.539-.96l.25-.683-3.227-8.772h1.455l2.409 6.954h.091l2.409-6.954h1.454l-3.704 10c-.167.45-.373.824-.619 1.119-.247.3-.533.52-.858.665a2.646 2.646 0 01-1.091.216zM32.044 85.56c-2.138-.009-3.978-.535-5.519-1.58-1.533-1.043-2.713-2.555-3.542-4.536-.82-1.98-1.226-4.362-1.218-7.146 0-2.776.41-5.142 1.23-7.097.829-1.956 2.01-3.443 3.543-4.462 1.54-1.028 3.376-1.541 5.506-1.541 2.13 0 3.96.513 5.493 1.54 1.541 1.028 2.726 2.52 3.555 4.475.829 1.947 1.239 4.309 1.23 7.085 0 2.792-.414 5.178-1.242 7.159-.82 1.98-1.997 3.492-3.53 4.536-1.533 1.044-3.368 1.566-5.506 1.566zm0-4.463c1.458 0 2.622-.733 3.492-2.2.87-1.466 1.301-3.666 1.293-6.6 0-1.93-.199-3.537-.597-4.822-.39-1.284-.944-2.25-1.665-2.896a3.632 3.632 0 00-2.523-.97c-1.45 0-2.61.726-3.48 2.176-.87 1.45-1.31 3.62-1.318 6.513 0 1.955.195 3.587.584 4.897.398 1.3.957 2.278 1.678 2.933a3.68 3.68 0 002.536.97zm37.02-12.79l-1.23 2.723H51.216l1.007-2.722h16.841zm-2.373 5.209L65.335 76.3h-14.12l1.007-2.784H66.69zm5.605-12.007l-1.989 4.251a16.823 16.823 0 00-1.205-.758 7.316 7.316 0 00-1.604-.709 6.264 6.264 0 00-1.988-.298c-1.152 0-2.155.29-3.008.87-.854.58-1.516 1.483-1.989 2.71-.464 1.226-.696 2.8-.696 4.723 0 1.939.232 3.517.696 4.735.473 1.21 1.136 2.1 1.989 2.672.853.564 1.856.845 3.008.845.729 0 1.392-.095 1.988-.285a7.616 7.616 0 001.566-.684c.456-.265.837-.51 1.144-.733l2.013 4.25a9.487 9.487 0 01-3.07 1.69c-1.143.374-2.357.56-3.641.56-2.171 0-4.094-.514-5.767-1.541-1.666-1.036-2.97-2.523-3.915-4.462-.945-1.947-1.417-4.296-1.417-7.047 0-2.743.472-5.092 1.417-7.048.944-1.955 2.25-3.45 3.915-4.486 1.673-1.045 3.596-1.567 5.767-1.567 1.334 0 2.568.2 3.704.597 1.135.398 2.162.97 3.082 1.715z" fill="#242A36"/><path d="M21.438 121v-13.091h1.911v4.864h.116c.11-.204.27-.441.479-.709.209-.269.498-.503.87-.703.37-.205.86-.307 1.47-.307.792 0 1.5.2 2.122.601.622.4 1.11.978 1.463 1.732.358.754.537 1.662.537 2.723s-.177 1.971-.53 2.73c-.354.754-.84 1.335-1.458 1.745-.618.404-1.323.607-2.115.607-.597 0-1.085-.1-1.464-.301-.375-.2-.67-.434-.882-.703a5.273 5.273 0 01-.492-.716h-.16V121h-1.867zm1.873-4.909c0 .69.1 1.295.3 1.815.2.52.49.927.87 1.221.38.29.844.435 1.393.435.571 0 1.049-.151 1.432-.454.384-.307.673-.722.87-1.246.2-.525.3-1.115.3-1.771 0-.648-.098-1.229-.294-1.745-.192-.516-.482-.923-.87-1.221-.383-.298-.862-.447-1.438-.447-.554 0-1.022.142-1.406.428-.38.285-.667.684-.863 1.195-.196.512-.294 1.108-.294 1.79zm12.473 5.107c-.967 0-1.8-.207-2.5-.62a4.198 4.198 0 01-1.61-1.758c-.375-.758-.563-1.647-.563-2.665 0-1.006.188-1.892.563-2.659.38-.767.907-1.366 1.585-1.796.682-.431 1.479-.646 2.39-.646a4.81 4.81 0 011.611.275c.52.183.987.471 1.4.863.414.392.74.901.978 1.527.239.623.358 1.379.358 2.27v.677h-7.804v-1.432h5.931a2.83 2.83 0 00-.306-1.336 2.313 2.313 0 00-.863-.926c-.367-.226-.797-.339-1.291-.339-.537 0-1.006.132-1.407.396a2.66 2.66 0 00-.92 1.023 2.95 2.95 0 00-.32 1.361v1.119c0 .656.115 1.214.345 1.675.235.46.56.811.978 1.054.418.239.906.358 1.464.358.362 0 .693-.051.99-.153a2.05 2.05 0 001.273-1.247l1.809.326c-.145.533-.405 1-.78 1.4-.37.397-.837.706-1.4.927-.558.218-1.195.326-1.911.326zm5.128-.198v-1.31l5.319-6.757v-.089h-5.146v-1.662h7.53v1.393l-5.114 6.674v.089h5.293V121h-7.882zm20.257-7.421l-1.732.307a2.046 2.046 0 00-.345-.633 1.712 1.712 0 00-.626-.492c-.265-.128-.595-.192-.991-.192-.541 0-.993.121-1.355.364-.362.239-.544.548-.544.927 0 .328.122.592.365.793.243.2.635.364 1.176.492l1.56.358c.903.209 1.576.53 2.02.965.443.435.664.999.664 1.694 0 .588-.17 1.112-.511 1.572-.337.456-.808.814-1.413 1.074-.6.26-1.297.39-2.09.39-1.1 0-1.997-.234-2.691-.703-.695-.473-1.12-1.144-1.279-2.013l1.848-.282c.115.482.351.846.71 1.093.357.243.824.365 1.4.365.626 0 1.126-.13 1.501-.39.375-.264.563-.586.563-.965 0-.307-.115-.565-.345-.774-.226-.209-.574-.366-1.042-.473l-1.662-.364c-.916-.209-1.594-.541-2.033-.997-.434-.456-.652-1.034-.652-1.733 0-.579.162-1.086.486-1.521.324-.435.771-.773 1.342-1.016.571-.247 1.225-.371 1.963-.371 1.06 0 1.896.23 2.505.69.61.456 1.012 1.068 1.208 1.835zm3.051 4.091l-.012-2.333h.332l3.912-4.155h2.288l-4.461 4.73h-.3l-1.759 1.758zM62.462 121v-13.091h1.912V121h-1.911zm6.2 0l-3.515-4.666 1.317-1.336L71.009 121h-2.346zm2.82 0v-9.818h1.847v1.559h.103c.179-.528.494-.943.946-1.246.456-.307.971-.46 1.546-.46a7.683 7.683 0 01.812.045v1.828a3.332 3.332 0 00-.409-.071 4.013 4.013 0 00-.588-.044c-.452 0-.854.096-1.208.287-.35.188-.626.45-.83.786a2.13 2.13 0 00-.308 1.138V121h-1.91zm7.415 3.682c-.285 0-.545-.024-.78-.07a2.483 2.483 0 01-.524-.141l.46-1.566c.35.094.661.134.934.121.272-.012.513-.115.722-.307.213-.191.4-.504.563-.939l.236-.652-3.592-9.946h2.045l2.487 7.619h.102l2.486-7.619h2.052l-4.046 11.128a4.438 4.438 0 01-.716 1.298c-.29.358-.635.626-1.035.805-.4.179-.865.269-1.394.269zm12.57-13.5v1.534h-5.362v-1.534h5.362zm-3.924-2.352h1.911v9.287c0 .371.055.65.166.838a.87.87 0 00.428.377c.18.064.373.096.582.096.154 0 .288-.011.403-.032l.268-.052.346 1.579a3.1 3.1 0 01-.474.128c-.204.047-.46.073-.767.077a3.365 3.365 0 01-1.406-.269 2.408 2.408 0 01-1.055-.869c-.268-.392-.402-.884-.402-1.476v-9.684zm6.247 15.852c-.286 0-.546-.024-.78-.07a2.483 2.483 0 01-.524-.141l.46-1.566c.35.094.66.134.933.121.273-.012.514-.115.723-.307.213-.191.4-.504.562-.939l.237-.652-3.593-9.946h2.046l2.486 7.619h.102l2.487-7.619h2.052l-4.046 11.128a4.44 4.44 0 01-.716 1.298c-.29.358-.635.626-1.036.805-.4.179-.865.269-1.393.269zm1.809-14.811l1.495-2.946h2.014l-1.982 2.946H95.6zm9.98 11.327c-.951 0-1.769-.215-2.455-.645a4.272 4.272 0 01-1.572-1.797c-.367-.762-.55-1.636-.55-2.62 0-.997.187-1.877.562-2.64.375-.767.904-1.366 1.586-1.796.682-.431 1.485-.646 2.409-.646.746 0 1.411.138 1.995.415a3.58 3.58 0 011.412 1.151c.363.494.578 1.072.646 1.732h-1.86a2.233 2.233 0 00-.703-1.189c-.362-.332-.848-.498-1.458-.498-.532 0-.999.14-1.399.422-.397.277-.706.673-.927 1.189-.222.511-.333 1.116-.333 1.815 0 .716.109 1.334.326 1.854.218.52.525.922.921 1.208.4.285.871.428 1.412.428.363 0 .691-.066.985-.198a2.02 2.02 0 00.748-.582c.204-.251.347-.554.428-.908h1.86a3.618 3.618 0 01-.62 1.701c-.345.498-.808.89-1.387 1.176-.575.285-1.251.428-2.026.428zm6.988-6.028V121h-1.911v-13.091h1.886v4.871h.121c.23-.529.582-.948 1.055-1.259.473-.311 1.091-.467 1.853-.467.674 0 1.262.138 1.765.415.507.277.899.691 1.176 1.241.281.545.422 1.227.422 2.045V121h-1.912v-6.015c0-.72-.185-1.278-.556-1.675-.37-.4-.886-.6-1.547-.6-.451 0-.856.095-1.214.287a2.068 2.068 0 00-.837.844c-.201.366-.301.81-.301 1.329zm11.681 9.512v-13.5h1.866v1.591h.16c.111-.204.271-.441.479-.709.209-.269.499-.503.87-.703.37-.205.861-.307 1.47-.307.792 0 1.5.2 2.122.601.622.4 1.11.978 1.464 1.732.358.754.537 1.662.537 2.723s-.177 1.971-.531 2.73c-.353.754-.839 1.335-1.457 1.745-.618.404-1.323.607-2.116.607-.597 0-1.084-.1-1.464-.301-.375-.2-.669-.434-.882-.703a5.279 5.279 0 01-.492-.716h-.115v5.21h-1.911zm1.873-8.591c0 .69.1 1.295.3 1.815.2.52.49.927.869 1.221.38.29.844.435 1.394.435.571 0 1.048-.151 1.432-.454.383-.307.673-.722.869-1.246.2-.525.3-1.115.3-1.771 0-.648-.098-1.229-.294-1.745-.191-.516-.481-.923-.869-1.221-.384-.298-.863-.447-1.438-.447-.554 0-1.023.142-1.406.428-.38.285-.667.684-.863 1.195-.196.512-.294 1.108-.294 1.79zm12.372 5.107c-.921 0-1.724-.211-2.41-.633a4.268 4.268 0 01-1.598-1.77c-.379-.759-.569-1.645-.569-2.659 0-1.019.19-1.909.569-2.672a4.257 4.257 0 011.598-1.777c.686-.422 1.489-.633 2.41-.633.92 0 1.723.211 2.41.633.686.422 1.218 1.014 1.598 1.777.379.763.568 1.653.568 2.672 0 1.014-.189 1.9-.568 2.659a4.275 4.275 0 01-1.598 1.77c-.687.422-1.49.633-2.41.633zm.006-1.604c.597 0 1.091-.158 1.483-.473.392-.316.682-.735.869-1.259a5.01 5.01 0 00.288-1.733 4.99 4.99 0 00-.288-1.726c-.187-.528-.477-.952-.869-1.272-.392-.319-.886-.479-1.483-.479-.601 0-1.099.16-1.496.479-.392.32-.684.744-.875 1.272a5.085 5.085 0 00-.282 1.726c0 .631.094 1.208.282 1.733.191.524.483.943.875 1.259.397.315.895.473 1.496.473zm5.704 5.088v-13.5h1.866v1.591h.16c.111-.204.271-.441.479-.709.209-.269.499-.503.87-.703.371-.205.861-.307 1.47-.307.793 0 1.5.2 2.122.601.622.4 1.11.978 1.464 1.732.358.754.537 1.662.537 2.723s-.177 1.971-.531 2.73c-.353.754-.839 1.335-1.457 1.745-.618.404-1.323.607-2.116.607-.596 0-1.084-.1-1.464-.301-.375-.2-.669-.434-.882-.703a5.279 5.279 0 01-.492-.716h-.115v5.21h-1.911zm1.873-8.591c0 .69.1 1.295.3 1.815.2.52.49.927.869 1.221.38.29.844.435 1.394.435.571 0 1.048-.151 1.432-.454.383-.307.673-.722.869-1.246.2-.525.3-1.115.3-1.771 0-.648-.098-1.229-.294-1.745-.191-.516-.481-.923-.869-1.221-.383-.298-.863-.447-1.438-.447-.554 0-1.023.142-1.406.428-.38.285-.667.684-.863 1.195-.196.512-.294 1.108-.294 1.79zm10.147-8.182V121h-1.911v-13.091h1.911zm4.429 13.308a4.014 4.014 0 01-1.688-.345 2.839 2.839 0 01-1.195-1.016c-.29-.443-.435-.987-.435-1.63 0-.554.107-1.01.32-1.368a2.36 2.36 0 01.863-.85 4.483 4.483 0 011.214-.473c.448-.107.904-.188 1.368-.243l1.432-.166c.367-.047.633-.122.799-.224.166-.102.249-.268.249-.499v-.044c0-.559-.157-.991-.473-1.298-.311-.307-.775-.46-1.393-.46-.644 0-1.151.143-1.521.428-.367.281-.62.595-.761.94l-1.796-.409c.213-.597.524-1.078.933-1.445a3.78 3.78 0 011.425-.805 5.55 5.55 0 011.694-.256c.392 0 .808.047 1.247.141a3.64 3.64 0 011.24.498c.388.243.705.59.952 1.042.247.448.371 1.029.371 1.745V121h-1.866v-1.342h-.077c-.124.247-.309.49-.556.728a2.954 2.954 0 01-.953.595c-.387.158-.852.236-1.393.236zm.415-1.534c.529 0 .98-.104 1.355-.313.38-.209.667-.481.863-.818.201-.341.301-.705.301-1.093v-1.266c-.068.068-.201.132-.397.192a6.318 6.318 0 01-.658.147c-.247.038-.488.075-.722.109a56.2 56.2 0 00-.588.076c-.371.047-.71.126-1.017.237-.302.111-.545.27-.728.479-.179.205-.269.478-.269.818 0 .473.175.831.524 1.074.35.239.795.358 1.336.358zm10.559-8.501v1.534h-5.363v-1.534h5.363zm-3.925-2.352h1.911v9.287c0 .371.056.65.166.838a.868.868 0 00.429.377c.179.064.373.096.581.096.154 0 .288-.011.403-.032l.269-.052.345 1.579a3.114 3.114 0 01-.473.128 3.723 3.723 0 01-.767.077 3.37 3.37 0 01-1.407-.269 2.408 2.408 0 01-1.054-.869c-.269-.392-.403-.884-.403-1.476v-9.684zm7.008 8.84l-.013-2.333h.332l3.912-4.155h2.289l-4.462 4.73h-.301l-1.757 1.758zm-1.758 3.33v-13.091h1.911V121h-1.911zm6.2 0l-3.516-4.666 1.317-1.336 4.545 6.002h-2.346zm6.551.198c-.921 0-1.724-.211-2.41-.633a4.268 4.268 0 01-1.598-1.77c-.379-.759-.569-1.645-.569-2.659 0-1.019.19-1.909.569-2.672a4.257 4.257 0 011.598-1.777c.686-.422 1.489-.633 2.41-.633.92 0 1.723.211 2.41.633.686.422 1.218 1.014 1.598 1.777.379.763.568 1.653.568 2.672 0 1.014-.189 1.9-.568 2.659a4.275 4.275 0 01-1.598 1.77c-.687.422-1.49.633-2.41.633zm.006-1.604c.597 0 1.091-.158 1.483-.473.392-.316.682-.735.869-1.259a5.01 5.01 0 00.288-1.733 4.99 4.99 0 00-.288-1.726c-.187-.528-.477-.952-.869-1.272-.392-.319-.886-.479-1.483-.479-.601 0-1.099.16-1.496.479-.392.32-.684.744-.875 1.272a5.085 5.085 0 00-.282 1.726c0 .631.094 1.208.282 1.733.191.524.483.943.875 1.259.397.315.895.473 1.496.473zm13.769-8.412l-3.56 9.818h-2.046l-3.567-9.818h2.052l2.487 7.555h.102l2.48-7.555h2.052z" fill="#4FBE79"/></svg>