<svg width="24" height="24" fill="none" xmlns="http://www.w3.org/2000/svg"><path d="M12 22c5.523 0 10-4.477 10-10S17.523 2 12 2 2 6.477 2 12s4.477 10 10 10z" stroke="#242A36" stroke-width="1.5" stroke-linecap="round" stroke-linejoin="round"/><path d="M8 17a5 5 0 018 0M7 9.01s1.41-.127 2.196.498m0 0l-.263.835c-.104.329.167.657.543.657.396 0 .657-.357.453-.665-.2-.312-.448-.59-.733-.827zM17 9.011s-1.41-.128-2.196.497m0 0l.263.835c.104.329-.167.657-.543.657-.396 0-.657-.357-.453-.665a3.6 3.6 0 01.733-.827z" stroke="#242A36" stroke-width="1.5" stroke-linecap="round" stroke-linejoin="round"/></svg>