<svg width="24" height="24" fill="none" xmlns="http://www.w3.org/2000/svg"><path d="M8.396 2.552c1.474-.914 2.762-.546 3.535.04.317.24.476.36.569.36.093 0 .252-.12.569-.36.773-.586 2.06-.954 3.535-.04 1.936 1.2 2.374 5.156-2.09 8.494-.851.636-1.276.954-2.014.954-.738 0-1.163-.319-2.013-.954C6.022 7.708 6.46 3.75 8.396 2.552z" stroke="#242A36" stroke-width="1.5" stroke-linecap="round"/><path d="M4 14h2.395c.294 0 .584.066.847.194l2.042.988c.263.127.553.193.848.193h1.042c1.008 0 1.826.791 1.826 1.767 0 .04-.027.074-.066.085l-2.541.703a1.95 1.95 0 01-1.368-.124L6.842 16.75" stroke="#242A36" stroke-width="1.5" stroke-linecap="round" stroke-linejoin="round"/><path d="M13 16.5l4.593-1.412a1.985 1.985 0 012.204.753c.369.51.219 1.242-.319 1.552l-7.515 4.337a1.999 1.999 0 01-1.568.187L4 20.02" stroke="#242A36" stroke-width="1.5" stroke-linecap="round" stroke-linejoin="round"/></svg>