<svg width="249" height="50" fill="none" xmlns="http://www.w3.org/2000/svg"><path d="M0 25C0 11.193 11.193 0 25 0h199c13.807 0 25 11.193 25 25s-11.193 25-25 25H25C11.193 50 0 38.807 0 25z" fill="#FFC721"/><path d="M34 34h2m-2 0a1.5 1.5 0 01-1.5-1.5V30H32m2 4h-4m2-4h-.5v2.5A1.5 1.5 0 0130 34m2-4v4m-2 0h-2m8-18h-8c-2.828 0-4.243 0-5.121.879C22 17.757 22 19.172 22 22v2c0 2.828 0 4.243.879 5.121C23.757 30 25.172 30 28 30h8c2.828 0 4.243 0 5.121-.879C42 28.243 42 26.828 42 24v-2c0-2.828 0-4.243-.879-5.121C40.243 16 38.828 16 36 16z" stroke="#242A36" stroke-width="1.5" stroke-linecap="round" stroke-linejoin="round"/><path d="M36 21l-2.5 2.5c-.273.273-.409.409-.556.482a1 1 0 01-.888 0c-.147-.073-.283-.21-.556-.482-.273-.273-.409-.409-.556-.482a1 1 0 00-.888 0c-.147.073-.283.21-.556.482L27 26m7-6h1.714c.606 0 .91 0 1.098.188.188.189.188.492.188 1.098V23" stroke="#242A36" stroke-width="1.5" stroke-linecap="round" stroke-linejoin="round"/><path d="M66.298 22.545a3.999 3.999 0 00-.499-1.042 3.189 3.189 0 00-.735-.793 3.086 3.086 0 00-.978-.505 3.93 3.93 0 00-1.195-.172 3.62 3.62 0 00-1.995.569c-.592.379-1.06.935-1.406 1.668-.34.729-.511 1.621-.511 2.678 0 1.061.172 1.958.517 2.691.346.733.819 1.29 1.42 1.669.6.379 1.284.568 2.051.568.712 0 1.332-.145 1.86-.434.533-.29.944-.7 1.234-1.227.294-.533.441-1.16.441-1.88l.511.096h-3.745v-1.63h5.145v1.49c0 1.099-.234 2.053-.703 2.863a4.787 4.787 0 01-1.93 1.867c-.818.438-1.756.658-2.813.658-1.184 0-2.224-.273-3.119-.818-.89-.546-1.585-1.32-2.084-2.32-.498-1.006-.748-2.2-.748-3.58 0-1.044.145-1.982.435-2.813.29-.83.697-1.536 1.22-2.115a5.33 5.33 0 011.861-1.336 5.824 5.824 0 012.346-.467c.707 0 1.366.104 1.975.313.614.21 1.16.505 1.636.889a5.03 5.03 0 011.835 3.113h-2.026zm6.326 9.172a4.009 4.009 0 01-1.687-.345 2.842 2.842 0 01-1.195-1.016c-.29-.443-.435-.987-.435-1.63 0-.554.106-1.01.32-1.368.213-.358.5-.641.863-.85a4.506 4.506 0 011.214-.473c.448-.107.903-.188 1.368-.243l1.432-.166c.366-.047.632-.122.799-.224.166-.102.249-.268.249-.499v-.044c0-.559-.158-.991-.473-1.298-.311-.307-.776-.46-1.393-.46-.644 0-1.151.143-1.522.428-.366.281-.62.595-.76.94l-1.797-.41c.213-.596.525-1.078.934-1.444.413-.37.888-.64 1.425-.805a5.563 5.563 0 011.694-.256c.392 0 .808.047 1.246.14.444.09.857.256 1.24.5.388.242.706.59.953 1.041.247.448.37 1.03.37 1.745v6.52h-1.866v-1.342h-.076c-.124.247-.31.49-.557.728a2.953 2.953 0 01-.952.595c-.388.157-.852.236-1.394.236zm.416-1.534c.528 0 .98-.104 1.355-.313.38-.209.667-.482.863-.818.2-.341.3-.705.3-1.093v-1.266c-.068.068-.2.132-.396.192a6.183 6.183 0 01-.658.147 78.5 78.5 0 01-.723.109l-.588.076c-.37.047-.71.126-1.016.237a1.73 1.73 0 00-.729.48c-.179.204-.268.476-.268.817 0 .473.175.831.524 1.074.35.239.795.358 1.336.358zm5.975 1.317v-9.818h1.848v1.56h.102c.179-.529.494-.944.946-1.247.456-.307.971-.46 1.547-.46a8.194 8.194 0 01.811.044v1.829a3.411 3.411 0 00-.409-.07 3.894 3.894 0 00-.588-.045c-.451 0-.854.096-1.208.287a2.137 2.137 0 00-1.137 1.924V31.5h-1.912zm8.678.217a4.01 4.01 0 01-1.688-.345 2.843 2.843 0 01-1.195-1.016c-.29-.443-.435-.987-.435-1.63 0-.554.107-1.01.32-1.368.213-.358.5-.641.863-.85a4.505 4.505 0 011.214-.473 12.08 12.08 0 011.368-.243l1.432-.166c.367-.047.633-.122.8-.224.165-.102.248-.268.248-.499v-.044c0-.559-.157-.991-.473-1.298-.31-.307-.775-.46-1.393-.46-.644 0-1.15.143-1.521.428-.367.281-.62.595-.761.94l-1.796-.41c.213-.596.524-1.078.933-1.444a3.78 3.78 0 011.425-.805 5.564 5.564 0 011.694-.256c.392 0 .808.047 1.247.14.443.09.856.256 1.24.5.388.242.705.59.952 1.041.247.448.371 1.03.371 1.745v6.52h-1.867v-1.342h-.076c-.124.247-.31.49-.556.728a2.954 2.954 0 01-.953.595c-.388.157-.852.236-1.393.236zm.415-1.534c.529 0 .98-.104 1.355-.313.38-.209.667-.482.863-.818.2-.341.3-.705.3-1.093v-1.266c-.067.068-.2.132-.395.192a6.189 6.189 0 01-.659.147c-.247.038-.488.075-.722.109l-.588.076a4.74 4.74 0 00-1.017.237c-.302.11-.545.27-.728.48-.18.204-.269.476-.269.817 0 .473.175.831.524 1.074.35.239.795.358 1.336.358zm7.887-4.512V31.5h-1.911v-9.818h1.834v1.598h.122c.225-.52.58-.938 1.06-1.253.487-.315 1.098-.473 1.835-.473.67 0 1.255.14 1.758.422.503.277.893.69 1.17 1.24.277.55.415 1.23.415 2.039V31.5h-1.911v-6.015c0-.712-.185-1.268-.556-1.668-.37-.405-.88-.608-1.528-.608a2.39 2.39 0 00-1.182.288 2.067 2.067 0 00-.812.844c-.196.366-.294.81-.294 1.33zm12.43-3.99v1.535h-5.363v-1.534h5.363zM104.5 19.33h1.911v9.288c0 .37.055.65.166.837a.868.868 0 00.429.378c.178.064.372.096.581.096.154 0 .288-.011.403-.032l.268-.052.346 1.58a3.241 3.241 0 01-.473.127 3.75 3.75 0 01-.768.077 3.366 3.366 0 01-1.406-.269 2.412 2.412 0 01-1.054-.869c-.269-.392-.403-.884-.403-1.476V19.33zm9.069 12.37c-.921 0-1.724-.212-2.41-.634a4.265 4.265 0 01-1.598-1.77c-.379-.759-.569-1.645-.569-2.66 0-1.018.19-1.908.569-2.671a4.257 4.257 0 011.598-1.777c.686-.422 1.489-.633 2.41-.633.92 0 1.724.21 2.41.633.686.422 1.218 1.014 1.598 1.777.379.763.569 1.653.569 2.672 0 1.014-.19 1.9-.569 2.659a4.272 4.272 0 01-1.598 1.77c-.686.422-1.49.633-2.41.633zm.006-1.605c.597 0 1.091-.158 1.483-.473.392-.316.682-.735.87-1.26a5.026 5.026 0 00.287-1.732c0-.626-.096-1.201-.287-1.726-.188-.528-.478-.952-.87-1.272-.392-.32-.886-.479-1.483-.479-.601 0-1.099.16-1.495.48-.392.319-.684.743-.876 1.271a5.08 5.08 0 00-.281 1.726 5.1 5.1 0 00.281 1.732c.192.525.484.944.876 1.26.396.315.894.473 1.495.473zm13.769-8.412l-3.56 9.818h-2.046l-3.566-9.818h2.051l2.487 7.555h.102l2.48-7.555h2.052zm3.372 10.035a4.008 4.008 0 01-1.687-.345 2.844 2.844 0 01-1.196-1.016c-.289-.443-.434-.987-.434-1.63 0-.554.106-1.01.319-1.368a2.36 2.36 0 01.863-.85 4.512 4.512 0 011.215-.473 11.85 11.85 0 011.368-.243l1.432-.166c.366-.047.632-.122.799-.224.166-.102.249-.268.249-.499v-.044c0-.559-.158-.991-.473-1.298-.311-.307-.776-.46-1.394-.46-.643 0-1.15.143-1.521.428-.366.281-.62.595-.761.94l-1.796-.41c.213-.596.524-1.078.933-1.444.414-.37.889-.64 1.426-.805a5.561 5.561 0 011.694-.256c.392 0 .807.047 1.246.14.443.09.857.256 1.24.5.388.242.706.59.953 1.041.247.448.37 1.03.37 1.745v6.52h-1.866v-1.342h-.077a2.7 2.7 0 01-.556.728 2.948 2.948 0 01-.952.595c-.388.157-.853.236-1.394.236zm.416-1.534c.528 0 .98-.104 1.355-.313a2.2 2.2 0 00.863-.818c.2-.341.3-.705.3-1.093v-1.266c-.068.068-.2.132-.396.192a6.197 6.197 0 01-.658.147c-.248.038-.488.075-.723.109l-.588.076a4.735 4.735 0 00-1.016.237c-.303.11-.546.27-.729.48-.179.204-.268.476-.268.817 0 .473.174.831.524 1.074.349.239.795.358 1.336.358zm7.886-4.512V31.5h-1.911v-9.818h1.835v1.598h.121a2.81 2.81 0 011.061-1.253c.486-.315 1.097-.473 1.835-.473.669 0 1.255.14 1.757.422.503.277.893.69 1.17 1.24.277.55.416 1.23.416 2.039V31.5h-1.912v-6.015c0-.712-.185-1.268-.556-1.668-.37-.405-.88-.608-1.527-.608a2.39 2.39 0 00-1.183.288 2.073 2.073 0 00-.812.844c-.196.366-.294.81-.294 1.33zm8.703 9.51a3.97 3.97 0 01-.779-.07 2.454 2.454 0 01-.525-.14l.461-1.566c.349.094.66.134.933.121.273-.013.513-.115.722-.307.213-.191.401-.505.563-.94l.236-.651-3.592-9.946h2.045l2.487 7.62h.102l2.487-7.62h2.051l-4.046 11.128a4.424 4.424 0 01-.716 1.298 2.777 2.777 0 01-1.035.805c-.401.18-.865.269-1.394.269zm1.809-14.81l1.496-2.946h2.014l-1.982 2.946h-1.528zm18.341 1.31l-3.56 9.819h-2.045l-3.567-9.818h2.052l2.486 7.555h.102l2.481-7.555h2.051zm2.005 13.5a3.98 3.98 0 01-.78-.07 2.46 2.46 0 01-.524-.14l.46-1.566c.349.094.66.134.933.121a1.12 1.12 0 00.723-.307c.213-.191.4-.505.562-.94l.237-.651-3.593-9.946h2.046l2.486 7.62h.102l2.487-7.62h2.052l-4.046 11.128a4.47 4.47 0 01-.716 1.298 2.78 2.78 0 01-1.036.805c-.4.18-.865.269-1.393.269zm1.809-14.81l1.495-2.946h2.014l-1.982 2.946h-1.527zm13.535 3.708l-1.732.307a2.078 2.078 0 00-.345-.633 1.708 1.708 0 00-.627-.492c-.264-.128-.594-.192-.99-.192-.542 0-.993.121-1.356.364-.362.239-.543.548-.543.927a.98.98 0 00.364.793c.243.2.635.364 1.177.492l1.559.358c.904.209 1.577.53 2.02.965.443.435.665 1 .665 1.694a2.58 2.58 0 01-.511 1.572c-.337.456-.808.814-1.413 1.074-.601.26-1.298.39-2.09.39-1.1 0-1.997-.234-2.691-.703-.695-.473-1.121-1.144-1.279-2.014l1.848-.28c.115.48.351.845.709 1.092.358.243.825.365 1.4.365.626 0 1.127-.13 1.502-.39.375-.264.563-.586.563-.965a1 1 0 00-.346-.774c-.225-.209-.573-.366-1.042-.473l-1.661-.364c-.917-.209-1.594-.541-2.033-.997-.435-.456-.652-1.034-.652-1.733 0-.58.162-1.086.486-1.52.324-.436.771-.774 1.342-1.017.571-.247 1.225-.371 1.962-.371 1.061 0 1.897.23 2.506.69.609.456 1.012 1.068 1.208 1.835zm3.205-5.67V31.5h-1.912V18.41h1.912zm5.802 13.29c-.967 0-1.8-.208-2.499-.62a4.202 4.202 0 01-1.611-1.759c-.375-.758-.562-1.647-.562-2.665 0-1.006.187-1.892.562-2.66.379-.766.908-1.365 1.585-1.795.682-.43 1.479-.646 2.391-.646.554 0 1.091.092 1.611.275.52.183.986.47 1.4.863.413.392.739.901.978 1.527.238.623.358 1.379.358 2.27v.677h-7.805v-1.432h5.932c0-.503-.103-.948-.307-1.336a2.321 2.321 0 00-.863-.926c-.366-.226-.797-.34-1.291-.34-.537 0-1.006.133-1.406.397-.397.26-.704.601-.921 1.023a2.953 2.953 0 00-.319 1.361v1.119c0 .656.115 1.214.345 1.675.234.46.56.811.978 1.054.417.239.905.358 1.463.358.363 0 .693-.05.991-.153.299-.107.556-.264.774-.473.217-.209.383-.467.498-.773l1.809.326a3.284 3.284 0 01-.78 1.4 3.77 3.77 0 01-1.4.926c-.558.218-1.195.326-1.911.326zm9.009-.007c-.793 0-1.5-.203-2.123-.608-.617-.409-1.103-.99-1.457-1.744-.349-.759-.524-1.669-.524-2.73s.177-1.969.53-2.723c.358-.754.848-1.332 1.471-1.732.622-.4 1.327-.601 2.115-.601.61 0 1.1.102 1.471.307.375.2.664.434.869.703.209.268.371.505.486.71h.115V18.41h1.911V31.5h-1.867v-1.528h-.159a5.09 5.09 0 01-.499.716c-.213.269-.507.503-.882.703-.375.2-.861.3-1.457.3zm.421-1.63c.55 0 1.015-.145 1.394-.435.383-.294.673-.7.869-1.22.201-.52.301-1.126.301-1.816 0-.682-.098-1.279-.294-1.79-.196-.511-.484-.91-.863-1.195-.38-.286-.848-.428-1.407-.428-.575 0-1.054.149-1.438.447-.383.298-.673.705-.869 1.22-.192.517-.288 1.098-.288 1.746 0 .656.098 1.246.294 1.77.196.525.486.94.87 1.247.387.302.865.454 1.431.454zm10.306 1.636c-.92 0-1.723-.21-2.409-.633a4.265 4.265 0 01-1.598-1.77c-.38-.759-.569-1.645-.569-2.66 0-1.018.189-1.908.569-2.671a4.257 4.257 0 011.598-1.777c.686-.422 1.489-.633 2.409-.633.921 0 1.724.21 2.41.633a4.257 4.257 0 011.598 1.777c.379.763.569 1.653.569 2.672 0 1.014-.19 1.9-.569 2.659a4.265 4.265 0 01-1.598 1.77c-.686.422-1.489.633-2.41.633zm.007-1.604c.596 0 1.091-.158 1.483-.473.392-.316.682-.735.869-1.26a5.002 5.002 0 00.288-1.732 4.99 4.99 0 00-.288-1.726c-.187-.528-.477-.952-.869-1.272-.392-.32-.887-.479-1.483-.479-.601 0-1.1.16-1.496.48-.392.319-.684.743-.876 1.271a5.104 5.104 0 00-.281 1.726c0 .63.094 1.208.281 1.732.192.525.484.944.876 1.26.396.315.895.473 1.496.473zm7.461-1.924l-.012-2.333h.332l3.912-4.155h2.288l-4.461 4.73h-.301l-1.758 1.758zm-1.758 3.33V18.41h1.912V31.5h-1.912zm6.201 0l-3.516-4.666 1.317-1.336 4.545 6.002h-2.346z" fill="#242A36"/></svg>