<svg width="257" height="149" fill="none" xmlns="http://www.w3.org/2000/svg"><path d="M10 .5h237a9.5 9.5 0 019.5 9.5v129a9.5 9.5 0 01-9.5 9.5H10A9.5 9.5 0 01.5 139V10A9.5 9.5 0 0110 .5z" fill="#fff"/><path d="M10 .5h237a9.5 9.5 0 019.5 9.5v129a9.5 9.5 0 01-9.5 9.5H10A9.5 9.5 0 01.5 139V10A9.5 9.5 0 0110 .5z" stroke="#E4E4E4"/><path d="M69.68 38h-3.591V26.364h3.75c1.129 0 2.094.233 2.898.698.803.463 1.418 1.127 1.846 1.995.428.864.642 1.898.642 3.102 0 1.212-.216 2.256-.648 3.13a4.615 4.615 0 01-1.886 2.012c-.826.466-1.83.699-3.011.699zm-2.182-1.25h2.09c.963 0 1.76-.186 2.393-.557a3.431 3.431 0 001.415-1.585c.31-.686.466-1.502.466-2.449 0-.94-.154-1.748-.46-2.426a3.394 3.394 0 00-1.376-1.568c-.61-.368-1.369-.551-2.278-.551h-2.25v9.136zm13.454 1.432c-.787 0-1.479-.188-2.073-.563-.591-.375-1.053-.9-1.387-1.574-.33-.674-.494-1.462-.494-2.363 0-.91.165-1.703.494-2.38.334-.679.796-1.205 1.387-1.58.594-.375 1.285-.563 2.073-.563s1.478.188 2.069.563c.594.375 1.056.901 1.386 1.58.333.677.5 1.47.5 2.38 0 .901-.167 1.69-.5 2.363a3.77 3.77 0 01-1.386 1.574c-.591.375-1.28.563-2.069.563zm0-1.205c.599 0 1.091-.153 1.478-.46a2.72 2.72 0 00.858-1.21c.185-.5.278-1.042.278-1.625 0-.584-.093-1.127-.278-1.63a2.75 2.75 0 00-.858-1.223c-.387-.31-.88-.465-1.478-.465s-1.09.155-1.477.465a2.75 2.75 0 00-.858 1.222 4.681 4.681 0 00-.278 1.63c0 .584.093 1.126.278 1.626.186.5.472.903.858 1.21.387.307.879.46 1.477.46zm12.184-5.75l-1.205.341a2.236 2.236 0 00-.335-.585 1.626 1.626 0 00-.591-.477c-.25-.125-.57-.188-.96-.188-.534 0-.98.123-1.335.37-.353.242-.529.55-.529.926 0 .333.121.596.364.79.242.193.621.354 1.136.482l1.296.319c.78.189 1.361.479 1.744.869.382.386.574.884.574 1.494 0 .5-.144.947-.432 1.341-.284.394-.682.705-1.193.932-.512.227-1.106.34-1.784.34-.89 0-1.627-.192-2.21-.579-.584-.386-.953-.95-1.109-1.693l1.273-.318c.121.47.35.822.688 1.057.34.235.786.352 1.335.352.625 0 1.121-.133 1.489-.398.37-.269.556-.59.556-.966 0-.303-.106-.556-.318-.761-.212-.208-.538-.364-.977-.466l-1.455-.34c-.799-.19-1.386-.484-1.761-.882-.371-.401-.557-.903-.557-1.505 0-.493.138-.928.415-1.307a2.82 2.82 0 011.142-.892c.485-.216 1.034-.324 1.648-.324.863 0 1.541.19 2.034.568.496.38.848.88 1.057 1.5zm5.973-1.954v1.136h-4.523v-1.136h4.523zm-3.205-2.091h1.341V35.5c0 .379.055.663.165.852a.85.85 0 00.432.375c.178.06.365.091.562.091.148 0 .27-.007.364-.023l.227-.045.273 1.205a2.76 2.76 0 01-.38.102c-.164.038-.37.057-.62.057a2.7 2.7 0 01-1.114-.245 2.213 2.213 0 01-.898-.744c-.234-.333-.352-.754-.352-1.261v-8.682zm10.722 7.25v-5.16h1.341V38h-1.341v-1.477h-.091c-.205.443-.523.82-.955 1.13-.432.307-.977.46-1.636.46-.546 0-1.03-.119-1.455-.357-.424-.243-.757-.606-1-1.091-.242-.489-.363-1.104-.363-1.847v-5.545h1.341v5.454c0 .637.178 1.144.534 1.523.36.379.818.568 1.375.568a2.29 2.29 0 001.017-.255c.348-.171.64-.432.875-.785.238-.352.358-.8.358-1.346zm3.797 6.84v-12h1.295v1.387h.159c.099-.151.235-.345.409-.58.178-.238.432-.45.762-.636.333-.19.784-.284 1.352-.284.735 0 1.382.184 1.943.551.561.368.998.889 1.313 1.563.314.674.471 1.47.471 2.386 0 .924-.157 1.726-.471 2.404-.315.674-.75 1.197-1.307 1.568-.557.367-1.199.55-1.926.55-.561 0-1.01-.092-1.347-.278-.337-.189-.597-.403-.778-.642a8.77 8.77 0 01-.421-.602h-.113v4.614h-1.341zm1.318-7.636c0 .66.096 1.24.29 1.745.193.5.475.892.846 1.176.371.28.826.42 1.364.42.56 0 1.028-.147 1.403-.443.379-.3.663-.7.852-1.204.194-.508.29-1.072.29-1.694 0-.613-.094-1.166-.284-1.659-.185-.496-.468-.888-.846-1.176-.375-.291-.847-.437-1.415-.437-.546 0-1.004.138-1.375.414-.371.273-.652.656-.841 1.148-.19.489-.284 1.059-.284 1.71zm9.773-.886V38h-1.341v-8.727h1.295v1.363h.114c.204-.443.515-.799.932-1.068.416-.273.954-.409 1.613-.409.591 0 1.108.121 1.551.364a2.45 2.45 0 011.034 1.09c.247.486.37 1.1.37 1.842V38h-1.341v-5.455c0-.685-.178-1.22-.534-1.602-.356-.386-.845-.58-1.466-.58a2.34 2.34 0 00-1.148.279 1.994 1.994 0 00-.79.813c-.193.356-.289.787-.289 1.295zm11.677 5.432c-.841 0-1.566-.186-2.176-.557a3.733 3.733 0 01-1.403-1.568c-.326-.674-.489-1.459-.489-2.352 0-.894.163-1.682.489-2.364.329-.686.787-1.22 1.375-1.602.59-.387 1.28-.58 2.068-.58.454 0 .903.076 1.346.227a3.35 3.35 0 011.211.739c.363.337.653.784.869 1.34.216.558.324 1.243.324 2.058v.568h-6.728v-1.16h5.364c0-.492-.098-.931-.295-1.317a2.232 2.232 0 00-.83-.915c-.356-.224-.776-.335-1.261-.335-.534 0-.997.132-1.387.397a2.623 2.623 0 00-.892 1.023c-.208.42-.312.871-.312 1.352v.773c0 .66.113 1.218.341 1.676.231.455.551.801.96 1.04.409.235.884.352 1.426.352.352 0 .671-.049.955-.147.287-.103.536-.254.744-.455.208-.205.369-.458.483-.761l1.295.363a2.87 2.87 0 01-.687 1.16c-.322.329-.72.587-1.193.772a4.43 4.43 0 01-1.597.273zm-.818-10.091l1.386-2.637h1.568l-1.772 2.637h-1.182zM143.344 38v-8.727h1.296v1.363h.114a2.19 2.19 0 01.88-1.085c.406-.261.892-.392 1.46-.392.576 0 1.055.13 1.438.392.386.258.687.62.903 1.085h.091c.224-.45.559-.808 1.006-1.073.447-.27.983-.404 1.608-.404.78 0 1.418.244 1.915.733.496.485.744 1.24.744 2.267V38h-1.341v-5.84c0-.645-.176-1.105-.528-1.382a1.958 1.958 0 00-1.245-.414c-.613 0-1.089.185-1.426.556-.337.368-.505.834-.505 1.398V38h-1.364v-5.977c0-.497-.161-.896-.483-1.2-.322-.306-.737-.46-1.244-.46a1.84 1.84 0 00-.978.279 2.107 2.107 0 00-.727.773 2.28 2.28 0 00-.273 1.13V38h-1.341zm13.907 0v-8.727h1.341V38h-1.341zm.682-10.182a.955.955 0 01-.677-.267.86.86 0 01-.278-.642.86.86 0 01.278-.642.955.955 0 01.677-.267c.261 0 .484.089.67.267a.851.851 0 01.284.642c0 .25-.095.464-.284.642a.934.934 0 01-.67.267zm6.774 10.364c-.841 0-1.567-.186-2.176-.557a3.735 3.735 0 01-1.404-1.568c-.326-.674-.488-1.459-.488-2.352 0-.894.162-1.682.488-2.364.33-.686.788-1.22 1.375-1.602.591-.387 1.28-.58 2.068-.58.455 0 .904.076 1.347.227.443.152.847.398 1.21.739.364.337.654.784.869 1.34.216.558.324 1.243.324 2.058v.568h-6.727v-1.16h5.364c0-.492-.099-.931-.296-1.317a2.223 2.223 0 00-.829-.915c-.356-.224-.777-.335-1.262-.335-.534 0-.996.132-1.386.397a2.615 2.615 0 00-.892 1.023 3.01 3.01 0 00-.313 1.352v.773c0 .66.114 1.218.341 1.676.231.455.551.801.961 1.04.409.235.884.352 1.426.352.352 0 .67-.049.954-.147.288-.103.536-.254.745-.455.208-.205.369-.458.483-.761l1.295.363a2.87 2.87 0 01-.688 1.16 3.344 3.344 0 01-1.193.772 4.42 4.42 0 01-1.596.273zm11.835-6.955l-1.205.341a2.207 2.207 0 00-.335-.585 1.628 1.628 0 00-.591-.477c-.25-.125-.57-.188-.96-.188-.534 0-.979.123-1.335.37-.352.242-.529.55-.529.926 0 .333.122.596.364.79.242.193.621.354 1.136.482l1.296.319c.78.189 1.362.479 1.744.869.383.386.574.884.574 1.494 0 .5-.144.947-.432 1.341-.284.394-.682.705-1.193.932-.511.227-1.106.34-1.784.34-.89 0-1.627-.192-2.21-.579-.584-.386-.953-.95-1.108-1.693l1.272-.318c.122.47.351.822.688 1.057.341.235.786.352 1.335.352.625 0 1.121-.133 1.489-.398.371-.269.557-.59.557-.966 0-.303-.106-.556-.319-.761-.212-.208-.537-.364-.977-.466l-1.454-.34c-.8-.19-1.387-.484-1.762-.882-.371-.401-.557-.903-.557-1.505 0-.493.139-.928.415-1.307a2.828 2.828 0 011.142-.892c.485-.216 1.034-.324 1.648-.324.864 0 1.542.19 2.034.568.496.38.849.88 1.057 1.5zm5.973-1.954v1.136h-4.523v-1.136h4.523zm-3.205-2.091h1.341V35.5c0 .379.055.663.165.852.114.186.258.31.432.375.178.06.365.091.562.091.148 0 .269-.007.364-.023l.227-.045.273 1.205a2.733 2.733 0 01-.381.102 2.8 2.8 0 01-.619.057 2.7 2.7 0 01-1.114-.245 2.212 2.212 0 01-.897-.744c-.235-.333-.353-.754-.353-1.261v-8.682zm7.79 11.023a3.548 3.548 0 01-1.506-.313 2.585 2.585 0 01-1.073-.915c-.266-.401-.398-.886-.398-1.454 0-.5.098-.906.295-1.216a2.09 2.09 0 01.79-.739c.33-.178.693-.31 1.091-.398.402-.09.805-.162 1.21-.215.531-.069.96-.12 1.29-.154.333-.038.576-.1.727-.187.156-.087.233-.239.233-.455v-.045c0-.561-.153-.997-.46-1.307-.303-.31-.763-.466-1.381-.466-.64 0-1.142.14-1.505.42-.364.28-.62.58-.767.898l-1.273-.454c.227-.53.53-.944.909-1.24a3.419 3.419 0 011.25-.624 5.19 5.19 0 011.341-.182c.28 0 .602.034.966.102.367.065.721.2 1.062.404.345.204.631.513.858.926.228.413.341.966.341 1.659V38h-1.341v-1.182h-.068c-.091.19-.242.392-.454.608-.213.216-.495.4-.847.551-.352.152-.782.228-1.29.228zm.205-1.205c.53 0 .977-.104 1.341-.313a2.124 2.124 0 001.113-1.846v-1.227c-.057.068-.182.13-.375.187a6.29 6.29 0 01-.659.142 30.27 30.27 0 01-1.284.17 5.19 5.19 0 00-.977.222 1.681 1.681 0 00-.727.45c-.182.196-.273.465-.273.806 0 .466.172.818.517 1.057.348.235.79.352 1.324.352zM22.19 85v-3.878l9.06-8.39a34.248 34.248 0 001.939-2.013c.53-.596.932-1.18 1.205-1.752.274-.58.41-1.206.41-1.877 0-.746-.17-1.388-.509-1.927a3.345 3.345 0 00-1.392-1.255c-.588-.298-1.255-.447-2.001-.447-.779 0-1.458.157-2.038.472a3.255 3.255 0 00-1.343 1.355c-.315.588-.472 1.288-.472 2.1H21.94c0-1.665.377-3.111 1.13-4.338.755-1.226 1.811-2.175 3.17-2.846 1.359-.671 2.925-1.007 4.698-1.007 1.823 0 3.41.324 4.76.97 1.36.638 2.416 1.524 3.17 2.66.754 1.135 1.13 2.436 1.13 3.902 0 .962-.19 1.91-.57 2.847-.374.936-1.04 1.976-2.002 3.12-.961 1.135-2.316 2.498-4.064 4.088l-3.716 3.642v.174h10.689V85H22.189zm36.482-14.828v4.201h-17.5v-4.2h17.5zm10.472 15.176c-1.856 0-3.51-.319-4.96-.957-1.441-.646-2.58-1.533-3.417-2.66-.829-1.135-1.256-2.444-1.28-3.927h5.419c.033.621.236 1.168.609 1.64.38.464.886.825 1.516 1.082.63.256 1.338.385 2.125.385.82 0 1.546-.145 2.175-.435.63-.29 1.123-.692 1.48-1.206.356-.513.534-1.106.534-1.777 0-.68-.19-1.28-.572-1.802-.373-.53-.911-.945-1.616-1.243-.696-.298-1.524-.448-2.486-.448h-2.373v-3.952h2.373c.813 0 1.53-.14 2.15-.423.63-.281 1.12-.67 1.467-1.168.348-.505.522-1.094.522-1.765 0-.638-.153-1.197-.46-1.678a3.037 3.037 0 00-1.267-1.143c-.539-.274-1.169-.41-1.89-.41-.729 0-1.396.132-2 .397a3.498 3.498 0 00-1.455 1.107c-.364.48-.559 1.043-.584 1.69h-5.158c.025-1.467.443-2.76 1.255-3.878.813-1.119 1.906-1.993 3.282-2.623 1.383-.638 2.945-.957 4.685-.957 1.757 0 3.294.32 4.612.957 1.317.638 2.34 1.5 3.07 2.586.737 1.077 1.101 2.287 1.093 3.629.008 1.425-.435 2.614-1.33 3.567-.886.953-2.042 1.558-3.467 1.815v.199c1.872.24 3.297.89 4.275 1.95.986 1.053 1.475 2.37 1.467 3.953.008 1.45-.41 2.739-1.255 3.866-.837 1.127-1.993 2.013-3.468 2.66-1.475.646-3.165.969-5.071.969zM88.957 85V65.91h5.046v3.367h.224c.397-1.118 1.06-2 1.988-2.647.928-.646 2.039-.97 3.331-.97 1.309 0 2.424.328 3.344.982.919.647 1.532 1.525 1.839 2.635h.199c.389-1.093 1.094-1.968 2.113-2.622 1.027-.663 2.241-.995 3.642-.995 1.781 0 3.227.568 4.337 1.703 1.119 1.127 1.678 2.726 1.678 4.798V85h-5.282V73.205c0-1.06-.282-1.856-.845-2.386-.564-.53-1.268-.796-2.113-.796-.961 0-1.711.307-2.25.92-.538.605-.808 1.404-.808 2.399V85h-5.133V73.093c0-.936-.27-1.682-.808-2.237-.53-.555-1.23-.833-2.1-.833-.589 0-1.119.15-1.591.448-.464.29-.833.7-1.106 1.23-.274.522-.41 1.135-.41 1.84V85h-5.295zm39.624.373c-1.964 0-3.654-.398-5.071-1.193-1.409-.804-2.494-1.94-3.257-3.406-.762-1.475-1.143-3.219-1.143-5.232 0-1.964.381-3.688 1.143-5.17.763-1.484 1.836-2.64 3.219-3.469 1.393-.828 3.025-1.243 4.898-1.243 1.259 0 2.431.204 3.517.61a7.803 7.803 0 012.859 1.802c.82.803 1.458 1.814 1.914 3.032.455 1.21.683 2.627.683 4.251v1.454h-16.12v-3.28h11.136c0-.763-.166-1.439-.497-2.027a3.555 3.555 0 00-1.38-1.38c-.58-.34-1.255-.51-2.025-.51-.804 0-1.517.187-2.138.56a3.923 3.923 0 00-1.442 1.48 4.174 4.174 0 00-.534 2.05v3.12c0 .944.174 1.76.522 2.448a3.819 3.819 0 001.503 1.591c.647.373 1.413.56 2.3.56.588 0 1.127-.083 1.616-.25a3.358 3.358 0 001.255-.745c.348-.331.613-.737.795-1.218l4.897.323a6.685 6.685 0 01-1.528 3.083c-.763.87-1.749 1.55-2.958 2.038-1.202.48-2.59.72-4.164.72zm27.102-14.02l-4.848.298a2.5 2.5 0 00-.534-1.118 2.836 2.836 0 00-1.081-.808c-.44-.207-.966-.31-1.579-.31-.82 0-1.512.173-2.075.521-.564.34-.846.795-.846 1.367 0 .456.183.841.547 1.156.365.315.99.568 1.877.758l3.455.696c1.856.382 3.24.995 4.152 1.84.911.845 1.367 1.955 1.367 3.33 0 1.252-.369 2.35-1.106 3.294-.73.945-1.732 1.683-3.008 2.213-1.268.522-2.73.783-4.388.783-2.527 0-4.54-.526-6.04-1.579-1.492-1.06-2.366-2.502-2.623-4.325l5.208-.273c.157.77.539 1.359 1.144 1.765.604.397 1.379.596 2.324.596.928 0 1.674-.178 2.237-.534.572-.365.862-.833.87-1.405-.008-.48-.211-.874-.609-1.18-.398-.315-1.011-.556-1.84-.721l-3.306-.66c-1.864-.372-3.252-1.018-4.163-1.938-.904-.92-1.355-2.092-1.355-3.517 0-1.227.331-2.283.994-3.17.671-.886 1.612-1.57 2.822-2.05 1.218-.481 2.643-.722 4.275-.722 2.411 0 4.309.51 5.693 1.53 1.392 1.019 2.204 2.406 2.436 4.163zm8.213 14.008c-1.218 0-2.304-.212-3.257-.634-.953-.431-1.707-1.065-2.262-1.902-.547-.845-.82-1.898-.82-3.157 0-1.06.195-1.951.584-2.672.39-.721.92-1.301 1.591-1.74a7.707 7.707 0 012.287-.995 17.44 17.44 0 012.709-.472 68.186 68.186 0 002.685-.323c.68-.108 1.173-.265 1.479-.472.307-.207.46-.514.46-.92v-.075c0-.787-.249-1.396-.746-1.827-.489-.43-1.185-.646-2.088-.646-.953 0-1.711.211-2.274.634-.564.414-.937.936-1.119 1.566l-4.897-.398c.249-1.16.738-2.163 1.467-3.008.729-.853 1.669-1.508 2.821-1.963 1.16-.465 2.502-.697 4.027-.697 1.061 0 2.076.125 3.045.373.978.249 1.844.634 2.598 1.156a5.619 5.619 0 011.802 2.014c.439.812.659 1.785.659 2.92V85h-5.022v-2.647h-.149a5.372 5.372 0 01-1.23 1.578 5.69 5.69 0 01-1.852 1.057c-.721.248-1.554.373-2.498.373zm1.516-3.655c.779 0 1.467-.153 2.063-.46a3.656 3.656 0 001.405-1.267c.339-.53.509-1.131.509-1.802V76.15a2.82 2.82 0 01-.683.298 12.53 12.53 0 01-.957.236c-.357.066-.713.129-1.069.186l-.97.137a6.55 6.55 0 00-1.628.435c-.464.2-.824.468-1.081.808-.257.331-.385.746-.385 1.243 0 .72.261 1.272.783 1.653.53.373 1.201.56 2.013.56zm20.968 3.667c-1.955 0-3.637-.414-5.046-1.243-1.4-.837-2.477-1.997-3.231-3.48-.746-1.483-1.119-3.19-1.119-5.12 0-1.956.377-3.672 1.131-5.147.762-1.483 1.844-2.639 3.244-3.467 1.4-.837 3.066-1.255 4.996-1.255 1.666 0 3.124.302 4.375.907 1.252.605 2.242 1.454 2.971 2.548.729 1.094 1.131 2.378 1.206 3.853h-4.997c-.141-.953-.514-1.72-1.119-2.3-.596-.588-1.379-.882-2.349-.882-.82 0-1.537.224-2.15.671-.605.44-1.077 1.081-1.417 1.927-.339.845-.509 1.868-.509 3.07 0 1.218.165 2.253.497 3.107.34.853.816 1.504 1.429 1.951.613.448 1.33.671 2.15.671.605 0 1.148-.124 1.629-.373a3.15 3.15 0 001.205-1.08c.323-.481.535-1.057.634-1.728h4.997c-.083 1.458-.481 2.742-1.194 3.853-.704 1.102-1.678 1.963-2.92 2.585-1.243.621-2.714.932-4.413.932zm-2.51-27.394l2.498 3.033 2.498-3.033h4.512v.174l-5.046 5.47h-3.94l-5.034-5.47v-.174h4.512zm18.721 15.984V85h-5.294V65.91h5.046v3.367h.223a5.326 5.326 0 012.126-2.635c.994-.654 2.2-.981 3.617-.981 1.325 0 2.481.29 3.467.87.986.58 1.753 1.408 2.3 2.485.547 1.07.82 2.345.82 3.828V85h-5.295V73.79c.009-1.17-.29-2.08-.895-2.735-.605-.663-1.437-.995-2.498-.995-.712 0-1.342.154-1.889.46a3.205 3.205 0 00-1.268 1.343c-.298.58-.451 1.28-.46 2.1zm24.178 11.41c-1.963 0-3.654-.398-5.071-1.193-1.408-.804-2.494-1.94-3.256-3.406-.762-1.475-1.144-3.219-1.144-5.232 0-1.964.382-3.688 1.144-5.17.762-1.484 1.835-2.64 3.219-3.469 1.392-.828 3.024-1.243 4.897-1.243 1.259 0 2.432.204 3.517.61a7.803 7.803 0 012.859 1.802c.82.803 1.458 1.814 1.914 3.032.456 1.21.684 2.627.684 4.251v1.454h-16.121v-3.28h11.137c0-.763-.166-1.439-.497-2.027a3.568 3.568 0 00-1.38-1.38c-.58-.34-1.255-.51-2.026-.51-.804 0-1.516.187-2.138.56a3.923 3.923 0 00-1.442 1.48 4.174 4.174 0 00-.534 2.05v3.12c0 .944.174 1.76.522 2.448a3.821 3.821 0 001.504 1.591c.646.373 1.413.56 2.299.56.589 0 1.127-.083 1.616-.25a3.35 3.35 0 001.255-.745 3.24 3.24 0 00.796-1.218l4.897.323a6.687 6.687 0 01-1.529 3.083c-.762.87-1.748 1.55-2.958 2.038-1.201.48-2.589.72-4.164.72z" fill="#242A36"/><path d="M49.145 124.682v-13.5h1.867v1.591h.16c.11-.204.27-.441.479-.709.209-.269.498-.503.87-.703.37-.205.86-.307 1.47-.307.792 0 1.5.2 2.121.601.623.4 1.11.978 1.464 1.732.358.754.537 1.662.537 2.723s-.177 1.971-.53 2.73c-.354.754-.84 1.335-1.458 1.745-.618.404-1.323.607-2.115.607-.597 0-1.085-.1-1.464-.301-.375-.2-.67-.434-.882-.703a5.291 5.291 0 01-.493-.716h-.115v5.21h-1.91zm1.873-8.591c0 .69.1 1.295.3 1.815.2.52.49.927.87 1.221.379.29.843.435 1.393.435.571 0 1.048-.151 1.432-.454.384-.307.673-.722.87-1.246.2-.525.3-1.115.3-1.771 0-.648-.098-1.229-.294-1.745-.192-.516-.482-.923-.87-1.221-.383-.298-.862-.447-1.438-.447-.554 0-1.023.142-1.406.428-.38.285-.667.684-.863 1.195-.196.512-.294 1.108-.294 1.79zM59.254 121v-9.818h1.848v1.559h.102a2.38 2.38 0 01.946-1.246c.456-.307.972-.46 1.547-.46a7.689 7.689 0 01.812.045v1.828a3.336 3.336 0 00-.41-.071 4.013 4.013 0 00-.587-.044c-.452 0-.855.096-1.209.287-.349.188-.626.45-.83.786a2.129 2.129 0 00-.307 1.138V121h-1.911zm9.789.198c-.968 0-1.8-.207-2.5-.62a4.198 4.198 0 01-1.61-1.758c-.375-.758-.563-1.647-.563-2.665 0-1.006.188-1.892.563-2.659.379-.767.907-1.366 1.585-1.796.682-.431 1.478-.646 2.39-.646.555 0 1.091.092 1.611.275.52.183.987.471 1.4.863.413.392.74.901.978 1.527.239.623.358 1.379.358 2.27v.677H65.45v-1.432h5.932c0-.502-.102-.948-.307-1.336a2.313 2.313 0 00-.862-.926c-.367-.226-.797-.339-1.292-.339-.537 0-1.005.132-1.406.396a2.66 2.66 0 00-.92 1.023 2.95 2.95 0 00-.32 1.361v1.119c0 .656.115 1.214.345 1.675.234.46.56.811.978 1.054.418.239.906.358 1.464.358.362 0 .692-.051.99-.153.299-.107.557-.264.774-.473.217-.209.384-.467.499-.774l1.809.326c-.145.533-.405 1-.78 1.4-.37.397-.838.706-1.4.927-.558.218-1.195.326-1.911.326zm9.096-.198v-9.818h1.835v1.598h.121a2.54 2.54 0 011.004-1.266c.464-.307 1.02-.46 1.668-.46.656 0 1.206.153 1.65.46a2.7 2.7 0 01.99 1.266h.102a2.764 2.764 0 011.119-1.253c.511-.315 1.12-.473 1.828-.473.89 0 1.617.279 2.18.837.567.559.85 1.4.85 2.525V121h-1.911v-6.405c0-.665-.181-1.146-.544-1.444-.362-.299-.794-.448-1.297-.448-.622 0-1.106.192-1.451.575-.345.38-.518.868-.518 1.464V121H83.86v-6.526c0-.533-.166-.961-.498-1.285-.333-.324-.765-.486-1.298-.486-.362 0-.697.096-1.003.288a2.104 2.104 0 00-.736.786 2.41 2.41 0 00-.275 1.17V121h-1.91zm17.766.217a4.01 4.01 0 01-1.688-.345 2.84 2.84 0 01-1.195-1.016c-.29-.443-.435-.987-.435-1.63 0-.554.107-1.01.32-1.368.213-.358.5-.641.863-.85a4.483 4.483 0 011.214-.473c.448-.107.904-.188 1.368-.243l1.432-.166c.366-.047.633-.122.799-.224.166-.102.25-.268.25-.499v-.044c0-.559-.158-.991-.474-1.298-.31-.307-.775-.46-1.393-.46-.644 0-1.15.143-1.521.428-.367.281-.62.595-.761.94l-1.796-.409c.213-.597.524-1.078.933-1.445a3.778 3.778 0 011.425-.805 5.548 5.548 0 011.694-.256c.392 0 .808.047 1.247.141a3.64 3.64 0 011.24.498c.388.243.705.59.952 1.042.247.448.371 1.029.371 1.745V121h-1.867v-1.342h-.076c-.124.247-.31.49-.556.728a2.954 2.954 0 01-.953.595c-.388.158-.852.236-1.393.236zm.415-1.534c.529 0 .98-.104 1.355-.313.38-.209.667-.481.863-.818.2-.341.3-.705.3-1.093v-1.266c-.067.068-.2.132-.396.192a6.362 6.362 0 01-.658.147 86.32 86.32 0 01-.722.109c-.235.029-.43.055-.588.076-.371.047-.71.126-1.017.237-.302.111-.545.27-.728.479-.18.205-.269.478-.269.818 0 .473.175.831.524 1.074.35.239.795.358 1.336.358zm7.887-11.774V121h-1.911v-13.091h1.911zm2.779 16.773c-.285 0-.545-.024-.78-.07a2.486 2.486 0 01-.524-.141l.46-1.566c.35.094.661.134.934.121.272-.012.513-.115.722-.307.213-.191.4-.504.562-.939l.237-.652-3.592-9.946h2.045l2.486 7.619h.103l2.486-7.619h2.052l-4.046 11.128a4.445 4.445 0 01-.716 1.298c-.29.358-.635.626-1.035.805-.401.179-.866.269-1.394.269zm1.809-14.811l1.496-2.946h2.013l-1.981 2.946h-1.528zm9.98 11.327c-.95 0-1.769-.215-2.455-.645a4.278 4.278 0 01-1.572-1.797c-.367-.762-.55-1.636-.55-2.62 0-.997.188-1.877.563-2.64.375-.767.903-1.366 1.585-1.796.682-.431 1.485-.646 2.41-.646.746 0 1.41.138 1.994.415a3.583 3.583 0 011.413 1.151c.362.494.577 1.072.645 1.732h-1.86a2.227 2.227 0 00-.703-1.189c-.362-.332-.848-.498-1.457-.498-.533 0-1 .14-1.4.422-.396.277-.705.673-.927 1.189-.222.511-.332 1.116-.332 1.815 0 .716.108 1.334.326 1.854.217.52.524.922.92 1.208.401.285.872.428 1.413.428.362 0 .69-.066.984-.198.298-.137.548-.33.748-.582a2.18 2.18 0 00.428-.908h1.86a3.618 3.618 0 01-.62 1.701c-.345.498-.807.89-1.387 1.176-.575.285-1.25.428-2.026.428zm6.988-6.028V121h-1.911v-13.091h1.886v4.871h.121c.23-.529.582-.948 1.055-1.259.473-.311 1.091-.467 1.854-.467.673 0 1.261.138 1.764.415.507.277.899.691 1.176 1.241.281.545.422 1.227.422 2.045V121h-1.911v-6.015c0-.72-.186-1.278-.556-1.675-.371-.4-.887-.6-1.547-.6a2.53 2.53 0 00-1.215.287 2.075 2.075 0 00-.837.844c-.2.366-.301.81-.301 1.329zm20.08-3.988l-3.56 9.818h-2.046l-3.566-9.818h2.051l2.487 7.555h.102l2.48-7.555h2.052zm2.004 13.5c-.285 0-.545-.024-.779-.07a2.48 2.48 0 01-.525-.141l.461-1.566c.349.094.66.134.933.121.273-.012.513-.115.722-.307.213-.191.401-.504.563-.939l.236-.652-3.592-9.946h2.045l2.487 7.619h.102l2.487-7.619h2.051l-4.046 11.128a4.422 4.422 0 01-.716 1.298 2.775 2.775 0 01-1.035.805c-.401.179-.865.269-1.394.269zm1.809-14.811l1.496-2.946h2.014l-1.982 2.946h-1.528zM155.835 121v-9.818h1.847v1.559h.102a2.38 2.38 0 01.946-1.246c.456-.307.972-.46 1.547-.46a7.7 7.7 0 01.812.045v1.828a3.344 3.344 0 00-.409-.071 4.013 4.013 0 00-.588-.044c-.452 0-.855.096-1.208.287a2.137 2.137 0 00-1.138 1.924V121h-1.911zm9.692.198c-.921 0-1.724-.211-2.41-.633a4.268 4.268 0 01-1.598-1.77c-.379-.759-.569-1.645-.569-2.659 0-1.019.19-1.909.569-2.672a4.257 4.257 0 011.598-1.777c.686-.422 1.489-.633 2.41-.633.92 0 1.724.211 2.41.633.686.422 1.218 1.014 1.598 1.777.379.763.569 1.653.569 2.672 0 1.014-.19 1.9-.569 2.659a4.275 4.275 0 01-1.598 1.77c-.686.422-1.49.633-2.41.633zm.006-1.604c.597 0 1.091-.158 1.483-.473a2.78 2.78 0 00.87-1.259 5.033 5.033 0 00.287-1.733c0-.626-.096-1.201-.287-1.726-.188-.528-.478-.952-.87-1.272-.392-.319-.886-.479-1.483-.479-.601 0-1.099.16-1.495.479-.392.32-.684.744-.876 1.272a5.085 5.085 0 00-.281 1.726c0 .631.093 1.208.281 1.733.192.524.484.943.876 1.259.396.315.894.473 1.495.473zM171.39 121v-13.091h1.912v4.864h.115c.11-.204.27-.441.479-.709.209-.269.499-.503.869-.703.371-.205.861-.307 1.471-.307.792 0 1.5.2 2.122.601.622.4 1.11.978 1.463 1.732.358.754.537 1.662.537 2.723s-.176 1.971-.53 2.73c-.354.754-.84 1.335-1.458 1.745-.617.404-1.323.607-2.115.607-.597 0-1.085-.1-1.464-.301-.375-.2-.669-.434-.882-.703a5.279 5.279 0 01-.492-.716h-.16V121h-1.867zm1.873-4.909c0 .69.1 1.295.301 1.815.2.52.49.927.869 1.221.379.29.844.435 1.393.435.571 0 1.049-.151 1.432-.454.384-.307.674-.722.87-1.246.2-.525.3-1.115.3-1.771 0-.648-.098-1.229-.294-1.745-.192-.516-.482-.923-.869-1.221-.384-.298-.863-.447-1.439-.447-.554 0-1.022.142-1.406.428-.379.285-.667.684-.863 1.195-.196.512-.294 1.108-.294 1.79zm12.377 5.107c-.95 0-1.768-.215-2.454-.645a4.28 4.28 0 01-1.573-1.797c-.366-.762-.55-1.636-.55-2.62 0-.997.188-1.877.563-2.64.375-.767.903-1.366 1.585-1.796.682-.431 1.485-.646 2.41-.646.746 0 1.411.138 1.994.415a3.583 3.583 0 011.413 1.151c.362.494.577 1.072.646 1.732h-1.861a2.227 2.227 0 00-.703-1.189c-.362-.332-.848-.498-1.457-.498-.533 0-.999.14-1.4.422-.396.277-.705.673-.927 1.189-.221.511-.332 1.116-.332 1.815 0 .716.109 1.334.326 1.854.217.52.524.922.92 1.208.401.285.872.428 1.413.428.362 0 .69-.066.984-.198.299-.137.548-.33.748-.582.205-.251.348-.554.428-.908h1.861a3.629 3.629 0 01-.62 1.701c-.346.498-.808.89-1.388 1.176-.575.285-1.25.428-2.026.428zm9.213 0c-.92 0-1.724-.211-2.41-.633a4.275 4.275 0 01-1.598-1.77c-.379-.759-.569-1.645-.569-2.659 0-1.019.19-1.909.569-2.672.38-.763.912-1.355 1.598-1.777.686-.422 1.49-.633 2.41-.633.921 0 1.724.211 2.41.633a4.257 4.257 0 011.598 1.777c.379.763.569 1.653.569 2.672 0 1.014-.19 1.9-.569 2.659a4.268 4.268 0 01-1.598 1.77c-.686.422-1.489.633-2.41.633zm.006-1.604c.597 0 1.091-.158 1.483-.473a2.78 2.78 0 00.87-1.259 5.01 5.01 0 00.287-1.733 4.99 4.99 0 00-.287-1.726c-.188-.528-.478-.952-.87-1.272-.392-.319-.886-.479-1.483-.479-.6 0-1.099.16-1.495.479-.392.32-.684.744-.876 1.272a5.11 5.11 0 00-.281 1.726c0 .631.094 1.208.281 1.733.192.524.484.943.876 1.259.396.315.895.473 1.495.473zm13.769-8.412l-3.56 9.818h-2.046l-3.566-9.818h2.052l2.486 7.555h.102l2.48-7.555h2.052z" fill="#4FBE79"/></svg>