<svg width="24" height="24" fill="none" xmlns="http://www.w3.org/2000/svg"><path d="M3.5 20.344h2.985V17.5m11.03-11V3.656L20.5 3.5M15 2.458a10 10 0 00-10.07 2.47c-3.906 3.906-3.906 10.238 0 14.143.339.34.695.65 1.068.929M9 21.541a10.001 10.001 0 0010.071-2.47c3.906-3.905 3.906-10.237 0-14.142A9.83 9.83 0 0018.002 4" stroke="#242A36" stroke-width="1.5" stroke-linecap="round" stroke-linejoin="round"/><path d="M12 11.5a2.5 2.5 0 100-5 2.5 2.5 0 000 5zm0 0a4 4 0 00-4 4m4-4a4 4 0 014 4" stroke="#242A36" stroke-width="1.5" stroke-linecap="round" stroke-linejoin="round"/></svg>