<svg width="24" height="24" fill="none" xmlns="http://www.w3.org/2000/svg"><path d="M10.461 6.501V8.48M7 10.001h2.037m5.926 0H17m-2.037 2.974H17m-10 0h2.037m1.424 1.545v1.98m3.003-1.98v1.98m-.01-9.999V8.48m-3.425 5.989h3.942a.994.994 0 00.992-1V9.48c0-.552-.444-1-.992-1h-3.942a.996.996 0 00-.992 1v3.989c0 .552.444 1 .992 1z" stroke="#242A36" stroke-width="1.5" stroke-linecap="round"/><path d="M21 11.183V8.28c0-1.64 0-2.46-.404-2.995-.404-.535-1.318-.794-3.145-1.314a25 25 0 01-3.229-1.173C13.023 2.266 12.424 2 12 2c-.424 0-1.023.266-2.222.798-.88.39-1.98.818-3.229 1.173-1.827.52-2.74.78-3.145 1.314C3 5.82 3 6.64 3 8.28v2.903c0 5.625 5.063 9 7.594 10.336.607.32.91.481 1.406.481.496 0 .799-.16 1.406-.48C15.937 20.182 21 16.808 21 11.183z" stroke="#242A36" stroke-width="1.5" stroke-linecap="round"/></svg>