<svg width="24" height="24" fill="none" xmlns="http://www.w3.org/2000/svg"><path d="M17 18v-2m-5 2v-3m-5 3v-5" stroke="#242A36" stroke-width="1.5" stroke-linecap="round"/><path d="M6 7c3.197 3.268 7.234 4.081 11.141 2.992m-1.453-1.52l2.074 1.016c.246.121.312.4.148.624L16.527 12" stroke="#242A36" stroke-width="1.5" stroke-linecap="round" stroke-linejoin="round"/><path d="M2.5 12c0-4.478 0-6.718 1.391-8.109S7.521 2.5 12 2.5c4.478 0 6.718 0 8.109 1.391S21.5 7.521 21.5 12c0 4.478 0 6.718-1.391 8.109S16.479 21.5 12 21.5c-4.478 0-6.718 0-8.109-1.391S2.5 16.479 2.5 12z" stroke="#242A36" stroke-width="1.5" stroke-linejoin="round"/></svg>