<svg width="24" height="24" fill="none" xmlns="http://www.w3.org/2000/svg"><path d="M2 10.5c0-.77.013-1.523.04-2.25.083-2.373.125-3.56 1.09-4.533.965-.972 2.186-1.024 4.626-1.129A99.998 99.998 0 0112 2.5c1.48 0 2.905.03 4.244.088 2.44.105 3.66.157 4.626 1.13.965.972 1.007 2.159 1.09 4.532.053 1.5.053 3 0 4.5-.083 2.373-.125 3.56-1.09 4.533-.965.972-2.186 1.024-4.626 1.129-.735.031-1.493.055-2.275.07-.74.014-1.111.02-1.437.145-.326.125-.6.358-1.148.828l-2.179 1.87A.73.73 0 018 20.77v-2.348l-.244-.01c-2.44-.105-3.66-.157-4.626-1.13-.965-.972-1.007-2.159-1.09-4.532C2.013 12 2 11.25 2 10.5z" stroke="#242A36" stroke-width="1.5" stroke-linecap="round" stroke-linejoin="round"/><path d="M14.609 7.098C13.873 6.722 12.973 6.5 12 6.5c-.973 0-1.873.222-2.609.598-.36.185-.541.277-.716.568-.175.291-.175.571-.175 1.133v1.396c0 2.273 1.767 3.537 2.79 4.079.285.15.428.226.71.226.283 0 .425-.075.71-.226 1.023-.542 2.79-1.806 2.79-4.08V8.8c0-.562 0-.843-.175-1.133-.175-.29-.355-.384-.716-.569z" stroke="#242A36" stroke-width="1.5" stroke-linecap="round" stroke-linejoin="round"/></svg>