<svg width="24" height="24" fill="none" xmlns="http://www.w3.org/2000/svg"><path d="M2 14c0-3.507 0-5.26.908-6.44a4.15 4.15 0 01.554-.592C4.57 6 6.212 6 9.5 6h5c3.288 0 4.931 0 6.038.968.203.179.387.376.554.592C22 8.74 22 10.493 22 14c0 3.507 0 5.26-.908 6.44a4 4 0 01-.554.591C19.43 22 17.788 22 14.5 22h-5c-3.287 0-4.931 0-6.038-.968a4.002 4.002 0 01-.554-.592C2 19.26 2 17.507 2 14z" stroke="#242A36" stroke-width="1.5"/><path d="M16 6c0-1.886 0-2.828-.586-3.414C14.828 2 13.886 2 12 2c-1.886 0-2.828 0-3.414.586C8 3.172 8 4.114 8 6" stroke="#242A36" stroke-width="1.5" stroke-linecap="round" stroke-linejoin="round"/><path d="M12 11c-1.105 0-2 .672-2 1.5s.895 1.5 2 1.5 2 .672 2 1.5-.895 1.5-2 1.5m0-6c.87 0 1.612.417 1.886 1M12 11v-1m0 7c-.87 0-1.612-.417-1.886-1M12 17v1m-6-6H2m20 0h-4" stroke="#242A36" stroke-width="1.5" stroke-linecap="round"/></svg>