<svg width="24" height="24" fill="none" xmlns="http://www.w3.org/2000/svg"><path d="M3.5 11a1.5 1.5 0 010-3h.752a8.003 8.003 0 0115.496 0H20a1.5 1.5 0 010 3h-.062a8 8 0 01-15.876 0H3.5z" stroke="#242A36" stroke-width="1.5" stroke-linejoin="round"/><path d="M4.5 8H6a6 6 0 006-6 6 6 0 006 6h1.5" stroke="#242A36" stroke-width="1.5" stroke-linecap="round" stroke-linejoin="round"/><path d="M12 15a1 1 0 001-1h-2a1 1 0 001 1z" stroke="#242A36" stroke-width="1.5" stroke-linejoin="round"/><path d="M18 22c0-1.792-.786-3.4-2.031-4.5M6 22c0-1.792.786-3.4 2.031-4.5" stroke="#242A36" stroke-width="1.5" stroke-linecap="round"/><path d="M9 10v.01m6-.01v.01" stroke="#242A36" stroke-width="2" stroke-linecap="round"/></svg>