<svg width="24" height="24" fill="none" xmlns="http://www.w3.org/2000/svg"><path d="M12.5 22h-1.773c-3.26 0-4.892 0-6.024-.798a4.099 4.099 0 01-.855-.805C3 19.331 3 17.797 3 14.727v-2.545c0-2.963 0-4.445.469-5.628.754-1.903 2.348-3.403 4.37-4.113C9.095 2 10.668 2 13.818 2c1.798 0 2.698 0 3.416.252 1.155.406 2.066 1.263 2.497 2.35C20 5.278 20 6.125 20 7.818V10.5" stroke="#242A36" stroke-width="1.5" stroke-linecap="round" stroke-linejoin="round"/><path d="M3 12a3.333 3.333 0 013.333-3.333c.666 0 1.451.116 2.098-.057A1.67 1.67 0 009.61 7.43c.173-.647.057-1.432.057-2.098A3.333 3.333 0 0113 2" stroke="#242A36" stroke-width="1.5" stroke-linecap="round" stroke-linejoin="round"/><path d="M21 20.492c-.478.904-1.349 1.508-2.343 1.508-1.51 0-2.734-1.393-2.734-3.111V17.11c0-1.718 1.224-3.111 2.734-3.111.994 0 1.865.604 2.343 1.508M15 18h3.923" stroke="#242A36" stroke-width="1.5" stroke-linecap="round"/></svg>