<svg width="24" height="24" fill="none" xmlns="http://www.w3.org/2000/svg"><path d="M7.5 4.5a3 3 0 00-2.567 4.554 3.001 3.001 0 000 5.893M7.5 4.5a2.5 2.5 0 015 0V6m-5-1.5c0 .818.393 1.544 1 2m-3.567 8.447A3 3 0 007.5 19.5a2.5 2.5 0 005 0V18m-7.567-3.053A3.002 3.002 0 016.5 13.67M15 15v2m3-2v2M15 7v2m3-2v2m-4.5 1.5h-2m2 3h-2m10-3h-2m2 3h-2m-2-4.5h-2c-.943 0-1.414 0-1.707.293-.293.293-.293.764-.293 1.707v2c0 .943 0 1.414.293 1.707.293.293.764.293 1.707.293h2c.943 0 1.414 0 1.707-.293.293-.293.293-.764.293-1.707v-2c0-.943 0-1.414-.293-1.707C18.914 9 18.443 9 17.5 9z" stroke="#242A36" stroke-width="1.5" stroke-linecap="round" stroke-linejoin="round"/></svg>