<svg width="24" height="24" fill="none" xmlns="http://www.w3.org/2000/svg"><path d="M7 8l2.942 1.74c1.715 1.014 2.4 1.014 4.116 0L17 8" stroke="#242A36" stroke-width="1.5" stroke-linecap="round" stroke-linejoin="round"/><path d="M21.984 12.976c.02-.986.02-1.966 0-2.952-.065-3.065-.098-4.598-1.23-5.733-1.13-1.136-2.704-1.175-5.853-1.254a115.011 115.011 0 00-5.802 0c-3.15.08-4.723.118-5.854 1.254-1.131 1.135-1.164 2.668-1.23 5.733a69.005 69.005 0 000 2.952c.066 3.065.099 4.598 1.23 5.733 1.13 1.136 2.705 1.175 5.854 1.254 1.305.033 2.6.044 3.9.033" stroke="#242A36" stroke-width="1.5" stroke-linecap="round" stroke-linejoin="round"/><path d="M18.5 14l.258.697c.338.914.507 1.371.84 1.704.334.334.791.503 1.705.841L22 17.5l-.697.258c-.914.338-1.371.507-1.704.84-.334.334-.503.791-.841 1.705L18.5 21l-.258-.697c-.338-.914-.507-1.371-.84-1.704-.334-.334-.791-.503-1.705-.841L15 17.5l.697-.258c.914-.338 1.371-.507 1.704-.84.334-.334.503-.791.841-1.705L18.5 14z" stroke="#242A36" stroke-width="1.5" stroke-linejoin="round"/></svg>