<svg width="24" height="24" fill="none" xmlns="http://www.w3.org/2000/svg"><path d="M13 3.002L11.5 3C7.022 3 4.782 3 3.391 4.391S2 8.021 2 12.5c0 4.478 0 6.718 1.391 8.109S7.021 22 11.5 22c4.478 0 6.718 0 8.109-1.391S21 16.979 21 12.5c0-.53 0-1.03-.002-1.5" stroke="#242A36" stroke-width="1.5" stroke-linecap="round"/><path d="M18.5 2l.258.697c.338.914.507 1.371.84 1.704.334.334.791.503 1.705.841L22 5.5l-.697.258c-.914.338-1.371.507-1.704.84-.334.334-.503.791-.841 1.705L18.5 9l-.258-.697c-.338-.914-.507-1.371-.84-1.704-.334-.334-.791-.503-1.705-.841L15 5.5l.697-.258c.914-.338 1.371-.507 1.704-.84.334-.334.503-.791.841-1.705L18.5 2z" stroke="#242A36" stroke-width="1.5" stroke-linejoin="round"/><path d="M7 17.5c2.332-2.442 6.643-2.557 9 0M13.995 10a2.502 2.502 0 01-3.46 2.31A2.502 2.502 0 018.987 10a2.502 2.502 0 013.462-2.31A2.5 2.5 0 0113.995 10z" stroke="#242A36" stroke-width="1.5" stroke-linecap="round"/></svg>