<svg width="30" height="36" fill="none" xmlns="http://www.w3.org/2000/svg"><path d="M30.004 14.21l-3.014-.64 1.947-9.158-11.556 6.205 1.737-8.17-1.507-.32-1.718 8.082L8.614 0 6.65 9.246l-3.767-.8L0 22.006l3.767.8-1.806 8.495 10.804-6.372-1.72 8.087 1.508.32 1.676-7.886 7.327 9.982 1.799-8.462 3.767.801 2.882-13.56zM26.74 7.34l-1.256 5.91-6.984-1.485 8.24-4.425zM9.393 3.745l5.113 7.171-6.35-1.35 1.237-5.82zM1.827 20.82l2.242-10.547 10.235 2.175-9.67 6.28-.547 2.572-2.26-.48zm2.37 7.374l1.076-5.067.735-3.454 9.135-5.933-1.944 9.144-9.003 5.31zm16.567 3.555l-6.106-8.319 1.992-9.37 5.932 9.135-1.818 8.554zm5.171-5.805l-2.26-.48.547-2.573-6.28-9.67 10.235 2.176-2.242 10.547z" fill="#fff"/></svg>