<svg width="24" height="24" fill="none" xmlns="http://www.w3.org/2000/svg"><path d="M5.506 16.992l2.525-6.963c.46-.967 1.162-1.766 1.967.151.743 1.77 1.85 5.01 2.505 6.815m-5.85-2.993h4.669" stroke="#242A36" stroke-width="1.5" stroke-linecap="round" stroke-linejoin="round"/><path d="M3.464 5.318C2 6.636 2 8.758 2 13c0 4.242 0 6.364 1.464 7.682C4.93 22 7.286 22 12 22c4.714 0 7.071 0 8.535-1.318C21.999 19.364 22 17.242 22 13c0-4.242 0-6.364-1.465-7.682C19.072 4 16.714 4 12 4S4.929 4 3.464 5.318z" stroke="#242A36" stroke-width="1.5" stroke-linecap="round" stroke-linejoin="round"/><path d="M18.484 9.987v2.995m0 0v3.943m0-3.943h-2.018c-.24 0-.478.044-.702.131-1.693.657-1.693 3.1 0 3.757.225.086.462.131.702.131h2.018" stroke="#242A36" stroke-width="1.5" stroke-linecap="round" stroke-linejoin="round"/></svg>