<svg width="24" height="24" fill="none" xmlns="http://www.w3.org/2000/svg"><path d="M16.308 4.384c-.59 0-.886 0-1.155-.1l-.11-.046c-.262-.12-.47-.328-.889-.746-.962-.962-1.443-1.443-2.034-1.488a2.002 2.002 0 00-.24 0c-.59.045-1.072.526-2.034 1.488-.418.418-.627.627-.888.746l-.11.046c-.27.1-.565.1-1.156.1h-.11c-1.507 0-2.26 0-2.73.468-.469.468-.468 1.223-.468 2.73v.11c0 .59 0 .886-.1 1.155l-.046.111c-.12.261-.328.47-.746.888-.962.962-1.443 1.443-1.488 2.034-.005.08-.005.16 0 .24.045.591.526 1.072 1.488 2.034.418.418.627.627.746.888.017.036.032.073.046.11.1.27.1.565.1 1.156v.11c0 1.507 0 2.261.468 2.73.468.47 1.223.468 2.73.468h.11c.59 0 .886 0 1.155.1.038.014.075.03.111.046.261.12.47.328.888.746.962.962 1.443 1.443 2.034 1.488.08.006.16.006.24 0 .591-.045 1.072-.526 2.034-1.488.418-.418.627-.626.888-.746.036-.017.073-.032.11-.046.27-.1.565-.1 1.156-.1h.11c1.507 0 2.261 0 2.73-.468.47-.468.468-1.223.468-2.73v-.11c0-.59 0-.886.1-1.155.014-.038.03-.075.046-.11.12-.262.328-.47.746-.889.962-.962 1.443-1.443 1.488-2.034.006-.08.006-.16 0-.24-.045-.59-.526-1.072-1.488-2.034-.418-.418-.626-.627-.746-.888l-.046-.11c-.1-.27-.1-.565-.1-1.156v-.11c0-1.507 0-2.26-.468-2.73-.468-.469-1.223-.468-2.73-.468h-.11z" stroke="#242A36" stroke-width="1.5"/><path d="M8.5 16.5a4.04 4.04 0 017 0M14 10a2 2 0 11-4 0 2 2 0 014 0z" stroke="#242A36" stroke-width="1.5" stroke-linecap="round"/></svg>