<svg width="218" height="149" fill="none" xmlns="http://www.w3.org/2000/svg"><path d="M10 .5h198a9.5 9.5 0 019.5 9.5v129a9.5 9.5 0 01-9.5 9.5H10A9.5 9.5 0 01.5 139V10A9.5 9.5 0 0110 .5z" fill="#fff"/><path d="M10 .5h198a9.5 9.5 0 019.5 9.5v129a9.5 9.5 0 01-9.5 9.5H10A9.5 9.5 0 01.5 139V10A9.5 9.5 0 0110 .5z" stroke="#E4E4E4"/><path d="M21.41 38V26.364h3.93c.91 0 1.656.155 2.24.465.583.307 1.015.73 1.295 1.268.28.537.42 1.15.42 1.835s-.14 1.293-.42 1.824c-.28.53-.71.947-1.29 1.25-.58.299-1.32.449-2.221.449h-3.182v-1.273h3.136c.621 0 1.121-.091 1.5-.273.383-.182.66-.44.83-.773.174-.337.261-.738.261-1.204 0-.466-.087-.873-.261-1.222a1.782 1.782 0 00-.835-.807c-.383-.193-.889-.29-1.517-.29h-2.478V38H21.41zm5.476-5.227L29.75 38h-1.636l-2.819-5.227h1.591zm7.144 5.431a3.545 3.545 0 01-1.506-.312 2.583 2.583 0 01-1.074-.915c-.265-.401-.397-.886-.397-1.454 0-.5.098-.906.295-1.216.197-.315.46-.56.79-.739a4.15 4.15 0 011.09-.398c.402-.09.806-.162 1.21-.215.531-.069.961-.12 1.29-.154.334-.038.576-.1.728-.187.155-.087.233-.239.233-.455v-.045c0-.561-.154-.997-.46-1.307-.303-.31-.764-.466-1.381-.466-.64 0-1.142.14-1.506.42-.363.28-.619.58-.767.898l-1.272-.454c.227-.53.53-.944.909-1.24a3.411 3.411 0 011.25-.624 5.19 5.19 0 011.34-.182c.28 0 .603.034.967.102a3.09 3.09 0 011.062.404c.345.204.63.513.858.926.227.413.34.966.34 1.659V38h-1.34v-1.182h-.068a2.36 2.36 0 01-.455.608c-.212.216-.494.4-.846.551-.353.152-.783.228-1.29.228zM34.234 37c.53 0 .978-.104 1.341-.313a2.127 2.127 0 001.114-1.846v-1.227c-.057.068-.182.13-.375.187-.19.053-.41.1-.66.142a29.81 29.81 0 01-1.283.17c-.349.046-.675.12-.977.222a1.68 1.68 0 00-.728.45c-.182.196-.272.465-.272.806 0 .466.172.818.517 1.057.348.235.79.352 1.323.352zm12.425-5.773l-1.204.341a2.236 2.236 0 00-.336-.585 1.626 1.626 0 00-.59-.477c-.25-.125-.57-.188-.96-.188-.535 0-.98.123-1.336.37-.352.242-.528.55-.528.926 0 .333.12.596.363.79.243.193.621.354 1.137.482l1.295.319c.78.189 1.362.479 1.744.869.383.386.574.884.574 1.494 0 .5-.144.947-.432 1.341-.284.394-.681.705-1.193.932-.511.227-1.106.34-1.784.34-.89 0-1.627-.192-2.21-.579-.584-.386-.953-.95-1.108-1.693l1.273-.318c.12.47.35.822.687 1.057.341.235.786.352 1.335.352.625 0 1.122-.133 1.489-.398.371-.269.557-.59.557-.966 0-.303-.106-.556-.318-.761-.212-.208-.538-.364-.978-.466l-1.454-.34c-.8-.19-1.387-.484-1.762-.882-.37-.401-.556-.903-.556-1.505 0-.493.138-.928.414-1.307a2.82 2.82 0 011.142-.892c.485-.216 1.035-.324 1.648-.324.864 0 1.542.19 2.034.568.497.38.849.88 1.057 1.5zm5.973-1.954v1.136H48.11v-1.136h4.523zm-3.204-2.091h1.34V35.5c0 .379.055.663.165.852.114.186.258.31.432.375.178.06.366.091.563.091.147 0 .269-.007.363-.023l.228-.045.272 1.205a2.72 2.72 0 01-.38.102c-.163.038-.37.057-.62.057-.379 0-.75-.082-1.113-.245a2.213 2.213 0 01-.898-.744c-.235-.333-.352-.754-.352-1.261v-8.682zm13.267 11c-.788 0-1.48-.188-2.074-.563-.591-.375-1.053-.9-1.387-1.574-.33-.674-.494-1.462-.494-2.363 0-.91.165-1.703.494-2.38.334-.679.796-1.205 1.387-1.58.594-.375 1.286-.563 2.074-.563.788 0 1.477.188 2.068.563.594.375 1.057.901 1.386 1.58.334.677.5 1.47.5 2.38 0 .901-.166 1.69-.5 2.363a3.77 3.77 0 01-1.386 1.574c-.591.375-1.28.563-2.068.563zm0-1.205c.598 0 1.09-.153 1.477-.46a2.72 2.72 0 00.858-1.21c.185-.5.278-1.042.278-1.625 0-.584-.093-1.127-.278-1.63a2.75 2.75 0 00-.858-1.223c-.386-.31-.879-.465-1.477-.465-.599 0-1.091.155-1.478.465a2.75 2.75 0 00-.858 1.222 4.681 4.681 0 00-.278 1.63c0 .584.093 1.126.278 1.626.186.5.472.903.858 1.21.387.307.88.46 1.478.46zm7.342-4.227V38h-1.341v-8.727h1.296v1.363h.113c.205-.443.515-.799.932-1.068.417-.273.954-.409 1.614-.409.59 0 1.108.121 1.55.364.444.238.789.602 1.035 1.09.246.486.37 1.1.37 1.842V38h-1.342v-5.455c0-.685-.178-1.22-.534-1.602-.356-.386-.845-.58-1.466-.58-.428 0-.81.093-1.147.279a1.993 1.993 0 00-.79.813c-.194.356-.29.787-.29 1.295zm9.36-6.386V38h-1.342V26.364h1.341zM81.851 38v-8.727h1.341V38h-1.34zm.682-10.182a.953.953 0 01-.676-.267.858.858 0 01-.278-.642c0-.25.092-.464.278-.642a.953.953 0 01.676-.267c.261 0 .485.089.67.267a.85.85 0 01.285.642.85.85 0 01-.284.642.934.934 0 01-.67.267zm4.456 4.932V38h-1.34v-8.727h1.295v1.363h.113c.205-.443.515-.799.932-1.068.417-.273.955-.409 1.614-.409.59 0 1.108.121 1.55.364.444.238.789.602 1.035 1.09.246.486.37 1.1.37 1.842V38h-1.342v-5.455c0-.685-.178-1.22-.534-1.602-.356-.386-.844-.58-1.466-.58-.428 0-.81.093-1.147.279a1.993 1.993 0 00-.79.813c-.193.356-.29.787-.29 1.295zm11.678 5.432c-.841 0-1.567-.186-2.177-.557a3.737 3.737 0 01-1.403-1.568c-.326-.674-.489-1.459-.489-2.352 0-.894.163-1.682.49-2.364.329-.686.787-1.22 1.374-1.602.591-.387 1.28-.58 2.068-.58.455 0 .904.076 1.347.227a3.34 3.34 0 011.21.739c.364.337.653.784.869 1.34.216.558.324 1.243.324 2.058v.568h-6.727v-1.16h5.364c0-.492-.099-.931-.296-1.317a2.228 2.228 0 00-.83-.915c-.355-.224-.776-.335-1.26-.335-.535 0-.997.132-1.387.397a2.615 2.615 0 00-.892 1.023c-.209.42-.313.871-.313 1.352v.773c0 .66.114 1.218.341 1.676.231.455.551.801.96 1.04.41.235.885.352 1.427.352.352 0 .67-.049.954-.147.288-.103.536-.254.744-.455.209-.205.37-.458.483-.761l1.296.363a2.87 2.87 0 01-.688 1.16 3.344 3.344 0 01-1.193.772 4.424 4.424 0 01-1.596.273zm-65.53 21.363V85h-5.381V64.654h-.15l-5.829 3.654v-4.773l6.302-3.99h5.058zm15.03 26.014c-2.137-.008-3.977-.534-5.518-1.578-1.533-1.044-2.713-2.556-3.542-4.537-.82-1.98-1.226-4.362-1.218-7.146 0-2.776.41-5.142 1.23-7.097.829-1.956 2.01-3.443 3.543-4.462 1.54-1.028 3.376-1.541 5.506-1.541 2.13 0 3.96.513 5.493 1.54 1.541 1.028 2.726 2.52 3.555 4.475.829 1.947 1.239 4.309 1.23 7.085 0 2.792-.414 5.178-1.242 7.159-.82 1.98-1.997 3.492-3.53 4.536-1.533 1.044-3.368 1.566-5.506 1.566zm0-4.462c1.459 0 2.623-.733 3.493-2.2.87-1.466 1.301-3.666 1.293-6.6 0-1.93-.199-3.537-.597-4.822-.39-1.284-.944-2.25-1.665-2.896a3.632 3.632 0 00-2.523-.97c-1.45 0-2.61.726-3.48 2.176-.87 1.45-1.31 3.62-1.318 6.513 0 1.955.195 3.587.584 4.897.398 1.3.957 2.278 1.678 2.933a3.68 3.68 0 002.536.97zm23.097 4.462c-2.137-.008-3.977-.534-5.518-1.578-1.533-1.044-2.714-2.556-3.542-4.537-.82-1.98-1.227-4.362-1.218-7.146 0-2.776.41-5.142 1.23-7.097.829-1.956 2.01-3.443 3.542-4.462 1.541-1.028 3.377-1.541 5.506-1.541 2.13 0 3.961.513 5.494 1.54 1.541 1.028 2.726 2.52 3.555 4.475.828 1.947 1.238 4.309 1.23 7.085 0 2.792-.414 5.178-1.243 7.159-.82 1.98-1.997 3.492-3.53 4.536-1.532 1.044-3.368 1.566-5.506 1.566zm0-4.462c1.459 0 2.623-.733 3.493-2.2.87-1.466 1.3-3.666 1.292-6.6 0-1.93-.198-3.537-.596-4.822-.39-1.284-.945-2.25-1.666-2.896a3.632 3.632 0 00-2.523-.97c-1.45 0-2.61.726-3.48 2.176-.87 1.45-1.309 3.62-1.317 6.513 0 1.955.195 3.587.584 4.897.398 1.3.957 2.278 1.678 2.933.72.646 1.566.97 2.535.97zm27.05-.87v-1.342c0-1.02.215-1.956.646-2.809a5.127 5.127 0 011.901-2.063c.837-.522 1.856-.783 3.058-.783 1.218 0 2.241.257 3.07.77a4.921 4.921 0 011.889 2.064c.431.853.646 1.794.646 2.821v1.342c0 1.02-.215 1.96-.646 2.822a5.031 5.031 0 01-1.902 2.05c-.836.522-1.856.783-3.057.783-1.218 0-2.241-.26-3.07-.783a5.053 5.053 0 01-1.89-2.05 6.22 6.22 0 01-.645-2.822zm3.616-1.342v1.342c0 .589.141 1.144.423 1.666.29.522.812.783 1.566.783s1.268-.257 1.541-.77a3.43 3.43 0 00.423-1.679v-1.342c0-.605-.133-1.168-.398-1.69s-.787-.783-1.566-.783c-.746 0-1.264.26-1.554.783a3.425 3.425 0 00-.435 1.69zM85.25 65.66v-1.342c0-1.027.22-1.968.66-2.821a5.123 5.123 0 011.901-2.063c.837-.514 1.848-.771 3.033-.771 1.226 0 2.254.257 3.082.77a5.037 5.037 0 011.89 2.064c.43.853.646 1.794.646 2.821v1.343c0 1.027-.22 1.967-.66 2.82a5.03 5.03 0 01-1.9 2.052c-.83.505-1.849.758-3.058.758-1.21 0-2.233-.257-3.07-.77a5.164 5.164 0 01-1.89-2.052c-.422-.853-.633-1.79-.633-2.808zm3.642-1.342v1.343c0 .604.141 1.164.423 1.677.29.514.8.771 1.529.771.762 0 1.28-.257 1.553-.77a3.433 3.433 0 00.423-1.678v-1.343a3.68 3.68 0 00-.398-1.69c-.265-.522-.791-.783-1.578-.783-.738 0-1.247.265-1.53.795a3.527 3.527 0 00-.422 1.678zm-2 20.682l17.499-25.455h3.257L90.148 85H86.89z" fill="#242A36"/><path d="M25.676 121h-4.238v-13.091h4.372c1.283 0 2.385.262 3.305.786a5.185 5.185 0 012.116 2.244c.494.972.741 2.137.741 3.496 0 1.364-.249 2.536-.748 3.516a5.253 5.253 0 01-2.147 2.263c-.938.524-2.071.786-3.4.786zm-2.263-1.726h2.154c.998 0 1.826-.187 2.487-.562a3.548 3.548 0 001.483-1.643c.328-.72.492-1.598.492-2.634 0-1.027-.164-1.898-.492-2.614-.324-.716-.808-1.259-1.451-1.63s-1.442-.556-2.397-.556h-2.276v9.639zM33.275 121v-9.818h1.911V121h-1.911zm.965-11.333c-.332 0-.618-.111-.856-.332a1.082 1.082 0 01-.352-.806c0-.315.117-.584.352-.805a1.2 1.2 0 01.856-.339c.333 0 .616.113.85.339.239.221.358.49.358.805 0 .311-.119.58-.358.806a1.195 1.195 0 01-.85.332zm6.634 15.219c-.78 0-1.451-.102-2.014-.306-.558-.205-1.014-.476-1.367-.812a3.41 3.41 0 01-.793-1.106l1.643-.678c.115.188.268.386.46.595.196.213.46.394.793.543.336.149.769.224 1.297.224.724 0 1.323-.177 1.796-.531.473-.349.71-.907.71-1.674v-1.931h-.122a4.36 4.36 0 01-.498.697c-.213.256-.507.477-.882.665-.375.187-.863.281-1.464.281-.776 0-1.474-.181-2.097-.543-.618-.367-1.108-.906-1.47-1.618-.358-.715-.537-1.595-.537-2.639 0-1.044.177-1.939.53-2.685.359-.746.849-1.317 1.47-1.713.623-.401 1.328-.601 2.117-.601.609 0 1.101.102 1.476.307.375.2.667.434.876.703.213.268.377.505.492.709h.14v-1.591h1.874v10.035c0 .844-.196 1.537-.588 2.078-.392.541-.923.942-1.592 1.201-.665.26-1.415.39-2.25.39zm-.02-5.618c.55 0 1.015-.128 1.394-.384.384-.26.674-.63.87-1.112.2-.486.3-1.067.3-1.745 0-.661-.098-1.242-.294-1.745-.196-.503-.484-.895-.863-1.176-.38-.286-.848-.428-1.406-.428-.575 0-1.055.149-1.438.447-.384.294-.674.695-.87 1.202a4.777 4.777 0 00-.287 1.7c0 .643.098 1.208.294 1.694.196.486.485.865.869 1.138.388.272.865.409 1.432.409zM46.868 121v-9.818h1.911V121h-1.911zm.965-11.333a1.22 1.22 0 01-.857-.332 1.082 1.082 0 01-.351-.806c0-.315.117-.584.351-.805.24-.226.525-.339.857-.339.332 0 .616.113.85.339.239.221.358.49.358.805 0 .311-.12.58-.358.806a1.195 1.195 0 01-.85.332zm7.1 1.515v1.534H49.57v-1.534h5.363zm-3.924-2.352h1.91v9.287c0 .371.056.65.167.838.11.183.254.308.428.377.18.064.373.096.582.096.153 0 .288-.011.403-.032l.268-.052.345 1.579c-.11.043-.268.086-.473.128-.204.047-.46.073-.767.077a3.366 3.366 0 01-1.406-.269 2.409 2.409 0 01-1.055-.869c-.268-.392-.402-.884-.402-1.477v-9.683zm7.896 12.387a4.01 4.01 0 01-1.688-.345 2.84 2.84 0 01-1.195-1.016c-.29-.443-.435-.987-.435-1.63 0-.554.107-1.01.32-1.368.213-.358.5-.641.863-.85a4.483 4.483 0 011.214-.473c.448-.107.904-.188 1.368-.243l1.432-.166c.367-.047.633-.122.799-.224.166-.102.25-.268.25-.499v-.044c0-.559-.158-.991-.474-1.298-.31-.307-.775-.46-1.393-.46-.644 0-1.15.143-1.522.428-.366.281-.62.595-.76.94l-1.796-.409c.213-.597.524-1.078.933-1.445a3.778 3.778 0 011.425-.805 5.548 5.548 0 011.694-.256c.392 0 .808.047 1.247.141a3.64 3.64 0 011.24.498c.388.243.705.59.952 1.042.247.448.37 1.029.37 1.745V121h-1.865v-1.342h-.077c-.124.247-.31.49-.556.728a2.956 2.956 0 01-.953.595c-.387.157-.852.236-1.393.236zm.415-1.534c.529 0 .98-.104 1.355-.313.38-.209.667-.482.863-.818.2-.341.3-.705.3-1.093v-1.266c-.068.068-.2.132-.396.192a6.356 6.356 0 01-.658.147 86.32 86.32 0 01-.722.109c-.235.029-.43.055-.588.076-.371.047-.71.126-1.017.237-.302.111-.545.27-.728.479-.18.205-.269.478-.269.818 0 .473.175.831.524 1.074.35.239.795.358 1.336.358zm-.07-9.812l1.496-2.946h2.013l-1.981 2.946H59.25zm7.957-1.962V121h-1.911v-13.091h1.91zm3.482 7.261V121h-1.911v-9.818h1.835v1.598h.121c.226-.52.58-.938 1.061-1.253.486-.315 1.097-.473 1.835-.473.669 0 1.254.141 1.757.422.503.277.893.69 1.17 1.24.277.55.416 1.229.416 2.039V121H75.06v-6.015c0-.712-.185-1.268-.556-1.668-.37-.405-.88-.607-1.527-.607a2.39 2.39 0 00-1.183.287 2.08 2.08 0 00-.812.844c-.196.366-.294.81-.294 1.329zm10.704 6.047a4.01 4.01 0 01-1.687-.345 2.84 2.84 0 01-1.196-1.016c-.29-.443-.434-.987-.434-1.63 0-.554.106-1.01.32-1.368.212-.358.5-.641.862-.85a4.483 4.483 0 011.215-.473 11.85 11.85 0 011.368-.243l1.431-.166c.367-.047.633-.122.8-.224.166-.102.249-.268.249-.499v-.044c0-.559-.158-.991-.473-1.298-.311-.307-.776-.46-1.394-.46-.643 0-1.15.143-1.521.428-.367.281-.62.595-.76.94l-1.797-.409c.213-.597.524-1.078.933-1.445a3.778 3.778 0 011.426-.805 5.548 5.548 0 011.694-.256c.392 0 .807.047 1.246.141a3.64 3.64 0 011.24.498c.388.243.705.59.953 1.042.247.448.37 1.029.37 1.745V121h-1.866v-1.342h-.077a2.7 2.7 0 01-.556.728 2.954 2.954 0 01-.953.595c-.387.157-.852.236-1.393.236zm.416-1.534c.528 0 .98-.104 1.355-.313a2.2 2.2 0 00.863-.818c.2-.341.3-.705.3-1.093v-1.266c-.068.068-.2.132-.396.192a6.362 6.362 0 01-.659.147 86.32 86.32 0 01-.722.109 64.2 64.2 0 00-.588.076c-.37.047-.71.126-1.016.237-.303.111-.546.27-.73.479-.178.205-.267.478-.267.818 0 .473.174.831.524 1.074.349.239.794.358 1.336.358zm14.322-8.501v1.534h-5.363v-1.534h5.363zm-3.925-2.352h1.911v9.287c0 .371.055.65.166.838a.873.873 0 00.429.377c.179.064.373.096.581.096.154 0 .288-.011.403-.032l.268-.052.346 1.579a3.114 3.114 0 01-.473.128c-.205.047-.46.073-.767.077a3.366 3.366 0 01-1.407-.269 2.408 2.408 0 01-1.054-.869c-.269-.392-.403-.884-.403-1.477v-9.683zM97.244 121v-9.818h1.847v1.559h.102c.18-.528.495-.943.946-1.246.456-.307.972-.46 1.547-.46a7.672 7.672 0 01.812.045v1.828a3.344 3.344 0 00-.409-.071 4.013 4.013 0 00-.588-.044c-.452 0-.855.095-1.208.287-.35.188-.627.45-.831.786a2.13 2.13 0 00-.307 1.138V121h-1.911zm8.677.217a4.01 4.01 0 01-1.687-.345 2.839 2.839 0 01-1.195-1.016c-.29-.443-.435-.987-.435-1.63 0-.554.106-1.01.319-1.368.214-.358.501-.641.863-.85a4.49 4.49 0 011.215-.473 11.85 11.85 0 011.368-.243l1.432-.166c.366-.047.632-.122.799-.224.166-.102.249-.268.249-.499v-.044c0-.559-.158-.991-.473-1.298-.311-.307-.776-.46-1.394-.46-.643 0-1.15.143-1.521.428-.366.281-.62.595-.761.94l-1.796-.409c.213-.597.524-1.078.934-1.445a3.773 3.773 0 011.425-.805 5.55 5.55 0 011.694-.256c.392 0 .807.047 1.246.141.443.089.857.255 1.24.498.388.243.706.59.953 1.042.247.448.371 1.029.371 1.745V121H108.9v-1.342h-.077a2.7 2.7 0 01-.556.728 2.949 2.949 0 01-.952.595c-.388.157-.852.236-1.394.236zm.416-1.534c.528 0 .98-.104 1.355-.313a2.2 2.2 0 00.863-.818c.2-.341.3-.705.3-1.093v-1.266c-.068.068-.2.132-.396.192a6.376 6.376 0 01-.658.147c-.248.038-.488.075-.723.109a64.2 64.2 0 00-.588.076c-.37.047-.709.126-1.016.237-.303.111-.546.27-.729.479-.179.205-.268.478-.268.818 0 .473.174.831.524 1.074.349.239.795.358 1.336.358zm7.886-4.513V121h-1.911v-9.818h1.835v1.598h.121c.226-.52.58-.938 1.061-1.253.486-.315 1.098-.473 1.835-.473.669 0 1.255.141 1.758.422.502.277.892.69 1.169 1.24s.416 1.229.416 2.039V121h-1.911v-6.015c0-.712-.186-1.268-.557-1.668-.37-.405-.88-.607-1.527-.607-.443 0-.838.095-1.183.287a2.074 2.074 0 00-.812.844c-.196.366-.294.81-.294 1.329zm15.204-1.591l-1.732.307a2.05 2.05 0 00-.345-.633 1.702 1.702 0 00-.627-.492c-.264-.128-.594-.192-.99-.192-.542 0-.993.121-1.355.364-.363.239-.544.548-.544.927 0 .328.122.592.365.793.242.2.634.364 1.176.492l1.559.358c.904.209 1.577.53 2.02.965.443.435.665.999.665 1.694 0 .588-.17 1.112-.511 1.572-.337.456-.808.814-1.413 1.074-.601.26-1.298.39-2.09.39-1.1 0-1.997-.234-2.691-.703-.695-.473-1.121-1.144-1.279-2.013l1.848-.282c.115.482.351.846.709 1.093.358.243.825.365 1.4.365.626 0 1.127-.13 1.502-.39.375-.264.563-.586.563-.965 0-.307-.115-.565-.346-.774-.225-.209-.573-.366-1.041-.473l-1.662-.364c-.917-.209-1.594-.541-2.033-.997-.435-.456-.652-1.034-.652-1.733 0-.579.162-1.086.486-1.521.324-.435.771-.773 1.342-1.016.571-.247 1.225-.371 1.962-.371 1.062 0 1.897.23 2.506.69.609.456 1.012 1.068 1.208 1.835zm5.966-2.397v1.534h-5.548v-1.534h5.548zM131.366 121v-10.956c0-.614.134-1.123.403-1.528a2.472 2.472 0 011.067-.914 3.414 3.414 0 011.445-.307c.383 0 .711.032.984.096.273.06.475.115.607.167l-.447 1.546c-.09-.025-.205-.055-.345-.089a1.984 1.984 0 00-.512-.058c-.464 0-.796.115-.997.346-.196.23-.294.562-.294.997V121h-1.911zm8.748.198c-.921 0-1.724-.211-2.41-.633a4.268 4.268 0 01-1.598-1.77c-.379-.759-.569-1.645-.569-2.659 0-1.019.19-1.909.569-2.672a4.257 4.257 0 011.598-1.777c.686-.422 1.489-.633 2.41-.633.92 0 1.724.211 2.41.633.686.422 1.218 1.014 1.598 1.777.379.763.569 1.653.569 2.672 0 1.014-.19 1.9-.569 2.659a4.275 4.275 0 01-1.598 1.77c-.686.422-1.49.633-2.41.633zm.006-1.604c.597 0 1.091-.158 1.483-.473.392-.316.682-.735.869-1.259a5.01 5.01 0 00.288-1.733 4.99 4.99 0 00-.288-1.726c-.187-.528-.477-.952-.869-1.272-.392-.319-.886-.479-1.483-.479-.601 0-1.099.16-1.496.479-.392.32-.683.744-.875 1.272a5.085 5.085 0 00-.281 1.726c0 .631.093 1.208.281 1.733.192.524.483.943.875 1.259.397.315.895.473 1.496.473zm5.704 1.406v-9.818h1.847v1.559h.102a2.38 2.38 0 01.946-1.246c.456-.307.972-.46 1.547-.46a7.672 7.672 0 01.812.045v1.828a3.344 3.344 0 00-.409-.071 4.013 4.013 0 00-.588-.044 2.49 2.49 0 00-1.208.287 2.137 2.137 0 00-1.138 1.924V121h-1.911zm5.908 0v-9.818h1.835v1.598h.121a2.54 2.54 0 011.004-1.266c.464-.307 1.02-.46 1.668-.46.656 0 1.206.153 1.649.46.448.307.778.729.991 1.266h.102a2.759 2.759 0 011.119-1.253c.511-.315 1.12-.473 1.828-.473.89 0 1.617.279 2.18.837.566.559.85 1.4.85 2.525V121h-1.912v-6.405c0-.665-.181-1.146-.543-1.444a1.973 1.973 0 00-1.297-.448c-.623 0-1.106.192-1.451.575-.346.38-.518.868-.518 1.464V121h-1.905v-6.526c0-.533-.166-.961-.499-1.285-.332-.324-.765-.486-1.297-.486-.362 0-.697.096-1.004.288a2.112 2.112 0 00-.735.786 2.414 2.414 0 00-.275 1.17V121h-1.911zm17.766.217a4.01 4.01 0 01-1.688-.345 2.839 2.839 0 01-1.195-1.016c-.29-.443-.435-.987-.435-1.63 0-.554.107-1.01.32-1.368.213-.358.5-.641.863-.85a4.483 4.483 0 011.214-.473c.448-.107.903-.188 1.368-.243l1.432-.166c.366-.047.633-.122.799-.224.166-.102.249-.268.249-.499v-.044c0-.559-.158-.991-.473-1.298-.311-.307-.775-.46-1.393-.46-.644 0-1.151.143-1.522.428-.366.281-.62.595-.76.94l-1.797-.409c.214-.597.525-1.078.934-1.445a3.773 3.773 0 011.425-.805 5.55 5.55 0 011.694-.256c.392 0 .808.047 1.246.141.444.089.857.255 1.241.498.387.243.705.59.952 1.042.247.448.371 1.029.371 1.745V121h-1.867v-1.342h-.076c-.124.247-.309.49-.557.728a2.949 2.949 0 01-.952.595c-.388.157-.852.236-1.393.236zm.415-1.534c.528 0 .98-.104 1.355-.313a2.2 2.2 0 00.863-.818c.2-.341.3-.705.3-1.093v-1.266c-.068.068-.2.132-.396.192a6.376 6.376 0 01-.658.147c-.247.038-.488.075-.723.109a64.2 64.2 0 00-.588.076c-.37.047-.709.126-1.016.237-.302.111-.545.27-.729.479-.179.205-.268.478-.268.818 0 .473.175.831.524 1.074.35.239.795.358 1.336.358zm-.07-9.812l1.495-2.946h2.014l-1.982 2.946h-1.527zm10.181 11.327c-.95 0-1.768-.215-2.455-.645a4.278 4.278 0 01-1.572-1.797c-.366-.762-.55-1.636-.55-2.62 0-.998.188-1.877.563-2.64.375-.767.903-1.366 1.585-1.796.682-.431 1.485-.646 2.41-.646.746 0 1.41.138 1.994.415a3.583 3.583 0 011.413 1.151c.362.494.577 1.072.645 1.732h-1.86a2.227 2.227 0 00-.703-1.189c-.362-.332-.848-.498-1.457-.498-.533 0-1 .14-1.4.422-.396.277-.705.673-.927 1.189-.222.511-.332 1.116-.332 1.815 0 .716.108 1.334.326 1.854.217.519.524.922.92 1.208.401.285.872.428 1.413.428.362 0 .69-.066.984-.198.298-.137.548-.33.748-.582a2.18 2.18 0 00.428-.908h1.86a3.607 3.607 0 01-.62 1.701c-.345.498-.807.89-1.387 1.176-.575.285-1.25.428-2.026.428zm5.077-.198v-9.818h1.911V121h-1.911zm.965-11.333c-.332 0-.617-.111-.856-.332a1.084 1.084 0 01-.352-.806c0-.315.118-.584.352-.805.239-.226.524-.339.856-.339.333 0 .616.113.851.339.238.221.358.49.358.805 0 .311-.12.58-.358.806a1.197 1.197 0 01-.851.332zm5.375 11.55a4.014 4.014 0 01-1.688-.345 2.845 2.845 0 01-1.195-1.016c-.29-.443-.435-.987-.435-1.63 0-.554.107-1.01.32-1.368a2.36 2.36 0 01.863-.85 4.483 4.483 0 011.214-.473c.448-.107.904-.188 1.368-.243l1.432-.166c.367-.047.633-.122.799-.224.166-.102.249-.268.249-.499v-.044c0-.559-.157-.991-.473-1.298-.311-.307-.775-.46-1.393-.46-.643 0-1.151.143-1.521.428-.367.281-.62.595-.761.94l-1.796-.409c.213-.597.524-1.078.933-1.445a3.777 3.777 0 011.426-.805 5.54 5.54 0 011.693-.256c.392 0 .808.047 1.247.141a3.64 3.64 0 011.24.498c.388.243.705.59.952 1.042.247.448.371 1.029.371 1.745V121h-1.866v-1.342h-.077c-.124.247-.309.49-.556.728a2.954 2.954 0 01-.953.595c-.387.157-.852.236-1.393.236zm.415-1.534c.529 0 .98-.104 1.355-.313.38-.209.667-.482.863-.818.201-.341.301-.705.301-1.093v-1.266c-.068.068-.2.132-.396.192a6.4 6.4 0 01-.659.147c-.247.038-.488.075-.722.109a56.2 56.2 0 00-.588.076c-.371.047-.71.126-1.017.237-.302.111-.545.27-.728.479-.179.205-.269.478-.269.818 0 .473.175.831.524 1.074.35.239.795.358 1.336.358z" fill="#4FBE79"/></svg>