<svg width="311" height="50" fill="none" xmlns="http://www.w3.org/2000/svg"><path d="M0 8a8 8 0 018-8h295a8 8 0 018 8v34a8 8 0 01-8 8H8a8 8 0 01-8-8V8z" fill="#FFC721"/><path d="M29 35c.36 0 1.69-.607 3.05-1.822m0 0c1.158-1.036 2.336-2.514 2.95-4.433 1.333-4.17-6.667 0-4 3.475.328.428.681.74 1.05.958zm0 0c1.602.948 3.481.096 4.754-.884.39-.299.584-.449.7-.402.116.047.184.314.32.85.434 1.715 1.717 3.099 3.176.868" stroke="#242A36" stroke-width="1.5" stroke-linecap="round" stroke-linejoin="round"/><path d="M40 26v-5.11c0-1.714 0-2.57-.268-3.255-.43-1.101-1.342-1.97-2.497-2.38C36.517 15 35.617 15 33.818 15c-3.148 0-4.722 0-5.98.447-2.02.718-3.615 2.237-4.37 4.164C23 20.809 23 22.309 23 25.309v2.577c0 3.108 0 4.661.848 5.74.244.311.529.583.855.816.367.261.787.438 1.297.558" stroke="#242A36" stroke-width="1.5" stroke-linecap="round" stroke-linejoin="round"/><path d="M23 25a3.333 3.333 0 013.333-3.333c.666 0 1.451.116 2.098-.057a1.67 1.67 0 001.179-1.18c.173-.647.057-1.432.057-2.098A3.333 3.333 0 0133 15" stroke="#242A36" stroke-width="1.5" stroke-linecap="round" stroke-linejoin="round"/><path d="M57.438 31.5V18.41h4.794c.93 0 1.698.152 2.308.46.61.302 1.065.713 1.368 1.233.302.516.454 1.097.454 1.745 0 .546-.1 1.006-.3 1.38a2.49 2.49 0 01-.806.896 3.549 3.549 0 01-1.1.485v.128c.435.022.859.162 1.272.422.418.256.763.62 1.036 1.093s.409 1.048.409 1.726a3.47 3.47 0 01-.473 1.802c-.311.529-.793.949-1.445 1.26-.652.307-1.485.46-2.499.46h-5.018zm1.975-1.694h2.851c.946 0 1.624-.183 2.033-.55.409-.366.614-.824.614-1.374 0-.413-.105-.793-.314-1.138a2.238 2.238 0 00-.895-.824c-.383-.205-.84-.307-1.367-.307h-2.922v4.193zm0-5.734h2.647a2.72 2.72 0 001.195-.255c.358-.17.641-.41.85-.716a1.9 1.9 0 00.32-1.1c0-.54-.19-.995-.57-1.361-.378-.367-.96-.55-1.744-.55h-2.698v3.982zm12.88 7.626c-.967 0-1.8-.207-2.499-.62a4.206 4.206 0 01-1.61-1.758c-.375-.758-.563-1.647-.563-2.665 0-1.006.188-1.892.563-2.66.379-.766.907-1.365 1.585-1.795.682-.43 1.478-.646 2.39-.646.554 0 1.091.092 1.611.275.52.183.987.47 1.4.863.413.392.74.901.978 1.527.239.623.358 1.379.358 2.27v.677h-7.805v-1.432h5.932c0-.503-.102-.948-.307-1.336a2.319 2.319 0 00-.863-.926c-.366-.226-.796-.34-1.29-.34-.538 0-1.007.133-1.407.397-.396.26-.703.601-.92 1.023a2.94 2.94 0 00-.32 1.361v1.119c0 .656.115 1.214.345 1.675.235.46.56.811.978 1.054.418.239.906.358 1.464.358.362 0 .692-.05.99-.153a2.14 2.14 0 00.774-.473c.217-.209.384-.467.499-.773l1.809.326a3.284 3.284 0 01-.78 1.4 3.78 3.78 0 01-1.4.926c-.558.218-1.195.326-1.911.326zm5.13-.198v-1.31l5.317-6.757v-.09h-5.145v-1.661h7.53v1.393L80.01 29.75v.09h5.292v1.66h-7.88zm9.135 3.682v-13.5h1.867v1.591h.16c.11-.204.27-.44.479-.71.209-.267.499-.502.87-.702.37-.205.86-.307 1.47-.307.792 0 1.5.2 2.122.6.622.401 1.11.979 1.463 1.733.358.754.537 1.662.537 2.723s-.177 1.971-.53 2.73c-.354.754-.84 1.335-1.458 1.744-.617.405-1.323.608-2.115.608-.597 0-1.085-.1-1.464-.3-.375-.2-.67-.435-.882-.704a5.326 5.326 0 01-.492-.716h-.115v5.21h-1.912zm1.873-8.591c0 .69.1 1.295.3 1.815.2.52.49.927.87 1.221.38.29.844.435 1.393.435.571 0 1.049-.152 1.432-.454.384-.307.673-.722.87-1.247.2-.524.3-1.114.3-1.77 0-.648-.098-1.23-.294-1.745-.192-.516-.482-.923-.87-1.221-.383-.298-.862-.447-1.438-.447-.554 0-1.022.142-1.406.428-.38.285-.667.684-.863 1.195-.196.512-.294 1.108-.294 1.79zm10.148-8.182V31.5h-1.911V18.41h1.91zm4.428 13.308a4.008 4.008 0 01-1.687-.345 2.85 2.85 0 01-1.196-1.016c-.29-.443-.434-.987-.434-1.63 0-.554.106-1.01.319-1.368a2.36 2.36 0 01.863-.85 4.512 4.512 0 011.215-.473 11.85 11.85 0 011.368-.243l1.432-.166c.366-.047.632-.122.799-.224.166-.102.249-.268.249-.499v-.044c0-.559-.158-.991-.473-1.298-.311-.307-.776-.46-1.394-.46-.643 0-1.15.143-1.521.428-.366.281-.62.595-.761.94l-1.796-.41c.213-.596.524-1.078.933-1.444.414-.37.889-.64 1.426-.805a5.561 5.561 0 011.694-.256c.392 0 .807.047 1.246.14.443.09.857.256 1.24.5.388.242.706.59.953 1.041.247.448.37 1.03.37 1.745v6.52h-1.866v-1.342h-.077a2.7 2.7 0 01-.556.728 2.948 2.948 0 01-.952.595c-.388.157-.853.236-1.394.236zm.416-1.534c.528 0 .98-.104 1.355-.313a2.2 2.2 0 00.863-.818c.2-.341.3-.705.3-1.093v-1.266c-.068.068-.2.132-.396.192a6.197 6.197 0 01-.658.147c-.248.038-.488.075-.723.109l-.588.076a4.735 4.735 0 00-1.016.237c-.303.11-.546.27-.729.48-.179.204-.268.476-.268.817 0 .473.174.831.524 1.074.349.239.795.358 1.336.358zm10.558-8.501v1.534h-5.363v-1.534h5.363zm-3.925-2.352h1.912v9.287c0 .37.055.65.166.837a.866.866 0 00.428.378c.179.064.373.096.582.096.153 0 .287-.011.403-.032l.268-.052.345 1.58a3.205 3.205 0 01-.473.127c-.204.047-.46.073-.767.077a3.363 3.363 0 01-1.406-.269 2.414 2.414 0 01-1.055-.869c-.268-.392-.403-.884-.403-1.476V19.33zm6.951 6.34v5.83h-1.912v-9.818h1.835v1.598h.121a2.81 2.81 0 011.061-1.253c.486-.315 1.098-.473 1.835-.473.669 0 1.255.14 1.758.422.503.277.892.69 1.169 1.24s.416 1.23.416 2.039V31.5h-1.911v-6.015c0-.712-.186-1.268-.556-1.668-.371-.405-.88-.608-1.528-.608-.443 0-.837.096-1.183.288a2.064 2.064 0 00-.811.844c-.196.366-.294.81-.294 1.33zm10.703 6.047a4.008 4.008 0 01-1.687-.345 2.84 2.84 0 01-1.195-1.016c-.29-.443-.435-.987-.435-1.63 0-.554.106-1.01.32-1.368.213-.358.5-.641.862-.85a4.525 4.525 0 011.215-.473 11.85 11.85 0 011.368-.243l1.432-.166c.366-.047.632-.122.799-.224.166-.102.249-.268.249-.499v-.044c0-.559-.158-.991-.473-1.298-.311-.307-.776-.46-1.394-.46-.643 0-1.15.143-1.521.428-.366.281-.62.595-.76.94l-1.797-.41c.213-.596.525-1.078.934-1.444a3.78 3.78 0 011.425-.805 5.566 5.566 0 011.694-.256c.392 0 .807.047 1.246.14.444.09.857.256 1.24.5.388.242.706.59.953 1.041.247.448.371 1.03.371 1.745v6.52h-1.867v-1.342h-.077a2.7 2.7 0 01-.556.728 2.948 2.948 0 01-.952.595c-.388.157-.852.236-1.394.236zm.416-1.534c.528 0 .98-.104 1.355-.313a2.2 2.2 0 00.863-.818c.2-.341.3-.705.3-1.093v-1.266c-.068.068-.2.132-.396.192a6.197 6.197 0 01-.658.147c-.247.038-.488.075-.723.109l-.588.076a4.75 4.75 0 00-1.016.237 1.73 1.73 0 00-.729.48c-.179.204-.268.476-.268.817 0 .473.175.831.524 1.074.349.239.795.358 1.336.358zm-.07-9.812l1.495-2.946h2.014l-1.982 2.946h-1.527zm9.809 14.81v-13.5h1.866v1.592h.16a5.36 5.36 0 01.48-.71c.208-.267.498-.502.869-.702.371-.205.861-.307 1.47-.307.793 0 1.5.2 2.122.6.622.401 1.11.979 1.464 1.733.358.754.537 1.662.537 2.723s-.177 1.971-.531 2.73c-.353.754-.839 1.335-1.457 1.744-.618.405-1.323.608-2.116.608-.596 0-1.084-.1-1.464-.3-.375-.2-.669-.435-.882-.704a5.322 5.322 0 01-.492-.716h-.115v5.21h-1.911zm1.873-8.59c0 .69.1 1.295.3 1.815.2.52.49.927.869 1.221.38.29.844.435 1.394.435.571 0 1.048-.152 1.432-.454.383-.307.673-.722.869-1.247.2-.524.301-1.114.301-1.77 0-.648-.098-1.23-.295-1.745-.191-.516-.481-.923-.869-1.221-.383-.298-.863-.447-1.438-.447-.554 0-1.023.142-1.406.428-.38.285-.667.684-.863 1.195-.196.512-.294 1.108-.294 1.79zm12.372 5.107c-.921 0-1.724-.21-2.41-.633a4.265 4.265 0 01-1.598-1.77c-.379-.759-.569-1.645-.569-2.66 0-1.018.19-1.908.569-2.671a4.257 4.257 0 011.598-1.777c.686-.422 1.489-.633 2.41-.633.92 0 1.724.21 2.41.633.686.422 1.218 1.014 1.598 1.777.379.763.569 1.653.569 2.672 0 1.014-.19 1.9-.569 2.659a4.272 4.272 0 01-1.598 1.77c-.686.422-1.49.633-2.41.633zm.006-1.604c.597 0 1.091-.158 1.483-.473.392-.316.682-.735.87-1.26a5.026 5.026 0 00.287-1.732c0-.626-.096-1.201-.287-1.726-.188-.528-.478-.952-.87-1.272-.392-.32-.886-.479-1.483-.479-.601 0-1.099.16-1.495.48-.392.319-.684.743-.876 1.271a5.08 5.08 0 00-.281 1.726 5.1 5.1 0 00.281 1.732c.192.525.484.944.876 1.26.396.315.894.473 1.495.473zm9.379 1.598c-.792 0-1.5-.203-2.122-.608-.618-.409-1.103-.99-1.457-1.744-.35-.759-.524-1.669-.524-2.73s.177-1.969.53-2.723c.358-.754.848-1.332 1.47-1.732.623-.4 1.328-.601 2.116-.601.61 0 1.1.102 1.47.307.375.2.665.434.87.703.208.268.37.505.485.71h.116v-4.865h1.911V31.5h-1.867v-1.528h-.16a5.073 5.073 0 01-.498.716c-.213.269-.507.503-.882.703-.375.2-.861.3-1.458.3zm.422-1.63c.55 0 1.014-.145 1.394-.435.383-.294.673-.7.869-1.22.2-.52.3-1.126.3-1.816 0-.682-.098-1.279-.294-1.79-.196-.511-.483-.91-.862-1.195-.38-.286-.849-.428-1.407-.428-.575 0-1.054.149-1.438.447-.383.298-.673.705-.869 1.22-.192.517-.288 1.098-.288 1.746 0 .656.098 1.246.294 1.77.196.525.486.94.869 1.247.388.302.865.454 1.432.454zm6.171 5.12v-13.5h1.866v1.591h.16a5.34 5.34 0 01.479-.71c.209-.267.499-.502.87-.702.37-.205.86-.307 1.47-.307.792 0 1.5.2 2.122.6.622.401 1.11.979 1.464 1.733.358.754.537 1.662.537 2.723s-.177 1.971-.531 2.73c-.354.754-.839 1.335-1.457 1.744-.618.405-1.324.608-2.116.608-.597 0-1.085-.1-1.464-.3-.375-.2-.669-.435-.882-.704a5.322 5.322 0 01-.492-.716h-.115v5.21h-1.911zm1.872-8.591c0 .69.101 1.295.301 1.815.2.52.49.927.869 1.221.379.29.844.435 1.394.435.571 0 1.048-.152 1.431-.454.384-.307.674-.722.87-1.247.2-.524.3-1.114.3-1.77 0-.648-.098-1.23-.294-1.745-.192-.516-.481-.923-.869-1.221-.384-.298-.863-.447-1.438-.447-.554 0-1.023.142-1.407.428-.379.285-.667.684-.863 1.195-.196.512-.294 1.108-.294 1.79zm12.373 5.107c-.921 0-1.724-.21-2.41-.633a4.265 4.265 0 01-1.598-1.77c-.38-.759-.569-1.645-.569-2.66 0-1.018.189-1.908.569-2.671a4.257 4.257 0 011.598-1.777c.686-.422 1.489-.633 2.41-.633.92 0 1.723.21 2.409.633a4.257 4.257 0 011.598 1.777c.38.763.569 1.653.569 2.672 0 1.014-.189 1.9-.569 2.659a4.265 4.265 0 01-1.598 1.77c-.686.422-1.489.633-2.409.633zm.006-1.604c.597 0 1.091-.158 1.483-.473.392-.316.682-.735.869-1.26a5.002 5.002 0 00.288-1.732 4.99 4.99 0 00-.288-1.726c-.187-.528-.477-.952-.869-1.272-.392-.32-.886-.479-1.483-.479-.601 0-1.099.16-1.496.48-.392.319-.684.743-.875 1.271a5.079 5.079 0 00-.282 1.726 5.1 5.1 0 00.282 1.732c.191.525.483.944.875 1.26.397.315.895.473 1.496.473zm5.704 1.406v-9.818h1.847v1.56h.102c.179-.529.495-.944.946-1.247.456-.307.972-.46 1.547-.46a8.214 8.214 0 01.812.044v1.829a3.424 3.424 0 00-.409-.07 3.894 3.894 0 00-.588-.045 2.49 2.49 0 00-1.208.287 2.13 2.13 0 00-.831.787 2.123 2.123 0 00-.307 1.137V31.5h-1.911zm8.677.217a4.008 4.008 0 01-1.687-.345 2.844 2.844 0 01-1.196-1.016c-.289-.443-.434-.987-.434-1.63 0-.554.106-1.01.319-1.368a2.36 2.36 0 01.863-.85 4.5 4.5 0 011.215-.473 11.85 11.85 0 011.368-.243l1.431-.166c.367-.047.633-.122.799-.224.167-.102.25-.268.25-.499v-.044c0-.559-.158-.991-.473-1.298-.311-.307-.776-.46-1.394-.46-.643 0-1.15.143-1.521.428-.367.281-.62.595-.761.94l-1.796-.41c.213-.596.524-1.078.933-1.444.414-.37.889-.64 1.426-.805a5.561 5.561 0 011.694-.256c.392 0 .807.047 1.246.14.443.09.857.256 1.24.5.388.242.705.59.953 1.041.247.448.37 1.03.37 1.745v6.52h-1.866v-1.342h-.077a2.7 2.7 0 01-.556.728 2.959 2.959 0 01-.952.595c-.388.157-.853.236-1.394.236zm.416-1.534c.528 0 .98-.104 1.355-.313a2.2 2.2 0 00.863-.818c.2-.341.3-.705.3-1.093v-1.266c-.068.068-.2.132-.396.192a6.163 6.163 0 01-.659.147c-.247.038-.487.075-.722.109l-.588.076a4.735 4.735 0 00-1.016.237c-.303.11-.546.27-.729.48-.179.204-.268.476-.268.817 0 .473.174.831.524 1.074.349.239.794.358 1.336.358zm9.739 4.999v-13.5h1.866v1.591h.16a5.44 5.44 0 01.479-.71c.209-.267.499-.502.87-.702.37-.205.86-.307 1.47-.307.792 0 1.5.2 2.122.6.622.401 1.11.979 1.464 1.733.358.754.537 1.662.537 2.723s-.177 1.971-.531 2.73c-.354.754-.839 1.335-1.457 1.744-.618.405-1.323.608-2.116.608-.597 0-1.085-.1-1.464-.3-.375-.2-.669-.435-.882-.704a5.322 5.322 0 01-.492-.716h-.115v5.21h-1.911zm1.873-8.591c0 .69.1 1.295.3 1.815.2.52.49.927.869 1.221.38.29.844.435 1.394.435.571 0 1.048-.152 1.432-.454.383-.307.673-.722.869-1.247.2-.524.3-1.114.3-1.77 0-.648-.098-1.23-.294-1.745-.192-.516-.481-.923-.869-1.221-.384-.298-.863-.447-1.438-.447-.554 0-1.023.142-1.407.428-.379.285-.666.684-.862 1.195-.196.512-.294 1.108-.294 1.79zm12.372 5.107c-.921 0-1.724-.21-2.41-.633a4.265 4.265 0 01-1.598-1.77c-.379-.759-.569-1.645-.569-2.66 0-1.018.19-1.908.569-2.671a4.257 4.257 0 011.598-1.777c.686-.422 1.489-.633 2.41-.633.92 0 1.723.21 2.409.633.687.422 1.219 1.014 1.598 1.777.38.763.569 1.653.569 2.672 0 1.014-.189 1.9-.569 2.659a4.258 4.258 0 01-1.598 1.77c-.686.422-1.489.633-2.409.633zm.006-1.604c.597 0 1.091-.158 1.483-.473.392-.316.682-.735.869-1.26a5.002 5.002 0 00.288-1.732 4.99 4.99 0 00-.288-1.726c-.187-.528-.477-.952-.869-1.272-.392-.32-.886-.479-1.483-.479-.601 0-1.099.16-1.496.48-.392.319-.684.743-.875 1.271a5.079 5.079 0 00-.282 1.726 5.1 5.1 0 00.282 1.732c.191.525.483.944.875 1.26.397.315.895.473 1.496.473zm9.379 1.598c-.792 0-1.5-.203-2.122-.608-.618-.409-1.104-.99-1.457-1.744-.35-.759-.525-1.669-.525-2.73s.177-1.969.531-2.723c.358-.754.848-1.332 1.47-1.732.622-.4 1.328-.601 2.116-.601.609 0 1.099.102 1.47.307.375.2.665.434.869.703.209.268.371.505.486.71h.115v-4.865h1.911V31.5h-1.866v-1.528h-.16a5.073 5.073 0 01-.498.716c-.213.269-.507.503-.882.703-.375.2-.861.3-1.458.3zm.422-1.63c.55 0 1.014-.145 1.393-.435.384-.294.674-.7.87-1.22.2-.52.3-1.126.3-1.816 0-.682-.098-1.279-.294-1.79-.196-.511-.483-.91-.863-1.195-.379-.286-.848-.428-1.406-.428-.575 0-1.055.149-1.438.447-.384.298-.673.705-.87 1.22-.191.517-.287 1.098-.287 1.746 0 .656.098 1.246.294 1.77.196.525.486.94.869 1.247.388.302.865.454 1.432.454zm8.082-4.392v5.83h-1.912v-9.818h1.835v1.598h.121a2.81 2.81 0 011.061-1.253c.486-.315 1.098-.473 1.835-.473.669 0 1.255.14 1.758.422.503.277.892.69 1.169 1.24s.416 1.23.416 2.039V31.5h-1.911v-6.015c0-.712-.186-1.268-.556-1.668-.371-.405-.88-.608-1.528-.608-.443 0-.837.096-1.183.288a2.064 2.064 0 00-.811.844c-.196.366-.294.81-.294 1.33zm7.846 5.83v-9.818h1.911V31.5h-1.911zm.965-11.333c-.332 0-.618-.11-.856-.333a1.079 1.079 0 01-.352-.805c0-.315.117-.584.352-.805.238-.226.524-.34.856-.34.333 0 .616.114.85.34.239.221.358.49.358.805 0 .311-.119.58-.358.805a1.19 1.19 0 01-.85.333zm4.275 8.003l-.012-2.333h.332l3.912-4.155h2.288l-4.461 4.73h-.301l-1.758 1.758zm-1.757 3.33V18.41h1.911V31.5h-1.911zm6.2 0l-3.516-4.666 1.317-1.336 4.545 6.002h-2.346zm5.676.217a4.008 4.008 0 01-1.687-.345 2.85 2.85 0 01-1.196-1.016c-.289-.443-.434-.987-.434-1.63 0-.554.106-1.01.319-1.368.214-.358.501-.641.863-.85a4.512 4.512 0 011.215-.473 11.85 11.85 0 011.368-.243l1.432-.166c.366-.047.632-.122.799-.224.166-.102.249-.268.249-.499v-.044c0-.559-.158-.991-.473-1.298-.311-.307-.776-.46-1.394-.46-.643 0-1.15.143-1.521.428-.366.281-.62.595-.761.94l-1.796-.41c.213-.596.524-1.078.934-1.444a3.78 3.78 0 011.425-.805 5.561 5.561 0 011.694-.256c.392 0 .807.047 1.246.14.443.09.857.256 1.24.5.388.242.706.59.953 1.041.247.448.37 1.03.37 1.745v6.52h-1.866v-1.342h-.077a2.7 2.7 0 01-.556.728 2.948 2.948 0 01-.952.595c-.388.157-.852.236-1.394.236zm.416-1.534c.528 0 .98-.104 1.355-.313a2.2 2.2 0 00.863-.818c.2-.341.3-.705.3-1.093v-1.266c-.068.068-.2.132-.396.192a6.197 6.197 0 01-.658.147c-.248.038-.488.075-.723.109l-.588.076a4.735 4.735 0 00-1.016.237c-.303.11-.546.27-.729.48-.179.204-.268.476-.268.817 0 .473.174.831.524 1.074.349.239.795.358 1.336.358zm7.886-4.512V31.5h-1.911v-9.818h1.835v1.598h.121a2.81 2.81 0 011.061-1.253c.486-.315 1.097-.473 1.835-.473.669 0 1.255.14 1.757.422.503.277.893.69 1.17 1.24.277.55.416 1.23.416 2.039V31.5h-1.912v-6.015c0-.712-.185-1.268-.556-1.668-.37-.405-.88-.608-1.527-.608-.443 0-.838.096-1.183.288a2.073 2.073 0 00-.812.844c-.196.366-.294.81-.294 1.33zm7.847 5.829v-9.818h1.911V31.5h-1.911zm.965-11.333c-.332 0-.618-.11-.856-.333a1.079 1.079 0 01-.352-.805c0-.315.117-.584.352-.805.238-.226.524-.34.856-.34.333 0 .616.114.85.34.239.221.358.49.358.805 0 .311-.119.58-.358.805a1.19 1.19 0 01-.85.333zm5.375 11.55a4.01 4.01 0 01-1.688-.345 2.84 2.84 0 01-1.195-1.016c-.29-.443-.435-.987-.435-1.63 0-.554.107-1.01.32-1.368.213-.358.5-.641.863-.85a4.506 4.506 0 011.214-.473c.448-.107.904-.188 1.368-.243l1.432-.166c.366-.047.633-.122.799-.224.166-.102.249-.268.249-.499v-.044c0-.559-.158-.991-.473-1.298-.311-.307-.775-.46-1.393-.46-.644 0-1.151.143-1.522.428-.366.281-.62.595-.76.94l-1.796-.41c.213-.596.524-1.078.933-1.444a3.78 3.78 0 011.425-.805 5.566 5.566 0 011.694-.256c.392 0 .808.047 1.247.14.443.09.856.256 1.24.5.387.242.705.59.952 1.041.247.448.371 1.03.371 1.745v6.52h-1.867v-1.342h-.076c-.124.247-.309.49-.557.728a2.948 2.948 0 01-.952.595c-.388.157-.852.236-1.393.236zm.415-1.534c.528 0 .98-.104 1.355-.313a2.2 2.2 0 00.863-.818c.2-.341.301-.705.301-1.093v-1.266c-.069.068-.201.132-.397.192a6.197 6.197 0 01-.658.147 80.04 80.04 0 01-.722.109l-.589.076a4.75 4.75 0 00-1.016.237c-.302.11-.545.27-.729.48-.179.204-.268.476-.268.817 0 .473.175.831.524 1.074.35.239.795.358 1.336.358z" fill="#242A36"/></svg>